<svg width="147" height="92" viewBox="0 0 147 92" fill="none" xmlns="http://www.w3.org/2000/svg">
<g clip-path="url(#clip0_67_11729)">
<path fill-rule="evenodd" clip-rule="evenodd" d="M74.3002 66.15C69.409 66.15 64.6427 64.54 61.0665 61.4525C58.809 59.5038 56.9127 57.1438 55.679 54.365C54.549 51.82 53.929 49.2788 53.8665 46.1213C53.789 42.1163 55.1915 37.7475 57.3627 34.6438C59.3965 31.7375 62.0727 29.29 65.464 27.7475C70.9127 25.2688 77.1065 25.1538 82.5465 27.735C84.9177 28.86 86.6052 30.0938 88.3802 31.86C91.3202 34.785 94.2577 39.905 94.1727 46.0613C94.0865 52.3488 91.3515 57.1688 88.3202 60.2025C84.8165 63.71 79.719 66.1513 74.299 66.15H74.3002ZM95.6277 42.94C95.219 38.6125 100.134 38.2675 100.611 42.7125C100.801 44.4763 99.944 46.1313 98.239 46.105C96.6965 46.0813 95.7727 44.4813 95.6277 42.94ZM51.6827 41.09L51.2115 44.1375C51.4802 44.3675 51.704 44.5025 51.9627 44.7025L51.7965 45.9875L48.119 43.2013C47.919 43.0438 47.7465 42.9375 47.4427 43.0338L47.6865 41.2325L52.764 39.5125C52.664 40.9513 52.5952 40.7975 52.1827 40.9263C52.0015 40.9825 51.8565 41.035 51.6827 41.0913V41.09ZM53.2402 38.315C53.429 38.1238 55.264 34.4288 55.4652 33.94C55.2602 33.75 54.844 33.5413 54.5502 33.46C54.4115 33.8675 53.1577 36.365 52.929 36.6788L49.6402 34.9675C49.5102 35.0788 49.5152 35.1138 49.429 35.2913C49.364 35.425 49.3165 35.5213 49.249 35.6525C49.1265 35.8938 49.0015 36.075 48.9352 36.32C49.594 36.2988 50.4827 36.875 51.1902 37.25C51.8352 37.5913 52.624 38.0625 53.2402 38.3163V38.315ZM96.3565 31.5238C96.204 31.85 95.864 31.9763 95.4702 32.1888L93.4452 33.2838C93.144 33.4388 92.7377 33.7088 92.4165 33.8163C92.4977 34.1013 94.749 38.445 94.949 38.6888L95.7902 38.2L94.8452 36.3725C94.6065 35.9175 94.0602 34.9638 93.9177 34.5288L94.6402 34.1463C94.8877 34.39 95.6565 36.2163 95.9627 36.5463L96.8027 36.11C96.6865 35.7588 96.359 35.1838 96.1865 34.8563C95.974 34.4513 95.7415 34.0525 95.5627 33.6563C95.7427 33.5175 96.029 33.3588 96.259 33.2788C96.4352 33.4625 97.8452 36.2825 98.1127 36.7625L98.964 36.2813L96.509 31.48C96.4602 31.4338 96.4377 31.335 96.3552 31.525L96.3565 31.5238ZM54.6152 29.32L57.2277 26.38C57.089 26.1438 56.7565 25.9025 56.5402 25.7163C56.4615 25.7613 56.5115 25.7125 56.399 25.8175L52.8965 29.725C53.1002 29.8288 52.8115 29.6938 52.9802 29.7638C53.159 29.8375 53.209 29.8075 53.4202 29.9813L55.5452 32.055C55.8215 32.3363 56.129 32.5675 56.399 32.8325C56.5265 32.6725 56.694 32.545 56.8377 32.3788C56.9827 32.21 57.099 32.06 57.249 31.9L56.2002 30.82L57.0877 29.8063C57.3815 29.4625 57.779 29.1663 58.0015 28.7688L57.2427 28.1088L55.8815 29.6213C55.7265 29.7588 55.574 29.9363 55.4702 30.0938C55.2365 30 54.859 29.525 54.6152 29.3188V29.32ZM90.324 28.0125L90.6377 25.06L90.0265 24.4538C89.8302 24.2575 89.6302 24.1288 89.4202 23.925L89.274 24.2538C89.1927 24.42 87.9152 25.6663 87.8252 25.7463C87.4727 26.0588 86.4115 27.065 86.1477 27.4013C86.284 27.5888 86.4352 27.6975 86.5902 27.8313C86.7477 27.9663 86.889 28.1638 87.0802 28.255L89.3665 26.1063L88.944 29.7525L92.4015 28.965L90.9965 30.8975C90.8377 31.115 90.6465 31.3025 90.554 31.5625C90.7227 31.6913 90.8615 31.8213 91.0315 31.97C91.194 32.1138 91.3115 32.28 91.5302 32.385L93.6865 29.5063C93.8615 29.2763 94.319 28.7288 94.389 28.5313C94.2152 28.36 94.0427 28.2325 93.8552 28.0638C93.719 27.9413 93.4915 27.6913 93.3865 27.5738C92.7815 27.5513 91.179 28.0663 90.4477 28.1775L90.314 28.1925L90.3252 28.0113L90.324 28.0125ZM61.2202 22.535L59.6702 23.42C60.054 23.9063 59.964 23.81 59.9727 24.5225L60.0502 28.68C60.329 28.5875 60.9065 28.2438 61.1577 28.06L61.1527 27.0725L63.8415 25.5525C64.0915 25.7175 64.3765 25.9475 64.6402 26.0625C64.8677 25.9675 65.5665 25.5863 65.7152 25.4188C65.4927 25.2138 64.909 24.875 64.6365 24.7025C63.9852 24.2925 61.5252 22.6225 61.2202 22.5338V22.535ZM81.2852 20.6663C79.404 21.0138 78.844 22.8263 79.6815 24.1775C80.8552 26.07 84.409 26.695 85.409 24.6475C86.509 22.3963 83.694 20.2213 81.2852 20.6663ZM71.334 24.075C71.3027 23.4938 71.3415 19.9875 71.259 19.7C71.2165 19.5513 71.134 19.4438 71.1027 19.3413C72.0452 19.31 75.3627 19.1825 76.0102 19.4475C76.5927 19.6863 76.999 20.2088 77.0202 21.0388C77.0515 22.2138 76.389 22.42 76.0865 22.66C76.2165 22.92 76.449 23.18 76.6165 23.4038C76.719 23.54 77.0377 23.9138 77.089 24.07L75.6777 24.0963C75.5465 23.8725 75.359 23.6325 75.1852 23.395C74.5852 22.5763 75.1102 22.7638 72.6165 22.7863L72.624 24.1238C72.2615 24.12 71.6502 24.1888 71.3352 24.0738L71.334 24.075ZM74.4202 74.7925C82.5052 74.7925 90.2515 70.8963 95.2752 65.4163C95.4452 65.23 95.4902 65.1338 95.6927 64.9325L96.509 63.9488C96.6752 63.7425 96.7502 63.6388 96.9027 63.4425C97.164 63.1088 97.3977 62.7788 97.634 62.4338C100.77 57.86 102.794 52.3138 102.793 46.36C102.793 41.8938 101.911 37.6275 100.193 34.0288C99.2615 32.0788 98.7865 31.2763 97.614 29.5263C97.2827 29.0325 95.6652 26.9463 95.2465 26.5525C94.894 26.2213 94.6977 25.9813 94.3877 25.6725L92.5415 23.9788C91.3765 22.9425 89.7352 21.8463 88.3865 21.0525C84.5827 18.8125 79.344 17.2075 74.5415 17.2075H73.6415C68.004 17.2075 61.9827 19.2138 57.6652 22.2838C56.9327 22.805 56.3065 23.28 55.6465 23.8063C55.099 24.2425 54.649 24.7175 54.2527 25.0525C53.3415 25.8238 52.1102 27.2888 51.329 28.2488C50.194 29.6438 48.7652 31.9738 47.979 33.6625C46.584 36.66 45.2215 41.035 45.2252 44.9213L45.209 45.4613C45.1115 49.8763 46.1452 54.53 47.8477 58.0525C49.4215 61.3075 50.8477 63.4013 53.254 65.9675C55.3552 68.21 58.5215 70.5863 62.0302 72.1938C65.8702 73.9525 69.7665 74.7938 74.4215 74.7938L74.4202 74.7925Z" fill="white"/>
<path fill-rule="evenodd" clip-rule="evenodd" d="M55.0586 48.2938L61.2673 48.2826L61.2748 60.1938C58.0998 57.6476 55.2323 52.0601 55.0586 48.2938ZM61.2611 31.7988L61.2748 43.5563L55.0673 43.5651C55.4298 40.9801 56.1848 38.7401 57.2848 36.7851C58.1611 35.2263 59.8911 32.8063 61.2611 31.7988ZM82.4323 63.1563C82.3398 63.2438 82.5673 63.2426 82.2886 63.2226L82.4311 63.1088C84.2348 61.7451 84.0348 59.0438 82.4098 57.9301C81.7936 57.5076 81.2511 57.3088 80.4211 57.2951C79.3223 57.2776 77.9898 57.3751 76.9286 57.2776C76.6936 57.0151 76.5348 56.8176 76.9211 56.5326C77.3398 56.3126 82.6048 56.6951 84.0273 56.3326C85.8336 55.8726 87.2448 54.4151 87.6136 52.5351C88.2198 49.4413 85.9311 46.7188 82.5798 46.7188C82.1323 46.7188 77.3098 46.7701 77.1036 46.6751C76.9173 46.5901 76.8198 46.3226 76.9711 46.0963C77.1273 45.8601 77.3948 45.9063 77.7186 45.9076C79.9823 45.9176 82.5386 46.1213 84.4973 45.3388C85.5886 44.9026 86.4761 44.2963 87.2661 43.4876C89.2086 41.4988 90.0323 38.6863 89.3498 35.9276C88.9811 34.4363 88.7036 34.3513 88.2311 33.3338C88.5311 33.3901 89.3786 34.6438 89.5298 34.8513C92.7998 39.2976 93.9023 45.1763 92.5736 50.5951C91.1311 56.4776 87.0436 60.9038 82.4311 63.1576L82.4323 63.1563ZM73.2948 33.4701C74.1486 33.4513 77.2648 33.5726 77.7936 33.3538C78.2998 33.1438 78.3686 32.5951 78.8886 32.1676C79.7961 31.4201 82.0786 32.1088 83.0323 31.6926C83.5098 31.4838 83.9511 30.9563 83.8573 30.2188C83.7673 29.5063 83.2936 29.2888 82.7673 29.0126C78.7111 26.8851 73.8948 26.3226 69.3298 27.4738C68.5286 27.6751 66.5198 28.2963 65.9898 28.6851V43.5213C66.5411 43.6938 70.7673 43.5326 71.7536 43.5688C71.6948 43.8288 71.4748 44.2276 71.3686 44.5676C70.8761 46.1363 71.1611 46.9576 71.3848 48.2813L65.9898 48.3113L65.9923 63.3088C66.2436 63.5151 67.6073 64.0126 68.0311 64.1476C70.4773 64.9288 73.0461 65.2813 75.6798 65.0351C76.8123 64.9288 79.6636 64.4738 80.3761 63.9551C81.7023 62.9888 81.3936 60.8988 79.8148 60.4651C78.5336 60.1126 76.7173 60.9376 74.9036 59.6176C72.3361 57.7476 72.9848 53.4538 76.3286 52.6463C77.4361 52.3788 80.5761 52.5301 81.9198 52.5301C82.3323 52.5301 82.9811 52.6426 83.1111 52.2813C83.3248 51.6876 82.6661 51.7226 82.2798 51.7238C81.3198 51.7263 80.3598 51.7238 79.3998 51.7238C77.3261 51.7238 76.0511 51.8463 74.4748 50.8638C71.1911 48.8188 71.1486 43.7363 74.7323 41.6951C76.3948 40.7476 77.8936 40.9951 79.8198 40.9951C80.5536 40.9951 81.8661 41.1676 82.3423 40.7238C83.0098 40.1026 82.5986 39.1051 81.7873 39.0051C81.2548 38.9401 74.2073 38.9988 73.2148 38.9913C73.3436 38.3376 73.7736 37.8088 74.1086 37.4088C74.7173 36.6851 75.0361 36.5688 75.7386 36.5726C76.5586 36.5751 77.3786 36.5726 78.1986 36.5726C79.0186 36.5726 80.2136 36.7426 80.2886 36.2088C80.3998 35.4276 78.9436 35.6876 78.3786 35.6876C77.5586 35.6876 76.7386 35.6863 75.9186 35.6876C75.2823 35.6876 75.3061 35.7651 74.9036 35.4351C74.3323 34.9663 73.4836 34.1813 73.2936 33.4688L73.2948 33.4701ZM74.2998 66.1501C79.7198 66.1501 84.8173 63.7088 88.3211 60.2026C91.3523 57.1688 94.0873 52.3476 94.1736 46.0613C94.2586 39.9051 91.3211 34.7838 88.3811 31.8601C86.6048 30.0938 84.9173 28.8601 82.5473 27.7351C77.1073 25.1538 70.9136 25.2688 65.4648 27.7476C62.0736 29.2901 59.3961 31.7376 57.3636 34.6438C55.1923 37.7476 53.7898 42.1163 53.8673 46.1213C53.9286 49.2788 54.5498 51.8201 55.6798 54.3651C56.9123 57.1438 58.8098 59.5038 61.0673 61.4526C64.6436 64.5401 69.4098 66.1501 74.3011 66.1501H74.2998Z" fill="black"/>
<path fill-rule="evenodd" clip-rule="evenodd" d="M69.9802 35.0087C70.8477 34.9725 70.8652 35.605 71.434 35.51C71.5665 34.8437 71.329 33.2375 70.9677 32.8325C70.8327 32.7312 70.3065 32.9125 69.9352 31.965C72.4802 31.1312 72.0465 34.7112 74.2515 36.0175C74.099 36.4 73.184 36.6137 72.4052 38.5812C72.0077 39.585 71.3477 40.645 69.9352 40.1837C70.6377 38.6487 71.0315 40.2912 71.3652 38.0775C71.424 37.6862 71.5277 36.9787 71.4165 36.6462C70.7702 36.5737 70.7627 37.3037 69.8027 37.1237C68.4677 36.8725 68.6065 35.0662 69.9815 35.0087H69.9802ZM73.0927 30.2025C73.3127 30.0787 76.944 30.155 77.7202 30.15C78.8202 30.1425 78.279 30.7937 78.2115 30.83C78.0165 30.9362 74.3227 30.8775 73.5777 30.8812C72.5652 30.8862 72.9252 30.2962 73.0915 30.2025H73.0927ZM75.5002 28.465C76.1852 28.2287 76.5002 29.2412 75.8902 29.4725C75.1977 29.7337 74.7765 28.715 75.5002 28.465ZM77.6702 28.4712C78.3715 28.2 78.6627 29.2337 78.0502 29.4737C77.374 29.74 76.9465 28.75 77.6702 28.4712ZM73.2552 28.4912C73.959 28.195 74.259 29.2137 73.7152 29.4562C73.389 29.6025 73.0715 29.4462 72.964 29.215C72.8927 29.0637 72.894 28.9112 72.9477 28.7487C73.0302 28.5012 73.0752 28.5662 73.2552 28.49V28.4912ZM73.2952 33.47C74.149 33.4512 77.2652 33.5725 77.794 33.3537C78.3002 33.1437 78.369 32.595 78.889 32.1675C79.7965 31.42 82.079 32.1087 83.0327 31.6925C83.5102 31.4837 83.9515 30.9562 83.8577 30.2187C83.7677 29.5062 83.294 29.2887 82.7677 29.0125C78.7115 26.885 73.8952 26.3225 69.3302 27.4737C68.529 27.675 66.5202 28.2962 65.9902 28.685V43.5212C66.5415 43.6937 70.7677 43.5325 71.754 43.5687C71.6952 43.8287 71.4752 44.2275 71.369 44.5675C70.8765 46.1362 71.1615 46.9575 71.3852 48.2812L65.9902 48.3112L65.9927 63.3087C66.244 63.515 67.6077 64.0125 68.0315 64.1475C70.4777 64.9287 73.0465 65.2812 75.6802 65.035C76.8127 64.9287 79.664 64.4737 80.3765 63.955C81.7027 62.9887 81.394 60.8987 79.8152 60.465C78.534 60.1125 76.7177 60.9375 74.904 59.6175C72.3365 57.7475 72.9852 53.4537 76.329 52.6462C77.4365 52.3787 80.5765 52.53 81.9202 52.53C82.3327 52.53 82.9815 52.6425 83.1115 52.2812C83.3252 51.6875 82.6665 51.7225 82.2802 51.7237C81.3202 51.7262 80.3602 51.7237 79.4002 51.7237C77.3265 51.7237 76.0515 51.8462 74.4752 50.8637C71.1915 48.8187 71.149 43.7362 74.7327 41.695C76.3952 40.7475 77.894 40.995 79.8202 40.995C80.554 40.995 81.8665 41.1675 82.3427 40.7237C83.0102 40.1025 82.599 39.105 81.7877 39.005C81.2552 38.94 74.2077 38.9987 73.2152 38.9912C73.344 38.3375 73.774 37.8087 74.109 37.4087C74.7177 36.685 75.0365 36.5687 75.739 36.5725C76.559 36.575 77.379 36.5725 78.199 36.5725C79.019 36.5725 80.214 36.7425 80.289 36.2087C80.4002 35.4275 78.944 35.6875 78.379 35.6875C77.559 35.6875 76.739 35.6862 75.919 35.6875C75.2827 35.6875 75.3065 35.765 74.904 35.435C74.3327 34.9662 73.484 34.1812 73.294 33.4687L73.2952 33.47Z" fill="white"/>
<path fill-rule="evenodd" clip-rule="evenodd" d="M74.42 74.7923C69.765 74.7923 65.8687 73.9511 62.0287 72.1923C58.5212 70.5861 55.355 68.2086 53.2525 65.9661C50.8462 63.3998 49.42 61.3061 47.8463 58.0511C46.1438 54.5286 45.11 49.8748 45.2075 45.4598L45.2237 44.9198C45.2212 41.0336 46.5825 36.6586 47.9775 33.6611C48.7637 31.9723 50.1925 29.6423 51.3275 28.2473C52.1087 27.2873 53.3388 25.8223 54.2513 25.0511C54.6475 24.7161 55.0975 24.2411 55.645 23.8048C56.305 23.2786 56.93 22.8036 57.6637 22.2823C61.9812 19.2123 68.0025 17.2061 73.64 17.2061H74.54C79.3438 17.2061 84.5812 18.8111 88.385 21.0511C89.7337 21.8448 91.375 22.9423 92.54 23.9773L94.3862 25.6711C94.6962 25.9811 94.8925 26.2198 95.245 26.5511C95.6637 26.9436 97.2812 29.0298 97.6125 29.5248C98.785 31.2748 99.26 32.0773 100.191 34.0273C101.91 37.6261 102.791 41.8911 102.791 46.3586C102.791 52.3123 100.769 57.8586 97.6325 62.4323C97.3962 62.7773 97.1612 63.1073 96.9012 63.4411C96.7475 63.6373 96.6725 63.7411 96.5075 63.9473L95.6912 64.9311C95.49 65.1311 95.445 65.2286 95.2738 65.4148C90.25 70.8948 82.505 74.7911 74.4188 74.7911L74.42 74.7923ZM44 44.3448V47.6548L44.1688 49.2498C44.225 49.7848 44.2962 50.3211 44.38 50.8336C45.2362 56.0586 47.6425 61.4723 51.0837 65.3748C55.97 70.9161 61.6988 74.3573 69.2138 75.6186L72.4613 75.9986H75.5387C75.5987 75.9736 75.47 75.9898 75.6838 75.9561C75.7488 75.9461 75.8525 75.9411 75.92 75.9373C76.05 75.9298 76.18 75.9211 76.3075 75.9111C76.5862 75.8886 76.86 75.8636 77.1375 75.8361C78.6338 75.6836 80.275 75.3873 81.7012 75.0036C87.0075 73.5748 91.7225 70.7898 95.2725 67.1511C97.7075 64.6561 99.6663 62.0136 101.161 58.7573C104.18 52.1786 103.731 47.9748 104 47.2711V44.7261C103.941 44.5748 103.746 42.0248 103.673 41.5298C102.924 36.5523 100.874 31.6911 97.8537 27.7848C97.0675 26.7673 96.2387 25.8136 95.3312 24.9061C92.8712 22.4461 90.24 20.4848 87.0088 18.9473C83.6275 17.3386 79.8937 16.3073 76.1 16.0648C76.0275 16.0598 75.9263 16.0586 75.8575 16.0486L75.655 15.9973H72.345C72.1637 16.0723 71.785 16.0711 71.5825 16.0873C71.305 16.1098 71.0087 16.1386 70.75 16.1661C69.1087 16.3398 67.8438 16.5961 66.245 17.0023C64.425 17.4648 62.6437 18.1661 61.07 18.9061C59.0887 19.8373 57.2637 21.0198 55.615 22.2711C53.815 23.6386 52.5525 24.9773 51.08 26.6148C48.415 29.5786 46.0338 34.3236 45.0063 38.2411C44.5288 40.0611 44.1838 41.9973 44.0675 43.8961L44.0175 44.2948C44.015 44.3073 44.0075 44.3261 44.0012 44.3423L44 44.3448Z" fill="black"/>
<path fill-rule="evenodd" clip-rule="evenodd" d="M82.4314 63.1088V63.1563C87.0452 60.9013 91.1327 56.475 92.5752 50.5938C93.9039 45.1763 92.8014 39.2963 89.5314 34.85C89.3789 34.6438 88.5327 33.39 88.2327 33.3325C88.7052 34.3513 88.9827 34.4363 89.3514 35.9263C90.0339 38.685 89.2102 41.4963 87.2677 43.4863C86.4777 44.295 85.5902 44.9013 84.4989 45.3375C82.5389 46.12 79.9827 45.9163 77.7202 45.9063C77.3964 45.905 77.1289 45.8588 76.9727 46.095C76.8227 46.3225 76.9189 46.5888 77.1052 46.6738C77.3114 46.7688 82.1339 46.7175 82.5814 46.7175C85.9327 46.7175 88.2214 49.4413 87.6152 52.5338C87.2464 54.415 85.8352 55.8713 84.0289 56.3313C82.6064 56.6938 77.3414 56.31 76.9227 56.5313C76.5377 56.8163 76.6952 57.0138 76.9302 57.2763C77.9914 57.3725 79.3239 57.2763 80.4227 57.2938C81.2539 57.3075 81.7952 57.5063 82.4114 57.9288C84.0352 59.0425 84.2352 61.7438 82.4327 63.1075L82.4314 63.1088Z" fill="white"/>
<path fill-rule="evenodd" clip-rule="evenodd" d="M55.0586 48.2937C55.2311 52.06 58.0986 57.6462 61.2748 60.1937L61.2673 48.2825L55.0586 48.2937Z" fill="white"/>
<path fill-rule="evenodd" clip-rule="evenodd" d="M61.2611 31.7988C59.8911 32.8063 58.1611 35.2276 57.2849 36.7851C56.1861 38.7401 55.4299 40.9801 55.0674 43.5651L61.2749 43.5563L61.2611 31.7988Z" fill="white"/>
<path fill-rule="evenodd" clip-rule="evenodd" d="M90.4477 28.1776L90.2402 28.2463L90.3252 28.0113L90.6389 25.0588L90.0277 24.4526C89.8314 24.2563 89.6314 24.1276 89.4214 23.9238L89.2752 24.2526C89.1939 24.4188 87.9164 25.6651 87.8264 25.7451C87.4739 26.0576 86.4127 27.0638 86.1489 27.4001C86.2852 27.5876 86.4364 27.6963 86.5914 27.8301C86.7489 27.9651 86.8902 28.1626 87.0814 28.2538L89.3677 26.1051L88.9452 29.7513L92.4027 28.9638L90.9977 30.8963C90.8389 31.1138 90.6477 31.3013 90.5552 31.5613C90.7239 31.6901 90.8627 31.8201 91.0327 31.9688C91.1952 32.1126 91.3127 32.2788 91.5314 32.3838L93.6877 29.5051C93.8627 29.2751 94.3202 28.7276 94.3902 28.5301C94.2164 28.3588 94.0439 28.2313 93.8564 28.0626C93.7202 27.9401 93.4927 27.6901 93.3877 27.5726C92.7827 27.5501 91.1802 28.0651 90.4489 28.1763L90.4477 28.1776Z" fill="black"/>
<path fill-rule="evenodd" clip-rule="evenodd" d="M72.6161 21.7688C72.5973 21.3675 72.5186 20.7138 72.6348 20.3488C73.2698 20.3463 73.9023 20.3325 74.5398 20.33C75.2036 20.3288 75.7473 20.3188 75.7498 21.04C75.7523 21.7625 75.1911 21.7338 74.5398 21.75C73.9211 21.7638 73.2323 21.7775 72.6161 21.7688ZM71.3336 24.075C71.6486 24.19 72.2611 24.1225 72.6223 24.125L72.6148 22.7875C75.1098 22.765 74.5848 22.5775 75.1836 23.3963C75.3573 23.6325 75.5448 23.8725 75.6761 24.0975L77.0873 24.0713C77.0361 23.915 76.7173 23.5413 76.6148 23.405C76.4473 23.1825 76.2148 22.9225 76.0848 22.6613C76.3886 22.4213 77.0498 22.215 77.0186 21.04C76.9961 20.2113 76.5911 19.6875 76.0086 19.4488C75.3611 19.1838 72.0436 19.3113 71.1011 19.3425C71.1323 19.445 71.2148 19.5525 71.2573 19.7013C71.3398 19.9888 71.3011 23.495 71.3323 24.0763L71.3336 24.075Z" fill="black"/>
<path fill-rule="evenodd" clip-rule="evenodd" d="M69.9337 31.9651C70.3062 32.9113 70.8325 32.7313 70.9662 32.8326C71.3275 33.2388 71.565 34.8451 71.4325 35.5101C70.8637 35.6038 70.8462 34.9713 69.9787 35.0088C68.6037 35.0676 68.465 36.8726 69.8 37.1238C70.76 37.3038 70.7675 36.5751 71.4137 36.6463C71.5237 36.9776 71.4212 37.6863 71.3625 38.0776C71.0287 40.2901 70.6362 38.6488 69.9325 40.1838C71.3437 40.6451 72.0037 39.5863 72.4025 38.5813C73.1812 36.6138 74.0962 36.4001 74.2487 36.0176C72.0437 34.7101 72.4787 31.1313 69.9325 31.9651H69.9337Z" fill="black"/>
<path fill-rule="evenodd" clip-rule="evenodd" d="M97.6385 40.9424C99.5398 40.3099 100.344 44.1874 98.6223 44.6999C96.7248 45.2649 95.836 41.5424 97.6385 40.9424ZM95.6273 42.9399C95.7735 44.4812 96.696 46.0799 98.2385 46.1049C99.9435 46.1312 100.801 44.4762 100.611 42.7124C100.134 38.2674 95.2173 38.6137 95.6273 42.9399Z" fill="black"/>
<path fill-rule="evenodd" clip-rule="evenodd" d="M81.5925 21.7813C82.5787 21.51 83.64 22.1288 84.0525 22.6288C84.7187 23.4375 84.2337 24.5363 83.345 24.7488C82.36 24.9838 81.2375 24.3638 80.8837 23.8763C80.2525 23.0075 80.7062 22.025 81.5925 21.7813ZM81.285 20.6663C79.4037 21.0138 78.8437 22.8263 79.6812 24.1775C80.855 26.07 84.4087 26.695 85.4087 24.6475C86.5087 22.3963 83.6937 20.2213 81.285 20.6663Z" fill="black"/>
<path fill-rule="evenodd" clip-rule="evenodd" d="M96.356 31.5237C96.2035 31.85 95.8635 31.9762 95.4698 32.1887L93.4448 33.2837C93.1435 33.4387 92.7373 33.7087 92.416 33.8162C92.4973 34.1012 94.7485 38.445 94.9485 38.6887L95.7898 38.2L94.8448 36.3725C94.606 35.9175 94.0598 34.9637 93.9173 34.5287L94.6398 34.1462C94.8873 34.39 95.656 36.2162 95.9623 36.5462L96.8023 36.11C96.686 35.7587 96.3585 35.1837 96.186 34.8562C95.9735 34.4512 95.741 34.0525 95.5623 33.6562C95.7423 33.5175 96.0285 33.3587 96.2585 33.2787C96.4348 33.4625 97.8448 36.2825 98.1123 36.7625L98.9635 36.2812L96.5085 31.48L96.3548 31.525L96.356 31.5237Z" fill="black"/>
<path fill-rule="evenodd" clip-rule="evenodd" d="M61.0887 23.8012C61.2987 23.8999 62.7324 24.8224 62.8174 24.9399C62.5974 25.1124 61.3237 25.8437 61.1199 25.8949L61.0887 23.7999V23.8012ZM59.6699 23.4199C60.0537 23.9062 59.9637 23.8099 59.9724 24.5224L60.0499 28.6799C60.3287 28.5874 60.9062 28.2437 61.1574 28.0599L61.1524 27.0724L63.8412 25.5524C64.0912 25.7174 64.3762 25.9474 64.6399 26.0624C64.8674 25.9674 65.5662 25.5862 65.7149 25.4187C65.4924 25.2137 64.9087 24.8749 64.6362 24.7024C63.9849 24.2924 61.5249 22.6224 61.2199 22.5337L59.6699 23.4187V23.4199Z" fill="black"/>
<path fill-rule="evenodd" clip-rule="evenodd" d="M50.4749 41.505L50.5949 41.4462C50.6049 41.5575 50.6236 41.4737 50.5961 41.6162C50.5749 41.7325 50.5686 41.685 50.5249 41.7412L50.2924 43.4062C50.0186 43.2762 49.7161 43.0075 49.4636 42.8162C49.2074 42.6225 48.8349 42.3937 48.6111 42.16C48.7824 42.0112 50.2799 41.5525 50.4749 41.505ZM51.6824 41.09C51.8561 41.035 52.0024 40.9812 52.1824 40.925C52.5949 40.7962 52.6636 40.95 52.7636 39.5112L47.6861 41.2312L47.4424 43.0325C47.7461 42.9375 47.9186 43.0437 48.1186 43.2L51.7961 45.9862L51.9624 44.7012C51.7036 44.5012 51.4799 44.365 51.2111 44.1362L51.6824 41.0887V41.09Z" fill="black"/>
<path fill-rule="evenodd" clip-rule="evenodd" d="M57.2277 26.3801C57.089 26.1438 56.7565 25.9026 56.5402 25.7163C56.4615 25.7613 56.5115 25.7126 56.399 25.8176L52.8965 29.7251C53.1002 29.8288 52.8115 29.6938 52.9802 29.7638C53.159 29.8376 53.209 29.8076 53.4202 29.9813L55.5452 32.0551C55.8215 32.3363 56.129 32.5676 56.399 32.8326C56.5265 32.6726 56.694 32.5451 56.8377 32.3788C56.9827 32.2101 57.099 32.0601 57.249 31.9001L56.2002 30.8201L57.0877 29.8063C57.3815 29.4626 57.779 29.1663 58.0015 28.7688L57.2427 28.1088L55.8815 29.6213C55.7265 29.7588 55.574 29.9363 55.4702 30.0938C55.2365 30.0001 54.859 29.5251 54.6152 29.3188L57.2277 26.3788V26.3801Z" fill="black"/>
<path fill-rule="evenodd" clip-rule="evenodd" d="M53.2401 38.315C53.4288 38.1237 55.2638 34.4287 55.4651 33.94C55.2601 33.75 54.8438 33.5412 54.5501 33.46C54.4113 33.8675 53.1576 36.365 52.9288 36.6787L49.6401 34.9675C49.5101 35.0787 49.5151 35.1137 49.4288 35.2912C49.3638 35.425 49.3163 35.5212 49.2488 35.6525C49.1263 35.8937 49.0013 36.075 48.9351 36.32C49.5938 36.2987 50.4826 36.875 51.1901 37.25C51.8351 37.5912 52.6238 38.0625 53.2401 38.3162V38.315Z" fill="black"/>
<path fill-rule="evenodd" clip-rule="evenodd" d="M81.5925 21.7812C80.705 22.025 80.2513 23.0075 80.8838 23.8762C81.2375 24.3637 82.3613 24.9837 83.345 24.7487C84.2338 24.5362 84.7188 23.4387 84.0525 22.6287C83.6413 22.1287 82.5788 21.51 81.5925 21.7812Z" fill="white"/>
<path fill-rule="evenodd" clip-rule="evenodd" d="M97.6389 40.9426C95.8352 41.5426 96.7239 45.2663 98.6227 44.7001C100.345 44.1876 99.5414 40.3088 97.6389 40.9426Z" fill="white"/>
<path fill-rule="evenodd" clip-rule="evenodd" d="M72.6162 21.7687C73.2312 21.7762 73.92 21.7637 74.54 21.75C75.1912 21.735 75.7537 21.7625 75.75 21.04C75.7462 20.3187 75.2037 20.3287 74.54 20.33C73.9025 20.3312 73.2712 20.345 72.635 20.3487C72.5187 20.7137 72.5975 21.3675 72.6162 21.7687Z" fill="white"/>
<path fill-rule="evenodd" clip-rule="evenodd" d="M73.0923 30.2025C72.926 30.2963 72.566 30.8863 73.5785 30.8813C74.3235 30.8775 78.0173 30.9363 78.2123 30.83C78.2798 30.7938 78.821 30.1425 77.721 30.15C76.9448 30.155 73.3123 30.0788 73.0935 30.2025H73.0923Z" fill="black"/>
<path fill-rule="evenodd" clip-rule="evenodd" d="M50.5251 41.7413C50.5501 41.5551 50.6201 41.5013 50.4751 41.5051C50.2801 41.5526 48.7826 42.0113 48.6113 42.1601C48.8363 42.3938 49.2076 42.6226 49.4638 42.8163C49.7163 43.0076 50.0201 43.2763 50.2926 43.4063L50.5251 41.7413Z" fill="white"/>
<path fill-rule="evenodd" clip-rule="evenodd" d="M61.1201 25.895C61.3239 25.8438 62.5976 25.1125 62.8176 24.94C62.7326 24.8225 61.2989 23.8988 61.0889 23.8013L61.1201 25.8963V25.895Z" fill="white"/>
<path fill-rule="evenodd" clip-rule="evenodd" d="M77.6702 28.4713C76.9465 28.7513 77.374 29.74 78.0502 29.4738C78.6627 29.2338 78.3715 28.2 77.6702 28.4713Z" fill="black"/>
<path fill-rule="evenodd" clip-rule="evenodd" d="M73.2551 28.4913C73.0751 28.5663 73.0301 28.5025 72.9476 28.75C72.8939 28.9125 72.8926 29.065 72.9639 29.2163C73.0726 29.4475 73.3889 29.6025 73.7151 29.4575C74.2589 29.215 73.9576 28.1963 73.2551 28.4925V28.4913Z" fill="black"/>
<path fill-rule="evenodd" clip-rule="evenodd" d="M75.4998 28.4649C74.776 28.7149 75.196 29.7336 75.8898 29.4724C76.501 29.2424 76.1848 28.2286 75.4998 28.4649Z" fill="black"/>
<path fill-rule="evenodd" clip-rule="evenodd" d="M50.5251 41.7413C50.5688 41.685 50.5751 41.7325 50.5963 41.6163C50.6226 41.4738 50.6038 41.5575 50.5951 41.4463L50.4751 41.505C50.6201 41.5013 50.5501 41.5563 50.5251 41.7413Z" fill="#858584"/>
<path fill-rule="evenodd" clip-rule="evenodd" d="M90.4475 28.1775L90.3138 28.1925L90.3238 28.0125L90.2388 28.2462L90.4475 28.1775Z" fill="#6D6C6A"/>
<path fill-rule="evenodd" clip-rule="evenodd" d="M96.3564 31.5238L96.5102 31.4788C96.4614 31.4326 96.4389 31.3338 96.3564 31.5238Z" fill="#898989"/>
<path fill-rule="evenodd" clip-rule="evenodd" d="M82.4323 63.1561V63.1086L82.2886 63.2224C82.5673 63.2424 82.3398 63.2436 82.4323 63.1561Z" fill="#7B7B7B"/>
</g>
<defs>
<clipPath id="clip0_67_11729">
<rect width="60" height="60" fill="white" transform="translate(44 16)"/>
</clipPath>
</defs>
</svg>
