<svg width="147" height="92" viewBox="0 0 147 92" fill="none" xmlns="http://www.w3.org/2000/svg">
<path d="M51.2789 42.1801H52.6127L51.9674 40.4651L51.2789 42.1801ZM49.8848 43.8755L51.8281 39.2717H52.334L54.2814 43.8956H53.2617L52.8158 42.7375H51.0716L50.6176 43.8956L49.8848 43.8755ZM54.5601 43.649L54.4804 42.8136C54.866 43.1637 55.3653 43.363 55.8863 43.3746C56.1106 43.3896 56.3339 43.3324 56.5233 43.2112C56.6384 43.1151 56.7106 42.9773 56.724 42.8281C56.7374 42.6789 56.691 42.5304 56.5949 42.4154C56.25 42.1274 55.8561 41.9036 55.4322 41.7547C55.1644 41.6595 54.9318 41.4853 54.7655 41.2551C54.5991 41.0249 54.5066 40.7496 54.5004 40.4657C54.492 40.2882 54.5235 40.1111 54.5923 39.9473C54.6612 39.7834 54.7658 39.6371 54.8985 39.5188C55.1436 39.3577 55.4189 39.2478 55.7077 39.1958C55.9966 39.1438 56.2929 39.1507 56.5789 39.2162C56.7662 39.2506 56.9491 39.3054 57.1244 39.3795L57.2022 40.1749C57.0197 40.0391 56.8203 39.9281 56.6087 39.8445C55.9758 39.6056 55.3026 39.769 55.3026 40.31C55.3026 40.5766 55.4739 40.7595 55.8281 40.9388C56.6247 41.3365 57.0226 41.5076 57.3137 41.8739C57.5121 42.1376 57.6046 42.466 57.573 42.7944C57.5412 43.1228 57.3877 43.4275 57.1425 43.6484C56.7809 43.9013 56.3443 44.0248 55.9037 43.9988C55.4334 43.9982 54.9708 43.8781 54.5601 43.649ZM58.9648 43.8596V39.8168C58.5006 39.8293 58.0372 39.8652 57.5764 39.9241L57.628 39.2516H61.1884L61.2398 39.9241C60.7774 39.864 60.312 39.8282 59.8458 39.8168V43.8755L58.9648 43.8596ZM63.5929 43.4018C64.3128 43.4018 64.9668 42.8249 64.9668 41.5476C64.9841 41.2464 64.9353 40.945 64.8238 40.6646C64.7123 40.3842 64.5409 40.1315 64.3215 39.9241C64.11 39.7711 63.854 39.6915 63.5929 39.6976C62.6328 39.6976 62.2188 40.5889 62.2188 41.5471C62.2188 42.8521 62.8719 43.4172 63.5929 43.4172V43.4018ZM63.5929 43.9629C63.1116 43.9795 62.6364 43.8521 62.2283 43.597C61.82 43.3419 61.4972 42.9709 61.3015 42.5314C61.1057 42.0918 61.0458 41.6039 61.1295 41.1302C61.2131 40.6564 61.4364 40.2184 61.7709 39.8723C62.1053 39.5263 62.5356 39.2879 63.0066 39.1878C63.4775 39.0876 63.9677 39.1303 64.4142 39.3104C64.8606 39.4905 65.2431 39.7997 65.5125 40.1984C65.7821 40.5971 65.9261 41.0671 65.9264 41.5482C65.9488 41.8647 65.9045 42.1824 65.7965 42.4809C65.6885 42.7793 65.5191 43.0518 65.2993 43.2809C65.0795 43.5099 64.814 43.6904 64.5201 43.8107C64.2263 43.931 63.9103 43.9884 63.5929 43.9793V43.9629ZM66.6396 43.8601V39.2722H67.1215L69.8895 42.4154V39.2717H70.5425V43.8755H70.0577L67.2978 40.7282V43.8755L66.6396 43.8601ZM73.0118 43.8601L73.526 39.2722H74.0002L75.6488 42.4991L77.2428 39.2722H77.717L78.2348 43.8961H77.2927L77.0299 41.0431L75.7315 43.7091H75.3027L73.9842 41.075L73.7174 43.8961L73.0118 43.8601ZM80.017 42.1647H81.3541L80.6809 40.4657L80.017 42.1647ZM78.6286 43.8601L80.5683 39.2722H81.0743L83.0334 43.876H81.9979L81.552 42.718H79.8078L79.3537 43.876L78.6286 43.8601ZM84.3159 41.3427C84.4381 41.3648 84.5621 41.3754 84.6862 41.3745C85.4425 41.3745 85.6262 40.9409 85.6262 40.5787C85.6262 40.0094 85.2281 39.7829 84.6491 39.7829H84.3184L84.3159 41.3427ZM83.4274 43.8755V39.2917C83.7721 39.2493 84.1192 39.2294 84.4665 39.2321C84.8319 39.2266 85.1961 39.2763 85.5465 39.3795C85.7505 39.4175 85.9409 39.508 86.0993 39.642C86.2578 39.7759 86.3785 39.9488 86.4496 40.1436C86.5207 40.3383 86.5398 40.5483 86.5052 40.7527C86.4704 40.9571 86.383 41.1489 86.2515 41.3093C86.0585 41.544 85.7966 41.7124 85.5027 41.7907L87.1276 43.8755H86.0601L84.6101 41.8857H84.3113V43.875L83.4274 43.8755ZM88.2065 43.8755V39.8168C87.7422 39.8292 87.2789 39.865 86.8181 39.9241L86.8695 39.2516H90.4258L90.4774 39.9241C90.015 39.8637 89.5499 39.8279 89.0837 39.8168V43.8755H88.2065ZM91.098 39.2717H91.9783V43.8755H91.098V39.2717ZM92.8859 43.8956V39.2717H93.3837L96.1518 42.4149V39.2717H96.8048V43.8755H96.3189L93.5574 40.7282V43.8755L92.8859 43.8956Z" fill="black"/>
<path d="M129.802 33.8432C129.634 33.5719 129.395 33.3512 129.111 33.2048C128.827 33.0583 128.508 32.9915 128.189 33.0114H82.668C82.0895 32.9673 81.5084 33.0513 80.9661 33.2577C80.4239 33.464 79.9339 33.7874 79.5313 34.2049C79.2113 34.5402 78.9428 34.9211 78.7349 35.3352C78.3605 36.0077 78.0894 36.4891 76.843 36.4891H70.2004C68.9539 36.4891 68.6829 36.0077 68.3085 35.3352C68.1005 34.9211 67.8321 34.5402 67.512 34.2049C67.1095 33.7874 66.6195 33.464 66.0772 33.2577C65.535 33.0513 64.9539 32.9673 64.3753 33.0114H18.8416C18.5211 32.9772 18.1975 33.0366 17.9101 33.1826C17.6228 33.3286 17.384 33.5548 17.2229 33.8338C17.0617 34.1127 16.9851 34.4324 17.0024 34.7541C17.0196 35.0757 17.13 35.3854 17.32 35.6455L18.1428 37.0101C18.2896 37.2745 18.4979 37.4996 18.7503 37.6665C19.0026 37.8334 19.2914 37.9371 19.5924 37.9688C19.7897 37.983 19.9794 38.0509 20.1409 38.1653C20.3023 38.2796 20.4294 38.4358 20.5082 38.6172L21.2281 39.8867C21.3819 40.2275 21.6216 40.5226 21.9239 40.743C22.2261 40.9634 22.5805 41.1015 22.9523 41.1439C23.3503 41.2153 23.6892 41.2466 24.171 42.12C24.6528 42.9934 25.3655 44.2609 27.0702 44.7742L44.0502 49.7238C45.8186 50.2967 46.2845 50.9492 46.8377 51.7651C47.6111 52.9525 48.8142 53.7952 50.1952 54.1165L66.3417 58.4934C66.9198 58.6609 67.5319 58.6727 68.1161 58.5273C68.7001 58.3819 69.2352 58.0846 69.667 57.6656L72.594 54.8806C72.9921 54.4828 73.2512 54.3513 73.494 54.3513C73.7367 54.3513 73.9958 54.4988 74.398 54.8806L77.329 57.6656C77.7614 58.0822 78.2962 58.3777 78.8792 58.522C79.4623 58.6662 80.0733 58.6545 80.6503 58.4877L96.7968 54.1108C98.1781 53.7878 99.3818 52.9457 100.158 51.7594C100.704 50.9635 101.158 50.2952 102.946 49.7181L119.949 44.7778C121.666 44.264 122.375 42.9755 122.844 42.1236C123.314 41.2718 123.641 41.2204 124.015 41.1526C124.396 41.1161 124.76 40.9798 125.071 40.7577C125.382 40.5355 125.63 40.2352 125.787 39.8872L126.507 38.6177C126.587 38.4358 126.714 38.2791 126.877 38.1647C127.039 38.0504 127.229 37.9828 127.427 37.9693C127.728 37.9376 128.017 37.8339 128.269 37.667C128.522 37.5002 128.73 37.275 128.877 37.0106L129.7 35.6461C129.876 35.3821 129.979 35.0757 129.997 34.7587C130.015 34.4416 129.948 34.1256 129.802 33.8432ZM98.7118 37.5799V45.5381H48.3182V37.5799H98.7118ZM80.6431 57.2521C79.4007 57.2521 78.9704 56.1855 78.652 55.3511C78.2921 54.4001 76.2985 48.1373 75.7446 46.4141H78.2299C79.5797 48.6861 82.0212 52.7807 83.0887 54.4289C83.5024 55.157 84.0893 55.7719 84.7974 56.2194C80.9651 57.2469 81.061 57.2521 80.6431 57.2521ZM86.5212 55.6594C85.1271 55.6594 84.3985 54.5851 83.9501 53.8889C83.0378 52.4607 80.9712 49.0266 79.4218 46.4285H82.1817C83.9181 48.278 87.6021 52.1781 89.0476 53.6264C89.4477 54.051 89.9064 54.4168 90.4098 54.7126C87.0523 55.6039 87.0363 55.6434 86.515 55.6434L86.5212 55.6594ZM92.1606 54.1592C91.0772 54.1592 90.3207 53.4399 89.7711 52.8979C88.5004 51.6048 85.4701 48.4215 83.5901 46.4321H86.6167C88.5364 47.8444 92.9649 51.0874 94.7013 52.2731C95.2216 52.6296 95.7902 52.9097 96.39 53.105C92.4871 54.1396 92.5905 54.1432 92.1564 54.1432L92.1606 54.1592ZM99.2656 51.1588C98.7638 51.8992 98.3975 52.2648 97.5568 52.2648C96.7322 52.2079 95.9415 51.915 95.2789 51.4213C93.8391 50.4385 90.4997 48.0191 88.3492 46.4275H91.9333C96.3382 48.6238 98.1857 49.6128 99.4522 49.9724C99.6583 50.0345 99.8686 50.0811 100.082 50.1117C99.7782 50.4309 99.5029 50.7758 99.2589 51.1424L99.2656 51.1588ZM100.603 49.1252C99.5951 49.1252 98.285 48.461 94.2304 46.4275H98.1652L103.667 47.8321C104.042 47.9318 104.387 48.0114 104.711 48.0787C101.616 48.9619 101.146 49.1093 100.597 49.1093L100.603 49.1252ZM111.355 46.1408C108.102 47.0877 107.576 47.2947 106.656 47.2947C105.727 47.2541 104.807 47.0977 103.916 46.8292L99.5792 45.7149V44.1689L111.355 46.1408ZM114.717 45.1646C113.678 45.4215 112.726 45.3357 111.188 45.0732L99.5792 43.1317V41.8986L118.561 44.0456L114.717 45.1646ZM121.886 41.6073C121.738 41.8739 121.591 42.1288 121.432 42.3672C120.77 43.2627 120.36 43.2149 118.325 42.9837L99.6075 40.8772V39.7043L121.212 40.9697L122.256 41.0334C122.114 41.2086 121.986 41.3949 121.874 41.5903L121.886 41.6073ZM125.549 38.0777L124.944 39.1361C124.319 40.1549 124.004 40.1389 122.157 40.0095L99.5823 38.6737V37.7386H125.76C125.682 37.8468 125.613 37.9607 125.549 38.0777ZM128.738 35.0814L128.144 36.072C127.746 36.7203 127.567 36.7203 126.153 36.7203H79.1452C79.647 36.1475 79.7746 35.5464 80.316 35.0054C80.614 34.6887 80.9809 34.4448 81.3883 34.2923C81.7957 34.1398 82.2326 34.0828 82.6655 34.1258H128.19C128.312 34.1114 128.436 34.1288 128.55 34.1762C128.664 34.2236 128.763 34.2995 128.839 34.3966C128.883 34.5074 128.898 34.6278 128.883 34.7462C128.868 34.8647 128.823 34.9772 128.751 35.0732L128.738 35.0814ZM68.7281 57.006C68.9841 56.6007 69.1912 56.1667 69.3452 55.7128C69.7154 54.7367 71.7825 48.2524 72.3719 46.4136H74.6699C75.2592 48.2518 77.3263 54.7367 77.6967 55.7128C77.8506 56.1667 78.0578 56.6007 78.3136 57.006C78.2422 56.9546 78.1743 56.8945 78.1029 56.8349L75.1878 54.0775C74.9941 53.8197 74.743 53.6104 74.4545 53.4664C74.1658 53.3222 73.8477 53.2472 73.525 53.2472C73.2024 53.2472 72.8842 53.3222 72.5957 53.4664C72.307 53.6104 72.056 53.8197 71.8622 54.0775L68.9471 56.8349C68.8659 56.8965 68.7986 56.9561 68.7266 57.008L68.7281 57.006ZM62.2407 56.2102C62.9482 55.7606 63.5358 55.1462 63.9531 54.4197C65.0166 52.7525 67.4575 48.6778 68.8078 46.4049H71.293C70.7434 48.1275 68.744 54.3909 68.3856 55.3445C68.0668 56.1798 67.641 57.2454 66.3945 57.2454C65.9724 57.2536 66.0681 57.2495 62.2407 56.2179V56.2102ZM56.6255 54.69C57.1287 54.3942 57.5873 54.0284 57.9877 53.6038C59.4331 52.1652 63.121 48.2642 64.8535 46.4336H67.6133C66.064 49.0318 63.9973 52.4658 63.085 53.894C62.6428 54.5902 61.9101 55.6645 60.514 55.6645C59.992 55.6444 59.9762 55.605 56.6229 54.6977L56.6255 54.69ZM50.6517 53.0973C51.2503 52.9022 51.8177 52.6221 52.3363 52.2654C54.0729 51.072 58.5013 47.8367 60.4209 46.4244H63.4364C61.5563 48.4136 58.526 51.6212 57.2512 52.8943C56.7133 53.4352 55.9529 54.1556 54.8616 54.1556C54.4595 54.1438 54.5428 54.1396 50.6523 53.0854L50.6517 53.0973ZM46.9494 50.1091C47.1635 50.0781 47.375 50.0315 47.5823 49.9699C48.8447 49.6036 50.6928 48.6213 55.0973 46.4249H58.6813C56.5108 48.0176 53.1936 50.4359 51.7517 51.4187C51.0901 51.9117 50.3009 52.2044 49.4779 52.2623C48.6335 52.2623 48.2832 51.896 47.7654 51.1562C47.5273 50.7796 47.2554 50.4253 46.953 50.0978L46.9494 50.1091ZM42.3296 48.0757C42.652 48.0078 42.9981 47.9282 43.373 47.829L48.8808 46.4326H52.8038C48.7537 48.4661 47.4435 49.1304 46.4315 49.1304C45.886 49.1103 45.416 48.9634 42.3337 48.0638L42.3296 48.0757ZM47.4482 44.1792V45.7149L43.119 46.8292C42.2284 47.0951 41.308 47.2489 40.3792 47.287C39.4593 47.287 38.9337 47.0815 35.6798 46.1331L47.4482 44.1792ZM28.4693 44.0456L47.4523 41.9186V43.1517L35.8433 45.0763C34.3181 45.3388 33.3544 45.4267 32.3147 45.1677L28.4693 44.0456ZM24.8014 41.0535L25.8448 40.9897L47.4497 39.7243V40.8623L28.7321 42.9688C26.6968 43.1995 26.287 43.2472 25.6257 42.3523C25.4663 42.1134 25.3172 41.859 25.1717 41.5924C25.0631 41.3973 24.9393 41.2111 24.8014 41.0355V41.0535ZM21.2703 37.7571H47.4512V38.6721L24.8595 40.0028C23.0274 40.1302 22.7132 40.1461 22.0719 39.1294L21.4826 38.0787C21.4196 37.9617 21.3491 37.8488 21.2718 37.7407L21.2703 37.7571ZM18.1916 34.4068C18.2674 34.3098 18.3669 34.2339 18.4806 34.1865C18.5943 34.1391 18.7182 34.1217 18.8406 34.1361H64.3649C64.7943 34.0933 65.2278 34.1484 65.6326 34.2973C66.0376 34.4462 66.4034 34.685 66.7027 34.9956C67.2405 35.5366 67.3676 36.1377 67.8694 36.7106H20.8527C19.451 36.7106 19.2874 36.7106 18.8617 36.0622L18.2683 35.0717C18.1977 34.9737 18.1537 34.8593 18.1405 34.7394C18.1272 34.6195 18.1452 34.4982 18.1927 34.3873L18.1916 34.4068Z" fill="black"/>
</svg>
