<svg width="147" height="92" viewBox="0 0 147 92" fill="none" xmlns="http://www.w3.org/2000/svg">
<g clip-path="url(#clip0_67_11634)">
<path d="M44.7437 61.239C45.7027 61.5961 46.256 62.3637 46.256 63.4074C46.256 65.0391 45.0408 66 43.2859 66H38.2231V57.1094H42.7986C44.472 57.1094 45.66 58.0012 45.66 59.4968C45.66 60.3334 45.2951 60.8957 44.7418 61.239H44.7437ZM39.8441 58.605V60.7596H42.5987C43.5712 60.7596 43.975 60.361 43.975 59.6763C43.975 58.9917 43.5693 58.6069 42.5987 58.6069H39.8441V58.605ZM39.8441 62.1308V64.5044H43.0976C44.0701 64.5044 44.5554 64.0112 44.5554 63.3107C44.5554 62.6103 44.0701 62.1308 43.0976 62.1308H39.8441Z" fill="black"/>
<path d="M49.0356 66V57.1094H56.4453V58.6188H50.6546V60.7457H54.5953V62.1999H50.6546V64.4906H56.5405V66H49.0356Z" fill="black"/>
<path d="M59.1865 66V57.1094H60.59L65.8818 63.4745V57.1094H67.3805V66H65.9905L60.6987 59.6487V66H59.1865Z" fill="black"/>
<path d="M73.2236 66V58.6188H69.9565V57.1094H78.0554V58.6188H74.8562V66H73.2236Z" fill="black"/>
<path d="M80.4585 66V57.1094H82.0775V64.4906H87.5984V66H80.4585Z" fill="black"/>
<path d="M90.0542 66V57.1094H97.4639V58.6188H91.6732V60.7457H95.6139V62.1999H91.6732V64.4906H97.559V66H90.0542Z" fill="black"/>
<path d="M104.025 66V62.2137L99.9351 57.1094H101.837L104.901 60.8681L107.912 57.1094H109.775L105.699 62.2137V66H104.025Z" fill="black"/>
<path d="M117.943 27.6966C117.577 26.3746 115.785 26.3214 114.323 26.2267C110.619 25.9859 93.7906 25.9859 90.0227 26.0076C89.0307 26.0136 85.0629 26.0412 84.3213 26.0629C82.8615 26.1102 82.3083 26.1635 81.5881 26.2582C80.9319 26.3431 80.4893 26.491 80.2311 26.8521C80.006 27.1658 80.1535 27.6828 80.2777 27.9748C78.3928 27.0988 76.238 26.6311 73.9959 26.6311C71.7538 26.6311 69.6029 27.0968 67.7199 27.9728C67.8422 27.6808 67.9878 27.1639 67.7665 26.8521C67.5083 26.491 67.0657 26.3431 66.4095 26.2582C65.6894 26.1635 65.1361 26.1102 63.6744 26.0629C62.9347 26.0412 58.9669 26.0136 57.973 26.0076C54.205 25.9859 37.3784 25.9859 33.6745 26.2267C32.2128 26.3214 30.4191 26.3746 30.0541 27.6966C29.6174 29.279 31.8808 30.8061 33.1795 31.7473C34.8529 32.9568 38.7974 35.6382 44.6541 38.6057C49.9479 41.2851 54.7214 43.4081 57.9399 44.0829C58.6873 44.2388 59.3454 44.1046 59.9433 43.929C60.1646 43.8619 60.3801 43.7771 60.5897 43.6765C61.3332 44.6669 62.2437 45.5805 63.3036 46.3934C66.2135 48.6269 70.0086 49.8561 73.9862 49.8561C77.9638 49.8561 81.7589 48.6269 84.6688 46.3934C85.7326 45.5765 86.645 44.661 87.3904 43.6666C87.6059 43.7712 87.8252 43.86 88.0524 43.929C88.6503 44.1046 89.3103 44.2388 90.0557 44.0829C93.2762 43.4081 98.0497 41.2851 103.342 38.6057C109.2 35.6382 113.143 32.9568 114.816 31.7473C116.117 30.8061 118.38 29.279 117.943 27.6966ZM100.855 27.8939L93.1462 29.7427L85.1929 29.9636L92.492 28.0774L100.855 27.8939ZM85.1347 32.1044L92.0338 32.4398L85.7695 33.3356C85.6025 32.939 85.4045 32.5503 85.1735 32.1755C85.1696 32.1695 85.1677 32.1656 85.1657 32.1597C85.1619 32.1538 85.158 32.1478 85.156 32.1439C85.1483 32.1301 85.1405 32.1163 85.1308 32.1044H85.1347ZM84.9114 31.7157C84.6494 31.2678 84.4358 30.9403 84.2398 30.6266C84.1777 30.526 84.1194 30.4273 84.0631 30.3267L91.5932 30.1156L84.9114 31.7157ZM86.3421 35.4882L90.8691 36.678L86.3945 36.8299C86.4004 36.7135 86.4023 36.5951 86.4023 36.4767C86.4023 36.1433 86.3829 35.8138 86.3421 35.4882ZM89.2734 38.5307L86.15 38.4873C86.249 38.1026 86.3188 37.7099 86.3596 37.3114L89.2734 38.5307ZM86.2742 35.0502C86.1946 34.5925 86.0723 34.1446 85.9151 33.7085L91.7485 34.5806L86.2742 35.0502ZM85.9908 39.024L88.0795 40.3183L85.5055 40.1881C85.6976 39.8093 85.8607 39.4206 85.9908 39.024ZM88.658 40.6754L90.8963 42.0625L87.7922 41.8534L85.6511 40.5255L88.658 40.6754ZM86.2781 38.8188L90.0868 38.872L94.2876 40.6301L88.757 40.3518L86.2781 38.8188ZM86.8119 37.1456L91.9775 36.97L98.4011 38.659L90.1528 38.5425L86.8119 37.1456ZM86.9905 35.3186L93.15 34.7898L103.013 36.2656L92.0125 36.6385L86.9905 35.3186ZM86.8449 33.5152L93.7654 32.5247L107.777 33.2054L93.1617 34.4583L86.8449 33.5152ZM93.7518 32.1952L85.9209 31.8144L93.1869 30.0702L112.304 29.5394L93.7518 32.1952ZM83.8962 28.6318C83.9874 28.5312 84.1155 28.4444 84.2689 28.3694C84.6106 28.2056 85.2356 28.1425 85.7442 28.0932C85.7442 28.0932 87.5942 28.0044 88.0174 27.9965C89.3025 27.9748 90.6769 27.9491 91.7465 27.9314L83.8904 29.9636C83.8515 29.867 83.8146 29.7644 83.7836 29.6519C83.7079 29.3855 83.6496 28.9002 83.8962 28.6318ZM73.9959 28.2313C79.0412 28.2313 83.2789 30.8614 84.4786 34.4208C84.6843 35.0246 84.795 35.6559 84.8144 36.3051C84.8163 36.3623 84.8202 36.4215 84.8202 36.4767C84.8202 36.9483 84.7639 37.41 84.6649 37.8599C84.5581 38.3413 84.399 38.8089 84.1854 39.2588C82.6887 42.4453 78.6937 44.7242 73.9959 44.7242C68.0188 44.7242 63.1735 41.0306 63.1735 36.4767C63.1735 31.9229 68.0188 28.2313 73.9959 28.2313ZM61.1488 33.5152L54.832 34.4583L40.2165 33.2054L54.2283 32.5247L61.1488 33.5152ZM35.6895 29.5394L54.8068 30.0702L62.0728 31.8144L54.2438 32.1952L35.6895 29.5394ZM61.5972 36.8299L57.1246 36.678L61.6496 35.4882C61.6089 35.8138 61.5895 36.1433 61.5895 36.4767C61.5895 36.5951 61.5914 36.7135 61.5972 36.8299ZM61.6322 37.3133C61.6729 37.7099 61.7448 38.1026 61.8418 38.4873L58.7203 38.5307L61.6322 37.3133ZM61.7176 35.0502L56.2472 34.5806L62.0767 33.7105C61.9175 34.1466 61.7972 34.5944 61.7176 35.0502ZM54.8437 34.7898L61.0032 35.3186L55.9812 36.6385L44.9822 36.2656L54.8437 34.7898ZM56.0162 36.97L61.1818 37.1456L57.8409 38.5425L49.5926 38.659L56.0162 36.97ZM57.9069 38.872L61.7156 38.8188L59.4386 40.2275L53.7527 40.6103L57.9069 38.872ZM59.5395 40.5492L62.0981 40.3775L60.0423 41.7271L57.146 42.0309L59.5395 40.5492ZM60.1374 40.1802L62.001 39.0259C62.1136 39.3653 62.2475 39.7007 62.4067 40.0263L60.1374 40.1802ZM62.2223 33.3356L55.9599 32.4398L62.861 32.1044C62.6125 32.501 62.4009 32.9134 62.2223 33.3356ZM56.4025 30.1156L63.9325 30.3267C63.8762 30.4273 63.818 30.526 63.7559 30.6266C63.5598 30.9403 63.3482 31.2698 63.0862 31.7177L56.4025 30.1156ZM59.9802 27.9965C60.4034 28.0044 62.2534 28.0932 62.2534 28.0932C62.76 28.1425 63.3851 28.2056 63.7268 28.3694C63.8821 28.4444 64.0102 28.5312 64.1014 28.6318C64.346 28.9002 64.2878 29.3855 64.214 29.6519C64.181 29.7644 64.1461 29.867 64.1072 29.9636L56.2511 27.9314C57.3226 27.9491 58.6951 27.9748 59.9802 27.9965ZM55.5018 28.0774L62.8008 29.9636L54.8495 29.7427L47.1389 27.8939L55.5018 28.0774ZM32.8068 28.4128C33.0456 27.886 34.3365 27.8426 35.8332 27.8091C37.7026 27.7676 42.1694 27.7795 45.4753 27.7893C45.4966 27.8229 45.5316 27.8465 45.5724 27.8564L53.2538 29.6993L32.834 29.131C32.7 28.8508 32.7117 28.622 32.8068 28.4128ZM37.8618 32.9903C37.2115 32.5799 36.5048 32.1281 35.7381 31.6289C34.2763 30.6759 33.4629 30.0051 33.063 29.4941L52.5103 32.2781L37.8637 32.9903H37.8618ZM38.4946 33.3869L53.4305 34.6694L43.2584 36.1887C42.1441 35.5829 40.6474 34.7306 38.4946 33.3869ZM48.1387 38.7241C47.0826 38.2249 46.1683 37.7652 45.5258 37.4041C45.0909 37.1594 44.594 36.9029 43.9475 36.5576L54.8728 36.9305L48.2085 38.6826C48.1814 38.6905 48.1581 38.7043 48.1387 38.7241ZM52.6559 40.7326C51.3242 40.1723 49.9557 39.5685 48.7288 39.0003L57.0276 38.8839L52.7141 40.6892C52.6909 40.6991 52.6695 40.7129 52.6559 40.7326ZM56.3113 42.1888H56.3093C55.4008 41.8553 54.339 41.4351 53.2325 40.9753L58.8407 40.5965L56.3656 42.1296C56.3423 42.1434 56.3229 42.1651 56.3113 42.1888ZM61.5235 42.0309C60.9392 42.2933 60.316 42.4847 59.6968 42.6347C59.2425 42.7432 58.963 42.7531 58.7145 42.7531C58.3884 42.7531 57.4139 42.5834 56.9208 42.4098C56.9033 42.4038 56.8859 42.3979 56.8684 42.392L60.1141 42.0507C60.1394 42.0507 60.1646 42.0388 60.186 42.025L62.6144 40.4308C62.7717 40.7188 62.9464 40.999 63.1386 41.2733C62.9076 41.3818 62.496 41.5712 62.3757 41.6304C62.1 41.7626 61.8147 41.9007 61.5235 42.0309ZM83.7001 45.0892C81.0678 47.1096 77.6182 48.2224 73.9862 48.2224C70.3541 48.2224 66.9065 47.1096 64.2723 45.0892C63.4317 44.444 62.6999 43.7297 62.0845 42.9622L62.1777 42.9168C62.628 42.6643 63.1774 42.3742 63.7578 42.0645C64.2276 42.6071 64.7731 43.1181 65.3885 43.5857C67.7063 45.3516 70.7618 46.3243 73.9959 46.3243C77.23 46.3243 80.2874 45.3516 82.6033 43.5857C83.2187 43.1161 83.7642 42.6071 84.2359 42.0625C84.8163 42.3742 85.3676 42.6643 85.818 42.9168L85.8937 42.9543C85.2764 43.7258 84.5446 44.442 83.7001 45.0892ZM91.0768 42.4098C90.5837 42.5834 89.6073 42.7531 89.2831 42.7531C89.0327 42.7531 88.7551 42.7432 88.3008 42.6347C87.6796 42.4847 87.0565 42.2933 86.4741 42.0309C86.183 41.9007 85.8976 41.7626 85.6219 41.6304C85.5016 41.5712 85.0862 41.3818 84.8551 41.2713C84.9949 41.072 85.125 40.8688 85.2473 40.6616L87.6583 42.1552C87.6796 42.169 87.7049 42.1769 87.7321 42.1789L91.0923 42.4038C91.0923 42.4038 91.0826 42.4078 91.0768 42.4098ZM91.6844 42.1907C91.6728 42.1651 91.6533 42.1454 91.6281 42.1296L89.3355 40.7109L94.7477 40.9813C93.6451 41.439 92.5871 41.8593 91.6844 42.1907ZM95.3398 40.7346C95.3262 40.7149 95.3048 40.6991 95.2796 40.6892L90.9662 38.8839L99.2669 39.0003C98.04 39.5685 96.6714 40.1723 95.3398 40.7346ZM102.47 37.4041C101.827 37.7652 100.911 38.2249 99.8551 38.7241C99.8356 38.7043 99.8124 38.6905 99.7852 38.6826L93.1209 36.9305L104.052 36.5576C103.406 36.9029 102.905 37.1594 102.47 37.4041ZM104.737 36.1887L94.5633 34.6694L109.503 33.3869C107.35 34.7306 105.852 35.5829 104.737 36.1887ZM112.26 31.6289C111.491 32.1281 110.786 32.5799 110.136 32.9903L95.4834 32.2781L114.933 29.4941C114.535 30.0051 113.721 30.6759 112.26 31.6289ZM115.164 29.131L94.7399 29.6993L102.421 27.8564C102.462 27.8465 102.497 27.8229 102.518 27.7893C105.824 27.7795 110.293 27.7676 112.164 27.8091C113.659 27.8426 114.952 27.886 115.189 28.4128C115.284 28.622 115.296 28.8508 115.164 29.131Z" fill="black"/>
<path d="M85.1569 32.145C85.1489 32.1309 85.1409 32.1168 85.1309 32.1047H85.1349C85.1409 32.1168 85.1489 32.1309 85.1569 32.145Z" fill="black"/>
<path d="M78.6103 36.2284C78.5656 36.1968 78.4782 36.1475 78.4685 36.0528C78.4627 36.0055 78.5151 35.9443 78.6568 35.8535C79.3227 35.4254 80.3282 34.8196 80.2622 33.2293C80.1904 31.4891 78.1871 29.5733 73.563 29.7055C71.2394 29.7725 68.9449 30.5085 67.6481 31.6529C67.4462 31.8285 66.9396 32.2625 66.959 32.45C66.9706 32.5822 67.0716 32.6927 67.2152 32.8249C67.4326 33.0261 67.7976 33.4227 67.7976 33.4227L67.7801 39.7898C67.6384 39.9398 67.4579 40.1213 67.2269 40.364C67.1026 40.4962 66.9609 40.5869 66.9531 40.7566C66.9493 40.8947 67.5103 41.311 67.7374 41.4886C68.6129 42.1713 70.8123 43.2032 73.8465 43.2644C77.6299 43.3433 80.5961 41.9641 80.6253 39.3005C80.6427 37.6964 79.2644 36.6704 78.6083 36.2304L78.6103 36.2284ZM73.763 30.5815C74.7588 30.5716 76.768 30.6801 76.7137 33.2076C76.669 35.303 75.5043 35.9226 73.9261 35.889C72.2702 35.8535 71.1404 35.3208 71.0589 33.255C70.9715 30.9781 72.6545 30.5914 73.761 30.5815H73.763ZM74.06 42.3903C72.2779 42.3508 71.0744 41.7708 70.9793 39.5254C70.8803 37.1518 72.6973 36.6329 73.8872 36.623C74.9588 36.6132 77.1194 36.7335 77.0592 39.48C77.0107 41.7569 75.7566 42.4298 74.06 42.3923V42.3903Z" fill="black"/>
</g>
<defs>
<clipPath id="clip0_67_11634">
<rect width="88" height="40" fill="white" transform="translate(30 26)"/>
</clipPath>
</defs>
</svg>
