<svg width="147" height="92" viewBox="0 0 147 92" fill="none" xmlns="http://www.w3.org/2000/svg">
<path d="M78.6086 21.7803L78.6475 21.8083C78.676 21.948 78.6663 23.0101 78.6663 23.1992L78.6659 26.46C78.6659 30.9472 78.6128 35.5512 78.6733 40.0291C87.2599 37.5773 96.6225 35.9181 105.317 38.7843C106.648 39.228 107.946 39.7625 109.203 40.3843C109.73 40.6441 110.274 40.9643 110.786 41.2078C110.719 43.0452 110.819 44.9685 110.778 46.8149C110.76 47.5865 110.743 48.5212 110.798 49.275C109.451 48.55 108.37 48.013 106.958 47.4437C99.7776 44.5487 92.309 44.9658 84.8901 46.541C82.7646 46.9923 80.7515 47.5735 78.6636 48.0613L78.6633 67.3469C78.017 67.4832 77.1747 67.7413 76.5273 67.9223L72.5312 69.0501C72.2265 69.136 70.7953 69.557 70.5939 69.5593C70.5173 69.4619 70.5451 69.4557 70.5426 69.2978L70.5463 50.3387C61.5946 52.7834 52.3766 54.6998 43.2997 51.6279C41.2861 50.9464 39.8693 50.2598 38.0076 49.2703C38.0135 46.5844 37.9808 43.8641 38.0184 41.1821C38.1144 41.2438 38.2121 41.3029 38.3113 41.3591C39.9057 42.2784 41.7659 43.0563 43.5069 43.6367C52.5553 46.6529 61.6399 44.684 70.5483 42.288C70.5237 40.194 70.5438 38.0576 70.5437 35.9605L70.5433 24.0307C73.2174 23.3243 75.938 22.5282 78.6086 21.7803Z" fill="black"/>
<path d="M94.8837 19.0125C98.2659 18.9129 101.355 19.4139 104.598 20.3065C97.9313 22.5164 91.434 27.1384 86.066 31.6094C84.9968 32.4818 83.9416 33.3709 82.9005 34.2761C82.2181 34.8645 81.4744 35.4851 80.8281 36.1045C80.8643 35.5954 80.8443 34.8472 80.8443 34.3237L80.8439 31.1227L80.8393 21.2102C81.8484 20.8971 83.0746 20.6541 84.1133 20.4138C87.7694 19.5681 91.1401 19.1201 94.8837 19.0125Z" fill="black"/>
<path d="M68.2169 24.6621L68.3163 24.6626C68.414 24.8242 68.3493 37.4949 68.3491 38.8539C62.7035 36.7837 57.721 34.5567 52.6647 31.3048C50.1941 29.7092 47.8444 27.9337 45.6348 25.9928C46.7907 26.3053 47.9483 26.4995 49.1343 26.6549C55.598 27.5021 61.9676 26.2258 68.2169 24.6621Z" fill="black"/>
<path d="M80.834 52.7754C82.2178 53.2262 83.9832 53.9721 85.3351 54.5402C90.4647 56.6393 95.3066 59.382 99.7442 62.7033C100.945 63.6089 102.032 64.5213 103.176 65.4927C102.577 65.3078 101.84 65.18 101.217 65.0621C94.41 63.8126 87.4452 65.0725 80.8363 66.7619C80.8771 63.5742 80.8205 60.3731 80.8425 57.1839C80.8525 55.7203 80.8556 54.2378 80.834 52.7754Z" fill="black"/>
<path d="M68.3 56.8857C68.3148 56.9081 68.3297 56.9304 68.3446 56.9528C68.3718 60.239 68.3195 67.3068 68.3576 70.1879C66.8837 70.4891 65.2775 70.9551 63.7496 71.2729C58.207 72.4253 53.3774 72.876 47.7791 72.014L47.0547 71.8938C48.507 71.2259 49.9283 70.5561 51.3141 69.753C57.3288 66.2676 63.1273 61.5374 68.3 56.8857Z" fill="black"/>
<path d="M38.0879 51.5498C38.3831 51.6653 39.2364 52.1471 39.5871 52.3197C40.5619 52.8015 41.5623 53.2297 42.5838 53.6025C47.3159 55.3388 52.2878 55.7413 57.2792 55.2551C57.9055 55.1941 58.5218 55.1507 59.1389 55.0187C58.4761 55.4712 57.7523 56.0383 57.0902 56.5155C55.9605 57.3313 54.8057 58.1116 53.6276 58.8554C49.0798 61.8127 43.5356 64.309 38.0932 64.6787L38.0943 57.0035C38.0948 55.2331 38.1353 53.2983 38.0879 51.5498Z" fill="black"/>
<path d="M94.5192 47.5533C99.752 47.4523 104.741 48.3737 109.428 50.7829C109.853 51.0017 110.291 51.2541 110.72 51.4526L110.721 59.7428C110.721 61.0304 110.687 62.4833 110.74 63.7551C110.249 63.1508 109.741 62.578 109.226 61.9937C105.461 57.7191 101.144 53.9625 96.3902 50.8228C94.689 49.7207 92.9409 48.6929 91.1504 47.7424C92.3193 47.6739 93.3287 47.581 94.5192 47.5533Z" fill="black"/>
<path d="M38.0875 27.834C38.2245 27.8963 39.0479 28.8861 39.2002 29.0589C40.1826 30.1787 41.1986 31.2687 42.2466 32.3273C44.9068 35.0115 47.8005 37.4538 50.8935 39.6252C51.7337 40.2081 52.5877 40.7709 53.4547 41.3131C53.9734 41.6404 54.4975 41.9591 55.0267 42.2691C55.1928 42.3646 55.9251 42.741 55.985 42.8598C49.0787 43.1462 44.2803 42.3437 38.1016 39.0304C38.0513 36.3864 38.128 33.6824 38.0973 31.0335C38.0852 29.9875 38.1275 28.8714 38.0875 27.834Z" fill="black"/>
<path d="M110.13 28.6391L110.725 28.6006L110.722 35.2092C110.722 36.4312 110.698 37.74 110.733 38.9546C106.782 36.8186 103.152 35.5956 98.6371 35.1772C97.8125 35.1019 96.9849 35.0563 96.1568 35.0407C95.5156 35.0307 94.8204 35.0537 94.1953 35.0327C95.2579 34.3832 96.2246 33.745 97.3149 33.1228C101.376 30.8062 105.447 29.123 110.13 28.6391Z" fill="black"/>
<path d="M83.7405 49.0479C84.0586 49.0698 84.7908 49.4138 85.1108 49.55C85.878 49.8737 86.6421 50.2053 87.4028 50.5446C94.978 53.9005 101.811 58.7278 107.506 64.7456C108.242 65.5082 108.958 66.2894 109.655 67.0882C110.036 67.5219 110.573 68.1185 110.878 68.5888C110.269 68.3076 109.557 67.8909 108.919 67.5793C108.419 67.3343 107.911 67.1055 107.396 66.8929C105.827 66.2547 105.924 66.3356 104.683 65.157C104.275 64.7745 103.86 64.3978 103.441 64.0273C102.18 62.908 100.873 61.8403 99.5249 60.8273C95.1417 57.5345 90.3109 54.901 85.2583 52.7967C83.8842 52.2245 82.2554 51.5485 80.8512 51.0693C80.835 50.6105 80.8358 50.1884 80.842 49.729C81.7081 49.5037 82.8766 49.1859 83.7405 49.0479Z" fill="black"/>
<path d="M66.7256 53.5488L66.7816 53.5598L66.7637 53.6179C64.8281 55.3223 62.8496 56.9772 60.8301 58.5814C56.1809 62.2513 51.1834 65.7313 45.616 67.8674C43.5567 68.6574 41.931 69.0433 39.7729 69.4196C39.4134 69.2818 39.0571 69.0907 38.7191 68.9078L38.1188 68.5807C38.0664 67.9344 38.0955 67.0774 38.0999 66.4161C39.4181 66.2709 40.3331 66.1804 41.6535 65.8823C47.393 64.5858 52.5997 61.4494 57.3304 58.0561C58.3137 57.3427 59.2833 56.6113 60.2388 55.8618C60.6241 55.5612 61.4128 54.8888 61.799 54.6843C62.0977 54.5261 63.2244 54.3577 63.622 54.2665C64.6294 54.0353 65.735 53.8427 66.7256 53.5488Z" fill="black"/>
<path d="M107.162 21.3193C107.648 21.2451 110.132 22.64 110.732 22.9304C110.724 23.3059 110.734 23.5806 110.758 23.956C109.477 24.105 108.471 24.1948 107.186 24.4846C101.718 25.7174 96.5373 28.6918 92.0119 31.9253C90.9778 32.6634 89.9576 33.4204 88.9512 34.1962C88.3431 34.6683 87.4284 35.4756 86.8084 35.8242C86.5592 35.9644 85.2362 36.1935 84.8673 36.2643C83.966 36.4521 82.5695 36.7449 81.7207 37.0256C82.0581 36.706 82.4217 36.3955 82.7764 36.0933C89.3152 30.5269 96.2623 24.8447 104.502 22.0411C105.284 21.7748 106.368 21.4366 107.162 21.3193Z" fill="black"/>
<path d="M38.0978 22.9014C38.3234 23.0471 39.6027 24.6169 39.9188 24.9613C41.007 26.1644 42.1343 27.3318 43.2986 28.4614C48.4304 33.4178 54.3742 37.4571 60.8715 40.4038C61.8069 40.8298 62.9129 41.3466 63.8743 41.7069L63.0601 41.8725C62.0875 42.1122 59.7711 42.4775 58.7646 42.5759C57.8024 42.1164 56.7372 41.5242 55.8086 41.0001C50.1773 37.8033 45.0767 33.7511 40.6892 28.9885C39.9164 28.1555 38.7807 26.9447 38.1217 26.0686C38.077 25.7295 38.0887 25.1018 38.0908 24.7419C38.0944 24.1385 38.0807 23.5014 38.0978 22.9014Z" fill="black"/>
</svg>
