<svg width="147" height="92" viewBox="0 0 147 92" fill="none" xmlns="http://www.w3.org/2000/svg">
<path d="M30.128 53.8093H26.6285V47.1474H30.1274C30.5481 47.121 30.9694 47.1888 31.3638 47.3464C31.7581 47.504 32.1167 47.7479 32.4163 48.0621C32.7158 48.3764 32.9496 48.754 33.1023 49.1704C33.255 49.5867 33.3233 50.0325 33.3027 50.4787C33.3232 50.9247 33.2549 51.3704 33.1021 51.7866C32.9494 52.2028 32.7157 52.5803 32.4163 52.8945C32.1168 53.2087 31.7583 53.4525 31.364 53.6101C30.9698 53.7678 30.5486 53.8356 30.128 53.8093ZM26.6291 37.1889H29.642C30.0368 37.1636 30.4323 37.2269 30.8026 37.3746C31.1728 37.5222 31.5095 37.7509 31.7908 38.0458C32.072 38.3407 32.2915 38.6951 32.4348 39.0859C32.5781 39.4767 32.6421 39.8951 32.6226 40.3139C32.6421 40.7326 32.5781 41.1511 32.4348 41.5419C32.2915 41.9327 32.072 42.2871 31.7908 42.5819C31.5095 42.8768 31.1728 43.1055 30.8026 43.2532C30.4323 43.4008 30.0368 43.4641 29.642 43.4389H26.6285L26.6291 37.1889ZM34.3398 45.052C34.9548 44.449 35.4429 43.7152 35.7722 42.8987C36.1014 42.0821 36.2644 41.2011 36.2505 40.3132C36.2775 39.4051 36.1281 38.5008 35.8116 37.6564C35.495 36.812 35.0182 36.0455 34.4105 35.4046C33.8029 34.7637 33.0774 34.262 32.2792 33.9307C31.481 33.5994 30.627 33.4455 29.7703 33.4785H23V57.5166H30.2576C31.1399 57.5507 32.0195 57.3922 32.8417 57.0509C33.6639 56.7097 34.4111 56.1929 35.037 55.5328C35.6628 54.8726 36.154 54.0832 36.4799 53.2134C36.8059 52.3437 36.9597 51.4122 36.9318 50.4768C36.9536 49.4162 36.7286 48.3663 36.2765 47.42C35.8244 46.4736 35.1592 45.6598 34.3398 45.0508" fill="black"/>
<path d="M49.9885 50.9243C50.0042 51.3708 49.9329 51.8158 49.7789 52.2317C49.6249 52.6476 49.3915 53.0253 49.0935 53.3412C48.7954 53.6571 48.4391 53.9044 48.0467 54.0676C47.6544 54.2309 47.2344 54.3065 46.8132 54.2898C46.3922 54.3061 45.9725 54.2302 45.5804 54.0669C45.1883 53.9035 44.8323 53.6561 44.5345 53.3402C44.2367 53.0244 44.0036 52.6468 43.8497 52.2311C43.6959 51.8154 43.6246 51.3705 43.6403 50.9243V33.4792H40.0112V50.6497C40.0112 54.9081 42.8623 57.9983 46.818 57.9983C50.7736 57.9983 53.6247 54.9075 53.6247 50.6497V33.4792H49.9962V50.9243" fill="black"/>
<path d="M64.315 33.0006C60.3623 33.0006 57.5083 36.0914 57.5083 40.3492V50.6514C57.5083 54.9098 60.3593 58 64.315 58C68.2707 58 71.1218 54.9092 71.1218 50.6514V43.6458H64.315V47.3542H67.4903V50.9254C67.506 51.3718 67.4347 51.8169 67.2807 52.2328C67.1267 52.6486 66.8934 53.0264 66.5953 53.3423C66.2973 53.6582 65.9409 53.9055 65.5485 54.0687C65.1562 54.2319 64.7362 54.3076 64.315 54.2909C63.8938 54.3076 63.4739 54.2319 63.0815 54.0687C62.6892 53.9055 62.3328 53.6582 62.0348 53.3423C61.7367 53.0264 61.5033 52.6486 61.3493 52.2328C61.1953 51.8169 61.124 51.3718 61.1397 50.9254V40.0739C61.124 39.6275 61.1953 39.1824 61.3493 38.7666C61.5033 38.3507 61.7367 37.973 62.0348 37.6571C62.3328 37.3412 62.6892 37.0939 63.0815 36.9306C63.4739 36.7674 63.8938 36.6918 64.315 36.7085C64.7362 36.6918 65.1562 36.7674 65.5485 36.9306C65.9409 37.0939 66.2973 37.3412 66.5953 37.6571C66.8934 37.973 67.1267 38.3507 67.2807 38.7666C67.4347 39.1824 67.506 39.6275 67.4903 40.0739V40.6923H71.1194V40.3486C71.1194 36.0902 68.2683 33 64.3127 33" fill="black"/>
<path d="M79.1481 49.0011L81.417 38.4585L83.6859 49.0011H79.1481ZM78.9212 33.4792L73.7051 57.5173H77.3013L78.3378 52.7077H84.4938L85.5303 57.5173H89.1271L83.911 33.4792H78.9212Z" fill="black"/>
<path d="M89.7428 37.1878H94.7326L94.7649 57.5173H98.3289L98.3611 37.1878H103.35V33.4792H89.7422L89.7428 37.1878Z" fill="black"/>
<path d="M105.235 37.1878H110.225L110.257 57.5173H113.821L113.854 37.1878H118.843V33.4792H105.235V37.1878Z" fill="black"/>
<path d="M122.089 33.4792V57.5173H125.718V33.4792H122.089Z" fill="black"/>
</svg>
