<svg width="147" height="92" viewBox="0 0 147 92" fill="none" xmlns="http://www.w3.org/2000/svg">
<path d="M61.9726 49.5028H55.5377C54.6838 49.5028 53.9842 49.4953 53.2884 49.3528C52.6189 49.2141 52.0546 48.959 51.6146 48.5727C51.1745 48.1865 50.8849 47.6914 50.7269 47.1026C50.6479 46.8101 50.6028 46.4988 50.5802 46.1687C50.5576 45.8312 50.5576 45.5012 50.5576 45.1299V40.0076C48.9214 40.0076 47.2852 40.0076 45.6535 40.0039C45.6535 41.3877 45.6535 42.7716 45.6498 44.151C45.6498 44.7323 45.6498 45.2537 45.6912 45.7787C45.7288 46.2963 45.804 46.7801 45.9356 47.2414C46.1989 48.164 46.6842 48.9365 47.4214 49.5403C48.1586 50.1479 49.099 50.5417 50.2236 50.7592C50.7841 50.868 51.3708 50.928 52.0027 50.9617C52.6422 50.9955 53.2778 50.9955 53.985 50.9955H66.8925V40.0084H61.9696V49.5036H61.9734L61.9726 49.5028ZM40.3094 45.2469V45.0894C40.6028 45.0256 40.8736 44.9169 41.103 44.7819C41.3362 44.6468 41.5356 44.4818 41.7011 44.2906C42.0208 43.9268 42.2691 43.3867 42.2691 42.6966C42.2691 42.1491 42.1111 41.6315 41.844 41.2265C41.5732 40.8139 41.1971 40.5289 40.7532 40.3414C40.3094 40.1539 39.8129 40.0714 39.3201 40.0339C38.85 39.9964 38.3234 40.0001 37.9736 40.0001C32.3172 40.0001 26.6571 40.0039 21 40.0076V50.9985H38.7371C38.9779 50.9985 39.4443 50.9985 39.9408 50.9422C40.4486 50.886 40.9827 50.7697 41.4604 50.5372C41.9381 50.3047 42.3292 49.9746 42.6038 49.5283C42.8784 49.0821 43.0213 48.5495 43.0364 48.0094C43.0589 47.2781 42.8446 46.5543 42.3067 46.0255C41.7876 45.5079 41.0429 45.2642 40.3094 45.2454M25.9236 41.504H35.1232C35.4956 41.504 35.7965 41.504 36.0824 41.5528C36.3607 41.5978 36.5901 41.6803 36.7782 41.8115C36.9663 41.9428 37.1054 42.1153 37.1957 42.3253C37.2898 42.5316 37.3349 42.7679 37.3349 43.0042C37.3349 43.2404 37.2898 43.4805 37.1957 43.6905C37.1017 43.9043 36.9625 44.0843 36.7782 44.2193C36.5901 44.3581 36.3607 44.4443 36.0824 44.4931C35.7965 44.5418 35.4956 44.5418 35.1232 44.5418H25.9236V41.504ZM37.8344 48.5315C37.7253 48.7753 37.5598 48.9815 37.3417 49.1391C37.1197 49.2966 36.8489 49.3978 36.5142 49.4503C36.1719 49.5066 35.807 49.5066 35.3444 49.5066H25.9191V46.0337H35.3444C35.8033 46.0337 36.1681 46.0337 36.5142 46.0862C36.8489 46.135 37.1197 46.2325 37.3417 46.3825C37.5598 46.5325 37.7253 46.7313 37.8344 46.9676C37.9435 47.2039 37.9999 47.4701 37.9999 47.7439C37.9999 48.0177 37.9472 48.2877 37.8344 48.5315ZM70.5779 50.9992H75.5008V40.0084H70.5779V50.9992ZM88.807 49.5028C87.9306 49.5028 87.2197 49.4953 86.5163 49.3678C85.8355 49.2441 85.2638 49.019 84.8124 48.674C84.3611 48.329 84.0526 47.8864 83.8759 47.3614C83.6916 46.8213 83.6577 46.2625 83.6464 45.5949C83.6351 44.9499 83.6314 43.9073 83.6502 42.9622C83.6539 42.7109 83.6615 42.4934 83.7104 42.2871C83.7555 42.0846 83.8383 41.9196 83.9661 41.792C84.094 41.6645 84.2595 41.5858 84.4589 41.5445C84.6657 41.4995 84.8801 41.4995 85.1284 41.4995H100.048V40.0069H82.3487C81.7319 40.0069 81.2354 40.0106 80.7314 40.1156C80.2499 40.2169 79.8399 40.3969 79.5164 40.6707C79.193 40.9445 78.9786 41.2895 78.8582 41.6983C78.7341 42.1221 78.7265 42.5421 78.7265 43.0597C78.7265 43.746 78.7303 44.2973 78.7416 44.8149C78.7529 45.3362 78.7717 45.8162 78.8319 46.285C78.892 46.7538 78.9861 47.1926 79.1328 47.6051C79.4299 48.4377 79.9302 49.1391 80.6674 49.6829C81.4046 50.2304 82.3299 50.5867 83.4358 50.7817C83.9887 50.8792 84.568 50.9355 85.1923 50.9655C85.828 50.9955 86.4562 50.9955 87.1595 50.9955H100.244V49.4991H88.807V49.5028ZM112.949 44.9356V44.7894C113.547 44.5568 114.307 44.2605 115.191 43.9193C116.078 43.578 117.09 43.1842 118.192 42.7679C120.295 41.9653 123.051 40.9265 124.996 40.2514V40.0114H120.272C116.902 41.369 113.533 42.7266 110.159 44.0798H108.03V40.0076H103.058V50.9992H108.026V46.2445H109.963C110.836 46.6833 112.382 47.4784 113.664 48.1422C115.067 48.866 116.752 49.7361 117.763 50.2649C118.007 50.3924 118.233 50.5087 118.511 50.6175C118.782 50.7262 119.061 50.8087 119.373 50.8687C120.02 50.9963 120.655 51 121.438 51H127V50.6062C122.314 48.716 117.631 46.8266 112.949 44.9364" fill="black"/>
</svg>
