<svg width="147" height="92" viewBox="0 0 147 92" fill="none" xmlns="http://www.w3.org/2000/svg">
<path d="M46.361 38.2872H52.673L51.479 36.1427H72.896V38.2812H73.61V35.4031H44.405L46.361 38.2872ZM46.967 41.1146H73.604V38.9702H46.622L46.967 41.1146ZM53.732 44.7056H47.552L47.072 41.7797H73.61V44.7056H72.893V42.4657H53.507L53.732 44.7056ZM63.629 46.7695H73.607V48.3055H63.629V46.7695ZM74.396 35.4031H84.467V39.7098H74.396V35.4031ZM48.989 52.0128C49.151 52.2693 49.454 52.5675 50.459 52.8509C50.897 52.9612 51.374 53.0716 52.004 53.2147L52.244 53.2714H62.93V51.7503H48.848C48.887 51.8398 48.932 51.9293 48.986 52.0128H48.989ZM62.93 49.6894H48.377L47.663 45.3945H62.93V49.6894ZM63.626 55.7171C67.355 56.4717 70.997 57.1726 73.613 57.5961V50.3843H63.626V55.7171ZM100.454 44.7056H85.154V40.3958H101.153L100.454 44.7056ZM85.154 36.772V38.3021L101.609 38.2961L102.641 36.772H85.154ZM38 32L42.848 39.0656C43.379 42.066 44.768 49.7997 44.927 50.5484L44.945 50.6438C45.389 52.7495 45.662 54.0409 49.715 55.0371C55.19 56.3792 67.706 58.983 73.997 60C80.288 58.983 92.81 56.3762 98.288 55.0371C102.338 54.0409 102.608 52.7495 103.055 50.6438L103.073 50.5484C103.232 49.7938 104.621 42.066 105.152 39.0656L110 32H38ZM102.362 38.9642L101.531 44.0852C101.051 47.0498 100.73 49.0273 100.571 49.9041L100.55 50.0085L100.514 50.2173C100.133 52.2812 99.965 53.2058 97.784 53.8112C93.236 54.9237 80.06 57.7184 74.003 58.6608C67.949 57.7184 54.773 54.9208 50.228 53.8112C48.047 53.2058 47.879 52.2812 47.498 50.2143L47.441 49.9041C47.282 49.0452 46.973 47.1304 46.511 44.2671L45.65 38.9612L41.828 33.3242H106.178L102.362 38.9642ZM75.11 48.3055H74.396V45.3945H100.346L99.866 48.3115H93.854C93.947 47.8014 94.124 46.346 94.151 46.1342H75.11V48.3055ZM74.396 51.115H99.362L99.764 48.9795H74.396V51.115ZM74.396 41.7827H84.47V43.3217H74.396V41.7827ZM74.396 51.7503V57.5931C80.741 56.5194 93.065 53.9991 97.55 52.8449C98.564 52.5854 98.864 52.2693 99.026 52.0128C99.0806 51.9305 99.1259 51.8425 99.161 51.7503H74.396ZM81.284 55.5739L80.039 55.8185C79.409 55.9438 78.044 56.1913 76.844 56.412L75.113 56.7282V52.487H92.753C91.943 53.4712 90.317 53.7904 81.284 55.5739Z" fill="black"/>
</svg>
