<svg width="147" height="92" viewBox="0 0 147 92" fill="none" xmlns="http://www.w3.org/2000/svg">
<path d="M93.3638 30H96.8787C97.0429 30.0417 97.3138 30.0579 97.483 30.0688C99.7185 30.2134 101.937 30.6782 103.992 31.5835C104.508 31.8106 104.957 32.0272 105.421 32.3519C106.257 32.9377 106.567 33.7696 106.889 34.6925C106.971 34.9199 107.166 35.3903 107.198 35.6107C107.05 35.4531 106.967 35.2009 106.89 35.0027C106.66 34.4102 106.448 33.7096 105.964 33.2692C105.301 32.6659 101.847 31.5878 100.906 31.4199C100.605 31.3664 100.277 31.374 99.973 31.3886L96.0074 31.6083C95.3872 31.6398 94.7677 31.6812 94.1489 31.7323C92.8931 31.8322 92.2194 31.8332 92.3671 33.3866C92.4324 34.0735 92.5733 34.7204 92.7213 35.3939C92.8359 35.9151 92.9264 36.4841 93.2184 36.939C93.5861 37.5315 94.4351 37.2567 94.9987 37.1809C95.6561 37.0925 96.3145 36.9179 96.9749 36.8614C96.684 37.5687 95.852 37.44 95.1838 37.667C93.777 38.1447 93.7969 38.7168 93.7983 40.0099L93.8067 41.7925C93.8079 42.0457 93.8355 42.4855 93.7244 42.703C93.4761 42.8685 92.5087 42.4884 92.1026 42.8547L92.11 42.9387C92.2961 43.0785 92.7234 43.0282 92.9622 43.0186C92.4532 43.2668 92.0042 43.5687 91.6776 44.0408C90.8353 45.2578 90.5992 48.6069 90.5165 50.1451C90.4947 50.5509 90.5189 51.4581 90.3851 51.8075C90.0572 51.9272 86.76 51.7883 86.2766 51.7558C85.712 51.7179 85.139 51.6707 84.5803 51.5801C84.2231 51.5222 83.8332 51.4402 83.6117 51.1258C82.8316 50.0182 83.0447 41.4595 83.3116 39.8444C83.4255 39.1554 83.7641 39.394 84.1798 39.0862C84.3493 38.9607 84.4333 38.7789 84.4897 38.581C84.6117 38.1537 84.6216 37.6478 84.6683 37.2055C84.7702 36.2406 84.8535 35.2697 84.9863 34.3087C85.18 32.9065 85.6217 32.2889 87.0509 32.0447C87.6448 31.9433 88.2409 31.8882 88.8394 31.8235C89.0429 31.8015 89.392 31.8027 89.5545 31.6796L89.5384 31.6374C88.9539 31.3738 86.9033 31.6999 86.2475 31.9136C84.749 32.3497 84.6964 34.0322 84.5468 35.3199C84.4603 36.0654 84.3767 36.8469 84.3068 37.5957C84.2879 37.7985 84.3015 38.0321 84.2104 38.2116C84.1128 38.4037 83.7259 38.462 83.5779 38.3694C83.5414 38.247 83.5576 38.0692 83.5696 37.9407C83.7299 36.2222 83.836 34.4714 84.2623 32.7927C84.4344 32.115 85.0201 31.4503 85.6483 31.1477C87.4949 30.29 89.6248 30.288 91.6187 30.1211C92.1805 30.0739 92.8157 30.0975 93.3638 30Z" fill="black"/>
<path d="M89.5049 32.3348C90.3373 32.2835 90.8155 32.4759 91.1181 33.3004C91.4762 34.2763 91.6713 35.3617 91.9651 36.3514C92.5109 38.1904 91.5332 38.2168 90.0897 38.3642C89.2713 38.4482 88.4515 38.5198 87.6309 38.579C86.9468 38.6238 85.0936 39.0228 85.1036 37.9812C85.1169 36.5905 85.2412 35.1325 85.4595 33.7576C85.5218 33.3648 85.9364 32.8978 86.3232 32.7749C87.3303 32.4965 88.4609 32.4171 89.5049 32.3348Z" fill="white"/>
<path d="M89.5241 32.6891C90.6617 32.6167 90.8105 33.4193 91.0418 34.3215C90.5837 34.2388 89.0981 34.1072 88.6577 34.1635C88.5584 34.1762 88.4832 34.1879 88.4208 34.273C88.258 34.4947 88.2586 36.2049 88.3107 36.5195C88.3347 36.6638 88.3828 36.7392 88.5111 36.8121C89.0993 37.1459 91.3296 36.8812 91.6863 37.1653C91.7349 37.204 91.7647 37.2579 91.7683 37.3202C91.7745 37.4267 91.7015 37.5424 91.6372 37.6218C91.359 37.9655 90.7584 37.9473 90.3554 37.9893C89.7147 38.0503 85.9508 38.4283 85.6224 38.2761C85.4858 38.1493 85.4476 37.9642 85.4318 37.7845C85.3632 37.0038 85.5624 34.5804 85.7543 33.8498C85.8042 33.6597 85.8906 33.4541 86.0202 33.305C86.3949 32.8736 88.881 32.7258 89.5241 32.6891Z" fill="black"/>
<path d="M84.8125 40.3972C85.092 40.3827 85.4996 40.3284 85.7612 40.4325C85.8925 40.4847 85.9001 40.7127 85.8315 40.8217C85.6904 40.9036 84.8898 40.8826 84.6442 40.8898C84.4647 40.9012 83.7691 40.9727 83.6684 40.8419C83.2291 40.2716 84.4845 40.4052 84.8125 40.3972Z" fill="white"/>
<path d="M92.2007 41.4459C92.5079 41.4386 93.1456 41.3942 93.4525 41.4858C93.5129 41.5038 93.5176 41.5583 93.537 41.6165C93.5099 41.6957 93.5069 41.7086 93.4424 41.7608C93.0989 41.7671 92.5667 41.8012 92.2271 41.7324C92.1529 41.7173 92.1403 41.672 92.1133 41.616C92.1233 41.5233 92.135 41.5138 92.2007 41.4459Z" fill="white"/>
<path d="M92.1664 40.2104C92.3913 40.1938 93.4049 40.1581 93.5444 40.2681C93.5776 40.3543 93.5604 40.4014 93.543 40.4904C93.3051 40.4937 92.2845 40.5471 92.1463 40.4304C92.1129 40.3481 92.1402 40.2945 92.1664 40.2104Z" fill="white"/>
<path d="M92.2035 42.3021C92.5208 42.2922 92.8422 42.2788 93.1596 42.2783C93.3069 42.2781 93.4391 42.2793 93.5132 42.413C93.507 42.5079 93.5018 42.5179 93.4421 42.5922C93.0841 42.5952 92.6002 42.6178 92.2444 42.5602C92.1619 42.5468 92.144 42.4974 92.1152 42.4386C92.1374 42.3441 92.1205 42.3796 92.2035 42.3021Z" fill="white"/>
<path d="M92.5379 41.0132C92.7796 41.0129 93.3696 40.93 93.5403 41.0956C93.5634 41.1943 93.564 41.1526 93.522 41.2602C93.4449 41.3059 93.2869 41.2937 93.1902 41.2934C92.9713 41.295 92.2647 41.3424 92.1465 41.2299C92.1323 41.1177 92.1189 41.1415 92.1625 41.0521C92.2587 40.9915 92.4184 41.0109 92.5379 41.0132Z" fill="white"/>
<path d="M92.1485 41.8844C92.4386 41.8772 92.7287 41.8718 93.0189 41.8679C93.1933 41.8665 93.3779 41.857 93.5 41.9773C93.5154 42.0682 93.5108 42.079 93.4693 42.162C93.2058 42.1692 92.3227 42.2425 92.1528 42.0855C92.1132 42.0079 92.1309 41.9716 92.1485 41.8844Z" fill="white"/>
<path d="M92.2156 40.6285C92.565 40.6203 92.9278 40.6077 93.2773 40.6212C93.4089 40.6263 93.5126 40.6302 93.5767 40.7493C93.5404 40.8477 93.5683 40.814 93.4601 40.8699C93.1916 40.8956 92.2327 41.0013 92.1191 40.7494C92.1447 40.6627 92.1267 40.6946 92.2156 40.6285Z" fill="white"/>
<path d="M92.9086 39.7762C93.0872 39.7702 93.4765 39.7286 93.5716 39.9282L93.5496 39.9851C93.3616 40.1264 93.1711 40.0864 92.9309 40.0792C92.7337 40.0824 92.3484 40.1244 92.2148 39.9567L92.2408 39.9067C92.4608 39.7757 92.6528 39.7897 92.9086 39.7762Z" fill="white"/>
<path d="M99.5452 60.377C99.2198 60.2885 98.8462 60.2206 98.542 60.0903C95.4675 58.7715 94.4668 54.7363 95.3057 51.7369C95.6743 50.4187 96.4871 49.0375 97.6765 48.3628C98.4858 47.9039 99.4451 47.7875 100.341 48.0395C101.155 48.2644 101.642 48.6888 102.05 49.4232C102.541 50.3064 102.924 51.2389 103.287 52.1813C103.506 52.7522 103.708 53.3557 103.984 53.9025C104.14 54.212 104.4 54.4736 104.583 54.7447C104.375 56.9293 103.317 59.6248 100.946 60.237C100.773 60.2817 100.579 60.3235 100.409 60.377H99.5452Z" fill="black"/>
<path d="M99.1365 49.9492C99.7257 49.9166 100.315 50.1603 100.779 50.5237C102.646 51.9863 102.791 55.1722 101.378 56.9827C100.906 57.5878 100.293 57.9575 99.5165 58.0441C97.6029 58.1816 96.5079 56.0571 96.372 54.3974C96.2217 52.5657 96.9739 50.1254 99.1365 49.9492Z" fill="white"/>
<path d="M98.9285 50.3569C99.9234 50.2752 100.445 50.6032 101.007 51.3972C100.686 51.358 100.644 51.3186 100.459 51.6103C100.41 51.5768 100.361 51.5436 100.313 51.5107C99.8495 51.2003 99.3762 50.9802 98.8011 51.099C98.3127 51.2047 97.8862 51.5004 97.6161 51.9209C97.103 52.7015 96.9001 53.894 97.1075 54.8033C97.2693 55.5117 97.5914 56.3217 98.2298 56.731C98.6134 56.9746 99.0788 57.0545 99.5218 56.9528C100.091 56.8199 100.504 56.4196 100.805 55.9378C100.94 55.7107 101.031 55.5433 101.146 55.3056C101.445 55.4812 101.43 55.4966 101.76 55.3838C101.635 55.8042 101.534 56.1 101.301 56.4728C100.633 57.5382 99.373 58.0502 98.2527 57.3119C97.4534 56.7851 97.0174 55.9248 96.8256 55.001C96.4761 53.3164 96.9351 50.7569 98.9285 50.3569Z" fill="black"/>
<path d="M98.9548 51.4145C99.6226 51.3718 100.147 51.6475 100.533 52.1855C101.382 53.3724 101.229 55.433 100.029 56.3372C99.3922 56.8166 98.4529 56.7343 98.0084 56.0467C97.921 55.9117 97.7545 55.6591 97.7825 55.5013C97.8454 55.4876 97.8625 55.518 97.9319 55.5625C98.5132 56.0045 99.0836 56.1014 99.6929 55.6261C101.516 54.2039 99.993 50.6973 97.7266 52.5331C97.9963 51.8948 98.2508 51.5769 98.9548 51.4145Z" fill="black"/>
<path d="M100.123 53.8779L100.165 53.8893C100.177 53.9095 100.191 53.9405 100.193 53.9636C100.254 54.8653 99.3871 55.9639 98.4227 55.4953C98.3383 55.4543 98.2568 55.3979 98.1789 55.3444C98.0406 55.2017 98.0182 55.1551 97.9297 54.9825C98.5166 54.7711 98.6143 54.6558 98.7205 54.0356C98.7878 54.0743 98.8578 54.1085 98.9299 54.1381C99.3021 54.2887 99.7663 54.0296 100.123 53.8779Z" fill="black"/>
<path d="M126.159 52.9437C126.131 53.0213 126.104 53.114 126.052 53.1791C125.907 53.3606 123.516 53.611 123.199 53.6474C122.032 53.7815 120.857 53.8668 119.686 53.959C116.542 54.2165 113.391 54.3738 110.238 54.4305C109.321 54.4563 108.405 54.4707 107.488 54.4737C107.034 54.475 106.509 54.4965 106.07 54.4331C105.333 54.3039 104.943 53.3585 105.393 52.7569C105.54 52.5599 105.998 52.5547 106.226 52.5525C107.168 52.5435 108.109 52.5629 109.051 52.5621C110.505 52.5626 111.959 52.5347 113.412 52.4783C116.519 52.3542 119.624 52.1835 122.725 51.9662L125.86 51.7064C126.038 51.6931 126.036 51.7068 126.159 51.8124V52.9437Z" fill="black"/>
<path d="M65.9121 48.7642C66.0247 48.7175 66.0147 48.6988 66.1058 48.7275C66.1728 48.9178 66.181 49.7942 66.0854 49.9717L66.0338 49.9792C65.9516 49.9151 65.939 49.8009 65.9121 49.6957V48.7642Z" fill="black"/>
<path d="M101.617 41.5993C101.643 41.5981 101.668 41.5969 101.694 41.5959C103.658 41.5208 107.477 41.5598 109.184 42.4342C109.68 42.6888 110.074 43.0964 110.48 43.4715C110.138 42.6775 109.886 42.4016 109.14 41.9724C109.941 42.0911 111.125 42.2342 111.839 42.6266C111.997 42.713 112.308 43.0403 112.5 43.1749C112.663 43.2906 112.848 43.3713 113.044 43.4117C113.928 43.5938 115.683 43.5799 116.629 43.6165C117.658 43.6564 118.842 43.6622 119.871 43.6126C120.191 43.5973 120.507 43.5715 120.824 43.5322C121.646 43.4302 121.451 42.8586 121.335 42.2591C122.107 42.2604 122.829 42.2469 123.596 42.3677C125.221 42.6233 125.686 44.2554 125.163 45.658C125.221 44.7206 125.321 43.3562 124.291 42.8964C123.615 42.5952 122.983 43.1014 122.743 43.7174C122.482 44.3853 122.499 45.1298 122.79 45.7851C123.219 46.753 123.81 46.878 124.73 46.4645L124.509 49.4852C124.484 49.8252 124.425 50.9547 124.332 51.2164C124.146 51.3684 123.083 51.4114 122.799 51.4334L120.723 51.5905C118.083 51.7824 115.441 51.9345 112.796 52.0466C111.41 52.0852 110.024 52.1144 108.637 52.1342C107.741 52.1414 106.844 52.1212 105.949 52.1669C104.776 52.2179 104.791 53.1138 105.016 54.0024C105.045 54.1167 105.092 54.2691 104.981 54.3395C104.319 54.2934 103.504 51.6325 103.246 51.0209C102.973 50.3735 102.677 49.7234 102.333 49.1097C102.01 48.5319 101.617 48.0148 101.102 47.5939C99.9385 46.6429 98.3499 46.3651 96.882 46.5138C93.8546 46.8204 93.2265 50.3939 92.8483 52.8444C92.771 53.3451 92.7904 54.1287 92.4534 54.5309C92.3137 54.6975 92.1186 54.7848 91.904 54.8037C91.6557 54.8254 91.1701 54.7516 90.9731 54.5795C90.823 54.4483 91.0396 54.11 91.0329 53.9393C91.0206 53.626 90.785 53.366 90.7708 53.0376C90.7452 52.443 90.7948 51.8342 90.8199 51.2394C90.8859 49.6748 90.9893 48.1173 91.2479 46.5708C91.3338 46.0568 91.4186 45.5221 91.5877 45.0282C91.7133 44.6617 91.9015 44.3333 92.1643 44.0475C93.3774 42.7288 97.2659 42.032 99.008 41.8088C99.8744 41.7022 100.745 41.6323 101.617 41.5993Z" fill="black"/>
<path d="M108.278 42.5329C109.286 42.4674 109.993 43.1149 110.159 44.0863C110.36 45.2606 109.983 46.6297 108.639 46.8639C106.588 47.1557 105.812 43.101 108.278 42.5329Z" fill="white"/>
<path d="M108.395 42.9741C110.173 42.8343 110.417 46.103 108.636 46.409C108.382 46.4116 108.132 46.3406 107.917 46.2047C106.789 45.4959 106.888 43.3176 108.395 42.9741Z" fill="black"/>
<path d="M108.298 43.1847C109.884 43.1234 110.06 45.6477 108.631 46.0873C107.011 46.3018 106.909 43.4369 108.298 43.1847Z" fill="white"/>
<path d="M120.764 50.5097C121.355 50.493 122.045 50.4403 122.39 51.0572C122.258 51.2487 121.882 50.9881 121.709 50.9523C121.278 50.8633 120.768 50.8787 120.341 50.9762C120.278 51.0702 120.215 51.178 120.154 51.2749C119.787 51.3718 119.079 51.4108 118.671 51.4405C117.772 51.5122 116.87 51.5421 115.969 51.5303C115.269 51.5169 114.573 51.4392 113.875 51.4135C113.257 51.3908 112.626 51.4023 112.007 51.4051C111.732 51.4027 111.578 51.3986 111.313 51.4448C111.056 51.4895 110.533 51.8813 110.35 51.6298C110.361 51.4088 111.01 51.0345 111.208 51.0128C113.449 50.768 115.723 51.0351 117.974 50.8846C118.497 50.8496 119.099 50.873 119.609 50.7816C119.696 50.7058 119.737 50.6476 119.808 50.5556C120.126 50.5354 120.445 50.5201 120.764 50.5097Z" fill="white"/>
<path d="M121.012 48.3908C121.555 48.2993 121.951 48.6468 122.294 49.0046C121.78 49.1714 121.734 48.8792 121.235 48.7569C120.968 48.6914 120.609 48.745 120.332 48.7732C120.272 48.8652 120.206 48.9697 120.126 49.0455C119.789 49.3656 116.589 49.3604 115.988 49.3217C115.313 49.2782 114.648 49.1498 113.974 49.108C113.318 49.0673 112.657 49.0665 112 49.0534C111.363 49.0406 111.355 49.194 110.78 49.3962C110.687 49.429 110.535 49.3526 110.521 49.2201C111.165 48.4395 112.062 48.658 112.96 48.6258C114.415 48.5736 115.865 48.6819 117.318 48.698C118.56 48.7118 119.772 48.4898 121.012 48.3908Z" fill="white"/>
<path d="M119.812 49.4647C120.934 49.511 121.545 49.2456 122.427 50.0725C122.365 50.085 122.14 50.1275 122.097 50.1129C121.604 49.9449 121.172 49.7717 120.635 49.8385C120.337 49.8754 120.265 49.9617 120.094 50.1869C119.663 50.3161 119.178 50.3101 118.735 50.3662C116.837 50.607 115.052 50.3039 113.16 50.2333C112.581 50.2312 112.001 50.1875 111.424 50.2335C111.125 50.2572 110.629 50.7706 110.381 50.4668C110.423 50.1969 111.073 49.8865 111.313 49.8677C114.042 49.6547 116.806 49.9954 119.539 49.7091C119.675 49.6948 119.746 49.5669 119.812 49.4647Z" fill="white"/>
<path d="M120.391 47.3341C120.693 47.321 121.102 47.2826 121.377 47.3879C121.572 47.4625 121.969 47.7346 122.058 47.9248L122.031 47.9729C121.717 48.1483 121.185 47.6623 120.824 47.691C120.235 47.7515 119.847 47.9826 119.233 47.9912C117.541 48.015 115.875 47.9901 114.185 47.8664C113.662 47.8281 112.989 47.8753 112.458 47.899C112.223 47.9099 111.824 47.875 111.602 47.9389C111.36 48.0085 110.972 48.3411 110.714 48.1568L110.703 48.0857C110.809 47.7723 111.33 47.5029 111.639 47.4604C111.975 47.4142 112.347 47.4333 112.689 47.4336L114.481 47.4353C116.455 47.4346 118.42 47.4306 120.391 47.3341Z" fill="white"/>
<path d="M111.922 46.2707C112.318 46.2262 113.372 46.2608 113.833 46.2618C115.226 46.2628 116.619 46.2711 118.011 46.2868C118.966 46.2944 119.918 46.2276 120.869 46.2764C121.172 46.292 121.822 46.6064 121.858 46.9263C121.644 47.0842 121.292 46.783 121.045 46.7219C120.857 46.6753 120.804 46.6711 120.612 46.6582C120.231 46.6761 119.92 46.7986 119.628 46.8121C118.872 46.8329 118.108 46.8497 117.352 46.8436C115.919 46.8319 114.508 46.6187 113.069 46.7002C112.664 46.7138 112.213 46.6454 111.817 46.7217C111.584 46.7665 111.112 47.2746 110.84 46.9433C110.869 46.7748 111.204 46.5733 111.339 46.4725C111.512 46.3437 111.714 46.3101 111.922 46.2707Z" fill="white"/>
<path d="M115.859 45.1593L115.982 45.1576C116.903 45.1454 120.16 45.0437 120.859 45.2944C121.169 45.4057 121.421 45.688 121.652 45.9137C121.548 45.9188 121.297 45.9339 121.205 45.9148C120.886 45.8479 120.62 45.6491 120.284 45.6508C119.829 45.653 119.367 45.704 118.911 45.7225C118.138 45.7491 117.366 45.7508 116.594 45.7276C115.364 45.6645 114.172 45.5162 112.929 45.5874C112.679 45.6018 112.209 45.5519 111.986 45.6151L111.966 45.6209C111.667 45.7056 111.141 46.1399 110.92 45.896C110.931 45.803 111.032 45.7066 111.094 45.6394C111.654 45.0324 112.782 45.175 113.555 45.173C114.323 45.1733 115.091 45.1688 115.859 45.1593Z" fill="white"/>
<path d="M115.761 44.0115C116.877 43.9965 117.994 44.0271 119.108 44.1035C119.791 44.1479 120.576 44.1186 121.151 44.5407C121.258 44.6196 121.447 44.7578 121.482 44.8857L121.451 44.9351C121.351 44.956 120.992 44.8533 120.867 44.8372C120.459 44.7811 120.057 44.7475 119.658 44.6363C118.863 44.4147 118.049 44.3982 117.23 44.4328C116.148 44.486 115.066 44.5092 113.983 44.5022C113.358 44.5008 112.725 44.4946 112.1 44.4924C111.907 44.4918 111.405 44.7649 111.187 44.6947L111.164 44.6464C111.192 44.5303 111.287 44.438 111.364 44.3503C111.635 44.0432 112.087 44.1014 112.455 44.0842C112.653 44.075 112.853 44.0742 113.049 44.0695L115.761 44.0115Z" fill="white"/>
<path d="M109.768 36.7769C110.293 36.7742 110.829 36.7734 111.354 36.79C113.766 36.866 116.804 36.7031 117.513 39.6497C116.999 39.7457 115.985 39.8064 115.57 40.183C115.514 40.2747 115.535 40.3919 115.542 40.5021C114.963 40.5004 114.306 40.4841 113.734 40.5114C113.558 40.6248 113.287 40.8254 113.361 41.0615C113.504 41.2004 113.638 41.1387 113.797 41.1515C114.243 41.1873 116.128 41.0518 116.431 41.2007C116.218 41.2962 113.825 41.2027 113.432 41.2503C113.355 41.2595 113.366 41.2619 113.323 41.3215C113.266 41.7254 113.646 41.8437 113.972 41.8424C114.299 41.8411 114.63 41.8511 114.958 41.861C116.233 41.9028 117.508 41.9337 118.784 41.9538C119.121 41.962 120.485 41.9339 120.689 42.0689C120.751 42.1514 121 42.8171 121.033 42.9575C121.036 42.995 121.027 43.0244 121.01 43.0525C120.904 43.2225 119.211 43.3044 119.191 43.229C119.123 42.9645 118.642 41.602 118.161 42.1411C118.109 42.4378 118.588 42.7344 118.587 43.0479C118.586 43.1079 118.569 43.1489 118.523 43.1864C118.247 43.413 113.821 43.1606 113.179 43.0774C112.737 42.9978 112.536 42.6502 112.18 42.4132C111.373 41.8753 110.277 41.7492 109.331 41.6028C106.935 41.248 104.511 41.1155 102.09 41.2068C99.7398 41.2928 97.5769 41.497 95.3246 42.153C95.0985 42.2188 94.2498 42.5426 94.0976 42.475C94.0495 42.3849 94.0299 42.2462 94.0345 42.1439C94.0819 41.0975 93.9533 39.9948 94.0703 38.9586C94.1524 38.2315 95.1335 37.8928 95.7574 37.7644C97.1092 37.4862 98.5363 37.3494 99.9157 37.2293C103.194 36.9714 106.48 36.8205 109.768 36.7769Z" fill="black"/>
<path d="M95.955 40.0893C96.6345 40.0433 96.6275 40.3069 97.2026 40.535C97.362 40.5982 97.6783 40.5206 97.8795 40.6058C98.0295 40.7374 97.981 41.1736 97.8777 41.3139C97.7404 41.3975 96.613 41.3578 96.2927 41.3796C95.9697 41.4106 94.6713 41.471 94.4105 41.384C94.2572 41.2438 94.2845 40.851 94.3332 40.6779C94.3788 40.516 94.9335 40.6037 95.0881 40.5627C95.4319 40.4713 95.6096 40.2084 95.955 40.0893Z" fill="white"/>
<path d="M82.0608 41.5046C82.1588 41.5001 82.2434 41.4837 82.3254 41.5298C82.374 41.6083 82.3155 42.3666 82.3087 42.5044C82.2404 43.7229 82.2266 44.9438 82.2673 46.1635C82.3038 47.3576 82.3207 48.5948 82.5287 49.7737C82.6524 50.4745 82.8462 50.9928 83.3687 51.4841C82.7653 51.4268 81.9566 51.4141 81.3404 51.3908L78.1676 51.2649C77.6044 51.2431 76.9184 51.2609 76.3621 51.1586C76.225 51.1334 76.2564 50.6671 76.2662 50.5399C76.4001 48.7962 76.298 46.9781 75.6296 45.343C74.6907 43.0516 72.0063 42.8789 69.8874 43.2147C69.298 43.3081 68.7603 43.5277 68.2187 43.7651C68.0868 42.9965 68.0609 42.7541 68.8754 42.7047C69.8592 42.6894 70.9754 42.6182 71.9696 42.5767L77.8523 42.3398C78.3662 42.3198 80.3085 42.1867 80.6777 42.2651C80.7654 42.5011 80.7152 46.1277 80.7153 46.5946L80.7185 47.8456C80.7188 47.9495 80.7504 48.5678 80.6469 48.5975C80.0745 48.7623 77.4047 48.4528 77.0718 48.6855C77.0366 48.7706 77.0403 48.7327 77.0681 48.8326C77.2323 48.9679 80.1662 48.8711 80.6022 49.0105C80.8017 49.0743 80.5831 49.7265 80.8486 49.9759C81.1448 50.2542 81.6831 50.2705 81.9004 49.8863C82.036 49.2076 81.9743 48.313 81.9711 47.5834L81.9512 43.7984C81.947 43.1203 81.9359 42.4318 81.9486 41.7537C81.9514 41.6033 81.9663 41.5901 82.0608 41.5046Z" fill="black"/>
<path d="M70.8346 43.4217C71.8734 43.2819 73.6692 43.6189 74.4787 44.3309C75.5636 45.2852 75.8093 47.0333 75.9337 48.4064C75.992 49.0502 75.9946 51.663 75.67 52.0363C75.3352 52.2084 74.5937 52.0693 74.2016 52.1046C73.605 52.1584 73.3804 52.5663 73.227 51.7789C72.9403 50.307 72.6248 48.4819 71.6739 47.2855C71.2831 46.8562 70.7792 46.5064 70.1614 46.5942C68.8274 46.7837 68.2035 48.2678 67.8847 49.4062C67.6973 50.0355 67.6767 50.7252 67.2917 51.276C67.1196 51.5722 66.4709 51.718 66.467 51.2249C66.4571 49.9391 66.4309 48.6148 66.5864 47.3375C66.6958 46.4902 66.814 45.5114 67.4022 44.8435C68.1905 43.9486 69.6928 43.5187 70.8346 43.4217Z" fill="black"/>
<path d="M99.379 31.9828C100.403 31.9367 100.299 31.96 100.668 32.9598C100.974 33.793 101.307 34.6382 101.573 35.4844C101.587 35.5268 101.559 35.5431 101.534 35.5744C101.419 35.6008 101.303 35.6155 101.185 35.6234C100.437 35.674 99.6914 35.7672 98.9421 35.8048L98.77 35.5672C98.68 35.6305 98.4405 35.8013 98.3317 35.8235C97.7057 35.9514 97.0058 36.0371 96.368 36.1012C96.2942 36.1086 96.2962 36.0906 96.2503 36.0431C96.2009 35.9197 96.2227 35.7599 96.2298 35.6238C96.2509 34.1304 94.3841 34.8541 93.5849 34.4598C93.4432 34.3899 93.3247 33.1216 93.2929 32.9039C93.2537 32.6358 93.2816 32.3424 93.6149 32.3051C94.1601 32.254 94.7292 32.2268 95.28 32.1938C96.6457 32.1124 98.0119 32.0421 99.379 31.9828Z" fill="black"/>
<path d="M121.823 54.2445C121.892 54.2343 121.901 54.2345 121.965 54.2614C122.014 54.3559 121.956 54.5221 121.934 54.6273C121.628 56.083 120.979 57.3903 119.647 58.1438C118.638 58.7093 117.447 58.8537 116.332 58.5456C115.087 58.1937 114.366 57.4152 113.757 56.3279C113.498 55.8575 113.308 55.3128 113.191 54.79C113.673 54.7707 114.155 54.7438 114.636 54.7091C114.675 54.7715 114.746 54.9081 114.771 54.9736C115.561 57.1061 118.373 57.2764 119.51 55.3598C119.661 55.1049 119.818 54.4381 120.137 54.3856C120.649 54.3017 121.303 54.2851 121.823 54.2445Z" fill="black"/>
<path d="M70.9653 48.3311C71.2705 48.3345 71.527 48.3741 71.7896 48.5468C71.9605 48.6595 72.1004 48.8133 72.1963 48.9942C72.4009 49.3758 72.6507 50.6123 72.7479 51.0757C72.5931 50.8022 72.4798 50.5122 72.3053 50.248C71.9078 49.6459 71.1881 49.2471 70.5246 49.7242C69.9631 50.1279 69.6566 50.8534 69.5352 51.5146C69.3328 52.677 69.3953 54.0182 70.0714 55.0226C70.956 56.3367 72.1645 55.7861 72.7333 54.5808C73.0712 53.8646 73.1481 53.271 73.2781 52.513C73.3999 52.7551 73.4565 52.8421 73.6303 53.0381C74.0538 53.3677 74.2846 53.2866 74.7738 53.3814C74.8624 53.3986 74.884 53.4255 74.922 53.489C74.9421 53.6582 74.8832 53.8871 74.847 54.0541C74.5527 55.4579 73.608 57.2847 72.0028 57.4488C69.8959 57.6643 68.9747 55.3969 68.7984 53.6664C68.6374 52.0857 68.783 50.3541 69.7555 49.0387C70.0659 48.6189 70.4515 48.3875 70.9653 48.3311Z" fill="black"/>
<path d="M97.2517 46.8632C98.239 46.7424 99.699 47.0269 100.514 47.649C100.256 47.5955 100.027 47.5544 99.7643 47.5322C96.6289 47.2674 94.8905 50.4346 94.6811 53.1587C94.4824 55.0699 95.0989 54.6972 92.8672 54.6975C93.0838 54.0344 93.219 53.0057 93.3242 52.2932C93.539 50.8376 93.988 48.9553 94.9498 47.8182C95.5678 47.0877 96.3479 46.9162 97.2517 46.8632Z" fill="black"/>
<path d="M80.7042 40.9569L80.8791 40.9463C80.9843 40.9401 81.4036 40.8862 81.4553 40.9829C81.705 41.4492 81.1057 41.3723 80.8684 41.4782C80.7561 41.5284 80.7267 41.7698 80.7091 41.8797C79.7157 41.9541 78.603 41.9854 77.6057 42.0317L70.8653 42.3259C70.1553 42.3578 68.79 42.3587 68.0498 42.491C67.9468 42.5396 67.8982 42.7027 67.904 42.7947C67.9593 43.6783 68.13 43.8955 67.3011 44.4099C67.3191 44.2835 67.3143 44.0937 67.315 43.9615C67.3084 43.5604 67.3924 42.4187 67.2099 42.1619C67.0612 42.0541 66.6756 42.1045 66.4665 42.1083C66.297 42.0009 66.1849 41.843 66.0625 41.6873C66.5467 41.6731 67.1515 41.6111 67.6626 41.5868L72.1177 41.3867L77.648 41.117C78.659 41.0662 79.6966 41.0277 80.7042 40.9569Z" fill="black"/>
<path d="M73.8841 52.5254C74.0385 52.5568 74.4947 52.5766 74.6789 52.5908C75.1207 52.6274 75.5621 52.6679 76.0032 52.7122L84.7355 53.5284C85.8583 53.6274 86.9802 53.7365 88.101 53.8558C88.3033 53.8768 88.5489 53.9066 88.7493 53.9147C89.405 53.9414 89.4797 53.9554 89.4026 54.6157C89.2876 54.6254 89.1389 54.6207 89.0224 54.612C88.1978 54.5507 87.3707 54.468 86.5477 54.3867C84.5009 54.1698 82.4555 53.9409 80.4114 53.6999L76.2844 53.2256C75.5977 53.1461 74.9097 53.0747 74.2248 52.9825C73.8942 52.938 73.8407 52.8598 73.8841 52.5254Z" fill="black"/>
<path d="M101.061 32.0342C101.49 32.1101 102.603 32.5011 103.075 32.6523C103.862 32.9336 104.712 33.1061 105.47 33.4557C106.166 33.7763 106.395 35.0175 106.732 35.6453C106.809 35.7889 107.012 36.2715 107.055 36.412L107.024 36.4558L106.84 36.4727C106.735 36.4766 106.479 36.493 106.417 36.4319C105.937 35.9622 105.805 34.5323 105.156 34.1879C104.189 33.8025 102.903 34.4202 101.924 34.2404C101.793 34.2162 101.135 32.2658 101.061 32.0342Z" fill="black"/>
<path d="M76.2247 51.4981C76.3996 51.4794 76.8079 51.519 77.0015 51.5298L78.4791 51.6041L81.5512 51.7251C82.5442 51.7585 83.4858 51.7434 84.4594 51.9677C84.7712 52.0395 85.1604 52.0694 85.4818 52.1036C85.4999 52.2898 85.5573 52.7818 85.4293 52.912C85.0574 52.9263 84.2394 52.8314 83.8381 52.7953L80.929 52.5373L77.8171 52.2638C77.4025 52.2275 76.5531 52.1764 76.1793 52.1015C76.0661 51.9695 76.1627 51.6425 76.2247 51.4981Z" fill="black"/>
<path d="M86.0469 54.7207C87.0593 54.7874 88.0646 54.9482 89.0861 54.9772C89.6493 54.9931 90.0749 54.837 90.5968 54.8586C90.7288 54.8641 91.2654 55.0532 91.429 55.1077C91.2145 55.4202 91.0764 55.5719 90.8017 55.8332C90.0053 56.4988 88.9501 56.7224 87.9349 56.4703C87.0269 56.2448 86.4894 55.4919 86.0469 54.7207Z" fill="black"/>
<path d="M119.046 54.4485C119.156 54.436 119.391 54.4345 119.51 54.4307C119.465 54.6494 119.387 54.8602 119.279 55.0559C118.593 56.3041 117.164 56.6284 115.943 55.9517C115.675 55.7675 114.921 55.0921 115.089 54.7431C115.206 54.6695 118.613 54.4791 119.046 54.4485Z" fill="black"/>
<path d="M81.5256 41.6896C81.6231 41.6886 81.5908 41.6751 81.6529 41.7319C81.6587 41.7774 81.665 41.8315 81.6657 41.877C81.6835 43.0646 81.665 44.255 81.6747 45.4425L81.6816 47.9969C81.6821 48.4798 81.6861 48.9626 81.6774 49.4453C81.6705 49.8292 81.572 49.83 81.2314 49.8307C81.0554 49.7629 81.0154 49.6741 81.0148 49.4919C81.0125 48.8151 81.0187 48.1379 81.0207 47.4609L81.0275 43.1658C81.027 42.9453 80.9878 42.027 81.0437 41.7901C81.068 41.6869 81.3879 41.6933 81.5256 41.6896Z" fill="black"/>
<path d="M70.0879 46.9414C71.0432 46.8853 71.3839 47.4482 71.8627 48.143C71.3851 48.0247 70.9698 47.8928 70.4811 48.0737C69.7685 48.3374 69.3065 49.0276 69.0005 49.6828C68.8349 50.0775 68.7489 50.8654 68.0967 50.5669C68.0768 50.5578 68.0258 50.5164 68.0226 50.4949C67.9886 50.2665 68.0879 50.0209 68.1292 49.7959C68.2586 49.2111 68.4446 48.6356 68.747 48.1143C69.0738 47.5507 69.437 47.1181 70.0879 46.9414Z" fill="black"/>
<path d="M116.258 37.1777C117.245 37.4799 119.102 37.9317 119.649 38.9004C119.752 39.0842 120.283 40.466 120.141 40.5619C119.95 40.5371 119.748 40.5718 119.537 40.5383L119.528 40.4923C119.499 39.8892 118.485 39.7926 118.051 39.645C117.628 38.3396 117.37 37.9975 116.258 37.1777Z" fill="black"/>
<path d="M86.2339 52.1471C87.2205 52.1151 88.179 52.1813 89.1611 52.2261C89.5149 52.2422 89.9906 52.1866 90.3311 52.2614C90.5049 52.4181 90.4481 53.1229 90.2879 53.3202C89.9629 53.3548 86.4384 53.0732 86.275 52.9707C86.218 52.935 86.1931 52.8535 86.18 52.7905C86.1476 52.6337 86.148 52.281 86.2339 52.1471Z" fill="black"/>
<path d="M70.951 49.8825C71.4485 49.8249 71.8723 50.0307 72.0782 50.5212C72.1002 50.5737 72.1019 50.5801 72.0776 50.6283C71.9031 50.6192 71.5732 50.4233 71.3848 50.3686C70.6566 50.1567 70.2123 50.8821 70.0441 51.4912C69.8111 52.3347 69.8631 53.4363 70.2637 54.2267C70.6362 54.9614 71.4129 54.9737 71.8611 54.3073C71.9955 54.1093 72.0627 53.9367 72.1739 53.7316C72.4083 53.2995 72.6456 52.9579 72.7594 52.4755C72.7804 52.2671 72.8088 52.0595 72.8444 51.8531C72.9783 52.5217 72.9128 53.4576 72.6415 54.089C72.4503 54.5551 72.0582 55.1861 71.5659 55.3768C70.5411 55.7738 70.0001 54.3003 69.8184 53.5649C69.5887 52.622 69.7185 51.6303 70.1149 50.7502C70.308 50.3215 70.5003 50.0554 70.951 49.8825Z" fill="black"/>
<path d="M71.152 50.6231C71.3341 50.6221 71.4392 50.6398 71.5956 50.7468C71.9548 50.9924 72.1162 51.6245 72.1846 52.0352C72.2906 52.7251 72.1752 53.4832 71.7606 54.0572C71.5595 54.3354 71.1765 54.6334 70.8524 54.3604C70.7652 54.2869 70.6371 54.0785 70.6251 53.965L70.6623 53.9624C71.4036 54.015 71.768 53.6927 71.9066 52.9619C72.0047 52.4498 71.8904 51.9198 71.59 51.4935C71.21 50.9432 70.8732 51.0106 70.3867 51.3479C70.5975 50.9439 70.682 50.7381 71.152 50.6231Z" fill="black"/>
<path d="M102.159 36.3652C102.629 36.3735 102.936 36.515 103.368 36.6803C101.892 36.6927 100.162 36.8611 98.6914 37.015C98.5687 37.0452 97.8012 37.1156 97.6309 37.1343C97.9883 36.6227 98.1504 36.7032 98.7561 36.6515C99.8878 36.5548 101.025 36.4275 102.159 36.3652Z" fill="black"/>
<path d="M82.7346 48.3791C82.5461 45.8487 82.4735 42.4745 82.9061 39.9629C82.9464 40.1461 82.8586 41.205 82.8441 41.4844C82.8131 42.1763 82.789 42.8685 82.7717 43.5608C82.7521 45.1672 82.7719 46.7738 82.831 48.3792L82.7346 48.3791Z" fill="black"/>
<path d="M101.709 35.9536C102.547 35.8677 104.076 36.2952 104.942 36.5192C104.054 36.5732 102.895 36.0258 101.795 36.069C101.018 36.1413 100.24 36.2086 99.4617 36.2711C99.1114 36.2985 98.643 36.3473 98.2988 36.3476C98.8831 36.1806 99.1508 36.1951 99.7468 36.1348C100.4 36.0666 101.054 36.0062 101.709 35.9536Z" fill="black"/>
<path d="M92.9216 34.3145C93.1948 34.9856 93.1669 36.0886 93.6286 36.7006C93.8826 37.0372 94.701 36.7802 95.0547 36.7426C95.806 36.6627 96.9262 36.3245 97.6661 36.3612L97.684 36.4149C97.3072 36.6084 96.4282 36.6004 95.9698 36.682C95.3565 36.7912 94.7053 36.957 94.0913 37.0049C93.4936 37.0514 93.2673 36.3487 93.1839 35.8831C93.0905 35.3892 92.9001 34.808 92.9216 34.3145Z" fill="black"/>
<path d="M89.8367 53.6699C90.0292 53.7025 90.1811 53.6899 90.3578 53.7157C90.871 53.7905 90.725 54.2551 90.4025 54.4715C89.9763 54.6323 89.6328 54.6696 89.7049 54.0594C89.7259 53.8822 89.6952 53.8093 89.8367 53.6699Z" fill="black"/>
<path d="M123.922 43.27C125.023 43.2317 125.134 45.728 124.256 46.1195C124.163 46.1608 123.994 46.2074 123.898 46.1707C123.937 46.0993 123.972 46.1023 124.06 46.0608C124.893 45.6791 124.911 44.2364 124.307 43.6491C124.055 43.4046 123.707 43.4533 123.391 43.4698C123.6 43.3624 123.69 43.3189 123.922 43.27Z" fill="black"/>
<path d="M71.3617 52.7178C71.4645 52.796 71.4962 53.0629 71.5227 53.1968C71.4278 53.5088 71.3209 53.7615 70.9552 53.6885C70.858 53.601 70.8035 53.5114 70.748 53.3955C70.7506 53.288 70.7631 53.2609 70.8724 53.2262C71.1838 53.1274 71.2145 52.9976 71.3617 52.7178Z" fill="black"/>
<path d="M122.167 54.668C122.326 54.6781 122.401 54.6694 122.489 54.8175C122.525 54.9711 122.467 55.0684 122.39 55.2004C122.327 55.2057 122.232 55.2098 122.177 55.1798C122.117 55.1472 122.074 55.0892 122.061 55.0217C122.039 54.9115 122.102 54.7593 122.167 54.668Z" fill="black"/>
<path d="M121.971 55.3436C122.14 55.3415 122.19 55.3337 122.292 55.474C122.32 55.644 122.258 55.714 122.161 55.8527C122 55.8756 121.973 55.8964 121.875 55.7625C121.842 55.6022 121.895 55.4845 121.971 55.3436Z" fill="black"/>
<path d="M104.712 55.7226C104.836 55.7202 104.806 55.7049 104.908 55.7581C105.004 55.92 104.978 56.1598 104.867 56.3055L104.697 56.2937C104.487 56.1496 104.589 55.8941 104.712 55.7226Z" fill="black"/>
<path d="M121.72 56.0154C121.826 56.0103 121.88 56.0125 121.963 56.0782C122.06 56.2645 121.976 56.3648 121.845 56.5007C121.796 56.5103 121.72 56.5133 121.669 56.5171C121.575 56.4684 121.606 56.4986 121.555 56.3991C121.547 56.233 121.614 56.1339 121.72 56.0154Z" fill="black"/>
<path d="M120.141 40.5625C119.669 40.6701 118.668 40.5409 118.144 40.5828C118.091 40.587 118.059 40.5554 118.02 40.5264C118.082 40.4787 119.344 40.4936 119.528 40.4929L119.536 40.5388C119.747 40.5724 119.949 40.5377 120.141 40.5625Z" fill="#2A2928"/>
<path d="M121.37 56.6642C121.488 56.6639 121.513 56.6604 121.621 56.7067C121.75 56.8617 121.63 56.9776 121.523 57.11C121.43 57.1333 121.411 57.1411 121.316 57.1142C121.176 56.9797 121.291 56.804 121.37 56.6642Z" fill="black"/>
<path d="M75.1172 54.0371C75.421 54.1656 75.303 54.4534 75.1528 54.6532C75.0729 54.6325 75.0593 54.6287 74.9895 54.5852C74.902 54.3916 74.9832 54.188 75.1172 54.0371Z" fill="black"/>
<path d="M104.881 54.9229C105.14 55.0285 105.194 55.3386 104.978 55.5009C104.892 55.4765 104.874 55.474 104.805 55.4166C104.716 55.2553 104.752 55.0508 104.881 54.9229Z" fill="black"/>
<path d="M117.865 41.2365C118.532 41.2291 119.655 41.2101 120.299 41.297C119.751 41.3816 118.748 41.2829 118.149 41.2881C118.066 41.2585 117.955 41.2486 117.865 41.2365Z" fill="#686667"/>
<path d="M104.475 56.6074C104.868 56.6176 104.706 56.8881 104.608 57.1235C104.48 57.1133 104.459 57.1115 104.385 57.0323C104.34 56.8816 104.413 56.7525 104.475 56.6074Z" fill="black"/>
<path d="M122.254 54.1575C122.416 54.1394 122.49 54.1045 122.592 54.2398C122.602 54.3583 122.568 54.4225 122.525 54.5335C122.383 54.5258 122.248 54.4973 122.192 54.352C122.19 54.2513 122.196 54.2405 122.254 54.1575Z" fill="black"/>
<path d="M121.085 57.1865C121.149 57.1964 121.174 57.2173 121.232 57.2504C121.325 57.4256 121.169 57.5238 121.036 57.6235C120.924 57.6077 120.905 57.6063 120.842 57.5353L120.847 57.4522C120.919 57.3225 120.972 57.2851 121.085 57.1865Z" fill="black"/>
<path d="M75.1603 53.4268C75.313 53.4353 75.355 53.4286 75.4343 53.5656C75.4482 53.6747 75.4092 53.7647 75.3754 53.8698C75.2604 53.8764 75.2371 53.872 75.1568 53.8001C75.1126 53.6977 75.1462 53.5428 75.1603 53.4268Z" fill="black"/>
<path d="M83.9906 38.7121C84.0311 38.6984 84.0402 38.7038 84.0843 38.7062C84.1149 38.8916 83.7313 38.97 83.5987 38.9961C83.5292 38.974 83.5174 38.9718 83.4707 38.9166C83.5027 38.765 83.8558 38.7353 83.9906 38.7121Z" fill="black"/>
<path d="M104.249 57.332C104.284 57.3382 104.338 57.3535 104.374 57.3628C104.506 57.5138 104.413 57.6335 104.302 57.7674L104.171 57.7494C104.02 57.6151 104.157 57.4759 104.249 57.332Z" fill="black"/>
<path d="M82.7344 48.3799L82.8308 48.3799L82.8312 48.5409C82.8644 48.8103 82.9119 49.5387 82.8575 49.7847C82.8394 49.6116 82.769 49.051 82.774 48.9066C82.762 48.731 82.7488 48.5554 82.7344 48.3799Z" fill="#686667"/>
<path d="M82.7344 48.3799L82.8308 48.3799L82.8312 48.5409C82.8285 48.6334 82.8393 48.8435 82.7948 48.9016L82.774 48.9066C82.762 48.731 82.7488 48.5554 82.7344 48.3799Z" fill="black"/>
<path d="M120.683 57.7217C120.728 57.7315 120.75 57.7427 120.792 57.7598L120.808 57.8157C120.755 57.9463 120.513 58.0547 120.387 58.1189L120.354 58.1261L120.324 58.0933C120.388 57.9297 120.536 57.8082 120.683 57.7217Z" fill="black"/>
<path d="M118.147 41.288C117.947 41.295 117.614 41.3092 117.428 41.2679L117.4 41.2616L117.411 41.2689L117.432 41.2232L117.437 41.2761L117.464 41.2227V41.2821L117.495 41.2228C117.622 41.2246 117.736 41.2266 117.863 41.2364C117.953 41.2485 118.064 41.2585 118.147 41.288Z" fill="#C5C4C6"/>
<path d="M43.8361 38.5606C44.8304 38.3716 46.2813 38.3076 47.2975 38.2627C50.477 38.1224 53.6881 38.0213 56.8505 38.439C57.3541 38.5055 57.991 38.5196 58.4539 38.7453C58.5603 38.8031 58.9321 39.3054 59.0308 39.4398C59.0827 39.3561 59.071 39.1548 59.0423 39.0591C58.87 38.4836 58.4422 38.259 57.9035 38.0846C57.0743 37.816 56.2049 37.6618 55.3455 37.5237C50.9605 36.8404 46.5043 36.879 42.0988 37.3398C40.5513 37.5016 39.0641 37.6957 37.5589 38.1035C35.9925 38.5277 35.3112 39.0095 34.231 40.1711C33.6334 40.8144 33.0563 41.4762 32.4999 42.1557C32.1973 42.5254 31.8367 43.014 31.5276 43.3586C31.0438 43.5242 29.653 44.0685 29.2424 44.1022C27.386 44.2454 25.47 44.1931 23.6534 44.6385C23.2266 44.7432 22.8671 45.0225 22.7023 45.4305C22.196 46.6828 21.85 48.6153 21.8518 49.9673C22.1045 50.1016 22.3105 50.1953 22.4761 50.4414C22.8214 50.9544 22.8152 51.6001 22.7885 52.1913C23.1786 52.3266 25.1495 53.0755 25.4528 52.93C25.5188 52.8274 25.5076 52.6244 25.5181 52.4869C25.6551 52.4297 25.8098 52.3603 25.9503 52.3179C26.1128 54.8653 27.0863 57.7723 30.1421 57.4908C31.728 57.3448 32.4538 56.479 33.1207 55.1498C34.5873 55.319 36.1577 55.576 37.6246 55.7923L43.7101 56.6769L46.7569 57.1054C47.3607 57.1882 47.9637 57.2825 48.5721 57.3176C49.2527 57.3569 49.4792 56.9764 49.8238 56.4854C50.2828 56.5472 50.8588 56.5927 51.2918 56.6625C51.4235 57.041 51.4902 57.4439 51.6296 57.8157C52.1753 59.2695 53.0094 60.741 54.4938 61.4011C58.0844 62.9978 61.7333 60.6599 62.2051 56.8592C61.0549 56.5593 59.8212 56.2158 60.0918 54.6037C60.1249 54.4069 60.3032 54.2467 60.4666 54.1434C61.3546 54.0953 62.2274 54.3296 63.1791 54.2713C65.077 54.1552 66.9232 53.8741 68.8091 53.6626C71.2377 53.5215 73.6525 53.5259 76.0836 53.4071C77.0508 53.3598 77.9287 53.1949 78.9151 53.0285C79.9495 52.854 81.3987 52.4558 82.4291 52.7511C82.8749 52.8789 83.3059 53.5029 83.4607 53.9315C82.8906 53.9762 82.2926 53.9566 81.7347 54.0469C80.1952 54.2962 78.6609 54.7161 77.1033 54.848C74.4208 55.0751 71.7308 55.0609 69.0423 55.1167C67.7853 55.1428 66.4994 55.4307 65.242 55.5062C64.0694 55.5869 62.7858 55.6127 61.6113 55.523C61.3556 55.5035 60.5539 55.2658 60.4181 55.3504C60.3965 55.4619 60.4525 55.6178 60.5216 55.7051C61.2499 56.6264 62.4809 56.5581 63.5336 56.5521C64.262 56.548 64.9109 56.55 65.6313 56.504C66.6282 56.4461 67.6549 56.2864 68.6431 56.2228C71.1223 56.0669 73.6025 56.0737 76.0787 55.8631C77.8487 55.7219 79.5794 55.3728 81.3138 55.0051C81.8976 54.8814 82.4715 54.8087 83.0474 54.6238C83.7317 54.4041 83.7077 53.8146 83.3361 53.291C82.7954 52.5291 82.0994 52.536 81.2703 52.3438C81.5094 50.9996 81.3738 49.9229 81.5979 48.598C81.7044 47.9683 81.8653 47.8889 82.2006 47.3717C82.6048 46.7484 82.6319 46.0553 82.6329 45.3361C82.6299 45.0543 82.636 44.6955 82.4756 44.4527C82.3899 44.323 82.047 44.2559 81.8944 44.2403C79.711 44.0174 77.5057 44.0537 75.3182 43.886C74.8901 43.8532 74.4851 43.6741 74.07 43.5756C73.7069 43.4947 73.2401 43.4296 72.8702 43.3776C72.3431 43.3049 71.8153 43.2367 71.2869 43.1733C71.101 43.1508 70.6331 43.1085 70.4806 43.0623C70.4143 42.7283 71.1956 42.4963 71.4413 42.3984C70.0403 42.0922 67.8176 42.2004 66.3532 42.2554C65.3068 42.3031 64.2593 42.3189 63.2119 42.3027C62.6752 42.2961 61.5973 42.2909 61.1046 42.14C60.499 41.4558 58.9925 39.3114 58.4401 38.9647C57.9777 38.6744 54.984 38.4915 54.3307 38.4512C53.0589 38.3729 45.3947 38.3062 44.803 38.8944C44.6669 39.0295 44.6608 39.2901 44.671 39.4675C44.7047 40.0315 45.1467 42.6287 45.4683 42.9863C46.1577 43.1371 49.1535 42.6286 50.0337 42.5812C50.4826 42.5571 51.2628 42.4454 51.745 42.4186C51.8398 42.4133 52.1162 42.2256 52.2159 42.1876C52.2968 42.1569 52.4505 42.1313 52.5422 42.1129C52.4468 42.1835 51.8374 42.5653 51.743 42.5824C51.3016 42.6621 50.7894 42.7138 50.3418 42.7688C49.4793 42.8766 48.6175 42.9893 47.7564 43.1069L45.7679 43.3831C45.6034 43.4074 44.9003 43.5375 44.7997 43.4965C44.7789 43.2832 44.7597 43.1401 44.7177 42.9302C44.5832 41.9981 44.3676 40.9989 44.1872 40.0713C44.1143 39.697 43.9508 38.881 43.8361 38.5606Z" fill="black"/>
<path d="M44.6585 42.9463C44.5718 42.4769 43.9165 38.7713 43.6736 38.5833C43.2344 38.2437 39.7267 38.9305 39.0814 39.0665C37.814 39.3336 37.5271 39.7644 36.8649 40.856C36.5686 41.3444 35.2368 43.418 35.1431 43.7966C35.2599 43.9932 37.9502 43.8109 38.3219 43.7992C39.5781 43.7674 40.8338 43.7255 42.0894 43.6732C42.5596 43.6581 44.4048 43.6459 44.701 43.5129L44.799 43.496C44.7783 43.2827 44.759 43.1396 44.717 42.9297L44.6585 42.9463Z" fill="white"/>
<path d="M44.7176 42.9296L44.6591 42.9462C44.6913 43.1621 44.7173 43.2941 44.7016 43.5128L44.7996 43.4959C44.7788 43.2827 44.7596 43.1395 44.7176 42.9296Z" fill="black"/>
<path d="M43.3107 38.82C42.4289 38.7803 40.8294 39.0266 39.9748 39.1927C39.0697 39.3685 38.0798 39.492 37.5977 40.3285C37.3652 40.7316 35.7333 43.1662 35.7916 43.4657C36.2183 43.6034 39.386 43.4355 40.0065 43.4112C40.7329 43.3827 43.8346 43.3697 44.3204 43.1521L44.3076 43.0877C44.1046 42.9093 40.2422 42.8941 39.7104 42.8907C38.6668 42.8842 37.3802 43.0167 36.3174 43.0391C36.5697 42.583 37.5508 40.8662 37.8925 40.5786C38.4614 40.1 42.8908 40.3989 43.8826 40.4703C43.8431 40.0769 43.7191 39.4029 43.5618 39.0358C43.5075 38.9087 43.4365 38.8614 43.3107 38.82Z" fill="black"/>
<path d="M55.3772 49.8032C55.3375 49.7977 55.2976 49.7944 55.2576 49.7932C52.9985 49.7153 51.8334 52.3971 51.733 54.3019C51.6335 56.1935 51.9419 58.0814 53.2783 59.5201C53.8088 60.091 54.524 60.5229 55.3153 60.5398C56.1225 60.535 56.4833 60.4736 57.1573 59.9562C58.2837 59.0822 58.7613 57.6941 58.9583 56.3437C59.2951 54.034 58.1164 50.1166 55.3772 49.8032Z" fill="white"/>
<path d="M55.597 51.1372C51.8669 50.9958 51.9088 58.484 55.1871 59.3207C55.2827 59.3452 55.3855 59.3624 55.4829 59.3803C57.2353 59.4761 58.0906 57.8337 58.3491 56.3064C58.6551 54.4982 57.7578 51.3862 55.597 51.1372Z" fill="black"/>
<path d="M55.652 51.6237C52.6574 51.3309 52.1384 58.0773 55.5012 58.8901C55.6984 58.8991 55.9616 58.913 56.1457 58.8533C59.0506 57.9113 58.581 52.0352 55.652 51.6237Z" fill="white"/>
<path d="M55.7117 51.8529C54.415 51.7566 53.7304 52.8692 53.4404 53.9801C53.5908 54.0659 53.6835 54.0923 53.8455 54.1454C53.8501 55.1831 53.8584 56.1947 54.4841 57.0854C54.7868 57.5164 55.2298 57.906 55.7648 57.9935C56.1905 58.0629 56.6263 57.9587 56.9745 57.7043C57.5453 57.2847 57.7668 56.61 57.8693 55.9397C57.9362 55.5019 57.5623 55.5037 57.2359 55.4632C57.0335 55.438 56.8266 55.4264 56.6249 55.4096C56.5907 55.406 56.4292 55.3822 56.4156 55.3588C56.2414 55.0588 56.1863 54.8092 55.9834 54.5099C56.221 55.1669 56.3532 56.3094 55.3399 56.3378C55.1134 56.3337 54.9248 56.2304 54.7736 56.0695C53.469 54.6809 54.8009 51.2395 56.8884 52.7271C57.1282 52.898 57.354 53.23 57.5608 53.4617C57.1598 52.6709 56.6266 52.0156 55.7117 51.8529Z" fill="black"/>
<path d="M54.557 55.2401L54.5305 55.2692C54.4566 55.7621 55.3373 56.6439 55.879 55.932C55.9391 55.8008 56.0038 55.599 56.0535 55.4586C55.4555 55.7559 54.9797 55.9408 54.557 55.2401Z" fill="black"/>
<path d="M76.9243 48.7705C76.6491 48.7363 75.9611 48.7596 75.6669 48.763C73.7036 48.7855 71.8129 49.0769 69.8833 49.4634C68.8479 49.663 67.8264 49.8993 66.8162 50.1998C66.2955 50.3547 63.6663 51.3146 63.8644 51.8778C64.0512 52.0294 64.3376 51.9891 64.5862 51.9867C64.5125 52.4533 64.5523 52.8343 65.1086 52.9579C66.1402 53.187 67.303 53.1257 68.3609 53.1132C69.449 53.0932 73.0704 53.0974 73.9725 52.7879C74.2123 52.7056 74.3857 52.5407 74.5716 52.3761C74.7162 52.5003 74.8606 52.6639 75.057 52.6909C75.959 52.8152 80.3153 52.1652 80.9906 51.627C81.1618 51.4905 81.277 51.2942 81.2993 51.0753C81.3322 50.7531 81.1893 50.4298 80.987 50.1862C80.1292 49.1535 78.2028 48.8902 76.9243 48.7705Z" fill="white"/>
<path d="M74.1544 51.5049C73.8213 51.4757 73.3076 51.5215 72.9601 51.5448C72.3203 51.587 71.6807 51.6342 71.0416 51.6863C69.862 51.7737 68.6836 51.8762 67.5067 51.9939C66.8558 52.058 65.832 52.1437 65.2304 52.3172C65.3182 52.4157 65.4917 52.6068 65.6167 52.6231C66.1634 52.6942 66.9032 52.6369 67.4516 52.6068L71.5767 52.3635C72.1274 52.3271 73.3691 52.2048 73.857 52.2351C73.3834 52.3674 72.8712 52.3884 72.3787 52.4269C71.3648 52.4963 70.35 52.5535 69.3348 52.5986C68.8659 52.6205 67.9973 52.6403 67.5611 52.7211L67.5045 52.7367C68.0614 52.7782 68.718 52.7712 69.332 52.7408C70.6981 52.6731 72.2689 52.8149 73.5842 52.4115C73.7213 52.3695 73.9923 52.0846 74.0906 51.9771C73.4361 51.9247 72.5595 52.0245 71.8858 52.0501C69.9367 52.1238 67.8913 52.4085 65.954 52.4508C66.218 52.3278 66.9963 52.3139 67.3114 52.2857C68.0557 52.2191 73.8199 51.8496 74.0659 51.699C74.1442 51.6511 74.1389 51.5868 74.1544 51.5049Z" fill="black"/>
<path d="M74.2218 50.5865C73.7974 50.5685 73.2127 50.6302 72.7771 50.6695L70.5796 50.8833C69.2193 51.0196 67.855 51.1385 66.4987 51.3096C66.1677 51.3514 65.3257 51.4469 65.2358 51.828C65.4012 51.8256 65.8972 51.7184 66.0886 51.6861C66.5617 51.6077 67.0367 51.5418 67.5133 51.4886C68.2291 51.4083 74.0781 50.918 74.1711 50.874C74.2386 50.796 74.2223 50.6941 74.2218 50.5865Z" fill="black"/>
<path d="M74.2324 51.0419C73.3393 51.0128 65.5796 51.7092 65.2403 51.9499C65.1686 52.0008 65.1713 52.0797 65.1555 52.1591C65.408 52.1615 65.8348 52.0852 66.1066 52.0467C66.6087 51.9749 67.112 51.9116 67.6162 51.8569C68.9459 51.7292 70.2771 51.6185 71.6097 51.5251C72.3017 51.473 73.4666 51.4374 74.149 51.2413C74.2163 51.2219 74.2201 51.1103 74.2324 51.0419Z" fill="black"/>
<path d="M74.1919 50.0491C73.9424 50.055 72.4912 50.1997 72.2767 50.2361C71.5372 50.3616 66.6026 50.759 66.2283 51.2285C66.6721 51.212 67.8182 51.0458 68.3091 50.9932C69.8352 50.8302 71.3626 50.6791 72.891 50.5397C73.0614 50.5248 74.1067 50.453 74.1861 50.399C74.2342 50.2888 74.2069 50.1694 74.1919 50.0491Z" fill="black"/>
<path d="M74.0316 49.4461C73.1646 49.4046 68.5718 50.2618 67.9727 50.604L68.0872 50.6212C69.359 50.4894 70.638 50.3001 71.9099 50.1552C72.2086 50.1211 74.0763 49.9782 74.2083 49.8772C74.287 49.703 74.1743 49.542 74.0316 49.4461Z" fill="black"/>
<path d="M79.834 50.2695C79.2404 50.2307 78.2642 50.2851 77.6687 50.3216C76.7566 50.3744 75.8452 50.4388 74.9347 50.5147C74.9332 50.6222 74.9149 50.7793 74.9796 50.8568C75.1438 50.9254 75.327 50.8637 75.5187 50.8315C76.4379 50.7459 77.3581 50.6726 78.2792 50.6118C78.972 50.568 79.9594 50.5248 80.6271 50.416C80.3293 50.3068 80.1456 50.2892 79.834 50.2695Z" fill="black"/>
<path d="M80.7571 50.6434C80.0282 50.6173 75.2671 50.8554 74.9242 51.1047C74.8871 51.1909 74.8904 51.152 74.9233 51.2553C75.9564 51.3143 77.469 51.0617 78.5299 51.022C79.062 50.9794 79.5989 50.9551 80.1294 50.8966C80.3156 50.876 80.7065 50.8932 80.798 50.7348L80.7571 50.6434Z" fill="black"/>
<path d="M79.245 49.8446C78.0594 49.7743 76.2371 49.9451 75.0067 49.9885C74.9927 50.1157 74.9686 50.2587 74.95 50.3868L75.8582 50.3165C77.0229 50.2281 79.1762 50.0685 80.2394 50.2384C79.9721 50.0882 79.5388 49.9405 79.245 49.8446Z" fill="black"/>
<path d="M80.7211 51.0399C80.2416 51.0016 75.1753 51.3421 74.9047 51.4563C74.8598 51.538 74.8903 51.6283 74.9084 51.7216C75.0689 51.7218 75.9524 51.6548 76.105 51.6288C76.6964 51.528 80.4758 51.3459 80.7353 51.1144L80.7211 51.0399Z" fill="black"/>
<path d="M80.379 51.4371C79.878 51.3822 75.3933 51.7645 74.9668 51.9016C74.8732 51.9905 74.9006 51.9598 74.8838 52.1142C75.4786 52.1998 80.009 51.6783 80.379 51.4371Z" fill="black"/>
<path d="M76.7286 49.328C76.3157 49.3044 75.5761 49.3152 75.151 49.3726C75.0619 49.3846 75.0064 49.6911 75.0421 49.7933C75.2457 49.8648 76.5183 49.792 76.8117 49.7811C77.0863 49.7744 78.5669 49.7728 78.6722 49.65C78.5152 49.4711 77.0236 49.3439 76.7286 49.328Z" fill="black"/>
<path d="M78.377 51.9827C78.3088 51.9768 78.008 51.9845 77.9537 51.9975C77.5795 52.087 75.1597 52.2135 74.997 52.3179C75.4156 52.3977 77.8997 52.1076 78.377 51.9827Z" fill="black"/>
<path d="M58.7267 39.515C58.4616 39.511 58.3216 39.5242 58.062 39.5655C58.09 39.8867 58.2734 41.6502 58.2412 41.844C58.1571 41.8961 57.9999 41.8646 57.9174 41.8115C57.7745 41.5258 57.6709 40.0392 57.6014 39.5812C56.8045 39.4983 55.0193 39.7763 54.1573 39.86C53.6421 39.9101 52.2355 40.1003 51.955 40.5172C51.8094 40.7332 51.1072 42.1091 51.1361 42.318L51.1977 42.3469C51.8216 42.1979 52.3909 42.06 53.0382 42.0473C55.1628 42.0099 57.3117 41.8933 59.4343 41.9604C59.8489 41.9735 60.5462 42.205 61.0402 42.2558C60.463 41.6526 59.2179 39.8087 58.7267 39.515Z" fill="white"/>
<path d="M62.6145 42.5147C59.4227 42.4802 56.2308 42.5767 53.0471 42.8038C51.795 42.902 50.272 43.017 49.0526 43.2622C49.6445 43.3088 50.6708 43.2552 51.2927 43.2461C52.6143 43.2296 53.9359 43.2212 55.2576 43.221C58.3392 43.2286 61.4208 43.2551 64.5021 43.3006L67.0995 43.3619C67.5486 43.3726 68.095 43.399 68.5347 43.3756C67.0646 42.8751 64.1707 42.5403 62.6145 42.5147Z" fill="white"/>
<path d="M66.4442 45.7496C66.4106 45.3831 66.3364 44.8832 66.0396 44.689C64.8104 43.8846 63.253 46.1531 63.543 47.2891C63.6859 47.8491 63.7671 48.2022 64.2356 48.5697C64.8987 49.1049 65.5741 48.7337 66.0117 48.1347C66.3776 47.6336 66.4409 47.1035 66.4485 46.4972C66.4817 46.2716 66.4742 45.976 66.4442 45.7496Z" fill="black"/>
<path d="M66.4442 45.7494C66.4107 45.3829 66.3364 44.883 66.0397 44.6888C64.8104 43.8843 63.2531 46.1528 63.5431 47.2889C63.686 47.8489 63.7671 48.202 64.2357 48.5694C64.8987 49.1046 65.5742 48.7335 66.0117 48.1345C66.3777 47.6334 66.441 47.1033 66.4486 46.497L66.3719 46.4965L66.1552 46.104C66.3012 46.9324 66.3255 48.2799 65.2767 48.5976C65.0128 48.6649 64.7663 48.6561 64.534 48.5163C63.5208 47.9063 63.5774 46.5156 64.1589 45.6248C64.4235 45.2127 64.832 44.7537 65.3359 44.647C66.0461 44.4966 66.2744 45.1725 66.373 45.7086L66.4442 45.7494Z" fill="white"/>
<path d="M66.4458 45.7499L66.3746 45.7091C66.4035 45.9666 66.4129 46.2402 66.3735 46.4971L66.4501 46.4975C66.4833 46.2719 66.4758 45.9762 66.4458 45.7499Z" fill="#E4E4E4"/>
<path d="M65.1828 45.4137C63.6373 45.2573 63.2946 47.8713 64.8019 48.473C64.9809 48.5169 65.1079 48.5034 65.2779 48.427C66.2857 47.9742 66.41 46.2397 65.554 45.5886C65.4524 45.5113 65.3034 45.4571 65.1828 45.4137Z" fill="white"/>
<path d="M49.6862 43.9717L44.7203 44.0102C44.6181 44.1444 44.5516 44.2905 44.4758 44.441C45.8678 44.3943 47.3352 44.4086 48.7297 44.4083C52.4992 44.3984 56.2679 44.4805 60.0331 44.6545C61.5694 44.7073 63.6779 44.9609 65.1351 44.4676C64.5817 44.3838 63.7223 44.3566 63.1417 44.327L59.8963 44.1818C56.4952 44.029 53.0906 43.9589 49.6862 43.9717Z" fill="white"/>
<path d="M49.3008 37.2261C49.0106 37.2123 48.7175 37.2185 48.4272 37.2191C45.3932 37.2255 39.1995 37.5187 36.5597 38.6208C35.8553 38.9149 35.3291 39.3009 34.7936 39.8401C34.5102 40.1255 32.5817 42.302 32.5825 42.4865C32.745 42.3462 33.4904 41.5144 33.6423 41.3401C35.4613 39.2537 36.0319 38.8117 38.7502 38.3166C40.5883 38.0356 42.4371 37.8301 44.292 37.7007C47.9947 37.4263 51.6442 37.3629 55.3252 37.9044C56.5846 38.0897 57.4837 38.1859 58.7049 38.5837C56.9653 37.5741 51.4986 37.2704 49.3008 37.2261Z" fill="white"/>
<path d="M27.1219 51.5061L26.3998 51.5169C26.2528 52.5907 26.4016 54.0424 26.8996 55.0095C28.0391 57.2231 29.9122 56.9427 30.6523 54.5963C30.8466 54.0039 30.7581 53.662 30.5747 53.0988C30.4682 53.4206 30.4095 53.8608 30.3018 54.1928C29.5871 56.3968 27.8459 55.9551 27.2865 53.9527C27.0356 53.0549 27.0814 52.4246 27.1219 51.5061Z" fill="white"/>
<path d="M30.3655 52.6663C29.9591 51.9204 28.9543 51.7205 28.1864 51.5752C28.1644 51.621 28.1434 51.6674 28.1238 51.7144C27.9359 52.1604 27.9582 52.5678 28.1386 53.0103C28.319 53.376 28.8072 53.9758 29.1369 53.2755C29.1659 53.2136 29.1566 53.0631 29.1525 52.99C29.1365 52.8719 29.1335 52.8386 29.1419 52.7202L29.1676 52.7187C29.2461 52.844 29.3084 52.9606 29.3778 53.0905C29.5488 53.0979 30.2502 53.0728 30.2174 53.3387C30.0649 54.5822 28.8755 55.384 28.1171 53.9635C27.8093 53.3868 27.8023 52.901 27.7805 52.2612C27.637 52.0676 27.5978 52.038 27.4143 51.8814C27.2518 52.8287 27.4868 54.2622 28.199 54.9641C29.0111 55.7642 29.8694 54.9029 30.141 54.0873C30.3115 53.5761 30.3832 53.2083 30.3655 52.6663Z" fill="white"/>
<path d="M28.2123 52.8616C28.1938 52.8997 28.1592 52.9782 28.1387 53.0106C28.3191 53.3764 28.8073 53.9761 29.1371 53.2758C29.166 53.2139 29.1568 53.0634 29.1526 52.9903L29.0667 53.0609C28.7448 53.3452 28.4415 53.1292 28.2123 52.8616Z" fill="black"/>
<path d="M28.2123 52.8616C28.1938 52.8997 28.1592 52.9782 28.1387 53.0106C28.3191 53.3764 28.8073 53.9761 29.1371 53.2758C29.166 53.2139 29.1568 53.0634 29.1526 52.9903L29.0667 53.0609C28.9713 53.8866 28.2967 53.466 28.2123 52.8616Z" fill="#E4E4E4"/>
<path d="M73.2241 43.6261C73.0399 43.6028 72.386 43.5492 72.3585 43.7887C72.678 44.1475 77.2432 46.4675 77.9727 46.8413C78.1438 46.9335 78.4228 47.0938 78.6021 47.1327L78.6317 47.1116C78.6079 47.0672 78.569 47.0009 78.5357 46.9623C77.4993 45.7587 76.1044 44.5791 74.6397 43.9476C74.2241 43.7684 73.6532 43.6786 73.2241 43.6261Z" fill="white"/>
<path d="M76.3739 47.7658C76.0084 47.7395 75.5431 47.7646 75.1709 47.7639C73.3442 47.7605 71.5472 48.0508 69.7531 48.3654C69.0851 48.4825 68.1259 48.6444 67.495 48.8669C68.0282 48.8481 68.7262 48.7563 69.2692 48.6913C70.1453 48.5811 71.0228 48.4836 71.9017 48.3987C74.2439 48.2029 76.6292 48.1394 78.9253 48.7298C79.3891 48.849 79.8735 49.0261 80.3279 49.1852C79.356 48.2539 77.6837 47.8793 76.3739 47.7658Z" fill="white"/>
<path d="M44.5078 43.9551L39.3283 44.0834C38.0619 44.1093 36.5329 44.0994 35.2907 44.2054C35.1596 44.3792 35.1202 44.4665 35.0262 44.661C35.1626 44.7237 35.2209 44.7646 35.3455 44.8509C35.4867 44.9839 35.5906 45.0554 35.7478 45.1661C36.122 45.1104 36.5264 44.9921 36.8835 44.8724C37.1775 44.7738 37.5053 44.6028 37.8081 44.5778C38.6032 44.5123 39.4526 44.5076 40.2499 44.4884L44.2661 44.3778L44.5078 43.9551Z" fill="white"/>
<path d="M36.5908 44.348C36.3048 44.3311 35.8724 44.2532 35.6709 44.4857C35.618 44.6519 35.6733 44.7746 35.8337 44.8485L35.9762 44.7929C36.1647 44.7044 36.9291 44.5183 36.9604 44.4312C36.8643 44.3604 36.7136 44.36 36.5908 44.348Z" fill="black"/>
<path d="M34.9746 44.2207L30.6725 44.2927C29.2594 44.3214 24.8833 44.3642 23.753 44.8701C24.0159 44.8954 24.6607 44.8562 24.9476 44.8459C25.6793 44.8186 26.4107 44.7956 27.1425 44.7768L34.792 44.6156C34.8584 44.4914 34.9174 44.3505 34.9746 44.2207Z" fill="white"/>
<path d="M82.0399 45.5003C81.8533 45.2388 81.641 44.9609 81.3004 44.9048C80.6891 44.8042 80.3386 45.5478 80.2654 46.0451C80.2001 46.4889 80.3076 46.9795 80.5788 47.3376C81.1033 47.8048 81.6062 47.6328 81.9389 47.0493C82.1681 46.6475 82.168 45.9354 82.0399 45.5003Z" fill="white"/>
<path d="M44.6153 46.903C44.4534 46.8935 43.8584 46.8661 43.8788 47.1326C43.9605 47.1982 44.0664 47.2169 44.1692 47.2199C45.9528 47.272 47.7449 47.2667 49.5303 47.2758C53.045 47.2937 56.5873 47.4218 60.0975 47.4353C60.2762 47.4394 60.6219 47.4549 60.7836 47.4042C60.5175 47.3185 58.2353 47.2506 57.8185 47.2331C53.425 47.0482 49.0064 47.0521 44.6153 46.903Z" fill="white"/>
<path d="M42.8112 46.8891C41.7751 46.8782 40.7388 46.8844 39.7027 46.9077C38.1119 46.9382 36.5692 46.9598 35.0044 47.263C34.7271 47.3167 34.008 47.36 34.0387 47.7562C34.1923 47.8609 34.5895 47.7467 34.7936 47.7082C37.4189 47.2082 40.0508 47.2706 42.7071 47.2216C42.926 47.2175 43.6474 47.2074 43.7837 47.0638L43.7605 47.0039C43.5185 46.838 43.1254 46.8919 42.8112 46.8891Z" fill="white"/>
<path d="M33.8809 47.6126C33.2743 47.6031 32.2768 48.4119 31.4382 48.3616C30.8676 48.3274 30.2444 48.2829 29.6704 48.242L26.2749 48.0061C25.8906 47.9804 23.8056 47.7896 23.6343 48.0954L23.6696 48.1547C24.2616 48.2317 24.9058 48.2611 25.5042 48.3003L28.2402 48.4816C28.9507 48.5358 29.662 48.5839 30.3737 48.6257C30.6665 48.6425 31.3337 48.6827 31.5883 48.6455C32.123 48.5675 33.3322 48.1131 33.8083 47.8783C33.8857 47.7722 33.8637 47.7624 33.8809 47.6126Z" fill="white"/>
<path d="M80.5016 47.365C79.8889 46.5377 80.1281 45.4841 80.8733 44.8149C81.0145 44.6882 81.2028 44.6087 81.3551 44.4729L81.3756 44.4543C80.896 44.6356 80.6792 44.8284 80.3502 45.2387C79.8024 45.9219 79.7444 47.2436 80.4984 47.7992C81.0005 48.1692 81.7603 47.9568 82.0897 47.4206C82.3682 46.9673 82.4956 46.495 82.371 45.9577C82.3391 45.8195 82.2892 45.5732 82.1465 45.5082C82.2882 46.1429 82.2731 46.641 81.9317 47.2138C81.5815 47.8013 80.9636 47.8554 80.5016 47.365Z" fill="white"/>
<path d="M81.9006 44.4092C81.2556 44.3197 75.7262 44.0497 75.4886 44.1488C75.6692 44.3844 79.7284 44.5508 80.3468 44.5748C80.666 44.5872 81.2695 44.4139 81.778 44.4693L81.9006 44.4092Z" fill="white"/>
<path d="M69.1426 42.3737C68.0972 42.3463 66.7592 42.3649 65.7393 42.4942C66.436 42.5634 67.2557 42.5697 67.9694 42.6085C68.6705 42.6622 69.066 42.5829 69.6616 42.9966C70.3263 42.6646 70.1737 42.6346 71.001 42.4183L69.1426 42.3737Z" fill="white"/>
<path d="M31.6584 43.3794C31.6331 43.3891 31.6008 43.419 31.5779 43.4375L31.5717 43.5167C31.8195 44.1263 34.3187 43.9185 34.8994 43.8618C35.0144 43.828 34.9952 43.8532 35.0441 43.7705C35.0072 43.7118 34.9593 43.6893 34.8872 43.6838C33.7872 43.5995 32.7068 43.8169 31.6584 43.3794Z" fill="white"/>
<path d="M45.3088 40.6147C45.1656 40.619 45.181 40.5953 45.0919 40.67C45.0206 40.9376 45.4412 42.4778 45.5403 42.8095L45.5554 42.8139L45.5978 42.7908C45.7105 42.441 45.7734 41.237 45.6647 40.8396C45.6361 40.7357 45.414 40.656 45.3088 40.6147Z" fill="white"/>
<path d="M57.4652 42.2153C56.9685 42.161 52.5616 42.3009 52.2935 42.5006C52.3868 42.5349 52.5342 42.524 52.6379 42.5227C53.6743 42.4746 54.7109 42.4322 55.7476 42.3954C56.4072 42.3737 57.4551 42.3687 58.0828 42.2548L57.4652 42.2153Z" fill="white"/>
<path d="M31.3925 43.674C31.0712 43.6429 30.5856 43.8765 30.2755 44.0019L30.6547 44.0149C31.0593 44.0219 31.3735 44.0018 31.7709 43.9537C31.6504 43.8584 31.5172 43.7648 31.3925 43.674Z" fill="white"/>
<path d="M82.5661 45.5749C82.5972 44.9313 82.6194 44.5431 81.9026 44.4092L81.78 44.4692C82.5498 44.5593 82.415 44.9414 82.5661 45.5749Z" fill="#E4E4E4"/>
<path d="M54.094 42.1178C53.7989 42.0835 52.956 42.1026 52.7045 42.2423C53.0529 42.271 53.7508 42.1847 54.094 42.1178Z" fill="white"/>
<path d="M58.5977 42.0659C58.469 42.0703 58.3466 42.0658 58.2685 42.1852C58.3282 42.265 58.3126 42.2414 58.4315 42.27C58.4843 42.2707 58.5372 42.2703 58.5901 42.2688C58.6902 42.265 58.7437 42.2524 58.81 42.1814C58.736 42.0893 58.7295 42.1104 58.5977 42.0659Z" fill="white"/>
<path d="M60.0612 42.152C59.9064 42.1391 59.4198 42.1101 59.3046 42.1994L59.3496 42.2435C59.5041 42.2448 60.0563 42.2723 60.1413 42.1894L60.0612 42.152Z" fill="white"/>
<path d="M78.4902 55.873C78.1789 55.8838 77.5697 55.983 77.2375 56.023C76.6078 56.0963 75.9763 56.1525 75.3435 56.1916C73.4447 56.3142 71.5272 56.3127 69.6478 56.4475C69.9085 57.023 70.3476 57.5953 70.7883 58.0448C71.1527 58.3614 71.7392 58.8117 72.2153 58.9277C74.9232 59.5874 77.5783 58.6454 78.4902 55.873Z" fill="black"/>
<path d="M21.5506 50.5357C20.7697 50.7908 21.2258 52.1297 22.3731 52.1346C22.5989 51.9743 22.6631 51.7435 22.5707 51.4861C22.3535 50.8817 20.9479 51.6594 21.5506 50.5357Z" fill="black"/>
<path d="M78.9141 53.8783C78.8274 53.8403 78.7268 53.8526 78.6518 53.9104C78.5768 53.9681 78.5392 54.0621 78.5537 54.1556C78.5683 54.2492 78.6326 54.3273 78.7216 54.3596C78.8532 54.4073 78.9989 54.342 79.0509 54.2121C79.1028 54.0822 79.0423 53.9345 78.9141 53.8783Z" fill="black"/>
<path d="M78.9035 53.8921C78.7732 53.9214 78.7311 53.957 78.6677 54.0692C78.6582 54.1863 78.6852 54.2168 78.7432 54.3188C78.8802 54.27 78.8485 54.3014 78.9346 54.1969C78.9657 54.0789 78.936 54.01 78.9035 53.8921Z" fill="white"/>
<path d="M74.3666 54.3191C74.2866 54.279 74.1912 54.2853 74.1171 54.3355C74.0431 54.3858 74.0021 54.4721 74.0098 54.5612C74.0176 54.6504 74.0729 54.7283 74.1545 54.765C74.2771 54.8201 74.4212 54.7672 74.4789 54.6458C74.5366 54.5245 74.4867 54.3793 74.3666 54.3191Z" fill="black"/>
<path d="M74.3157 54.3857C74.2426 54.3465 74.1516 54.3711 74.1082 54.4418C74.0649 54.5125 74.0841 54.6047 74.1522 54.6521C74.1999 54.6853 74.2621 54.6894 74.3137 54.6627C74.3653 54.636 74.3979 54.5829 74.3983 54.5248C74.3988 54.4667 74.367 54.4131 74.3157 54.3857Z" fill="white"/>
<path d="M81.7492 53.3249C81.6899 53.2755 81.6077 53.2639 81.537 53.295C81.4663 53.326 81.4192 53.3943 81.4154 53.4715C81.4117 53.5486 81.4518 53.6212 81.5191 53.659C81.6109 53.7107 81.727 53.6838 81.7868 53.597C81.8465 53.5102 81.8303 53.3922 81.7492 53.3249Z" fill="black"/>
<path d="M67.4466 54.7231C67.3945 54.6898 67.3283 54.6874 67.2739 54.7167C67.2194 54.7461 67.1851 54.8026 67.1842 54.8645C67.1833 54.9264 67.216 54.9839 67.2696 55.0147C67.35 55.061 67.4526 55.0347 67.5007 54.9554C67.5488 54.8762 67.5248 54.773 67.4466 54.7231Z" fill="black"/>
</svg>
