<svg width="147" height="92" viewBox="0 0 147 92" fill="none" xmlns="http://www.w3.org/2000/svg">
<path d="M69.2733 50.5272C63.1628 49.2154 58.6034 45.06 58.1581 40.0374L54.7046 39.3062C54.7516 45.3984 60.6122 50.5148 68.5559 52.0194L69.2733 50.5272ZM75.4481 50.8533C74.0482 50.9978 72.6369 50.9945 71.2376 50.8434L70.5325 52.3134C72.4004 52.5157 74.2846 52.519 76.1532 52.3233L75.4481 50.8533ZM88.629 40.0152C88.1936 45.0723 83.5848 49.2549 77.4223 50.547L78.1348 52.0391C86.1477 50.5568 92.0455 45.4108 92.0801 39.2889L88.629 40.0152ZM73.3923 27.5045C78.2684 27.5045 82.6125 29.2586 85.4055 31.991L88.4113 31.3536C85.0072 28.1073 79.5474 26 73.3923 26C67.2274 26 61.7576 28.1123 58.3536 31.3758L61.3618 32.0107C64.1573 29.2685 68.5039 27.5045 73.3923 27.5045Z" fill="black"/>
<path d="M66.839 55.9029C66.7797 56.0437 66.8564 56.1549 66.9998 56.1302L68.405 55.9177C68.551 55.8955 68.6846 55.8585 68.7736 55.6658L73.6818 45.4107C73.9193 44.9339 74.3028 44.5435 74.8198 44.4398L85.9548 42.1076C86.1087 42.0816 86.2548 42.0218 86.3828 41.9325C86.5107 41.8432 86.6171 41.7267 86.6945 41.5913L87.4614 40.2152C87.5108 40.1287 87.5628 40.0966 87.689 40.0694L96.7706 38.1523C97.0106 38.0955 97.3124 38.0486 97.634 37.5866L104.677 26.5904C104.727 26.5064 104.687 26.4051 104.521 26.4347L93.0771 28.836C92.6318 28.9275 92.3646 29.0584 92.1692 29.4191L91.38 30.8668L78.5381 33.5844C78.225 33.6308 77.9245 33.7401 77.6549 33.9055C77.3542 34.1418 77.1185 34.4504 76.9696 34.8023L66.839 55.9029ZM60.7261 42.1101C60.572 42.0838 60.4256 42.0239 60.2973 41.9346C60.169 41.8454 60.062 41.729 59.9839 41.5937L59.2195 40.2177C59.17 40.1312 59.1156 40.0991 58.9894 40.0719L49.9078 38.1548C49.6678 38.098 49.3684 38.051 49.0444 37.5891L42.0062 26.5928C41.9567 26.5088 41.9938 26.4075 42.1595 26.4372L53.6037 28.8385C54.049 28.9299 54.3187 29.0609 54.5117 29.4216L55.3033 30.8693L68.1428 33.5868C68.456 33.6329 68.7565 33.7422 69.026 33.908C69.328 34.1429 69.5641 34.4518 69.7112 34.8048L73.2241 42.1323C73.2489 42.1842 73.2489 42.2287 73.2316 42.2633L72.1727 44.4719C72.1579 44.4991 72.1356 44.5089 72.0985 44.5015L60.7261 42.1101Z" fill="black"/>
<path d="M73.4887 46.4534C73.4392 46.3521 73.4244 46.278 73.4739 46.1693L73.8004 45.4825C73.9268 45.201 74.1257 44.9581 74.3768 44.7784C74.4263 44.7438 74.4758 44.7315 74.5179 44.8179L79.8441 55.9056C79.901 56.0464 79.8268 56.1576 79.6809 56.1329L78.2757 55.9204C78.1297 55.8982 77.9986 55.8611 77.9071 55.6684L73.4887 46.4534Z" fill="black"/>
<path d="M54.0167 30.699C53.9005 30.4865 53.8065 30.2864 53.6555 30.111C53.4387 29.8563 53.1409 29.6836 52.8119 29.6218L44.6902 27.9073C44.6234 27.8949 44.5962 27.9098 44.6308 27.974L50.2886 36.8135C50.6819 37.4212 51.3004 37.5497 51.5874 37.6115L58.5093 39.0715C58.5613 39.0814 58.5761 39.0567 58.5588 39.0172L54.0167 30.699ZM68.056 35.1162C67.7814 34.5406 67.2273 34.2936 66.8191 34.2046L55.9389 31.8922C55.9018 31.8823 55.8721 31.9021 55.8895 31.9367L60.6764 40.6872C60.7875 40.8728 60.9354 41.0336 61.1112 41.1598C61.2869 41.286 61.4867 41.3749 61.6982 41.421C65.2952 42.1745 68.3974 42.8687 71.9945 43.5802C72.0712 43.595 72.1083 43.5753 72.0687 43.4962L68.056 35.1162Z" fill="white"/>
<path d="M101.99 27.9049C102.06 27.8925 102.084 27.9073 102.05 27.9716L96.3919 36.811C96.001 37.4188 95.3825 37.5472 95.0955 37.609L88.1736 39.0691C88.1217 39.079 88.1043 39.0543 88.1241 39.0147L92.6637 30.699C92.78 30.4865 92.874 30.2864 93.0249 30.111C93.2408 29.8565 93.5378 29.6838 93.866 29.6219L101.99 27.9049ZM78.6293 35.1163C78.9015 34.5406 79.4581 34.2936 79.8663 34.2047L90.7415 31.8898C90.7811 31.8799 90.8083 31.8997 90.7935 31.9343L86.004 40.6848C85.8935 40.8703 85.746 41.0311 85.5706 41.1573C85.3953 41.2835 85.1959 41.3724 84.9848 41.4185C81.3877 42.172 78.283 42.8662 74.686 43.5778C74.6118 43.5926 74.5746 43.5728 74.6142 43.4938L78.6293 35.1163Z" fill="white"/>
<path d="M87.8668 36.0178L84.715 36.6849L85.1257 35.8918L81.3926 36.6873L81.0141 37.468L78.6466 37.9695L77.1895 39.5482L80.3239 38.8861L79.933 39.6865L83.5671 38.9059L83.9778 38.1128L86.4096 37.599L87.8668 36.0178Z" fill="black"/>
<path d="M60.2412 32.947L63.999 33.745L65.4092 36.6898L61.7181 35.9042L60.2412 32.947ZM65.4092 36.6898L69.021 37.4458L70.4683 40.4623L66.8514 39.6989L65.4092 36.6898ZM66.8514 39.6989L63.2297 38.9232L64.7288 41.9248L68.2789 42.6709L66.8514 39.6989Z" fill="black"/>
<path d="M63.2296 38.9234L61.718 35.9044L57.7524 35.057L59.4223 38.1106L63.2296 38.9234ZM49.4748 29.0562L51.0927 31.9936L55.0262 32.8261C55.0262 32.8261 53.8387 30.6694 53.7546 30.4989C53.5591 30.0987 53.1806 29.8319 52.6661 29.7281C52.3816 29.6713 49.4748 29.0562 49.4748 29.0562ZM46.7856 31.0869L51.0927 31.9936L52.7799 35.057L48.787 34.2121L46.7856 31.0869ZM52.7799 35.057L56.696 35.8822L58.3412 38.8962L54.4423 38.0735L52.7799 35.057Z" fill="black"/>
<path d="M97.8936 31.2153C97.8713 31.0522 97.7971 30.9633 97.6536 30.9657C97.2974 30.9657 96.9362 31.2918 96.7111 31.5315C96.1226 32.1149 95.5969 32.7583 95.1426 33.4511L95.0363 33.4758C95.5409 32.5172 96.0679 32.0478 96.5082 31.4771C96.8397 31.0473 97.0673 30.5457 97.0055 30.0121C97.0005 29.9602 96.9882 29.9578 96.9214 29.9825C96.6765 30.1031 96.4598 30.274 96.2856 30.484C96.0643 30.773 95.8814 31.0894 95.7413 31.4252C95.4543 32.1269 95.1748 32.8507 94.8309 33.5178L94.7344 33.54C94.8977 33.1546 95.0956 32.7643 95.2267 32.3838C95.3084 32.1442 95.4172 31.7711 95.254 31.6081C95.0981 31.4549 94.6998 31.5636 94.4697 31.6723C94.271 31.7783 94.0968 31.9248 93.9583 32.1022C93.8198 32.2797 93.7201 32.4842 93.6657 32.7025C93.5965 32.9471 93.594 33.1299 93.5643 33.3177C93.5494 33.4214 93.5099 33.54 93.4925 33.5993C93.4703 33.6808 93.5222 33.6932 93.5569 33.6611C93.609 33.6129 93.6554 33.5591 93.6954 33.5005C93.9205 33.1571 94.0566 32.8359 94.2644 32.6358C94.4376 32.4678 94.5662 32.5469 94.6083 32.7C94.6764 32.9912 94.6583 33.2959 94.5563 33.5771L94.2619 33.6388L93.5767 34.8444L93.8612 34.7827C93.7698 34.9394 93.6527 35.0797 93.5148 35.1977C93.4431 35.257 93.3466 35.2842 93.3293 35.1656C93.3194 35.1088 93.3144 35.0223 93.307 34.963C93.2922 34.842 93.1239 34.8395 93.1314 34.9482C93.1363 35.0223 93.0844 35.0989 93.0324 35.1854C92.9285 35.3534 92.8221 35.4769 92.7726 35.6523C92.7059 35.8919 92.879 35.8771 92.9928 35.8302C93.1741 35.7488 93.3366 35.6311 93.4703 35.4843C93.7251 35.2298 93.8537 35.052 94.0442 34.7407L94.1382 34.7184C93.9477 35.1088 93.7078 35.3459 93.4579 35.6251C93.2476 35.8623 93.0819 36.1464 93.1413 36.4527C93.1512 36.5046 93.1883 36.5096 93.2229 36.4898C93.4811 36.3291 93.7028 36.1162 93.8735 35.8647C93.9665 35.7179 94.0194 35.5492 94.0269 35.3756C94.0819 35.131 94.1772 34.8972 94.3089 34.6838L94.4005 34.6641C94.299 34.8938 94.1803 35.0396 94.1259 35.3237C94.0739 35.593 94.2545 35.593 94.3881 35.5337C94.5758 35.4397 94.7399 35.3046 94.868 35.1384C94.9868 34.9976 95.0659 34.8469 95.1822 34.6937C95.2313 34.6236 95.2978 34.5674 95.3752 34.5307C95.4865 34.4763 95.3851 34.38 95.2663 34.4269C95.1476 34.4739 95.0338 34.5826 94.9546 34.6666C94.8829 34.7431 94.7715 34.8667 94.6775 34.9383C94.6256 34.9828 94.4351 35.0174 94.4821 34.8444C94.5057 34.7655 94.5425 34.6912 94.591 34.6246L94.8804 34.5628L95.5681 33.3572L95.3133 33.4115C95.6424 32.9866 96.0753 32.5394 96.4884 32.2133C96.5923 32.1318 96.6641 32.1071 96.6962 32.0948C96.7977 32.0528 96.8496 32.1022 96.8224 32.1837C96.7457 32.4209 96.5899 32.537 96.481 32.8161C96.4662 32.8557 96.4414 32.9174 96.4538 32.9619C96.4711 33.0385 96.5379 33.0163 96.5577 32.9767C96.5951 32.8972 96.6407 32.8219 96.6938 32.7519C96.9238 32.4456 97.1267 32.3517 97.5052 32.0577C97.7377 31.8774 97.9307 31.4944 97.8936 31.2153ZM91.6619 37.1519L91.4194 37.5793L94.7122 36.8851L94.9546 36.4577L91.6619 37.1519Z" fill="black"/>
<path d="M65.152 55.0308H64.8428V54.9246H65.58V55.0308H65.2732V55.8609H65.152V55.0308ZM66.0772 55.8609L65.82 55.1V55.8609H65.6987V54.9246H65.8694L66.1391 55.7201L66.4087 54.9246H66.577V55.8609H66.4533V55.1L66.196 55.8609H66.0772Z" fill="black"/>
<path d="M77.071 61.274H75.3665C75.1324 61.2652 74.9016 61.3319 74.7084 61.4642L68.5979 65.664C68.4173 65.7925 68.3159 65.7999 68.2367 65.6418L66.1488 61.521C66.0795 61.3827 65.9311 61.2715 65.7727 61.2715H63.8134C63.6353 61.2715 63.5611 61.4197 63.6254 61.5334C63.6872 61.6519 66.082 66.1038 66.27 66.4472C66.4605 66.7931 66.745 66.8697 67.2496 66.8697H68.5113C68.9427 66.8828 69.3677 66.7629 69.7285 66.5262L77.16 61.5185C77.2738 61.4444 77.3283 61.274 77.071 61.274ZM56.3497 64.577H59.8923C60.8497 64.577 61.5449 64.2435 61.8491 63.7296C62.077 63.3587 62.2644 62.9644 62.4082 62.5537C62.5789 62.0423 62.5023 61.274 61.1243 61.274H50.1229C50.0457 61.2775 49.9709 61.3025 49.9071 61.3461C49.8433 61.3898 49.793 61.4503 49.7617 61.521C49.4228 62.2251 47.8148 65.6888 47.3992 66.5806C47.3472 66.6967 47.3744 66.8277 47.5303 66.8277H49.3659C49.4426 66.822 49.5164 66.7962 49.5799 66.7528C49.6433 66.7094 49.6941 66.65 49.7271 66.5806L51.5949 62.5809C51.6543 62.4499 51.7681 62.4277 51.8596 62.4277H59.682C59.9962 62.4277 60.063 62.5809 60.0209 62.776C59.9836 62.9021 59.9331 63.0238 59.87 63.1392C59.7637 63.3344 59.6622 63.4233 59.3208 63.4233H52.5523C52.4753 63.4292 52.4013 63.4554 52.3379 63.4992C52.2744 63.5431 52.2238 63.603 52.1911 63.6728C52.1218 63.821 52.0055 64.0385 51.9437 64.1941C51.8819 64.3497 51.9289 64.4535 52.0501 64.493C53.3909 64.918 56.3423 66.0865 57.6955 66.6424C58.0171 66.7758 58.2942 66.8301 58.5663 66.8301H61.9778C62.2326 66.8301 62.2227 66.6127 62.0124 66.5386C60.1387 65.8878 58.255 65.266 56.3621 64.6734C56.2507 64.6413 56.278 64.577 56.3497 64.577ZM47.0949 62.482C47.1394 61.9855 46.8648 61.5655 46.1152 61.3802C45.7165 61.2989 45.3097 61.2649 44.903 61.2789H35.5715C33.6221 61.2789 33.0531 62.0151 32.5732 63.0231C32.2961 63.6012 31.925 64.4041 31.6875 64.918C31.1358 66.0964 31.8162 66.8326 33.1619 66.8326H42.9289C44.9847 66.8326 45.524 66.0717 45.9891 65.0736L46.803 63.3245C46.8945 63.1244 47.0701 62.7563 47.0949 62.482ZM44.569 63.1071C44.4453 63.3665 43.9456 64.451 43.6339 65.1205C43.4335 65.5479 43.2356 65.6813 42.6914 65.6813H34.3717C33.9511 65.6813 33.8645 65.3305 34.0105 65.0094C34.295 64.3967 34.6463 63.6555 34.9704 62.9638C35.1411 62.5957 35.4849 62.4326 35.8634 62.4326H44.2029C44.5394 62.4302 44.762 62.6945 44.569 63.1071ZM18.665 66.8301C17.3241 66.8301 16.6413 66.0989 17.1905 64.9155C17.3983 64.4634 17.861 63.4653 18.0737 63.0206C18.5487 62.0275 19.1251 61.2764 21.0745 61.2764H31.5044C31.643 61.2764 31.6999 61.3827 31.638 61.5235L31.3313 62.1831C31.262 62.3289 31.1086 62.4302 30.9701 62.4302L21.3689 62.4326C20.9879 62.4326 20.6465 62.5932 20.4734 62.9638L19.516 65.0094C19.3651 65.333 19.4566 65.6813 19.8772 65.6813H29.4734C29.6119 65.6813 29.6688 65.79 29.607 65.9259L29.2977 66.5855C29.2285 66.7338 29.0677 66.8351 28.9365 66.8351C28.803 66.8301 20.0058 66.8301 18.665 66.8301ZM128.313 64.5795C128.449 64.5795 128.609 64.4708 128.674 64.3324L128.981 63.6728C129.045 63.5369 128.986 63.4258 128.849 63.4258H119.446C119.308 63.4258 119.147 63.5369 119.085 63.6728L118.778 64.3324C118.714 64.4708 118.773 64.5795 118.909 64.5795H128.313Z" fill="black"/>
<path d="M116.688 66.8301C115.347 66.8301 114.664 66.0988 115.213 64.9154C115.421 64.4633 115.884 63.4652 116.097 63.0205C116.572 62.0274 117.148 61.2764 119.097 61.2764H129.844C129.98 61.2764 130.037 61.3826 129.975 61.5234C129.913 61.6642 129.735 62.0398 129.668 62.183C129.636 62.2527 129.585 62.3124 129.522 62.3558C129.458 62.3993 129.384 62.4249 129.307 62.4301L119.392 62.4326C119.013 62.4326 118.669 62.5931 118.496 62.9637L117.539 65.0093C117.388 65.3329 117.48 65.6813 117.9 65.6813H127.81C127.949 65.6813 128.006 65.79 127.944 65.9259L127.635 66.5855C127.602 66.6552 127.552 66.7148 127.488 66.7583C127.425 66.8017 127.35 66.8274 127.274 66.8325C126.358 66.8276 118.029 66.8301 116.688 66.8301ZM89.7942 64.5794C89.8709 64.5738 89.9447 64.5479 90.0082 64.5045C90.0716 64.4611 90.1224 64.4017 90.1554 64.3324L90.4622 63.6728C90.524 63.5369 90.4671 63.4257 90.3311 63.4257H80.9254C80.7893 63.4257 80.6285 63.5369 80.5642 63.6728L80.2549 64.3324C80.1931 64.4707 80.2525 64.5794 80.3885 64.5794H89.7942Z" fill="black"/>
<path d="M78.172 66.8301C76.8311 66.8301 76.1459 66.0988 76.6951 64.9154C76.9053 64.4633 77.368 63.4652 77.5807 63.0205C78.0532 62.0274 78.6321 61.2764 80.5815 61.2764H91.3256C91.4642 61.2764 91.5211 61.3826 91.4592 61.5234L91.1525 62.183C91.1199 62.2527 91.0692 62.3124 91.0057 62.3558C90.9421 62.3993 90.8681 62.4249 90.7913 62.4301L80.8759 62.4326C80.495 62.4326 80.1511 62.5931 79.9804 62.9637L79.023 65.0093C78.8721 65.3329 78.9611 65.6813 79.3842 65.6813H89.2946C89.4331 65.6813 89.49 65.79 89.4257 65.9259L89.1189 66.5855C89.0859 66.6548 89.0351 66.7142 88.9717 66.7576C88.9082 66.801 88.8344 66.8269 88.7577 66.8325C87.8424 66.8276 79.5128 66.8301 78.172 66.8301ZM115.488 61.2764H93.0697C92.9919 61.2775 92.9161 61.3015 92.8518 61.3455C92.7876 61.3894 92.7377 61.4513 92.7085 61.5234C92.6319 61.6939 92.4587 62.0447 92.4018 62.183C92.3449 62.3214 92.3746 62.4301 92.5329 62.4301H97.2654C97.4262 62.4301 97.4807 62.519 97.4114 62.6722C97.0057 63.5394 95.6351 66.4595 95.5832 66.5855C95.5213 66.7362 95.5609 66.8325 95.7143 66.8325H97.5499C97.7157 66.8325 97.8394 66.7411 97.9111 66.5855L99.7393 62.6722C99.8086 62.519 99.9348 62.4301 100.088 62.4301H107.356C107.483 62.4301 107.579 62.519 107.51 62.6722C107.104 63.5394 105.739 66.4521 105.684 66.5855C105.62 66.7411 105.654 66.8325 105.815 66.8325H107.651C107.789 66.8325 107.925 66.7634 108.012 66.5855L109.835 62.6796C109.907 62.524 110.041 62.4301 110.194 62.4301H114.956C115.034 62.4283 115.109 62.404 115.174 62.3602C115.238 62.3163 115.288 62.2548 115.317 62.183L115.624 61.5234C115.684 61.3875 115.637 61.2764 115.488 61.2764ZM128.404 66.1457C128.404 65.7677 128.709 65.4565 129.097 65.4565C129.485 65.4565 129.787 65.7677 129.787 66.1457C129.793 66.2399 129.779 66.3342 129.747 66.4229C129.715 66.5115 129.665 66.5927 129.6 66.6614C129.535 66.73 129.457 66.7847 129.37 66.8221C129.284 66.8595 129.19 66.8788 129.096 66.8788C129.001 66.8788 128.908 66.8595 128.821 66.8221C128.734 66.7847 128.656 66.73 128.591 66.6614C128.527 66.5927 128.477 66.5115 128.445 66.4229C128.412 66.3342 128.399 66.2399 128.404 66.1457ZM129.706 66.1457C129.706 66.0662 129.69 65.9873 129.66 65.9137C129.63 65.8401 129.585 65.7733 129.529 65.717C129.472 65.6607 129.405 65.6162 129.332 65.5859C129.258 65.5556 129.179 65.5401 129.099 65.5405C129.02 65.5398 128.94 65.555 128.866 65.5852C128.792 65.6153 128.725 65.6598 128.669 65.7161C128.612 65.7724 128.567 65.8394 128.537 65.9131C128.506 65.9869 128.491 66.0659 128.491 66.1457C128.491 66.3066 128.555 66.4609 128.669 66.5746C128.783 66.6883 128.937 66.7522 129.098 66.7522C129.259 66.7522 129.414 66.6883 129.528 66.5746C129.642 66.4609 129.706 66.3066 129.706 66.1457ZM129.211 66.1853C129.305 66.1853 129.399 66.1359 129.399 65.9852C129.399 65.9209 129.379 65.8345 129.325 65.8073C129.268 65.7678 129.221 65.7677 129.124 65.7677H128.842V66.5435H128.936V66.1828H129.097L129.325 66.5435H129.448L129.211 66.1853ZM128.936 66.0988V65.8419H129.144C129.278 65.8419 129.297 65.8987 129.297 65.9679C129.297 66.0889 129.243 66.1013 129.127 66.1013L128.936 66.0988Z" fill="black"/>
</svg>
