<svg width="147" height="92" viewBox="0 0 147 92" fill="none" xmlns="http://www.w3.org/2000/svg">
<path fill-rule="evenodd" clip-rule="evenodd" d="M56.7587 12H91.2413C93.2698 12 95 13.7299 95 15.7577V76.2423C95 78.2701 93.2698 80 91.2413 80H56.7587C54.6706 80 53 78.2701 53 76.2423V15.7577C53 13.7295 54.6706 12.0596 56.6991 12H56.7587ZM90.5254 14.6248H81.2781V30.3724L81.8156 30.1933C79.9063 25.8389 85.4548 24.1686 86.4683 27.9267C89.2723 26.5547 91.5996 30.7303 88.9747 32.4602C88.8552 32.5198 88.736 32.5798 88.6164 32.6985C91.1221 36.9337 85.1564 38.9024 83.903 34.9651C83.0679 35.2634 82.1728 35.5022 81.2781 35.6809V60.9722C82.1728 61.5688 82.1132 63.8354 81.2781 64.5512V77.4355H90.5254C91.5396 77.3759 92.3747 76.541 92.3747 75.5268V16.4735C92.3747 15.4598 91.5396 14.6248 90.5254 14.6248ZM82.054 29.1196C81.3973 26.6143 85.2156 25.5406 85.9315 28.0459C85.9911 28.2846 86.0511 28.5825 86.1703 28.8212C86.2899 28.7617 86.3495 28.6425 86.4683 28.5825C88.676 27.1509 90.8241 30.5508 88.676 31.9827C88.3776 32.1619 88.0797 32.3406 87.7813 32.4598C87.9605 32.8177 88.1396 33.1156 88.3776 33.4143C89.7502 35.6213 86.3499 37.7687 84.9772 35.5617C84.6789 35.0847 84.4405 34.6672 84.2017 34.2493C77.8181 36.6946 71.0174 35.7405 64.8125 33.2352C63.9774 35.3826 63.0228 37.4704 61.1734 39.4986C59.3836 41.4077 56.4604 38.7232 58.1906 36.8142C60.0399 34.8459 60.875 32.3406 61.7701 29.8949C62.1877 28.8808 63.5003 28.3442 64.5146 28.7617C70.1823 31.3861 76.5063 32.7581 82.5315 30.5512C82.352 30.0737 82.2324 29.5966 82.054 29.1196ZM67.3778 41.5265C64.9317 40.6319 66.3635 36.8738 68.8096 37.8279C70.7782 38.5437 73.0455 38.7225 75.1333 38.842C76.0879 38.9612 76.9826 39.9157 76.9826 40.8702V59.5998C77.1618 60.3159 79.25 60.7334 79.7867 60.8522C82.352 61.3893 81.4569 65.2666 78.9516 64.7295C77.5798 64.4312 76.1475 64.0137 75.0137 63.1784C73.8206 64.0137 72.4488 64.4308 71.0766 64.7295C68.5113 65.2666 67.6762 61.3889 70.1819 60.8522C70.7786 60.7331 72.8667 60.3156 72.9859 59.5998V42.7193C71.0766 42.4806 69.1676 42.2423 67.3778 41.5265ZM66.7215 14.6248H57.415C56.4008 14.6248 55.5657 15.4598 55.5657 16.4739V75.5265C55.5657 76.5402 56.4008 77.4351 57.415 77.4351H66.7215V41.8844C64.9913 40.8702 65.3493 38.2458 66.7215 37.4704V34.6072C66.1848 34.4285 65.6476 34.2493 65.1105 34.0106C64.2754 36.158 63.2015 38.1862 61.5909 39.9161C60.7558 40.8107 59.7416 40.9302 58.8465 40.5723C57.1763 39.9161 56.46 37.8283 57.7726 36.3967C59.7412 34.2493 60.8746 30.6107 61.233 29.7158C61.2922 29.6562 61.2922 29.5966 61.2922 29.537C61.8293 28.4038 63.3803 27.7475 64.5734 28.2246H64.7522C65.3489 28.5229 66.0052 28.8212 66.7207 29.0596V14.6248H66.7215ZM91.2413 13.9091H56.6987C55.6845 13.9091 54.8494 14.744 54.8494 15.7581V76.2423C54.8494 77.256 55.6845 78.0913 56.7587 78.0913H91.2413C92.2555 78.0913 93.0906 77.256 93.0906 76.2423V15.7577C93.0906 14.744 92.2555 13.9091 91.2413 13.9091Z" fill="black"/>
</svg>
