<svg width="147" height="92" viewBox="0 0 147 92" fill="none" xmlns="http://www.w3.org/2000/svg">
<path d="M94.6995 40.4316C94.4588 40.7536 94.3519 41.3976 94.0043 41.9353C93.5268 42.6867 92.8268 43.6001 92.4763 43.6001C92.2853 43.6001 92.2356 43.1707 92.2356 43.1707C92.0986 42.6225 92.1553 42.0437 92.3961 41.5328C92.6058 41.0553 92.8851 40.6118 93.225 40.2169C93.5344 39.8534 93.8034 39.4572 94.0272 39.0352C94.2344 38.6714 94.3718 38.2719 94.4321 37.8573C94.4589 37.6963 94.4054 37.3474 94.2411 37.3781C94.0272 37.3781 93.4389 38.6671 92.8229 39.3907C92.299 39.9424 91.7357 40.4549 91.1374 40.9242C91.1374 40.9242 91.0304 41.0047 91.0304 40.79C90.9858 40.3689 91.0038 39.9435 91.0839 39.5278C91.2172 38.8902 91.4616 38.2812 91.8059 37.7289C92.2111 37.0571 92.7062 36.4444 93.2775 35.9079C93.4112 35.7737 93.8123 35.5322 93.5984 35.398C93.4074 35.2907 92.8497 35.7737 92.4218 36.0957C91.9452 36.4107 91.5208 36.7988 91.1641 37.2458C90.9124 37.5275 90.6885 37.8331 90.4956 38.1582C90.194 38.6654 89.9773 39.2187 89.8539 39.7961C89.7782 40.213 89.7335 40.6349 89.7202 41.0584C89.7198 41.4431 89.7466 41.8275 89.8004 42.2085C89.8589 42.5961 89.9392 42.9801 90.041 43.3585C90.041 43.3585 90.3084 44.1368 90.4154 44.6208C90.5223 45.1048 90.7095 46.527 90.7095 46.527C90.7885 47.1862 90.8064 47.8513 90.763 48.5138C90.7398 49.1287 90.6501 49.7393 90.4956 50.3348C90.2992 50.9202 90.0004 51.4658 89.6132 51.9459C89.4393 52.155 89.2517 52.3523 89.0517 52.5363C88.7751 52.7662 88.4799 52.9727 88.1692 53.1535C87.7645 53.3723 87.3441 53.5607 86.9115 53.717C86.6904 53.757 86.4672 53.7839 86.243 53.7975H85.8954L85.7884 53.717L85.7349 53.5024C85.5841 52.9149 85.3874 52.3404 85.1467 51.7839C84.9026 51.3174 84.6256 50.869 84.3177 50.4422C83.7926 49.7247 83.2206 49.043 82.6054 48.4017C81.8488 47.6936 81.0437 47.0397 80.196 46.4446C79.982 46.2836 79.5007 45.9884 79.5007 45.9884C78.4578 44.9472 77.5666 43.7633 76.8535 42.472C76.3312 41.5516 76.0982 40.4943 76.185 39.4387C76.2024 39.17 76.267 38.9065 76.376 38.6604L76.7236 38.7678C76.9117 38.9463 77.1287 39.0915 77.3653 39.1971C77.5149 39.241 77.6666 39.2768 77.8199 39.3045C77.8199 39.3045 78.0606 39.3313 78.1943 39.3581C78.328 39.4118 78.5686 39.4923 78.7291 39.5728C78.8895 39.6533 79.1302 39.8143 79.1302 39.8143L79.5848 40.1632L80.0623 40.5389C80.1728 40.6188 80.289 40.6905 80.4099 40.7536C80.4618 40.7758 80.5155 40.7937 80.5703 40.8073H80.6773C80.7092 40.7985 80.7384 40.7815 80.7618 40.7579C80.7853 40.7344 80.8022 40.7052 80.811 40.6731C80.8377 40.5389 80.6773 40.6462 80.4366 40.3779C80.2868 40.2483 80.1602 40.0941 80.0623 39.9217C80.0078 39.7517 79.9165 39.5959 79.7949 39.4655C79.647 39.302 79.4874 39.1495 79.3174 39.0093C79.1772 38.9156 79.024 38.8432 78.8628 38.7946C78.5954 38.7141 78.5152 38.7141 78.4884 38.6029C78.4617 38.4917 78.8093 38.5492 78.8093 38.5492C79.0589 38.5861 79.302 38.6584 79.5313 38.7639C79.7167 38.8548 79.8878 38.9723 80.0393 39.1128L80.2533 39.3045L80.387 39.4387L80.5207 39.5192C80.5207 39.5192 80.6544 39.6533 80.6811 39.4655C80.7038 39.3552 80.6848 39.2404 80.6276 39.1435L80.4939 39.0093L79.9591 38.5531C79.8302 38.413 79.6868 38.287 79.5313 38.1774C79.3156 38.0242 79.0821 37.8981 78.836 37.8017C78.6007 37.7424 78.3686 37.6708 78.1408 37.587C77.9627 37.5377 77.804 37.4346 77.6862 37.2918C77.6595 37.265 77.5258 37.1576 77.7664 37.2113C78.0071 37.265 78.1675 37.3455 78.4349 37.403C78.8628 37.5103 79.1302 37.5103 79.5313 37.6445C79.659 37.691 79.784 37.7447 79.9056 37.8055L80.4137 38.0202C80.7806 38.2204 81.1788 38.3566 81.5912 38.4227C81.9465 38.45 82.3033 38.3949 82.6341 38.2617C82.8278 38.1828 83.0083 38.0741 83.1689 37.9397C83.2181 37.8901 83.2628 37.8362 83.3026 37.7787L83.356 37.6445V37.5372C83.2223 37.3762 82.9549 37.8055 82.5271 37.886C82.0725 37.9665 82.0993 38.0202 81.8051 37.9665C81.5174 37.9357 81.2508 37.8003 81.0555 37.586C80.6276 37.1835 80.4672 36.8078 79.9095 36.5663C79.6916 36.48 79.4683 36.4083 79.241 36.3516C78.9279 36.2522 78.6238 36.1266 78.3318 35.9759C78.0911 35.8417 77.5831 35.7612 77.7435 35.5466C77.8237 35.4392 78.4655 35.8149 78.9478 35.8686C79.2329 35.9034 79.5205 35.9124 79.8073 35.8954C80.0403 35.8815 80.2724 35.8546 80.5025 35.8149C80.6561 35.7989 80.8114 35.8172 80.9571 35.8686C81.121 35.929 81.2805 36.0007 81.4346 36.0833C81.6256 36.1638 81.8357 36.2979 81.8892 36.2979L81.9961 36.3248L82.0496 36.2711L82.0763 36.2174L82.0496 36.1638L81.9694 36.1101L81.8089 36.0028C81.6437 35.9057 81.491 35.7886 81.3544 35.6539C81.1634 35.4094 80.9155 35.2159 80.6324 35.0904C80.4051 35.0188 80.1727 34.965 79.9371 34.9293L79.5628 34.9025L79.4023 34.8757C79.4023 34.8757 79.1349 34.7952 79.3489 34.7415C79.4713 34.7044 79.5965 34.6775 79.7232 34.661C79.9272 34.6175 80.1388 34.6267 80.3382 34.6878C80.5522 34.7683 80.8998 34.9562 80.9265 34.9562C81.1324 35.1184 81.3689 35.2371 81.6218 35.305C81.8864 35.3595 82.1544 35.3954 82.424 35.4124L82.6379 35.3587L82.7448 35.3319L82.8251 35.2782L82.7983 35.144C82.7983 35.144 82.7983 35.0367 82.6379 35.0098C82.3597 34.9745 82.094 34.8733 81.8624 34.7147C81.6833 34.5836 81.5135 34.4401 81.3544 34.2853C81.1643 34.1413 80.9453 34.0406 80.7126 33.9901C80.5386 33.9353 80.3594 33.8994 80.1778 33.8828L80.0441 33.8291L79.75 33.6949C79.6589 33.6366 79.5777 33.5641 79.5093 33.4802C79.4024 33.346 79.2419 33.1045 79.7003 33.2387C79.8966 33.2835 80.0856 33.3557 80.2618 33.4534C80.3873 33.5813 80.5441 33.6739 80.7164 33.7217C80.8501 33.7486 80.9571 33.7754 81.0373 33.6681C81.171 33.5339 80.7966 33.3729 80.5292 33.1889C80.3593 33.056 80.2144 32.8937 80.1014 32.7097C80.1014 32.7097 79.941 32.5755 80.1816 32.6292C80.4165 32.7092 80.6409 32.8174 80.8501 32.9512C80.9536 33.0039 81.0608 33.0488 81.171 33.0854C81.2512 33.1122 81.4651 33.2464 81.5721 33.3C81.7351 33.3415 81.8947 33.3953 82.0496 33.4611C82.2635 33.5952 82.3705 33.8099 82.4774 33.8904C82.5844 33.9709 82.6684 34.1051 82.7983 34.1319C82.9282 34.1588 82.9588 34.2124 83.039 34.1588C83.0768 34.135 83.1126 34.1081 83.1459 34.0783C83.1459 34.0783 83.1727 34.0246 83.039 33.9441C82.927 33.8607 82.8279 33.7612 82.7448 33.6489L82.6914 33.5416L82.6646 33.4342L82.5309 33.2195L82.2903 32.8707C82.0915 32.5981 81.8472 32.362 81.5683 32.173C81.2474 31.9813 81.0067 31.8778 81.0067 31.8778C81.0067 31.8778 80.8463 31.7973 80.7661 31.7436C80.6545 31.6495 80.5557 31.5413 80.4719 31.4216C80.3642 31.272 80.2482 31.1286 80.1243 30.9922C79.8302 30.697 78.9201 30.536 79.2648 30.3213C79.4338 30.2469 79.6241 30.2373 79.7996 30.2945C79.9066 30.3213 80.1472 30.4286 80.3879 30.5092C80.5483 30.5628 80.6553 30.5628 80.8157 30.6165C80.9618 30.6495 81.1048 30.6944 81.2436 30.7507C81.3238 30.8043 81.404 30.9117 81.4575 30.9424C81.616 31.1757 81.8266 31.3687 82.0725 31.5059C82.3543 31.6915 82.6742 31.8108 83.0084 31.8548C83.2692 31.8588 83.5295 31.8317 83.7839 31.7743C83.7839 31.7743 83.9176 31.7206 83.8106 31.5826C83.6769 31.4484 83.6769 31.4216 83.57 31.3909C83.1421 31.2299 82.7945 31.2835 82.4736 30.9615C82.3489 30.8599 82.2484 30.7315 82.1795 30.5858C82.0725 30.3711 82.126 30.3175 82.0458 30.1833C81.9923 30.0702 81.9283 29.9624 81.8548 29.8613C81.6167 29.579 81.3371 29.3347 81.0258 29.1367C80.7319 28.9868 80.4542 28.807 80.1969 28.6C80.1077 28.5191 80.027 28.4292 79.9562 28.3316L79.8225 28.117L79.7423 27.956C79.6888 27.6608 80.2198 28.0365 80.5178 28.1476C80.9953 28.3086 81.2398 28.5233 81.722 28.6843C81.957 28.7357 82.1891 28.7997 82.4173 28.876C82.8719 29.0677 83.0056 29.5201 83.4869 29.5737C83.7543 29.6006 84.2891 29.7079 84.1821 29.4664C84.0752 29.1981 83.5404 29.1981 83.273 28.876C83.1393 28.7418 83.1393 28.6077 83.0056 28.4735C82.7966 28.2624 82.5522 28.0898 82.2836 27.9636C82.1372 27.8167 82.0194 27.6438 81.936 27.4537C81.7755 27.078 81.3744 26.8097 80.6515 26.4608C80.174 26.2193 79.2066 26.1656 79.5819 25.9241C79.6831 25.8553 79.8005 25.8141 79.9224 25.8047C80.0443 25.7953 80.1666 25.8179 80.2771 25.8705C80.497 25.9754 80.7112 26.0918 80.9189 26.2193C81.1595 26.3267 81.2665 26.3535 81.32 26.3803C81.421 26.432 81.5292 26.4682 81.6409 26.4877C81.6943 26.5145 82.0954 26.5682 82.2024 26.595L82.7372 26.7292L83.165 26.8902C83.2767 26.9328 83.3937 26.9599 83.5127 26.9707C83.63 26.9638 83.7463 26.9458 83.8603 26.917L84.0207 26.8097L84.0475 26.756C84.0475 26.756 84.1277 26.6218 83.9138 26.595C83.8076 26.5783 83.7003 26.5693 83.5929 26.5682L83.4019 26.5145L83.3217 26.4877C83.1064 26.3192 82.8733 26.1752 82.6264 26.0583C82.2788 25.9241 82.2253 25.8973 82.2253 25.8973L82.0916 25.8705L81.9312 25.8436C81.7974 25.8201 81.6751 25.7527 81.5836 25.6519C81.3696 25.4603 81.2894 25.3567 81.1061 25.1727L80.8645 24.9188C80.8645 24.9188 80.6505 24.7577 80.6505 24.6236C80.6773 24.4089 81.128 24.8651 81.128 24.8651L81.4489 25.0798C81.676 25.2145 81.9338 25.2885 82.1976 25.2944C82.5585 25.2981 82.9183 25.2529 83.2672 25.1603C83.2672 25.1603 83.3474 25.1066 83.6148 25.1871C83.7855 25.2424 83.9466 25.3238 84.0923 25.4286L84.3063 25.6203L84.6271 25.9692L84.6806 25.9423C84.7074 25.9155 84.8411 25.7813 84.6004 25.4861C84.4105 25.2724 84.195 25.0831 83.9586 24.9226C83.625 24.7276 83.2646 24.5829 82.889 24.4932C82.6341 24.4351 82.3747 24.3992 82.1136 24.3859C81.8737 24.3805 81.6446 24.2847 81.4718 24.1175C81.3231 23.9505 81.1889 23.7709 81.0707 23.5808L81.0029 23.1936C80.8913 23.0748 80.7541 22.983 80.6018 22.9253C80.428 22.8446 80.2584 22.7551 80.0938 22.6569C80.0938 22.6569 79.6927 22.5227 79.6659 22.3349C79.5857 21.986 80.3344 22.3349 80.7355 22.4154C81.1099 22.4959 81.2703 22.6301 81.6447 22.7106C81.9235 22.7921 82.2152 22.8194 82.5042 22.7911C82.6645 22.7863 82.8242 22.7683 82.9817 22.7374C83.1508 22.724 83.3207 22.724 83.4897 22.7374C83.7132 22.8134 83.9283 22.9123 84.1315 23.0326C84.2605 23.1234 84.4058 23.1885 84.5593 23.2243C84.7198 23.2511 85.0368 23.3585 84.9872 23.1975L84.907 23.0901C84.7733 22.8984 84.6128 22.8984 84.4524 22.7681C84.1791 22.5065 83.8735 22.281 83.5432 22.0972C83.3181 21.9758 83.0745 21.8929 82.8222 21.8518C82.6257 21.8563 82.4292 21.8473 82.2339 21.825C82.0358 21.7382 81.8475 21.6303 81.6724 21.503C81.3578 21.2894 81.027 21.1009 80.683 20.9394C80.4467 20.854 80.2056 20.7823 79.961 20.7248L79.77 20.6979L79.6898 20.6711C79.3154 20.5369 80.3583 20.2417 80.8358 20.1075C81.0246 20.0415 81.2246 20.0141 81.4241 20.027C81.638 20.0539 81.8787 20.3491 82.1193 20.2187C82.4669 20.027 81.7182 19.521 81.4776 19.4405C81.1893 19.3645 80.8875 19.3553 80.5951 19.4137L79.3642 19.3868L79.0165 19.3331C78.9445 19.3283 78.8741 19.3088 78.8098 19.2758C78.7454 19.2429 78.6884 19.1972 78.6422 19.1415C78.2772 18.6451 77.764 18.2785 77.1772 18.0949C76.4552 17.9875 76.2413 18.0949 76.1878 18.0412C75.7101 17.3958 75.1212 16.8414 74.4488 16.4042C74.3151 16.2701 74.1012 15.9749 74.0477 16.0017C73.9437 16.2557 73.8544 16.5156 73.7803 16.7799C73.7201 16.8969 73.6909 17.0275 73.6956 17.1592C73.7003 17.2908 73.7386 17.4189 73.807 17.5313C73.914 17.6923 74.0477 17.7997 73.7803 17.9607C73.591 18.0587 73.3764 18.0961 73.1653 18.068C72.9788 18.0299 72.7988 17.9654 72.6305 17.8764C72.3898 17.769 71.8817 17.5543 71.8817 17.5543C71.6206 17.4813 71.3506 17.4452 71.0795 17.447C70.7587 17.4738 70.7319 17.5007 70.4913 17.5275C70.3836 17.5231 70.2758 17.5321 70.1704 17.5543C70.0634 17.5812 69.9297 17.5007 69.9297 17.6348C69.9297 17.769 70.1971 17.769 70.3843 17.8495C70.5715 17.93 70.9993 17.93 70.9191 18.0412C70.7571 18.134 70.5694 18.1716 70.3843 18.1486C70.2162 18.1201 70.0465 18.1022 69.8762 18.0949C69.5636 18.1045 69.2592 18.1971 68.9938 18.3632C68.9136 18.3901 68.9403 18.5779 69.1008 18.5242C69.3443 18.4545 69.5962 18.4184 69.8495 18.4169C70.1333 18.4422 70.4123 18.5067 70.6784 18.6086C70.9011 18.7021 71.1347 18.7665 71.3737 18.8003C71.4539 18.8003 71.6143 18.7466 71.6143 18.8539C71.6143 18.9076 71.5074 18.9881 71.5074 18.9881C71.5074 18.9881 71.2667 19.0418 71.2935 19.1223C71.3469 19.2296 71.5609 19.1223 71.6678 19.1223C71.7748 19.1223 71.9352 19.1491 71.9085 19.2565L71.855 19.337C71.6093 19.4013 71.3681 19.482 71.133 19.5785C70.4645 19.8469 70.1971 20.1689 69.5544 20.4909C68.9394 20.7861 67.9491 21.1618 67.9491 21.1618C67.7194 21.2787 67.4772 21.3688 67.2271 21.4301C66.9803 21.4895 66.7303 21.5343 66.4784 21.5643C66.2411 21.5783 66.0111 21.6521 65.8099 21.779C65.668 21.8534 65.5411 21.9535 65.4355 22.0742L65.0611 22.6377L64.8472 22.9598C64.7921 23.0435 64.7472 23.1336 64.7135 23.2281C64.666 23.3311 64.6301 23.4391 64.6066 23.5501C64.5576 23.8277 64.5759 24.1131 64.66 24.382C64.6868 24.4626 64.6868 24.5162 64.7135 24.5967C64.7446 24.6604 64.7905 24.7156 64.8472 24.7577L64.9542 24.7846C65.1606 24.7697 65.3659 24.7428 65.5692 24.7041C65.8099 24.6504 66.1575 24.5699 66.1575 24.5699L66.6121 24.4357L66.9062 24.3284C66.9062 24.3284 67.0972 24.3284 67.1201 24.4357C67.1469 24.5162 67.0666 24.6504 67.0666 24.6504C67.0666 24.6504 66.9062 24.7309 66.7725 24.7846C66.6388 24.8382 66.3179 24.9188 66.295 24.9456L65.9474 25.0529L65.6532 25.0798C65.6096 25.1065 65.5729 25.1433 65.5463 25.1871C65.4928 25.2676 65.4928 25.2676 65.4928 25.3213C65.5463 25.375 65.573 25.4286 65.6265 25.4823C65.7085 25.5613 65.8101 25.6169 65.9206 25.6433C66.0731 25.7 66.237 25.7185 66.3981 25.697C66.6306 25.6978 66.8599 25.6426 67.0666 25.536C67.2514 25.4301 67.4492 25.3489 67.6549 25.2944C67.7507 25.2659 67.8494 25.2479 67.9491 25.2408C68.389 25.2096 68.8312 25.2458 69.2603 25.3481C69.7683 25.4286 70.009 25.5896 70.518 25.6701C70.9765 25.8133 71.4615 25.85 71.9362 25.7775C72.2036 25.7238 72.364 25.5858 72.4977 25.858C72.573 25.9683 72.6106 26.1001 72.6047 26.2337C72.5729 26.4652 72.5086 26.6911 72.4137 26.9046C72.2227 27.4145 71.6382 28.6767 71.6382 28.6767L71.2371 29.4817C70.9425 30.0155 70.5836 30.5109 70.1685 30.9567C69.4198 31.7886 69.3663 31.8423 69.3663 31.8423C69.0673 32.0769 68.7979 32.3473 68.5641 32.6474C68.329 33.0216 68.0699 33.3802 67.7886 33.7208C67.5909 33.9368 67.3662 34.1262 67.1201 34.2843C66.5649 34.4796 66.0349 34.7409 65.5415 35.0626C64.7393 35.6261 64.3105 36.0823 64.257 36.0555C64.2036 36.0286 63.9362 35.8139 63.8292 35.7603L62.1971 34.66L61.5553 34.2307L61.2612 34.039L61.2077 33.9316L61.0473 33.717C60.8849 33.5228 60.706 33.3432 60.5125 33.1802C60.2086 32.8854 59.829 32.681 59.4162 32.5899C59.0347 32.4251 58.6064 32.406 58.2119 32.5362C57.9567 32.6207 57.7268 32.7684 57.5434 32.9656C57.3349 33.2124 57.1554 33.4825 57.0086 33.7706C56.7947 34.0926 56.5808 34.3878 56.4738 34.5488C56.3668 34.7099 56.1529 35.1392 56.1529 35.1392C56.1529 35.1392 55.6181 36.0018 55.324 36.5625C54.9764 37.1797 54.8465 37.5554 54.5218 38.1467C54.0137 39.086 53.2908 40.053 53.1036 40.4824C52.9164 40.9117 52.8897 40.9616 52.8897 40.9616C52.8897 40.9616 52.8362 41.2031 52.8095 41.3641C52.7827 41.5251 52.7827 41.7935 52.756 41.9008C52.7332 42.0077 52.6876 42.1084 52.6223 42.196C52.4465 42.5303 52.3033 42.8807 52.1945 43.2426C52.0875 43.6451 51.8468 44.9073 52.141 45.0636C52.4351 45.2198 54.602 44.2853 54.8961 43.372C55.0871 42.7816 54.3079 42.4864 54.5218 41.9487C54.5919 41.8028 54.6819 41.6673 54.7892 41.5462C55.0031 41.1973 54.9229 40.4728 55.324 39.8009C55.84 39.0927 56.4032 38.4203 57.0096 37.7883C57.387 37.3347 57.7179 36.8441 57.997 36.3238C57.997 36.3238 58.104 36.0018 58.3179 36.0555C58.4672 36.0878 58.6205 36.0968 58.7725 36.0823L58.8794 36.1628L59.0905 36.3775L59.4114 36.8567C59.4114 36.8567 59.95 37.6397 60.141 37.8573C60.3361 38.0737 60.5509 38.2714 60.7828 38.4477C61.0769 38.716 61.1839 38.8502 61.5582 39.1454C62.093 39.5747 61.9058 39.7358 61.2106 39.3601C60.9207 39.2117 60.616 39.0948 60.3014 39.0112C59.9806 38.9307 58.7734 38.6087 58.1613 38.532C57.9327 38.4848 57.6991 38.4668 57.466 38.4783C57.2378 38.4763 57.0143 38.5431 56.8243 38.67C56.6374 38.7824 56.4587 38.908 56.2895 39.0457C56.1355 39.2152 55.9926 39.3945 55.8616 39.5824C55.8349 39.6629 55.6477 39.9849 55.6477 39.9849C55.5808 40.0913 55.5354 40.2098 55.514 40.3338C55.4819 40.4563 55.4728 40.5837 55.4873 40.7095L55.514 41.112L55.5408 41.4877C55.5408 41.4877 55.621 42.427 55.8082 43.3672C55.8616 43.6355 55.9151 44.0649 55.9151 44.0649L56.0488 45.031C56.0488 45.031 56.129 46.0507 56.2093 46.4005C56.2895 46.7226 56.343 46.7494 56.4003 46.9641C56.5072 47.3666 56.32 47.5545 56.5072 48.0375C56.6944 48.5205 56.8548 48.4669 57.042 48.7621C57.1613 48.9284 57.2601 49.1086 57.3362 49.2988C57.5737 49.9208 57.8611 50.5224 58.1957 51.0977C58.6235 51.7686 59.185 52.6014 59.5604 52.5209C59.9357 52.4404 60.2021 51.8501 60.2021 51.8501C60.4506 51.1128 60.502 50.3229 60.3511 49.5595C60.0837 48.4094 58.8527 48.9422 58.6923 48.1094C58.6779 47.95 58.6779 47.7896 58.6923 47.6302C58.683 47.4755 58.6561 47.3225 58.612 47.174C58.3432 46.67 58.1281 46.139 57.9703 45.5897C57.8366 45.0799 57.8633 43.4419 57.7564 42.9857C57.4622 41.804 57.4355 41.9123 57.5959 41.6967C57.7869 41.482 57.9435 41.5357 57.9435 41.5357L58.1842 41.5625L58.3752 41.643C58.3752 41.643 58.5891 41.7772 58.7228 41.8577C58.8298 41.9382 59.2003 42.2334 59.2003 42.2334L60.1095 42.8238C60.1095 42.8238 60.6175 43.1189 60.8315 43.2263C60.9705 43.2975 61.1045 43.3782 61.2326 43.4678L61.4732 43.6288L61.8743 43.924L61.9545 44.0045L62.008 44.1119C62.2437 44.4984 62.5879 44.8065 62.9974 44.9974C63.6392 45.3731 64.2016 45.2658 64.4423 45.561C64.7045 45.8943 64.9457 46.2439 65.1643 46.6076C65.4317 47.0369 65.7526 47.5468 65.8595 47.7078C65.9665 47.8688 66.635 48.7007 66.635 48.7007L67.5174 49.6668L68.6634 50.7402L69.7063 51.6258L70.3748 52.1625C70.769 52.5323 71.1894 52.8731 71.6325 53.1822C72.2742 53.6116 72.301 53.6614 72.7288 53.9605C73.0497 54.1752 73.4775 54.4703 73.9063 54.7924C74.3342 55.1412 74.8155 55.7853 74.6283 56.0009C74.4946 56.0814 74.254 55.7326 73.7994 55.33C73.5007 55.0634 73.1883 54.8126 72.8635 54.5786C72.4662 54.2532 72.0458 53.9573 71.6057 53.6931C71.3383 53.5321 70.857 53.2369 70.8303 53.2905C70.6744 53.8766 70.6291 54.4867 70.6966 55.0895C70.7312 55.6254 70.8208 56.1563 70.964 56.6737C71.0827 57.1783 71.2424 57.6722 71.4415 58.1506C71.6554 58.7142 72.0565 59.6007 72.0565 59.6007L72.6715 60.8361L73.2331 61.7753L73.5272 62.2545L73.6342 62.4156C73.6704 62.5004 73.689 62.5917 73.689 62.6839C73.689 62.7762 73.6704 62.8675 73.6342 62.9523C73.5005 63.1669 73.34 63.6232 73.0994 63.65C72.8337 63.6922 72.5659 63.7191 72.2972 63.7305L69.1142 63.6768L67.4553 63.5426C67.0834 63.4352 66.6947 63.3988 66.3093 63.4353C65.8571 63.4879 65.4099 63.5777 64.9723 63.7037C64.143 63.6616 63.3123 63.7522 62.5113 63.972C61.6824 64.3209 61.307 64.4014 61.0129 64.9381C60.799 65.3406 62.0558 65.9847 63.0996 66.2272C64.7852 66.6029 64.3038 65.8783 64.9456 65.4221C65.0258 65.3684 65.0525 65.3147 65.1366 65.2879C65.5644 65.1537 65.8051 65.5026 66.2329 65.5026C66.6499 65.4611 67.0621 65.3802 67.4639 65.2611C69.8982 64.939 73.6972 66.093 73.6972 66.093C74.1371 66.24 74.5983 66.3126 75.0619 66.3077C75.5699 66.2003 75.463 66.0125 75.6234 65.7173C75.7571 65.4758 75.7036 65.4221 75.7304 65.1537C75.7257 65.0181 75.7078 64.8833 75.6769 64.7512C75.5721 64.3745 75.438 64.0066 75.2758 63.6509C75.2758 63.6509 75.0619 63.1717 74.9817 62.9264C74.8645 62.6221 74.775 62.3077 74.7143 61.9871C74.6064 61.5027 74.5614 61.0063 74.5806 60.5102C74.5717 59.6369 74.698 58.7675 74.9549 57.9331C75.356 56.483 76.1009 55.8658 76.6672 54.4703C76.8277 54.0946 76.8277 53.5579 77.0149 53.5043C77.2288 53.4774 77.2059 54.1752 77.0951 54.5777C76.7475 55.9741 75.8908 56.5645 75.4897 57.9867C75.18 58.9116 75.0528 59.8883 75.1154 60.862C75.1633 61.3962 75.2527 61.9259 75.3828 62.4462C75.3828 62.4462 75.7036 63.5196 75.8603 63.9231C76.0169 64.3266 76.3378 64.9966 76.3378 64.9966L77.0597 66.2856L77.4341 66.9028C77.515 66.9864 77.5706 67.0913 77.5943 67.2053C77.6179 67.3194 77.6088 67.4379 77.5678 67.5469C77.404 67.9278 77.1573 68.267 76.8458 68.5398C75.7567 69.6602 74.5654 70.6758 73.2875 71.5732C72.5388 72.1367 72.5655 72.2977 72.512 72.4587C72.2179 73.3213 71.366 73.3443 70.4254 74.365C70.2114 74.5797 69.6499 75.1701 69.7569 75.6809C70.9511 76.097 72.2488 76.1064 73.4489 75.7077C74.4917 75.2515 73.5826 74.7417 73.8767 74.2308C74.0907 73.8551 74.6254 73.8551 74.8661 73.5331C75.2672 72.9964 74.9998 73.0232 75.3436 72.5939C76.4231 71.1833 77.7745 70.0053 79.3174 69.1302C79.5084 69.0228 79.8522 68.8618 79.8522 68.8618C80.0054 68.7934 80.1422 68.6928 80.2533 68.5666C80.3552 68.3685 80.3926 68.1432 80.3602 67.9226C80.3602 67.7616 80.3335 67.6811 80.3335 67.52C80.3508 67.3599 80.3418 67.198 80.3067 67.0408C80.2407 66.7865 80.1222 66.5488 79.9591 66.3431C79.7519 66.0873 79.6138 65.7824 79.558 65.4575C79.4117 64.9619 79.4401 64.4309 79.6382 63.9538C79.8015 63.5716 80.0377 63.2252 80.3335 62.9341L81.5377 62.129C81.5377 62.129 82.5806 61.3776 82.9024 61.0824C83.4648 60.6068 83.9671 60.0638 84.3979 59.4656C84.9199 58.8203 85.2941 58.0677 85.4943 57.2612C85.5745 56.9124 85.6547 56.3757 85.6547 56.3757C85.6547 56.3757 85.6547 56 85.8686 55.9731C86.0826 55.9463 86.136 56.0268 86.136 56.0268C86.136 56.0268 86.327 56.1341 86.3767 56.6709C86.3816 57.0584 86.3367 57.445 86.243 57.8209C86.243 57.8209 86.0826 58.4382 86.0291 58.8139C86.0063 59.0277 85.9973 59.2429 86.0023 59.4579C86.0077 59.7455 86.0728 60.0288 86.1933 60.2898C86.1933 60.2898 86.3003 60.3703 86.3003 60.1825C86.3131 59.8909 86.358 59.6016 86.434 59.3199C86.5142 59.0515 86.5677 59.1052 86.7281 58.649C86.9421 58.0586 86.7549 58.1123 86.8618 57.7634C86.9153 57.6024 87.0528 57.4414 87.2095 57.4414C87.3661 57.4414 87.4005 57.6561 87.4005 57.6561C87.4932 58.0977 87.5023 58.5529 87.4272 58.9979C87.2821 59.5312 87.0757 60.0458 86.8122 60.5313L86.4378 61.1754C86.2958 61.4168 86.1707 61.6679 86.0635 61.9268C85.9594 62.1627 85.9313 62.4254 85.9832 62.6782C86.0635 63.0002 86.3041 63.4296 86.4378 63.349C86.5448 63.2685 86.2774 63.0002 86.5983 62.3561C86.7906 61.9694 87.0434 61.6161 87.347 61.3096C87.6716 60.9258 87.9593 60.5122 88.2065 60.0742C88.3924 59.6641 88.5519 59.2425 88.684 58.8119C88.7923 58.3913 88.8374 57.9569 88.8177 57.5229C88.8125 57.2306 88.7675 56.9404 88.684 56.6603L88.4433 56.2309L88.3096 55.9089L88.3631 55.7172C88.4166 55.6904 88.6038 55.8246 88.7642 56.0393C88.9609 56.2928 89.098 56.5877 89.1653 56.9018C89.2382 57.1455 89.2743 57.3988 89.2723 57.6532C89.2146 58.2196 89.2973 58.7914 89.5129 59.318C89.6466 59.5863 89.9675 60.2035 89.9904 59.9352C90.0439 59.318 89.7765 59.0228 89.7994 58.4583C89.8262 57.8142 89.9904 57.9791 90.0401 57.6532C90.1248 57.3662 90.1521 57.0653 90.1203 56.7677C90.0667 56.4307 89.9862 56.0987 89.8796 55.7747L89.6886 55.3454L89.6084 55.1844C89.6235 55.162 89.6433 55.1431 89.6664 55.1292C89.6895 55.1153 89.7153 55.1067 89.7421 55.1039L90.3839 54.8892C90.7849 54.7105 91.1685 54.4949 91.5299 54.2451C91.7982 54.0435 92.0487 53.819 92.2786 53.5742C92.5707 53.2088 92.8387 52.8247 93.0808 52.4241C93.5672 51.348 93.7786 50.167 93.6958 48.9882C93.6643 48.4686 93.5973 47.9518 93.4953 47.4414C93.3787 46.8581 93.3249 46.264 93.3348 45.6693C93.3883 44.9715 93.4418 44.6495 93.4418 44.6495C93.4643 44.1172 93.6618 43.6073 94.0033 43.1995C94.47 42.6907 94.8011 42.0719 94.966 41.4005C95.0729 40.9213 94.9125 40.1383 94.6986 40.4344L94.6995 40.4316ZM76.99 35.5993C76.9098 35.5993 76.799 35.4919 76.799 35.4919C76.799 35.4919 76.7723 35.4651 76.8525 35.4114C76.9105 35.3785 76.9788 35.3689 77.0435 35.3846L77.1237 35.4114L77.2574 35.6031C77.2355 35.6798 77.0702 35.6261 76.99 35.5993ZM77.3109 34.7137C77.2368 34.6837 77.1653 34.6478 77.097 34.6064C77.097 34.6064 77.0702 34.5527 77.1505 34.499C77.2169 34.4668 77.2921 34.4574 77.3644 34.4722L77.4446 34.5258C77.4713 34.5527 77.605 34.6869 77.605 34.7405C77.605 34.8201 77.4179 34.7405 77.3109 34.7137ZM77.605 33.8013C77.5105 33.7683 77.4206 33.7232 77.3376 33.6671C77.3376 33.6671 77.3109 33.6134 77.4179 33.5598C77.5031 33.5275 77.5953 33.5182 77.6853 33.5329L77.7922 33.5866C77.8457 33.6403 77.9832 33.7783 77.9832 33.855C77.9536 33.9345 77.713 33.8281 77.605 33.8013ZM77.8457 32.9694C77.7512 32.9364 77.6613 32.8913 77.5783 32.8352C77.5783 32.8352 77.5516 32.7815 77.6585 32.7279C77.7438 32.6956 77.836 32.6863 77.9259 32.701L78.0329 32.7547C78.0864 32.8084 78.2239 32.9464 78.2239 33.0231C78.1905 33.0758 77.9536 32.9694 77.8457 32.9694ZM78.0864 31.9765C77.9787 31.9428 77.8787 31.8881 77.7922 31.8155C77.7922 31.8155 77.7655 31.7618 77.8724 31.6813C77.9634 31.6345 78.0688 31.6249 78.1666 31.6545L78.2735 31.7081C78.327 31.7618 78.4875 31.9228 78.4875 32.0033C78.4875 32.1107 78.1933 31.9765 78.0864 31.9765ZM78.2468 30.9031C78.1112 30.8631 77.9843 30.7981 77.8724 30.7114C77.8724 30.7114 77.819 30.6309 77.9794 30.5504C78.0881 30.5006 78.2084 30.482 78.327 30.4967L78.4607 30.5772C78.5707 30.6861 78.6612 30.8132 78.7281 30.9529C78.7291 31.0622 78.4082 30.928 78.2478 30.9011L78.2468 30.9031ZM78.3538 29.8296C78.1877 29.7803 78.0332 29.6982 77.8992 29.5881C77.8992 29.5881 77.8457 29.5076 78.0061 29.3964C78.139 29.332 78.2894 29.3131 78.434 29.3428C78.4905 29.3631 78.5443 29.3901 78.5944 29.4233C78.7307 29.5522 78.8399 29.7074 78.9153 29.8795C78.942 30.0137 78.5409 29.8526 78.3538 29.8258V29.8296ZM78.5142 28.5943C78.3278 28.542 78.1546 28.4505 78.0061 28.3259C78.0061 28.3259 77.9527 28.2186 78.1398 28.1112C78.2865 28.0333 78.4571 28.0141 78.6173 28.0575C78.6888 28.0771 78.7544 28.1139 78.8083 28.1649C78.9622 28.3112 79.089 28.4839 79.1827 28.6748C79.1827 28.8358 78.7281 28.6211 78.5142 28.5943ZM78.4072 23.6009C78.2717 23.5609 78.1447 23.4959 78.0329 23.4093C78.0329 23.4093 77.9794 23.3556 78.1398 23.2751C78.259 23.2279 78.3896 23.2185 78.5142 23.2482C78.5637 23.2658 78.6092 23.2932 78.6479 23.3288C78.7014 23.3824 78.9153 23.5703 78.9153 23.6776C78.9163 23.76 78.5725 23.6259 78.4082 23.599L78.4072 23.6009ZM78.9955 24.8095C79.0223 24.9168 78.6479 24.7827 78.4607 24.7558C78.3151 24.7094 78.1792 24.6366 78.0596 24.5411C78.0596 24.5411 78.0061 24.4606 78.1666 24.3801C78.2804 24.3161 78.4138 24.297 78.5409 24.3265C78.5974 24.3468 78.6513 24.3738 78.7014 24.407C78.8225 24.5217 78.9224 24.657 78.9965 24.8066L78.9955 24.8095ZM78.2201 26.7963C78.353 26.7318 78.5033 26.7129 78.6479 26.7426C78.7044 26.763 78.7582 26.79 78.8083 26.8231C78.9447 26.9521 79.0538 27.1072 79.1292 27.2793C79.156 27.4135 78.7549 27.2525 78.5677 27.1988C78.4016 27.1495 78.2471 27.0674 78.1131 26.9573C78.1131 26.9573 78.0606 26.9007 78.221 26.7934L78.2201 26.7963ZM78.5725 25.8772C78.4064 25.8278 78.2519 25.7457 78.1179 25.6356C78.1179 25.6356 78.0644 25.5551 78.2248 25.444C78.3575 25.3829 78.5063 25.3668 78.6489 25.398C78.7053 25.4183 78.7592 25.4453 78.8093 25.4785C78.9456 25.6074 79.0547 25.7626 79.1302 25.9347C79.1569 26.0957 78.7558 25.9347 78.5686 25.881L78.5725 25.8772ZM78.9201 21.8518C79.134 21.9055 79.1875 22.0435 79.0805 22.0435C79.002 22.0643 78.921 22.0733 78.8399 22.0704C78.5992 22.0704 78.6259 21.963 78.3051 22.124C78.1392 22.2298 77.9591 22.3112 77.7703 22.3656C77.3424 22.5266 77.4494 22.0972 77.4494 22.0972C77.4494 22.0972 77.4761 22.0167 77.5296 21.802C77.5831 21.5873 77.8505 21.802 78.0377 21.802C78.3329 21.7897 78.6285 21.8076 78.9201 21.8557V21.8518ZM77.713 20.189L77.8467 20.2695C77.9567 20.3784 78.0471 20.5055 78.1141 20.6452C78.1408 20.7525 77.7932 20.6184 77.6595 20.5915C77.5239 20.5515 77.397 20.4865 77.2851 20.3999C77.2851 20.3999 77.2316 20.3193 77.3921 20.2388C77.4389 20.208 77.4918 20.1876 77.5471 20.179C77.6025 20.1704 77.659 20.1738 77.713 20.189ZM76.7494 18.9009C76.8581 18.8511 76.9784 18.8325 77.097 18.8472L77.2307 18.9277C77.3407 19.0366 77.4312 19.1637 77.4981 19.3034C77.5248 19.4108 77.1772 19.2766 77.0435 19.2498C76.9079 19.2098 76.781 19.1448 76.6691 19.0581C76.6691 19.0581 76.6157 18.9776 76.7494 18.8971V18.9009ZM76.482 36.297C76.5399 36.2641 76.6082 36.2545 76.673 36.2702L76.7532 36.297L76.8869 36.4887C76.8869 36.5423 76.7264 36.4618 76.6462 36.4618C76.566 36.4618 76.4552 36.3545 76.4552 36.3545C76.4552 36.3545 76.4017 36.3238 76.482 36.297ZM65.7545 23.5185C65.6743 23.5722 65.6208 23.599 65.5138 23.6795C65.3801 23.7869 65.2464 24.0552 65.1662 23.9747C65.0592 23.8942 65.1127 23.599 65.1127 23.599C65.1127 23.599 65.1929 23.3843 65.3037 23.1697C65.3311 23.1122 65.3723 23.0624 65.4237 23.0249C65.475 22.9874 65.5349 22.9634 65.5979 22.955C65.7583 22.955 66.0524 23.0623 66.0524 23.3038C66.0754 23.5454 65.8882 23.438 65.7545 23.5185ZM67.951 24.3504C67.951 24.3504 67.844 24.3773 67.8173 24.1894C67.8114 24.1665 67.8101 24.1426 67.8137 24.1192C67.8173 24.0957 67.8256 24.0733 67.8381 24.0532C67.8506 24.0331 67.8671 24.0158 67.8865 24.0023C67.9059 23.9888 67.9278 23.9794 67.951 23.9747C67.951 23.9747 68.2718 23.8137 68.2718 24.0284C68.2986 24.2201 67.951 24.3504 67.951 24.3504ZM70.816 20.6989C70.6101 21.0248 70.3248 21.2927 69.987 21.4771C69.4487 21.7244 68.8665 21.8612 68.2747 21.8796C68.141 21.8796 68.1945 21.7991 68.1945 21.7991C68.7534 21.6406 69.2975 21.4337 69.8209 21.181C70.1026 21.0247 70.371 20.8452 70.6231 20.6442C70.9974 20.3222 70.8141 20.6979 70.8141 20.6979L70.816 20.6989ZM52.8343 43.948C52.8343 44.0821 52.6739 44.3237 52.6204 44.3237C52.5669 44.3237 52.4599 44.0821 52.4867 43.948C52.5134 43.8138 52.5402 43.4381 52.7541 43.4918C52.9145 43.5186 52.8343 43.8138 52.8343 43.948ZM53.5295 40.9146C53.5295 40.9146 53.2889 41.4245 53.2087 41.2098C53.1284 41.0181 53.2889 40.6731 53.2889 40.6731C53.5028 40.4814 53.583 40.2169 53.69 40.3242C53.7702 40.4316 53.5295 40.9146 53.5295 40.9146ZM56.8463 35.6798C56.6056 35.9481 55.8569 37.3714 55.7003 37.1298C55.5398 36.9382 56.4222 35.5964 56.6094 35.3309C56.8004 35.0357 56.957 35.0894 56.957 35.0894L57.0105 35.1431C57.0215 35.2391 57.0126 35.3363 56.9843 35.4287C56.956 35.521 56.909 35.6065 56.8463 35.6798ZM58.8517 33.5588C58.8517 33.5588 58.3169 33.6662 58.3972 33.4783C58.5041 33.2866 58.8747 33.21 58.8747 33.21C59.1688 33.2636 59.2223 33.2905 59.1955 33.4246C59.2271 33.5588 58.8517 33.5588 58.8517 33.5588ZM61.0186 37.3177C60.778 37.5592 60.6978 37.2372 60.3501 36.8385C60.253 36.7523 60.178 36.6439 60.1314 36.5224C60.0849 36.401 60.0682 36.2701 60.0827 36.1408H60.141L60.1945 36.1676L60.3282 36.2213L60.4084 36.3018L60.6758 36.5701C60.7789 36.7264 61.0731 37.2631 61.0196 37.3167L61.0186 37.3177ZM56.873 45.3444C56.7928 45.3444 56.7126 45.1834 56.7126 45.1834C56.5951 45.0064 56.4965 44.8175 56.4184 44.6198C56.3621 44.4365 56.3262 44.2475 56.3115 44.0563C56.3115 44.0563 56.258 43.6001 56.258 43.4391C56.2847 43.2244 56.2847 43.0365 56.3115 42.9292C56.3147 42.9149 56.3207 42.9015 56.3293 42.8896C56.3378 42.8778 56.3487 42.8678 56.3612 42.8603C56.3737 42.8527 56.3875 42.8478 56.402 42.8459C56.4164 42.8439 56.4311 42.8448 56.4452 42.8487C56.4646 42.846 56.4844 42.8474 56.5033 42.8528C56.5222 42.8583 56.5398 42.8676 56.5549 42.8802C56.57 42.8929 56.5823 42.9085 56.591 42.9262C56.5997 42.9438 56.6047 42.9631 56.6056 42.9829V43.0634C56.6056 43.0634 56.6056 43.5426 56.6323 43.9259C56.6323 44.0333 56.9265 45.2418 56.9265 45.2418C56.9265 45.2418 56.9809 45.3444 56.873 45.3444ZM56.8195 39.707C56.6285 40.0022 56.4986 40.0022 56.4986 40.0022C56.4986 39.9754 56.4452 39.868 56.6056 39.546C56.766 39.224 56.9265 39.2508 56.9265 39.2508L56.98 39.3045C56.98 39.3045 57.0076 39.4109 56.8195 39.707ZM58.719 50.9549C58.7725 50.8476 59.1201 51.1159 59.1201 51.1159C59.2538 51.1427 59.3875 51.3843 59.3875 51.3843C59.3875 51.3843 59.441 51.576 59.2805 51.6258C59.2338 51.6467 59.181 51.6501 59.132 51.6353C59.0829 51.6206 59.0407 51.5886 59.0131 51.5453C59.0131 51.5453 58.6655 51.0622 58.719 50.9549ZM61.2335 42.7394C60.7109 42.4944 60.2097 42.2058 59.7351 41.8768C59.4142 41.7158 58.8756 41.6622 59.1201 41.4475C59.1468 41.4206 59.1736 41.367 59.2271 41.367C59.3269 41.3869 59.4252 41.4138 59.5212 41.4475L60.1104 41.6909C60.3041 41.7659 60.4919 41.8556 60.672 41.9593C60.8859 42.0934 61.2603 42.335 61.2603 42.335L61.4207 42.4691C61.4207 42.5257 61.6088 42.8199 61.2335 42.7394ZM64.4967 37.3972C64.4967 37.3972 64.0422 38.0145 63.7748 38.3902C63.4271 38.9 62.9993 39.6792 62.9153 39.5987C63.0504 39.1053 63.2577 38.6347 63.5303 38.2023C63.6935 37.8114 63.9863 37.489 64.3592 37.2899C64.7068 37.1289 64.4929 37.3972 64.4929 37.3972H64.4967ZM63.0528 64.271C63.0528 64.271 63.0528 64.3784 62.8618 64.5126C62.6708 64.6467 62.5944 64.5662 62.5676 64.5662C62.5409 64.5662 62.3537 64.4589 62.3537 64.3515C62.3805 64.2442 62.6746 64.1599 62.6746 64.1599C63.1827 64.133 63.049 64.2672 63.049 64.2672L63.0528 64.271ZM67.1994 64.11C67.0084 64.0832 66.9855 64.0295 67.0084 64.0027C67.0084 63.9758 67.0619 63.9222 67.2758 63.9222C67.4897 63.9222 67.4897 64.0295 67.4897 64.0295C67.4945 64.11 67.4133 64.1369 67.1994 64.11ZM71.961 64.3784C71.6624 64.4428 71.357 64.4698 71.0518 64.4589C70.8124 64.4901 70.5713 64.508 70.3299 64.5126C69.893 64.5411 69.4551 64.4757 69.0454 64.3209C68.9117 64.2672 68.7513 64.1062 68.8047 64.0525C68.8236 64.0291 68.8487 64.0116 68.8771 64.0021C68.9056 63.9926 68.9361 63.9915 68.9652 63.9989C69.4611 64.088 69.9612 64.152 70.4636 64.1905C70.8189 64.2263 71.1765 64.2352 71.5332 64.2174C71.7738 64.2174 71.6401 64.1905 72.0107 64.1905C72.1482 64.1637 72.068 64.3515 71.961 64.3784ZM74.5023 63.627C74.401 63.6797 74.292 63.7159 74.1795 63.7343C74.019 63.7612 74.0992 63.627 74.0992 63.627C74.1637 63.5321 74.2454 63.4502 74.3399 63.3855C74.5003 63.305 74.5806 63.3855 74.5806 63.3855C74.636 63.4928 74.529 63.6002 74.5023 63.627ZM76.482 58.4727C76.3236 58.7519 76.2321 59.0643 76.2146 59.3851C76.1611 59.7876 76.4056 60.9185 76.0236 60.4853C75.8377 60.0073 75.7824 59.4882 75.8631 58.9816C76.0541 58.0155 76.8296 57.7481 76.482 58.4727ZM71.0786 74.8758C70.9181 74.9832 71.239 75.3052 70.731 75.2784C70.4368 75.2515 70.5973 74.9832 70.624 74.9563L70.815 74.688C70.902 74.5598 71.0222 74.4577 71.1626 74.3928C71.2963 74.3123 71.4033 74.527 71.4033 74.527C71.4381 74.5848 71.4566 74.6511 71.4568 74.7187C71.4568 74.7992 71.2161 74.7723 71.0824 74.8797L71.0786 74.8758ZM73.8872 72.1683L73.6466 72.36C73.6198 72.36 73.4556 72.4942 73.4059 72.4137C73.3563 72.3332 73.4327 72.222 73.4327 72.199C73.5041 72.084 73.6059 71.991 73.7268 71.9306C73.7571 71.9062 73.7949 71.8929 73.8338 71.8929C73.8726 71.8929 73.9104 71.9062 73.9407 71.9306C74.0209 72.1099 73.8872 72.1683 73.8872 72.1683ZM75.144 25.1286C75.144 25.1286 75.0371 25.4775 74.8231 25.558C74.3913 25.6482 73.9467 25.6589 73.511 25.5896C73.4842 25.5091 74.6885 25.398 75.1431 24.9456C75.251 24.8335 75.144 25.1286 75.144 25.1286ZM74.7697 24.2431C74.8499 24.1089 74.7964 24.4578 74.7964 24.4578C74.7964 24.4578 74.7162 24.8066 74.529 24.914C74.2883 25.0481 73.7001 25.2092 73.6466 25.1286C73.6466 25.075 74.422 24.8335 74.7697 24.2431ZM73.1108 20.2178C73.2046 20.2254 73.2957 20.2528 73.3782 20.2983C73.502 20.4165 73.594 20.5642 73.6456 20.7276C73.6456 20.7276 73.6724 20.7813 73.5387 20.7813C73.4584 20.7813 73.4584 20.6471 73.3782 20.5896C73.2799 20.5201 73.1717 20.4659 73.0573 20.4286C72.9236 20.3749 72.7365 20.4554 72.7097 20.3213C72.7097 20.1622 73.1108 20.2158 73.1108 20.2158V20.2178ZM71.8798 21.1033C71.9405 20.9734 72.0445 20.869 72.174 20.8081C72.3301 20.723 72.5044 20.6769 72.682 20.674C72.8084 20.6842 72.9291 20.7307 73.0296 20.8081C73.1865 20.9776 73.305 21.1789 73.3773 21.3985C73.3773 21.3985 73.4307 21.6937 73.297 21.801C73.1633 21.9084 72.9494 21.7205 72.8425 21.5595C72.7462 21.4236 72.6034 21.328 72.4414 21.2912C72.2274 21.2107 71.9066 21.4522 71.8531 21.2912C71.8579 21.2268 71.8669 21.1627 71.8798 21.0995V21.1033ZM71.7996 24.8085C71.6392 24.8354 71.7461 24.6744 71.7461 24.6744C71.7461 24.6744 72.2007 24.4827 72.4948 24.3255C72.9723 24.084 73.8863 23.1169 73.6408 23.5741C73.5238 23.7551 73.3795 23.9168 73.213 24.0533C73.213 24.0533 72.8386 24.59 72.7584 24.6705C72.4108 24.9389 71.983 24.7779 71.7958 24.8047L71.7996 24.8085ZM68.0274 35.2245L68.0541 35.1709C68.6795 34.8177 69.4048 34.6854 70.114 34.7952C70.8628 34.9025 71.5857 35.5734 71.4787 35.6577C71.3718 35.7421 71.2113 35.6577 71.1579 35.6577L70.8905 35.5236L70.4894 35.4162C70.0762 35.3255 69.6545 35.2806 69.2316 35.282C68.8845 35.305 68.5424 35.3773 68.2155 35.4967C68.2155 35.4967 68.0016 35.6041 67.9481 35.4699C67.938 35.4254 67.9401 35.379 67.9543 35.3356C67.9684 35.2922 67.994 35.2535 68.0283 35.2236L68.0274 35.2245ZM70.0071 50.3386C68.1611 48.9154 65.914 46.0162 66.1814 45.7479C66.422 45.5332 67.3274 46.875 68.6959 48.3519C70.1408 49.9093 71.8254 51.3852 71.8789 51.5731C71.983 51.8951 70.7033 50.8744 70.008 50.3377L70.0071 50.3386ZM74.2081 30.2858C73.695 31.147 73.0757 31.9398 72.365 32.6454C71.9906 32.9138 72.2313 32.4308 72.2313 32.4308C72.7985 31.645 73.3091 30.8196 73.7593 29.9609C74.1069 29.2364 74.3208 28.2694 74.4812 28.0815C74.8556 27.6253 74.6722 29.4779 74.2138 30.2858H74.2081ZM76.3483 44.9974C75.5147 44.0629 74.9667 42.9074 74.7697 41.6689C74.7162 41.3737 74.7162 40.9443 74.9836 40.998C75.2242 41.0248 75.1975 41.4772 75.1975 41.5884C75.3284 42.487 75.6665 43.3426 76.185 44.0869C76.8247 44.9471 77.5314 45.755 78.2984 46.5031C78.1675 46.6325 76.8296 45.5859 76.3483 44.9955V44.9974ZM76.5889 70.0991C76.1343 70.5285 75.3579 71.1189 75.3579 71.1189H75.251V70.9847L75.2777 70.931L75.3312 70.8505L75.3847 70.77L75.4382 70.6895L75.5986 70.4978L75.973 70.149L76.3473 69.8001L76.9356 69.2097C77.0285 69.1047 77.1287 69.0063 77.2355 68.9155C77.3157 68.8618 77.3692 68.8081 77.4494 68.7545C77.5563 68.7008 77.69 68.6203 77.7435 68.674V68.7813C77.4175 69.266 77.0325 69.7081 76.5975 70.0972L76.5889 70.0991ZM78.2478 50.2303C77.9001 50.4719 77.7703 50.445 77.5525 50.6865C77.3119 50.9817 77.2316 51.9756 76.991 51.5721C76.8892 51.3354 76.8654 51.0723 76.9232 50.8211C76.9809 50.5699 77.1171 50.3438 77.3119 50.1757C77.7922 49.6131 78.836 49.801 78.2478 50.2303ZM79.5055 67.8957C79.5813 67.8632 79.665 67.8538 79.7461 67.8689L79.7996 67.9762C79.7996 68.0031 79.5857 68.2983 79.4788 68.2983C79.3451 68.2714 79.3985 68.1066 79.3985 68.1066C79.3911 68.0855 79.388 68.0631 79.3894 68.0407C79.3907 68.0183 79.3966 67.9965 79.4066 67.9765C79.4166 67.9564 79.4305 67.9386 79.4475 67.9241C79.4645 67.9096 79.4842 67.8986 79.5055 67.8919V67.8957ZM84.0799 56.9699C83.8393 56.8089 84.2136 56.3258 84.2136 55.9233C84.2136 55.6013 84.1602 55.3597 84.1602 55.0914C84.1636 55.0127 84.1912 54.937 84.239 54.8746C84.2868 54.8122 84.3527 54.7661 84.4275 54.7425C84.481 54.7425 84.588 54.7962 84.7217 55.0646C84.8554 55.3329 84.5068 57.2373 84.079 56.9689L84.0799 56.9699ZM92.2662 49.2921C92.3355 50.2845 92.0617 51.2706 91.4907 52.0839C90.6885 53.1305 89.2942 54.2049 89.5912 53.3461C89.7822 52.8363 91.0094 52.196 91.4907 50.769C91.6556 50.2269 91.7631 49.6689 91.8116 49.1042L91.7581 47.4663C91.7397 47.36 91.7307 47.2522 91.7314 47.1443C91.8116 46.9296 91.9224 47.0906 91.9224 47.0906L91.9759 47.1711C92.1426 47.8668 92.2411 48.5771 92.27 49.2921H92.2662Z" fill="black"/>
</svg>
