<svg width="147" height="92" viewBox="0 0 147 92" fill="none" xmlns="http://www.w3.org/2000/svg">
<path d="M41 25.001L42.3275 66.0004H48.7809L48.6393 48.9984H54.0507V43.6986H48.6393L48.6595 30.358H55.7244L55.6863 25.001H41Z" fill="black"/>
<path d="M58.2363 25.001L59.0527 66.0004H65.7165L65.8518 25.001H58.2363Z" fill="black"/>
<path d="M89.4766 25.001V30.1723H94.7403L94.5889 66.0004H101.036L102.405 30.1664H107.626L107.586 25.001H89.4766Z" fill="black"/>
<path d="M75.902 43.9757L75.9751 30.0494H79.6955C81.3824 33.1511 82.4662 37.2527 83.316 43.9757H75.902ZM69.9571 65.9986H70.6107H75.4202H76.126L76.1948 49.0449H83.5866C84.1676 52.0374 84.31 61.2743 84.3447 65.9986H84.9559H89.7838H90.3291C90.8936 45.0675 89.1397 33.2364 84.2935 25H69.3926L69.9571 65.9986Z" fill="black"/>
</svg>
