<svg width="147" height="92" viewBox="0 0 147 92" fill="none" xmlns="http://www.w3.org/2000/svg">
<path d="M32 42.67C32 39.8829 33.7138 38 36.9531 38H57.9816V41.953H37.585C37.0138 41.953 36.5063 42.2501 36.5063 43.1221V49.7137C36.5063 50.5147 36.8382 51.0314 37.8818 51.0314H52.2466C53.0029 51.0314 53.587 50.7601 53.587 49.7525V48.2088H45.1775V44.443H57.9816V50.5018C57.9816 53.4019 55.8976 54.9877 52.6231 54.9877H36.9882C33.8255 54.9877 32.0032 53.2534 32.0032 50.3532L32 42.67ZM76.7409 54.9877L83.9249 42.1048V54.9877H88.428V38H81.5026L74.6537 50.2014L67.8049 38H60.8826V54.9877H65.3857V42.1048L72.5697 54.9877H76.7409ZM115 54.9877H96.1705C93.0014 54.9877 91.1854 53.2534 91.1854 50.3532V42.67C91.1854 39.8829 92.8928 38 96.1322 38H115.003V42.2695H96.7673C96.196 42.2695 95.6854 42.5634 95.6854 43.4354V49.3972C95.6854 50.2014 96.0205 50.7149 97.0641 50.7149H115.003L115 54.9877Z" fill="black"/>
</svg>
