<svg width="147" height="92" viewBox="0 0 147 92" fill="none" xmlns="http://www.w3.org/2000/svg">
<path d="M131.18 47.4223L131.915 47.3621C132.216 47.338 132.518 47.3018 132.795 47.2657C133.518 47.1572 134.132 46.9644 134.638 46.6993C134.831 46.6029 134.928 46.5306 135.144 46.374C135.783 45.9161 136.108 45.3016 136.157 44.4582C136.169 44.2895 136.157 44.1569 136.145 44.0123C136.108 43.4822 135.988 43.0363 135.771 42.6869C135.518 42.2652 135.156 41.9398 134.675 41.6989C134.193 41.4579 133.578 41.2771 132.867 41.1687C132.867 41.1687 131.819 41 130.264 41H118.384V51.013H122.119V47.4946H127.192L132.903 51.0251H137L131.18 47.4223ZM129.481 42.1688C129.505 42.1688 129.517 42.1688 129.541 42.1688C129.963 42.1808 130.325 42.1929 130.638 42.229C131.036 42.2772 131.373 42.3616 131.638 42.5062C131.915 42.6508 132.132 42.8676 132.241 43.1327C132.349 43.3617 132.397 43.6509 132.409 44.0003C132.409 44.0244 132.421 44.5064 132.397 44.7473C132.385 44.9883 132.325 45.2534 132.241 45.4342C132.156 45.6269 132.036 45.7836 131.867 45.9161C131.819 45.9523 131.771 45.9884 131.722 46.0125C131.481 46.1451 131.18 46.2294 130.795 46.2776C130.445 46.3138 129.999 46.3379 129.469 46.3379H122.095V42.1688H129.481Z" fill="black"/>
<path d="M23.2662 41.0117V45.723C23.2662 47.1328 22.7481 48.1811 21.7239 48.8317C20.8443 49.3981 19.5671 49.6872 17.9404 49.6872H11V51.0247H16.7596C18.3622 51.0247 19.8322 50.9645 21.1215 50.844C22.3866 50.7235 23.459 50.4825 24.3266 50.121C25.17 49.7716 25.8327 49.2655 26.2906 48.6149C26.7003 48.0244 26.9292 47.2533 26.9774 46.3014C26.9774 46.217 26.9895 46.1086 26.9895 45.9881V41.0117H23.2662Z" fill="black"/>
<path d="M66.0297 46.4339V49.6872H60.3303C57.3421 49.6872 55.607 48.7233 55.137 46.8436C54.9443 46.0604 55.0647 45.3133 55.137 45.0362C55.5949 43.1324 57.3059 42.2046 60.3303 42.2046H69.2468V41.0117H61.4991C59.8724 41.0117 58.4024 41.072 57.1131 41.1804C55.86 41.2889 54.7756 41.5298 53.908 41.8793C53.0525 42.2287 52.4018 42.7227 51.956 43.3734C51.5222 43.9879 51.3053 44.8193 51.2812 45.8435C51.2812 45.8676 51.2812 45.8917 51.2812 45.9279C51.2812 45.976 51.2812 46.0242 51.2812 46.0845C51.2933 47.1448 51.5222 48.0003 51.9681 48.6269C52.4259 49.2776 53.0887 49.7836 53.9321 50.1331C54.7997 50.4946 55.8841 50.7355 57.1372 50.856C58.4265 50.9765 59.8845 51.0368 61.4991 51.0368H69.7529V46.4339H66.0297Z" fill="black"/>
<path d="M41.1353 41.0117H37.2916L28.6763 51.0247H30.9054L32.8453 48.7715H43.6777L45.6176 51.0247H49.7626L41.1353 41.0117ZM38.2555 42.4817L42.7499 47.6991H33.7731L38.2555 42.4817Z" fill="black"/>
<path d="M102.587 41.0117L93.9717 51.0247H96.2008L98.1408 48.7594H108.961L110.901 51.0247H115.058L106.443 41.0117H102.587ZM108.057 47.6991H99.0686L103.563 42.4817L108.057 47.6991Z" fill="black"/>
<path d="M88.5615 41.0117V46.0845C88.5615 46.5183 88.5013 46.9159 88.4169 47.2774C87.935 49.1209 86.2119 50.0608 83.2478 50.0728H82.8743C79.8981 50.0728 78.163 49.1089 77.693 47.2412C77.6087 46.8918 77.5605 46.5062 77.5605 46.0965V41.0117H73.8252V46.2411C73.8252 47.3256 74.0541 48.2172 74.512 48.8679C74.8012 49.2655 75.1627 49.627 75.5964 49.9162C75.8615 50.0849 76.1507 50.2415 76.4761 50.3741C76.8014 50.5066 77.1508 50.6271 77.5364 50.7235C78.175 50.8922 78.898 51.0127 79.6932 51.097C80.6933 51.1934 81.826 51.2537 83.055 51.2537C84.2961 51.2537 85.4167 51.1934 86.4168 51.097C87.2 51.0247 87.9229 50.9042 88.5615 50.7355C88.9471 50.6391 89.2966 50.5187 89.6219 50.3861C89.9472 50.2536 90.2364 50.109 90.5015 49.9282C90.9473 49.639 91.3088 49.2896 91.5859 48.8799C92.0438 48.2293 92.2727 47.3376 92.2727 46.2532V41.0117H88.5615Z" fill="black"/>
</svg>
