<svg width="147" height="92" viewBox="0 0 147 92" fill="none" xmlns="http://www.w3.org/2000/svg">
<path d="M71.9366 39.3181C72.3291 41.8813 72.7573 42.131 73.2033 42.8149C73.3222 43.035 73.3698 43.2372 73.1855 43.3859C73.0784 43.4691 72.7335 43.594 72.1447 43.2372C71.4371 42.809 71.33 42.3511 70.1525 43.2907C70.1525 43.2907 69.9979 43.4156 69.8433 43.4453C69.7184 43.4751 69.5756 43.4215 69.5994 43.2372C69.6589 42.7852 69.98 42.5354 70.2179 41.7326C70.4261 41.0963 70.658 40.1566 70.8602 39.1992C70.9553 38.765 71.0862 38.5747 71.4014 38.5331C71.6095 38.5153 71.8296 38.6937 71.9425 39.3181H71.9366ZM78.8708 54.7505C78.9719 54.5781 78.9065 54.3283 78.6567 54.2331C78.5734 54.1975 78.4248 54.1618 78.2999 54.1201C78.2345 54.0964 78.1571 54.0488 78.1096 53.9893C78.0739 53.9358 77.9074 53.692 77.8598 53.6266C77.836 53.5968 77.8122 53.5968 77.7706 53.6147C77.6695 53.6444 77.5803 53.7514 77.5505 53.9061C77.497 54.1499 77.5387 54.5245 77.8003 54.7862C77.9312 54.917 78.1393 54.9944 78.4307 54.9884C78.6686 54.9825 78.7875 54.8873 78.8648 54.7624V54.7505H78.8708ZM91.1097 47.2098C91.0918 47.2454 90.9669 47.4833 90.5685 47.7688C89.6348 48.3337 88.7071 48.3992 87.7258 47.965C87.2322 47.745 86.8754 47.4536 86.5662 47.1919C86.2153 46.9005 85.9417 46.6745 85.5968 46.6507C85.579 46.6507 85.5671 46.6507 85.5552 46.6567C85.5433 46.6686 85.5373 46.6864 85.5373 46.7102C85.5373 46.8173 85.6147 47.1919 85.8644 47.4476C86.0191 47.6082 86.2094 47.7569 86.4056 47.9234C86.6316 48.1078 86.8695 48.2981 87.0598 48.5062C87.2739 48.7322 87.3988 49.089 87.369 49.3982C87.3393 49.7134 87.2798 50.0227 87.2025 50.4509C87.1609 50.6887 86.7149 52.9962 86.7981 53.7277C86.8219 53.9298 86.8754 54.0785 86.923 54.2213C87.0122 54.471 87.0955 54.703 86.9825 55.1668C86.9825 55.256 86.9884 55.2977 87.036 55.3928C87.3452 55.9042 87.4225 56.487 87.2322 56.8795C87.1252 57.0699 86.8278 57.4386 86.6137 57.3791C86.5721 57.3672 86.5424 57.3315 86.5186 57.2721C86.4889 57.2066 86.3818 56.7963 86.3342 56.6952C86.3223 56.6595 86.2807 56.6238 86.2391 56.6298C86.1915 56.6298 86.1737 56.6774 86.1618 56.719C86.138 56.8201 86.1261 57.2423 86.1083 57.3613C86.1083 57.3791 86.0964 57.3969 86.0785 57.4088C86.0607 57.4207 86.0428 57.4267 86.019 57.4267C86.0072 57.4267 85.9893 57.4267 85.9774 57.4207C85.7217 57.3434 85.5255 57.2602 85.3768 57.171C84.8416 56.8498 84.9962 56.5227 85.1924 56.1064C85.3292 55.815 85.4838 55.488 85.4719 55.0657C85.234 54.5781 85.3649 54.2212 85.466 53.9358C85.5136 53.8109 85.5492 53.6979 85.5492 53.6028C85.5492 52.5501 84.788 51.3132 84.4669 50.8315C84.3182 50.6352 84.0744 50.6055 83.8603 50.6947C82.4092 51.4024 81.6004 52.7464 81.7075 54.2986C81.7432 54.6078 81.7015 54.7327 81.5588 54.9289C81.3388 55.2441 81.0057 55.5296 80.8333 55.6902C80.5181 55.9816 80.2802 55.9518 79.852 55.9161C79.3465 55.8686 78.8292 55.8031 78.0739 55.8983C77.4911 55.9697 77.0213 55.8864 76.7061 55.2798C76.5217 54.917 76.4087 54.6494 76.2482 54.2867C76.1709 54.1142 76.04 53.7752 75.9508 53.573C75.9032 53.466 75.7724 53.2995 75.5464 53.5433C74.803 54.3461 74.8863 55.6366 74.9279 56.0113C74.9517 56.2194 74.9101 56.2967 74.8744 56.3503C74.8744 56.3503 74.3808 57.3434 72.9892 57.4624C72.8168 57.4624 72.6443 57.4624 72.5848 57.2958C72.5491 57.1947 72.8524 56.7368 72.9119 56.6476C72.9595 56.5822 72.9416 56.5227 72.9119 56.487C72.8822 56.4573 72.8168 56.4454 72.7454 56.5108C72.6919 56.5584 72.2518 56.9985 72.2042 57.0401C72.1566 57.0758 72.1031 57.0936 72.0555 57.0817C72.002 57.0758 71.9604 57.0401 71.9247 56.9925C71.8652 56.9093 71.8533 56.7547 71.8593 56.6417C71.8831 56.273 72.0318 55.3809 72.8465 54.9052C72.9833 54.8278 73.2093 54.7386 73.3044 54.5067C73.5066 54.0309 73.9407 53.3292 73.9883 53.2459C74.0597 53.1151 74.0299 53.014 73.905 52.9426C73.6018 52.7642 72.7811 52.8356 72.5372 53.2222C72.4124 53.4184 72.3767 53.6087 72.2102 53.9536C72.0436 54.2688 71.782 54.7862 71.1992 55.3274C70.7531 55.7199 70.5628 56.0767 70.4261 56.493C70.3904 56.6 70.3547 56.7071 70.325 56.8141C70.1882 57.2542 70.0574 57.6705 69.7481 57.9381C69.653 58.0333 69.6113 58.176 69.6113 58.2652C69.6113 58.622 69.5043 58.9015 69.2842 59.1097C68.8442 59.526 68.0532 59.7282 67.5239 59.5557C67.5061 59.5557 67.4466 59.526 67.4228 59.4724C67.405 59.4368 67.4109 59.3951 67.4288 59.3535C67.512 59.1572 67.6191 58.9907 67.7023 58.8539C67.7678 58.7469 67.8213 58.6636 67.8391 58.6042C67.851 58.5744 67.8391 58.5388 67.8034 58.515C67.7678 58.4912 67.7142 58.4793 67.6548 58.5209C67.4764 58.6517 67.3336 58.8123 67.2206 58.9491C67.1493 59.0324 67.0898 59.0978 67.0422 59.1335C66.9947 59.1691 66.9471 59.181 66.8995 59.1751C66.84 59.1691 66.7806 59.1275 66.733 59.0561C66.6497 58.9432 66.62 58.8302 66.6081 58.7469C66.5665 58.5269 66.5486 57.7597 66.9887 57.1353C67.1493 56.9093 67.4407 56.719 67.7559 56.6417C68.0413 56.5584 68.1305 56.3978 68.2019 56.267C68.2316 56.2135 68.2554 56.1659 68.2911 56.1302C68.3625 56.0648 68.5766 55.9102 68.6003 55.8983C69.4329 55.4047 69.7778 54.2926 69.8968 53.9239C69.986 53.692 69.9384 53.4481 69.76 53.2162C69.4924 52.901 69.5519 52.4253 69.6113 51.9198C69.6649 51.4737 69.7243 51.0099 69.534 50.665C69.4924 50.5876 69.4389 50.5401 69.3735 50.5341C69.2307 50.5103 69.0166 50.6352 68.7966 50.8612C67.9283 51.783 67.4883 52.8832 67.066 53.9477C66.6557 54.9825 66.2334 56.047 65.4128 56.9628C65.1154 57.3315 65.1154 57.8073 65.1095 58.2592C65.1095 58.7528 65.1095 59.2702 64.7229 59.6568C64.6218 59.7579 64.5861 59.7936 64.5861 59.9363C64.5742 60.2753 64.4791 60.7272 64.3304 61.1197C64.3185 61.1435 64.3126 61.1614 64.3066 61.1733C64.2828 61.2327 64.265 61.2684 64.1877 61.3517C63.9914 61.5241 63.6049 61.7144 62.8734 61.7144H62.7009C62.5701 61.7085 62.4928 61.6788 62.4571 61.6252C62.4214 61.5717 62.4452 61.5122 62.4631 61.4587C62.5998 61.096 62.8377 60.6678 62.8556 60.638C62.8853 60.5786 62.8734 60.525 62.8318 60.4953C62.7961 60.4656 62.7307 60.4596 62.6772 60.5072C62.5225 60.644 62.13 61.1019 62.13 61.1019C62.0706 61.1733 62.0051 61.209 61.9397 61.1971C61.8446 61.1852 61.7851 61.09 61.7673 61.0484C61.6305 60.7808 61.5829 60.2396 61.7375 59.9304C61.9159 59.5676 62.0825 59.4427 62.2192 59.3416C62.2906 59.294 62.3441 59.2524 62.3798 59.1989C62.4036 59.1632 62.4155 59.1097 62.4333 59.0502C62.5701 58.5685 62.9388 58.1998 63.2956 57.8489C63.7 57.4505 64.0806 57.0699 64.0925 56.5584C64.0925 55.9518 64.2115 55.2858 64.378 54.8219C64.5088 54.4591 64.8419 54.0904 64.9786 53.7158C65.1511 53.2281 65.1451 52.6631 65.1214 52.0982C65.1095 51.7592 65.0916 51.4024 65.1214 51.0277C65.157 50.4152 65.383 49.8502 65.6209 49.2436C65.9242 48.4765 66.2334 47.6855 66.1502 46.7756C66.0372 45.5565 66.3226 44.8369 66.84 43.9924C66.9828 43.7665 67.6429 42.9636 67.7261 42.8387C68.4873 41.691 68.7193 40.561 68.9215 39.5679C69.2069 38.1644 69.4508 36.9453 70.997 36.0413C71.4787 35.7559 71.9663 35.4823 72.4421 35.2206C72.9119 34.9649 73.352 34.7211 73.685 34.513C74.244 34.1621 74.6603 33.8766 75.035 33.6269C75.2907 33.4544 75.5107 33.2998 75.7308 33.163C76.6347 32.5921 77.051 32.378 78.395 32.7051C78.847 32.8181 79.3822 32.9965 80.0542 33.2225C80.8154 33.4782 82.3795 33.9956 83.2537 34.2275C83.5273 34.2989 83.6759 34.2453 83.8127 34.061C83.9019 33.9302 83.9733 33.728 84.009 33.5971C84.1339 33.1333 84.1041 32.3899 83.6105 31.8368C83.1823 31.3551 82.1773 31.0697 80.9879 31.0875C80.7976 31.0875 80.6073 31.0934 80.411 31.0994C78.5377 31.1351 76.4147 31.1707 74.1429 30.9091C71.9961 30.6593 71.6155 29.9814 71.6749 29.458C71.7166 29.0655 71.9663 28.6968 72.4064 28.3578C72.8049 28.0486 73.2509 27.8523 73.4293 27.7869C74.3035 27.442 75.8259 27.109 78.0917 27.5134C79.5012 27.7631 80.7381 28.2389 81.1187 28.5481C81.1306 28.56 81.1425 28.5838 81.1366 28.6017C81.1366 28.6076 81.1247 28.6314 81.0949 28.6373H80.8392C80.7322 28.6373 80.5835 28.6254 80.3992 28.6135C79.852 28.5779 79.0254 28.5184 77.949 28.566C77.729 28.5779 77.5387 28.6492 77.5268 28.7265C77.5268 28.7622 77.5565 28.8514 77.9193 28.9406C78.2523 29.0179 78.7697 29.1131 79.3525 29.1131C79.4357 29.1131 79.4595 29.1131 79.4833 29.1369C79.5131 29.1785 79.5071 29.2261 79.4833 29.2499C79.4298 29.2974 79.3168 29.3688 79.1503 29.4342C78.7637 29.5889 78.3534 29.6781 77.9371 29.6959C77.497 29.7137 77.0332 29.6543 76.5693 29.5175C76.0222 29.3569 75.5464 29.119 75.1301 28.905C74.6663 28.6671 74.2619 28.4589 73.8991 28.447C73.6969 28.4173 73.4055 28.5184 73.1617 28.7028C72.8822 28.9228 72.6978 29.2142 72.6681 29.5115C72.6502 29.6602 72.6859 29.7792 72.7751 29.8862C73.0487 30.2192 73.8456 30.4333 75.2074 30.5463C76.6109 30.6653 78.4842 30.5582 80.1315 30.4631L80.5003 30.4393C82.2487 30.3382 83.5629 30.6117 84.3063 31.2183C85.1032 31.8725 85.3887 32.6575 85.24 33.7517C85.1924 34.0907 85.1151 34.394 84.9605 34.7806C84.9605 34.7806 84.9129 34.9114 84.8832 34.9768C84.8475 35.0541 84.8297 35.1552 84.8772 35.2385C84.9486 35.3574 85.3887 36.19 85.4362 36.2911C86.0785 37.4567 87.0836 39.4727 87.3631 40.6978C87.488 41.2806 87.3988 41.578 87.2441 41.9645C87.1549 42.1905 87.0955 42.363 87.149 42.6663C87.1787 42.9041 87.2739 43.142 87.3571 43.3561C87.4999 43.7189 87.6307 43.9865 87.5355 44.605C87.5296 44.6763 87.5117 44.7299 87.4701 44.7477C87.4225 44.7656 87.369 44.7299 87.2858 44.6823C86.9111 44.4563 86.3699 44.4087 85.8406 44.4563C85.5195 44.486 85.5136 44.4266 85.2995 44.3612C84.0387 43.9746 82.772 43.7308 81.3626 43.9568C81.0712 44.0043 81.0414 43.7843 80.9403 43.5405C80.6668 42.809 80.53 42.6306 80.2981 42.2797C80.0899 41.9586 79.9234 41.9288 79.7985 41.905C79.5487 41.8575 79.2454 41.8337 79.1265 41.465C79.0968 41.3817 79.1384 41.3282 79.2217 41.239C79.4357 41.0071 79.9115 40.7275 78.9481 40.1923C78.6032 40.002 78.7994 39.8058 78.8886 39.7641C79.1206 39.6452 79.6855 39.55 80.2326 40.1983C80.5062 40.5194 81.4042 41.9229 81.9632 43.0588C82.0227 43.1777 82.0881 43.1777 82.2189 43.1837C82.3914 43.1955 82.5163 43.1837 82.5698 43.1955C82.6531 43.2015 82.6531 43.1361 82.6352 43.0707C81.5291 39.3835 80.8809 37.2367 79.3941 35.0244C79.3465 34.953 79.3941 34.8817 79.4952 34.8936C80.869 35.0244 81.3566 37.1058 82.213 38.4915C82.9801 39.7344 83.8306 39.7879 83.9376 38.1763C83.9733 37.6173 83.9257 36.3387 82.8612 35.4942C81.4101 34.3345 79.0313 33.6269 78.4129 33.4484C77.7527 33.2581 77.1105 32.9608 76.1173 33.7042C74.6425 34.8044 72.0436 36.1365 71.5084 36.4992C70.6283 37.088 70.1763 37.314 69.8314 38.6937C69.201 41.3758 69.1415 42.2143 67.631 44.0698C66.4832 45.4792 66.8817 46.2999 66.8162 47.3941C66.7627 48.2267 66.7925 48.3754 66.4713 49.541C66.281 50.2189 66.8579 50.0703 66.959 49.7551C67.1552 49.309 67.6488 47.7807 68.8739 47.6082C69.4389 47.5309 70.1347 47.3584 70.0574 46.9957C69.9681 46.621 69.9384 46.4129 69.9265 46.2404C69.9206 46.1452 69.9444 45.9787 70.212 46.056C70.3547 46.0858 70.545 46.1631 70.7888 46.2285C72.5967 46.6507 73.5185 46.3177 74.5949 45.836C74.6246 45.8241 75.0231 45.6398 75.0528 45.6279C75.2491 45.5208 75.4929 45.7171 75.3799 45.943C75.3204 46.0679 75.2431 46.1215 75.0766 46.282C74.9874 46.3653 74.8982 46.4307 74.7376 46.6091C73.8218 47.6142 74.5176 48.8868 74.7317 49.3626C75.7367 51.5986 76.5336 53.5492 77.0272 54.5602C77.277 55.0717 77.39 55.4285 78.0323 55.4047C78.3415 55.3928 78.4783 55.3988 78.6864 55.3869C79.0195 55.369 79.2692 55.2441 79.3882 55.036C79.5725 54.703 79.5725 54.1439 79.1562 53.9715C79.067 53.9358 79.067 53.8704 79.0968 53.805C79.2752 53.3649 79.3763 53.0973 79.6201 52.3777C79.745 51.8365 79.7509 51.5094 79.519 51.111C79.4714 51.0277 79.4238 50.9504 79.3644 50.879L79.073 50.4925C78.9897 50.3973 78.9778 50.326 79.0968 50.2843L79.5071 50.1773C79.6082 50.1416 79.5963 49.987 79.5071 49.9632L79.293 49.8978C79.0908 49.8145 78.9719 49.654 78.8827 49.535C78.8708 49.5172 78.841 49.4756 78.8173 49.428C78.7697 49.3447 78.7399 49.2615 78.7221 49.1663L78.6983 49.0474C78.6983 48.9879 78.5972 48.9879 78.5556 49.0295C78.2345 49.3566 78.1334 49.8502 78.3712 50.2487L78.9897 51.1704C79.0908 51.3132 79.1206 51.4202 79.1384 51.6105C79.1503 51.7235 79.1384 51.8425 79.1206 51.9554L79.1027 52.0684C79.0908 52.1398 79.073 52.2171 79.0492 52.2825C78.9243 52.6453 78.6745 53.353 78.6686 53.3649C78.6091 53.5076 78.4664 53.5017 78.3653 53.4184C78.2226 53.3054 78.0917 53.0616 78.0263 52.8178C78.0263 52.8178 77.7646 52.235 77.7706 51.2299C77.7646 51.0693 77.6338 50.9088 77.4078 51.0753L76.7715 51.5154C76.6644 51.5867 76.4385 51.5808 76.5336 51.2359C76.5336 51.2359 76.9737 49.202 77.5149 47.9412C77.8717 47.0313 77.5624 46.4723 77.1164 45.9133H77.1224C77.0629 45.836 76.9975 45.7587 76.9321 45.6814C76.0519 44.5574 75.8497 43.0409 77.9074 43.8676C78.4426 44.1411 78.8292 43.7308 79.4238 43.7308C80.0959 43.7308 80.078 44.159 80.078 44.159C80.078 44.2125 80.0721 44.2065 80.0245 44.2065C78.8886 44.2898 77.5268 45.2175 78.5853 46.7281C79.6201 48.2029 82.4984 48.6965 83.777 47.293C83.7949 47.2752 83.8008 47.2335 83.777 47.2098C83.7651 47.1979 83.7414 47.186 83.7116 47.1979C83.4321 47.3049 83.1764 47.3822 82.9147 47.4239C82.3022 47.525 81.0057 47.4536 80.3932 46.7518C80.0423 46.3534 80.0542 45.8895 80.643 45.8182C80.976 45.7944 81.1366 45.8538 81.2793 45.8538C81.648 45.8538 81.7253 45.4792 81.648 45.3127C81.5826 45.1521 81.4399 44.9559 81.2317 44.7893C81.1128 44.7061 81.1068 44.6169 81.1544 44.5634C81.1901 44.5336 81.2496 44.5158 81.3209 44.5039C83.4321 44.2065 85.1151 44.8369 85.5255 45.0986C87.0776 45.0153 87.6069 45.7944 87.9459 46.2166C88.1005 46.4069 88.487 46.9481 88.9093 47.1979C89.4921 47.5428 90.0214 47.5844 90.6042 47.3227C90.6815 47.293 90.9729 47.1562 91.0145 47.1265C91.1275 47.0611 91.1632 47.186 91.1394 47.2276L91.1097 47.2098ZM85.0854 50.0524C85.0021 50.1714 85.014 50.2962 85.1092 50.4865L85.1627 50.5817C85.353 50.9088 85.6147 51.3548 85.8525 51.6938C85.9358 51.8068 86.0191 51.8544 86.0904 51.8365C86.1796 51.8127 86.2094 51.7533 86.245 51.5035C86.3164 50.992 86.2867 50.0167 86.1202 49.4399C86.0369 49.1544 85.9061 48.9463 85.7931 48.9403C85.7098 48.9403 85.6444 49.0474 85.6087 49.1187C85.5136 49.3209 85.1805 49.8978 85.0794 50.0584L85.0854 50.0524ZM74.2321 17.0229C78.8232 17.0229 83.224 17.3975 87.3274 18.129C91.1037 18.807 94.4578 19.7525 97.2945 20.9538C98.139 21.3463 98.6564 21.7686 98.9656 22.3157C99.2927 22.8926 99.4414 23.7192 99.4414 24.9026C99.4414 30.6236 98.8883 36.0056 97.7881 40.9C96.7415 45.5624 95.1715 49.9513 93.1138 53.9358C89.3137 61.2982 83.7949 67.5782 76.2363 73.1505C75.3323 73.7749 74.8268 73.9831 74.2321 73.9831C73.6374 73.9831 73.126 73.7749 72.228 73.1505C64.6694 67.5841 59.1506 61.2982 55.3505 53.9358C53.2928 49.9513 51.7228 45.5624 50.6761 40.9C49.5819 36.0056 49.0229 30.6236 49.0229 24.9026C49.0229 23.7132 49.1775 22.8926 49.4986 22.3157C49.8079 21.7686 50.3253 21.3463 51.1697 20.9538C54.0065 19.7585 57.3605 18.807 61.1369 18.129C65.2344 17.3975 69.6411 17.0229 74.2321 17.0229ZM74.2321 16C64.5445 16 56.3496 17.6533 50.7594 20.0202C48.7136 20.9657 48 22.2265 48 24.9026C48 48.6906 57.2951 63.4212 71.6333 73.9771C72.6562 74.6848 73.3639 75 74.2321 75C75.1004 75 75.8081 74.6848 76.831 73.9771C91.1691 63.4212 100.464 48.6906 100.464 24.9026C100.464 22.2265 99.7566 20.9657 97.7049 20.0202C92.1147 17.6592 83.9198 16 74.2321 16ZM52.4186 22.2265V27.8583C52.8527 27.7156 53.5129 27.5134 54.054 27.3587L54.0124 28.2448C53.4296 28.4173 52.3889 28.7325 51.4909 29.0239V22.5179L52.4246 22.2265H52.4186ZM55.8916 25.3427L56.5755 22.2384L57.2773 24.9978L55.8916 25.3427ZM57.4735 25.7887L57.8541 27.2695L58.8176 27.0554L57.194 20.9836L56.0225 21.275L54.4108 28.1497L55.3445 27.888L55.7013 26.2288L57.4795 25.7828H57.4735V25.7887ZM60.1913 26.7819V22.3454C60.1913 22.173 60.1913 21.9529 60.1794 21.7626C60.221 21.9767 60.2686 22.1551 60.3103 22.3038L61.6067 26.6332H61.6543L62.9864 21.8459C63.0399 21.6496 63.0934 21.4236 63.1351 21.2393C63.1232 21.4355 63.1113 21.6615 63.1113 21.8459V26.2645L63.9795 26.1337V19.705L62.802 19.8774L61.8148 23.4813C61.7732 23.6419 61.7197 23.8619 61.6662 24.0879C61.6364 23.8738 61.5889 23.6776 61.5472 23.5348L60.5719 20.2521L59.3468 20.49V26.9424L60.1913 26.7819ZM67.3039 25.7412C68.3446 25.6222 68.9274 25.1702 68.9274 24.183V23.3386C68.9274 22.7677 68.6895 22.4287 68.1781 22.3335C68.6241 22.1492 68.8144 21.8161 68.8144 21.3285V20.6684C68.8144 19.6931 68.2197 19.1876 67.0066 19.3244L65.157 19.5385V25.979L67.298 25.7412H67.3039ZM66.1264 20.2878L67.0363 20.1926C67.6548 20.1272 67.851 20.3354 67.851 20.7754V21.3582C67.851 21.8102 67.6548 22.0481 67.0363 22.1076L66.1264 22.1968V20.2937V20.2878ZM66.1264 22.952L67.1552 22.8569C67.7618 22.8033 67.9581 22.9877 67.9581 23.4635V24.189C67.9581 24.635 67.744 24.861 67.179 24.9145L66.1264 25.0097V22.952ZM71.7463 25.5806C72.9595 25.5806 73.7921 24.8015 73.7921 23.4694V20.9479C73.7921 19.6039 72.9773 18.9021 71.8355 18.9021C70.6937 18.9021 69.8135 19.7347 69.8135 21.0787V23.6002C69.8135 24.8967 70.5926 25.5806 71.7522 25.5806H71.7463ZM70.771 23.5765V20.9538C70.771 20.2045 71.223 19.7763 71.8117 19.7763C72.4005 19.7763 72.8286 20.145 72.8286 20.8884V23.511C72.8286 24.2901 72.4064 24.7004 71.776 24.7004C71.1932 24.7004 70.771 24.3555 70.771 23.5765ZM75.7724 25.426V22.5476L76.4206 22.5714L77.5268 25.4914L78.5675 25.5449L77.3781 22.4584C77.9966 22.3157 78.3712 21.8935 78.3712 21.1263V20.5554C78.3712 19.5682 77.8301 19.0746 76.7239 19.0211C76.2601 18.9973 75.4156 18.9913 74.809 18.9913V25.42L75.7724 25.4319V25.426ZM75.7724 19.8417L76.6823 19.8715C77.1818 19.8953 77.3959 20.1213 77.3959 20.5554V21.1263C77.3959 21.5604 77.1818 21.7745 76.6466 21.7567L75.7724 21.7269V19.8417ZM81.3923 25.8601C82.5817 25.8601 83.2121 25.1346 83.2121 23.9868V22.2681L81.3269 22.054V22.8866L82.2487 22.9818V23.969C82.2487 24.6826 81.8681 24.9859 81.315 24.9859C80.6311 24.9859 80.1375 24.5399 80.1375 23.7311V21.1679C80.1375 20.4662 80.5359 20.0737 81.089 20.0737C81.8264 20.0737 82.2368 20.6386 82.2487 21.3166L83.2121 21.4355C83.1823 20.145 82.3676 19.1816 81.0057 19.1816C80.0007 19.1816 79.186 19.8417 79.186 21.1382V23.6359C79.186 25.1286 80.2148 25.8541 81.3923 25.8541V25.8601ZM85.1686 26.2288V23.3505L86.9468 23.6419V26.5202L87.8983 26.6927V20.2521L86.9468 20.0915V22.8331L85.1686 22.5417V19.8001L84.2171 19.6514V26.1039L85.1686 26.2348V26.2288ZM89.0877 20.49L89.5635 20.5851L90.0392 20.6803V27.1327L89.0877 26.9187V20.49ZM92.0077 27.5907V23.4635C92.0077 23.2137 91.9958 22.952 91.9958 22.6606C92.0612 22.9758 92.1266 23.178 92.2039 23.398L93.881 28.0843L94.8741 28.3638V21.9351L94.0832 21.7091V26.3537C94.0177 26.0623 93.9642 25.866 93.8869 25.6401L92.3407 21.2333L91.2048 20.9598V27.3885L92.0077 27.5847V27.5907ZM96.0338 28.7265V22.2741L96.5036 22.4227L96.9734 22.5714V29.0239L96.0338 28.7325V28.7265Z" fill="black"/>
</svg>
