<svg width="147" height="92" viewBox="0 0 147 92" fill="none" xmlns="http://www.w3.org/2000/svg">
<path fill-rule="evenodd" clip-rule="evenodd" d="M105.59 24.2895C108.489 52.4286 95.8215 70.0649 73.9526 79.0601C50.6337 69.023 40.1408 50.5026 42.269 24.1403C63.3759 9.23855 84.4738 9.28516 105.59 24.2895Z" fill="black"/>
<path fill-rule="evenodd" clip-rule="evenodd" d="M73.9375 14.0986C89.5565 14.0986 102.293 26.8448 102.293 42.4637C102.293 58.0829 89.5565 70.8197 73.9375 70.8197C58.3185 70.8197 45.5723 58.0829 45.5723 42.4637C45.5723 26.8448 58.3185 14.0986 73.9375 14.0986Z" fill="white"/>
<path fill-rule="evenodd" clip-rule="evenodd" d="M73.9375 14.0986C89.5565 14.0986 102.293 26.8448 102.293 42.4637C102.293 58.0829 89.5565 70.8197 73.9375 70.8197C58.3185 70.8197 45.5723 58.0829 45.5723 42.4637C45.5723 26.8448 58.3185 14.0986 73.9375 14.0986Z" fill="white"/>
<path fill-rule="evenodd" clip-rule="evenodd" d="M74.0065 15.7471C88.7471 15.7471 100.783 27.7757 100.783 42.5284C100.783 57.2716 88.7467 69.3093 74.0065 69.3093C59.2569 69.3093 47.2207 57.2716 47.2207 42.5284C47.2207 27.7761 59.2565 15.7471 74.0065 15.7471Z" fill="black"/>
<path fill-rule="evenodd" clip-rule="evenodd" d="M73.9373 16.2959C88.3412 16.2959 100.096 28.0499 100.096 42.4635C100.096 56.8677 88.3416 68.6221 73.9373 68.6221C59.5236 68.6221 47.7695 56.8681 47.7695 42.4635C47.7695 28.0499 59.5236 16.2959 73.9373 16.2959Z" fill="white"/>
<path fill-rule="evenodd" clip-rule="evenodd" d="M76.0208 21.8269C86.0956 22.8224 94.0971 31.0472 94.7381 41.2257L90.5002 40.8535V44.9845L94.6735 44.6496C93.6971 54.3353 86.04 62.0848 76.4118 63.2108L76.9319 52.9491H71.4303L72.1085 63.2664C67.3506 62.839 63.0567 60.7919 59.7577 57.6843V60.866H57.7782V55.5447C55.2318 52.3623 53.5869 48.4264 53.2617 44.1285L57.7782 44.7052V40.6675L53.2801 40.7697C53.5866 37.1876 54.804 33.8567 56.6997 31.0099H55.6963L58.6889 24.6089L59.9991 27.1771C63.3357 24.1251 67.657 22.1528 72.4154 21.79L71.7184 32.8059H76.9503L76.0208 21.8269Z" fill="black"/>
<path fill-rule="evenodd" clip-rule="evenodd" d="M77.5757 32.8027H90.4998V40.2239L94.0522 40.5313C93.1223 31.2477 85.8788 23.7893 76.7112 22.5326L77.5757 32.8027ZM61.9547 31.0058H59.7417V32.8027H71.0761L71.7362 22.4766C67.3381 22.9702 63.3678 24.8883 60.2805 27.7467L61.9547 31.0058ZM90.4998 45.6246V52.9622H77.5573L77.0644 62.5058C85.8138 61.1558 92.7316 54.1444 93.9594 45.345L90.4998 45.6246ZM57.7613 45.345V54.5259C55.6649 51.6955 54.35 48.3619 53.9492 44.8608L57.7613 45.345ZM59.7421 56.8259V52.9619H70.7883L71.4206 62.5796C66.8921 62.0031 62.8196 59.9078 59.7421 56.8259Z" fill="white"/>
<path fill-rule="evenodd" clip-rule="evenodd" d="M89.7943 46.4036C89.4315 46.4227 89.3104 46.0231 88.9667 44.7514L87.2724 38.5215H87.0682L85.3836 45.0114C85.1509 45.9023 85.0486 46.3113 84.6395 46.4036V46.7011H86.1744V46.4036C85.9232 46.3758 85.551 46.348 85.551 45.8933C85.551 45.7076 85.672 45.2158 85.886 44.3616H87.5988C87.7007 44.7424 87.9432 45.6244 87.9432 45.9402C87.9432 46.33 87.8123 46.3484 87.3382 46.4039V46.7014H89.7947V46.4036H89.7943ZM84.4248 46.4036C84.0063 46.3574 83.7081 46.3199 83.7081 45.5591V39.8308C83.7081 39.0231 84.0717 39.0138 84.4248 38.986V38.6889H81.7727V38.986C82.1172 39.0231 82.48 39.0509 82.48 39.8308V45.5591C82.48 46.2925 82.1818 46.348 81.7727 46.4036V46.7011H84.4248V46.4036ZM81.1215 44.8999C80.498 45.9954 79.9302 46.3574 79.3346 46.3574C79.1026 46.3574 78.4972 46.1807 78.181 45.3269C77.902 44.5657 77.855 43.4331 77.855 42.7274C77.855 40.7222 78.1532 38.9023 79.2605 38.9023C80.1258 38.9023 80.7586 40.2949 81.0282 41.3255H81.2147V38.5493H81.0098C80.9357 38.8464 80.8703 39.097 80.6654 39.097C80.4698 39.097 79.884 38.5122 79.1951 38.5122C77.6038 38.5122 76.5152 40.3598 76.5152 42.7736C76.5152 44.9832 77.4737 46.9235 79.2327 46.9235C80.2096 46.9235 80.7962 46.1807 81.3546 45.1967L81.1215 44.8999ZM70.7926 46.7011H72.514V46.4036C71.9556 46.3113 71.7973 46.079 71.7973 45.2248V40.49H71.8161L75.1751 46.9145H75.3894V39.9329C75.3894 39.3664 75.4357 39.097 75.985 38.986V38.6889H74.3561V38.986C74.9709 39.0603 75.0544 39.4501 75.0544 40.1651V43.758H75.045L72.4208 38.6889H70.8204V38.986C70.9137 38.986 71.0344 39.0231 71.4627 39.8402V45.457C71.4627 46.2366 71.2487 46.3203 70.7926 46.4036V46.7011ZM70.4203 46.4036C70.0575 46.4227 69.9364 46.0231 69.6014 44.7514L67.9078 38.5215H67.6938L66.0096 45.0114C65.7863 45.9023 65.6746 46.3113 65.2655 46.4036V46.7011H66.8102V46.4036C66.5496 46.3758 66.1867 46.348 66.1867 45.8933C66.1867 45.7076 66.3078 45.2158 66.5218 44.3616H68.2248C68.327 44.7424 68.5782 45.6244 68.5782 45.9402C68.5782 46.33 68.4387 46.3484 67.9642 46.4039V46.7014H70.4211V46.4036H70.4203ZM64.9763 44.0179H64.7624C64.4089 45.3456 63.9806 46.3296 62.836 46.3296C62.3337 46.3296 62.1664 46.2366 62.1664 45.6705V40.0814C62.1664 39.0321 62.3991 39.0231 62.9293 38.986V38.6889H60.2866V38.986C60.6217 39.0231 60.9379 39.0509 60.9379 39.8308V45.5591C60.9379 46.2835 60.7051 46.3203 60.2866 46.4036V46.7011H64.6695L64.9763 44.0179ZM57.7553 30.9922H57.439C55.5463 33.6939 54.3479 36.8183 53.9492 40.0904L57.7553 39.9978V30.9922Z" fill="white"/>
<path fill-rule="evenodd" clip-rule="evenodd" d="M85.9867 43.9017L86.6951 41.0176L87.4595 43.9017H85.9867ZM66.584 43.9017L67.3017 41.0176L68.0658 43.9017H66.584Z" fill="black"/>
</svg>
