<svg width="147" height="92" viewBox="0 0 147 92" fill="none" xmlns="http://www.w3.org/2000/svg">
<path d="M81.8825 44.71C81.8037 34.0357 80.8387 22.0221 79.2238 18.2604L74.0638 17L68.9039 18.2604C67.289 22.0221 66.3239 34.016 66.2452 44.6903L64 44.8676V47.1324L66.2452 47.3097C66.3239 57.984 67.289 69.9976 68.9039 73.7396L74.0638 75L79.2238 73.7396C80.8387 69.9779 81.8037 57.984 81.8825 47.29L84.0686 47.1127V44.8479L81.8825 44.71ZM70.4991 70.7263C69.0418 64.4635 68.7463 54.1239 68.6282 47.4278L72.2913 47.7036L72.9413 70.7263H70.4991ZM72.2913 44.3358L68.6282 44.6115C68.7463 37.9154 69.0418 27.5759 70.4991 21.3131H72.9216L72.2913 44.3358ZM77.6285 70.7263H75.147L75.7969 47.7036L79.4995 47.4278C79.3813 54.1239 79.1056 64.4635 77.6285 70.7263ZM75.7969 44.3358L75.147 21.3131H77.6285C79.0859 27.5759 79.3813 37.9154 79.4995 44.6115L75.7969 44.3358Z" fill="black"/>
</svg>
