<svg width="147" height="92" viewBox="0 0 147 92" fill="none" xmlns="http://www.w3.org/2000/svg">
<path d="M110.317 66.7653C112.211 66.7653 113.9 66.8127 115.583 66.7314C116.034 66.6499 116.436 66.3834 116.702 65.9896C117.065 65.371 117.38 64.7223 117.644 64.0499C118.519 62.2038 118.519 62.2038 120.615 62.4954L118.679 66.719H126.392C126.407 66.895 126.387 67.0724 126.333 67.2399C126.28 67.4073 126.194 67.5612 126.082 67.6916C125.969 67.822 125.832 67.9262 125.68 67.9975C125.527 68.0688 125.362 68.1056 125.195 68.1056C124.886 68.1332 124.576 68.1431 124.266 68.1355C118.721 68.1097 113.176 68.0582 107.632 68.0582C101.817 68.0582 96.0023 68.1118 90.1892 68.1334C89.3417 68.1334 88.4125 68.3054 87.9343 67.2495C87.7627 66.7098 87.7457 66.1282 87.8854 65.5783C88.0252 65.0283 88.3155 64.5345 88.7196 64.1591C88.9587 63.9005 89.2202 63.6687 89.4816 63.4143C87.3647 62.7807 86.5872 63.1217 85.5521 65.0862C83.6694 68.6598 84.5267 68.1118 80.6836 68.1293C74.2805 68.1571 67.8793 68.1355 61.4762 68.1355H60.1728C60.2258 67.7456 60.4125 67.3902 60.6973 67.1372C60.9821 66.8842 61.3449 66.7514 61.7163 66.7643C62.9895 66.6088 63.5688 66.0793 63.491 65.1387C63.3415 64.5954 63.0284 64.1187 62.5996 63.7814C62.1707 63.444 61.6496 63.2645 61.1156 63.27C60.9028 63.3082 60.6802 63.5842 60.5529 63.8078C60.1641 64.4949 59.8161 65.2078 59.4585 65.9144C59.1521 66.5962 58.6649 67.1686 58.0564 67.5614C57.4479 67.9542 56.7445 68.1505 56.0324 68.1262C52.2788 68.1262 48.5261 68.0778 44.7715 68.0716C42.7421 68.0716 40.7127 68.1221 38.6843 68.1334C36.6558 68.1447 36.4819 67.8377 37.4849 65.8949C38.3759 64.169 39.2681 62.4435 40.1616 60.7184C40.3191 60.4093 40.4532 60.091 40.6758 59.6068C39.7778 59.5688 38.8785 59.5801 37.9816 59.6408C37.6997 59.6738 37.379 60.0632 37.2137 60.3712C36.1329 62.4016 35.0881 64.4547 34.0326 66.4996C33.0791 68.3435 33.0791 68.3435 30.9379 68.0149C32.3492 65.2696 33.7371 62.5644 35.2426 59.6388C34.1551 59.6388 33.2191 59.5945 32.2909 59.6727C32.0868 59.6892 31.8788 60.1147 31.7349 60.3939C30.6483 62.4638 29.5704 64.5385 28.5013 66.618C27.6265 68.3147 27.6265 68.3157 25.4786 68.0201C26.9015 65.2387 28.2904 62.5252 29.7706 59.6336H22C22.1165 59.2096 22.3649 58.8399 22.7047 58.5844C23.0445 58.3289 23.4559 58.2028 23.872 58.2264C24.9732 58.1831 26.0773 58.1986 27.1765 58.1986C32.1373 58.1986 37.0987 58.1986 42.0608 58.1986C43.4682 58.1986 43.6314 58.484 42.9666 59.7809C41.8061 62.0472 40.634 64.3084 39.3782 66.754C41.0675 66.754 42.5973 66.7921 44.1223 66.7211C44.4139 66.7066 44.755 66.3193 44.9581 66.0164C45.2862 65.5039 45.5726 64.9629 45.8144 64.3991C46.9895 61.8144 48.8663 61.6877 51.3175 61.7887C52.2389 61.8278 53.1642 61.7949 54.2771 61.7949C53.8329 62.6829 53.4432 63.4699 53.0456 64.2518C52.6481 65.0337 52.237 65.8289 51.7675 66.7417C53.0171 66.8365 54.2721 66.8158 55.5182 66.6798C56.2909 66.4601 56.9739 65.9773 57.4621 65.3056C58.0582 64.3706 58.5928 63.393 59.0619 62.38C59.2009 62.1317 59.4692 61.8227 59.7015 61.801C61.1764 61.5724 62.6811 61.8711 63.978 62.6499C65.466 63.6234 65.7858 64.6947 65.1239 66.7571C66.2214 66.8108 67.3209 66.7964 68.4168 66.7138C68.9264 66.5793 69.3681 66.2431 69.6512 65.7743C70.018 65.1147 70.3116 64.4123 70.5259 63.6811C70.7023 63.083 71.0666 62.567 71.5582 62.2189C72.0499 61.8709 72.6391 61.7118 73.2279 61.7681C74.7091 61.7784 76.1933 61.7228 77.6716 61.7918C78.4025 61.8258 79.4289 61.6455 79.4882 62.8703C79.4977 63.4894 79.3014 64.0923 78.9338 64.5735C78.5661 65.0547 78.0505 65.3835 77.4772 65.5024C76.168 65.5333 74.8588 65.5024 73.5496 65.5137C72.5408 65.5292 72.5408 65.5292 72.3386 66.7653H73.8684C76.1768 66.7653 78.4871 66.7149 80.7944 66.789C81.2331 66.8673 81.6838 66.7803 82.0683 66.5432C82.4528 66.3061 82.747 65.9339 82.8997 65.491C83.2797 64.5588 83.8463 63.713 84.2604 62.7962C84.3947 62.459 84.6279 62.1766 84.9256 61.9911C85.2232 61.8055 85.5694 61.7266 85.9127 61.766C87.738 61.7897 89.5642 61.766 91.3895 61.7773C91.6988 61.7646 92.008 61.8049 92.3051 61.8968C92.5484 61.9792 92.7524 62.1577 92.8747 62.3954C92.9252 62.5345 92.7162 62.858 92.5471 62.995C91.8821 63.4472 91.2457 63.9452 90.6421 64.4856C90.2786 64.873 89.884 65.6085 90.0084 66.0144C90.1212 66.3863 90.9133 66.5294 91.4109 66.7602C91.4974 66.7993 91.6179 66.7509 91.7171 66.7684C94.1712 67.1887 96.0364 66.5985 96.9335 63.8016C97.1366 63.2459 97.4945 62.769 97.9597 62.4343C98.4248 62.0995 98.9751 61.9229 99.5373 61.9278C101.312 61.8495 103.092 61.9072 104.97 61.9072C104.166 63.4915 103.379 65.044 102.508 66.7592C104.247 66.7592 105.819 66.7932 107.386 66.7283C107.564 66.6915 107.732 66.6142 107.879 66.5018C108.026 66.3895 108.149 66.2446 108.238 66.0772C108.986 64.6072 109.667 63.098 110.413 61.5105L109.378 61.2427C109.597 60.4958 109.796 59.8448 110.739 59.9426C110.947 59.9633 111.271 59.5718 111.419 59.2967C112.197 57.8174 112.549 57.6485 114.303 58.0966C114.062 58.6931 113.826 59.2772 113.551 59.9591H115.668C115.514 60.9656 115.039 61.4508 114.136 61.3498C113.71 61.2776 113.274 61.375 112.913 61.6233C112.551 61.8715 112.288 62.253 112.176 62.6942C111.641 64.0231 110.992 65.3005 110.314 66.7653M101.761 63.3339C99.6763 63.0156 98.7481 63.8634 98.0434 66.7097C100.206 66.8962 100.765 66.3863 101.761 63.3339ZM51.0143 63.3504C48.9897 62.9795 48.0139 63.8655 47.3063 66.6932C49.4086 66.923 50.0375 66.3553 51.0143 63.3504ZM76.793 63.1052C73.9316 62.8714 73.4204 63.028 73.1783 64.1879C75.5003 64.6968 76.4645 64.4279 76.793 63.1052Z" fill="black"/>
<path d="M74.425 29.4392L72.7911 30.0717C73.5794 27.9609 74.3598 25.8718 75.0587 24C75.7526 25.8666 76.5253 27.9393 77.3077 30.0346L75.7001 29.4526C75.7507 34.3355 76.3523 38.9372 78.5022 43.2113C76.3533 43.8294 76.0977 43.6481 75.0937 40.7626C74.9766 40.9797 74.8717 41.204 74.7797 41.4343C74.0488 43.6749 74.008 43.7006 71.584 43.2783C73.7378 38.9856 74.3569 34.3726 74.424 29.4371" fill="black"/>
<path d="M70.2634 43.2444C70.1419 43.2992 70.0164 43.3436 69.8882 43.3773C68.093 43.5226 68.1086 43.5184 67.7373 41.6508C67.0547 37.9825 65.9525 34.4163 64.4551 31.0309L64.6942 30.7744C66.3296 32.1713 67.9647 33.5678 69.5995 34.964L69.4421 35.2154L67.4817 34.8641C68.4264 37.7104 69.3371 40.4527 70.2643 43.2465" fill="black"/>
<path d="M80.5344 34.9616L85.4174 30.7483L85.6225 30.9543C85.1229 32.2812 84.5368 33.5781 84.1413 34.939C83.4852 37.1919 82.9156 39.4716 82.3743 41.7617C81.9408 43.5902 81.8883 43.6633 79.8628 43.2368C80.7784 40.4678 81.6881 37.7214 82.6309 34.8699L80.6812 35.2078L80.5344 34.9585" fill="black"/>
<path d="M67.7024 44.0034H73.3396C76.1223 44.0034 78.9039 43.9931 81.6856 44.0199C81.9548 44.0199 82.2221 44.262 82.4904 44.3918C82.2503 44.5535 82.0102 44.8543 81.7702 44.8564C77.2701 44.8852 72.771 44.8729 68.2709 44.8842C67.7053 44.8842 67.4098 44.742 67.7053 44.0034" fill="black"/>
<path d="M75.0533 47.652C72.8179 47.652 70.5824 47.6664 68.347 47.6324C68.0923 47.6324 67.8396 47.3574 67.5869 47.21C67.8377 47.0596 68.0894 46.7784 68.3411 46.7774C72.8121 46.7513 77.2849 46.7513 81.7597 46.7774C82.0037 46.7774 82.2457 47.0184 82.4867 47.1482C82.2466 47.3162 82.0076 47.6283 81.7655 47.6324C79.5301 47.6705 77.2946 47.6551 75.0592 47.6551" fill="black"/>
<path d="M75.2095 45.36C77.1379 45.36 79.0672 45.3404 80.9945 45.3827C81.2734 45.3878 81.5466 45.6917 81.8216 45.8534C81.5524 45.9863 81.2841 46.2367 81.013 46.2387C77.0526 46.2634 73.0923 46.2634 69.132 46.2387C68.8696 46.2387 68.6091 45.9657 68.3467 45.8205C68.6023 45.668 68.856 45.3878 69.1145 45.3837C71.1449 45.3476 73.1782 45.3631 75.2095 45.3631" fill="black"/>
<path d="M77.6395 48.3538C77.3402 49.2376 77.0563 50.0772 76.757 50.9642H73.3552C73.0559 50.0762 72.7721 49.2407 72.4805 48.3538H77.6395Z" fill="black"/>
<path d="M77.9889 51.7158H72.1768V52.8397H77.9889V51.7158Z" fill="black"/>
<path d="M76.7952 53.5908H73.2622V55.3277H76.7952V53.5908Z" fill="black"/>
<path d="M118.9 61.4555C119.437 60.1452 119.645 60.0504 121.471 60.2451C121.23 61.6131 121.173 61.6409 118.9 61.4555Z" fill="black"/>
<path d="M68.8618 49.6506V48.3557H70.7425C70.7697 48.434 70.7979 48.5123 70.8261 48.5896L68.8618 49.6506Z" fill="black"/>
<path d="M81.1765 49.6454L79.2705 48.5791L79.3463 48.3577H81.333C81.2873 48.7347 81.2465 49.0633 81.1765 49.6454Z" fill="black"/>
</svg>
