<svg width="147" height="92" viewBox="0 0 147 92" fill="none" xmlns="http://www.w3.org/2000/svg">
<path fill-rule="evenodd" clip-rule="evenodd" d="M73.9919 77C56.3212 76.9926 42 62.8877 42 45.4963C42 28.0968 56.3293 13.9923 73.9919 14C91.6788 14 106 28.1049 106 45.4963C106 62.8955 91.6707 77 73.9919 77ZM47.7524 60.6068L48.3253 60.1633C46.6703 57.146 46.0342 55.1343 45.3099 52.9013C45.2463 52.7348 45.2067 52.6235 45.1349 52.5285C45.0872 52.6549 45.1112 52.7664 45.119 52.9086C45.5805 55.348 46.6944 58.4213 47.7524 60.6068ZM74.4374 17.1282L78.7895 42.3206L74.2387 44.9736L74.0877 17.1363C74.0877 16.8037 73.8649 16.8037 73.8172 17.1363L71.247 43.5403L69.3378 42.4396L73.4271 17.1366C57.5783 17.2313 45.0631 29.8948 45.0631 45.5438C45.0631 50.4855 46.6226 55.681 48.866 59.7275L68.8363 43.1995L70.7534 44.2921L48.3331 60.3294C47.792 60.7096 47.9512 60.8919 48.5477 60.5674L73.5859 46.1693V51.349L49.4067 60.5354C54.4667 68.764 63.4414 74.0066 73.9119 74.0066C84.3588 74.0066 93.4845 68.7562 98.5445 60.5435L74.4053 51.3648V46.1852L98.489 60.0126C99.0375 60.3136 99.1969 60.1475 98.6796 59.7831L77.2382 44.3006L79.1555 43.2076L99.1099 59.7515C101.401 55.681 102.913 50.4778 102.913 45.4963C102.913 30.0451 90.008 17.5481 74.4374 17.1282ZM104.465 39.794C104.52 39.9446 104.567 40.0713 104.639 40.1583C104.687 40.0316 104.647 39.9207 104.639 39.7781C102.006 25.4596 89.5306 14.7603 74.0555 14.7603C56.7349 14.7603 42.7239 28.7385 42.7239 45.9711C42.7239 50.0416 43.7664 53.9227 45.1826 57.4783C45.8351 59.1172 47.9194 62.8557 48.4286 63.5921C48.54 63.7501 48.5877 63.8293 48.715 63.9247C48.7072 63.7741 48.6995 63.7026 48.6195 63.5206C48.5318 63.37 46.7577 60.0042 45.7315 57.5015C44.8562 55.3476 43.7664 51.0557 43.7664 46.0817C43.7664 29.3636 57.3955 15.7973 74.1906 15.7973C82.9747 15.805 91.2333 20.0737 96.293 25.6018C100.136 29.7997 102.125 32.6192 104.465 39.794ZM48.7387 60.7807L48.0467 61.0345C52.542 69.5877 61.97 75.8046 73.9919 75.8046C91.0501 75.8127 104.687 62.0718 104.687 45.4963C104.687 41.4413 103.509 38.9548 102.849 37.1572C102.364 35.8108 101.322 33.7435 100.86 32.8962C100.765 32.7297 100.701 32.6586 100.574 32.5559C100.581 32.7062 100.59 32.7935 100.685 32.9599C101.044 33.6646 101.839 35.4387 102.403 37.2205C103.167 39.5884 103.644 42.2414 103.644 45.4967C103.644 50.6678 102.014 55.9584 99.611 60.171C99.7465 60.5195 99.6185 60.6941 99.2132 60.805C93.9696 69.2001 84.6212 74.6958 73.9837 74.6881C63.9906 74.6881 56.0025 69.3578 53.4805 66.5943C51.428 64.3447 49.9085 62.6741 48.7387 60.7807ZM72.4087 44.2133L73.7295 44.9813L73.8967 24.5409C73.8967 24.1291 73.7698 24.1132 73.7376 24.5251L72.4087 44.2133ZM74.7157 45.7575L92.4819 56.1083C92.8002 56.2906 92.8638 56.1798 92.5622 55.9819L76.0687 44.9813L74.7157 45.7575ZM72.0108 45.0447L67.5474 48.6801C67.3009 48.8857 67.4123 48.9807 67.7065 48.8149L73.2758 45.742L72.0108 45.0447Z" fill="black"/>
</svg>
