<svg width="147" height="92" viewBox="0 0 147 92" fill="none" xmlns="http://www.w3.org/2000/svg">
<path d="M75.0397 23C75.0801 23.0124 75.0624 23.0055 75.1029 23.0245L75.2394 23.0879C75.6017 23.2583 76.1061 23.2565 76.515 23.2893C76.7933 23.6622 76.8204 23.8379 76.9311 24.2869C78.8912 24.0124 82.6521 23.9359 84.48 24.7538C85.2469 25.0969 85.6759 25.5336 85.9636 26.3186C86.9397 26.316 87.1952 26.3145 87.5987 27.2713C88.0053 27.4295 88.0489 27.4732 88.1671 27.894C89.0125 27.4917 89.6377 27.1834 90.617 27.3043C93.912 27.7114 93.7075 33.7707 90.9966 34.7814C90.765 34.8677 90.2069 34.9533 90.0632 35.0636C90.0326 35.361 90.3509 35.4752 90.4467 35.7125C90.5542 35.9787 90.6092 36.3471 90.7336 36.611C91.3545 37.929 92.0908 39.2175 92.7204 40.5257C96.2446 39.2356 100.037 39.2907 103.139 41.626C103.556 41.9396 103.493 42.1371 103.156 42.4662C102.096 42.4441 101.889 42.4485 100.904 42.831C101.093 42.924 101.289 43.0049 101.487 43.0762C104.062 44.0012 106.09 45.8168 107.6 48.0713C110.451 52.3256 110.503 58.2169 107.983 62.6344C106.307 65.5715 103.692 67.8417 100.372 68.7001C98.9151 69.0772 97.3452 69.0623 95.8588 68.8555C92.5108 68.2581 89.4823 65.9828 87.7228 63.1062C87.3169 62.4331 86.9601 61.7317 86.6552 61.0075C86.5186 60.6833 86.289 59.8697 86.0177 59.7151C85.4824 59.6809 84.8874 60.3058 84.478 60.0985C84.2935 59.781 83.9889 56.9856 83.9371 56.5076C83.5682 57.5661 83.1894 58.4787 82.4174 59.2982C80.9797 60.8246 79.3881 61.2183 77.3652 61.0849C76.8722 61.0527 76.0185 61.0511 75.5193 61.0648C74.7724 61.1076 74.3202 61.8177 73.5458 61.8098C70.2381 61.7772 66.9274 61.7847 63.6213 61.6595C62.9494 61.634 62.6202 61.298 62.0895 61.2273C61.2331 61.1139 60.1184 61.2254 59.2409 61.2674C59.1595 61.2729 59.0742 61.2603 59.0224 61.329C58.5189 61.9955 58.1243 62.645 57.5509 63.2722C56.9265 63.954 56.2206 64.5569 55.4491 65.0671C49.7633 68.8186 43.6053 64.8748 41.9353 59.0039C41.1377 56.1995 41.1621 54.1075 41.7818 51.2831C40.7865 51.1328 39.7352 51.3055 38.7427 51.1017C38.574 51.0672 38.3866 51.0103 38.2997 50.847C38.0701 50.4165 38.9527 48.2518 39.1246 47.7114C38.6804 47.6521 38.282 47.5297 38.1183 47.0559C38.0047 46.6944 37.9175 45.9137 38.1285 45.579C38.5764 44.8685 39.4987 44.7867 40.1582 45.1704L40.222 45.1335C40.7562 44.8172 41.0145 44.8985 41.5664 45.1166C41.7734 44.8707 41.9219 44.6393 42.0659 44.3542C41.7076 43.744 41.4284 43.2376 41.3094 42.5275C41.0971 41.2613 41.6006 40.0931 42.9999 39.9243C44.0663 39.7957 44.5508 40.0825 45.3745 40.7028C45.7222 40.5309 46.263 40.1518 46.6683 39.9328C48.0834 39.1652 49.6411 38.6966 51.2448 38.5562C51.2959 38.404 51.3487 38.2508 51.4113 38.1029C51.6494 37.5405 52.1327 36.9914 52.7109 36.7732C53.6919 36.403 56.7628 37.4416 57.7538 37.8304C58.1097 37.97 58.4433 38.1636 58.7923 38.3192C59.0397 38.4295 59.2832 38.4886 59.5538 38.5026C60.3928 38.5459 64.1412 38.1338 64.7946 37.7847C65.1741 37.582 65.489 37.0234 65.7764 36.6973C66.0664 36.3735 66.3672 36.0597 66.6785 35.7565C68.6633 33.8494 71.2385 32.5621 73.7801 31.5724C73.7342 31.3501 73.7315 31.1586 73.7213 30.9337C73.7444 30.9082 73.7684 30.883 73.7919 30.858C74.5129 30.1082 75.9255 29.9719 76.8463 30.4156C76.9857 30.4827 77.143 30.6404 77.2569 30.7494C77.6615 30.8215 78.2102 30.8287 78.6388 30.8837C79.4266 30.9845 80.0012 31.2193 80.7304 31.4994C80.9722 31.4059 81.3361 31.3344 81.3616 31.0578C81.2956 30.8938 81.1351 30.7872 80.9938 30.6677C80.9997 30.4673 81.0181 30.246 81.0311 30.0437C80.3246 29.4497 79.9753 29.2815 80.1653 28.2371C79.9757 28.1125 79.5271 27.7249 79.3143 27.5571C78.7774 27.1291 78.222 26.7247 77.6498 26.3452C76.9193 26.65 76.1222 26.8105 75.3674 27.1497C74.5667 27.4632 73.7841 28.0906 73.0193 28.4454C72.4896 28.6912 72.0139 29.4812 71.6756 29.56C71.5507 29.5896 71.4191 29.5674 71.3108 29.4985C71.1825 29.4159 71.0931 29.2848 71.0633 29.1351C71.0339 28.9851 71.0663 28.8297 71.1531 28.7039C71.2927 28.4987 71.492 28.4552 71.7209 28.4136C72.2989 27.8068 73.0648 27.4748 73.7531 27.018C73.9379 26.8951 73.9065 26.7277 73.7644 26.5948C73.6506 26.5272 73.3857 26.4984 73.2642 26.5084C71.7703 26.631 70.2537 26.7614 68.7737 26.9954C68.463 27.0708 68.0291 27.6301 67.721 27.2787C67.3573 26.8638 67.3395 25.9804 67.3354 25.4643C67.5156 25.6409 67.7221 25.9297 67.9823 25.8403C68.1277 25.6506 68.0879 25.3727 68.0815 25.1317C69.7414 25.1607 71.3092 24.8452 72.9496 24.6841C73.298 24.6499 73.353 24.8299 73.6039 25.04C73.7966 25.071 73.9462 24.9653 73.9846 24.7785C73.9285 24.5505 73.7295 24.348 73.5749 24.1594C73.9556 24.1199 74.7186 24.0562 74.9486 23.7462C75.1394 23.4893 75.0781 23.2897 75.0397 23Z" fill="black"/>
<path d="M75.8278 46.1511C76.8287 46.0447 78.2927 47.4879 78.7256 48.3074C79.2425 49.2852 79.0294 50.7189 78.7209 51.7273C78.6212 49.6572 79.1016 47.8777 76.7176 46.805C75.8541 46.4164 75.5056 47.1099 76.2541 47.7167C76.9245 48.2603 77.5713 48.8196 77.4457 49.7612C77.3338 51.1114 77.0261 52.4875 76.8452 53.8181C76.5539 55.9603 76.4389 57.3227 74.3081 58.457C73.7452 58.7553 73.128 58.937 72.4934 58.9923C71.8523 59.0473 71.1631 59.0025 70.5193 59.0022C69.0728 59.0014 67.6108 58.8958 66.169 58.8738C64.8011 58.8459 63.4331 58.8279 62.065 58.8196C61.5631 58.8185 59.7392 58.8923 59.3578 58.7266C58.6288 58.4103 57.8067 57.9499 57.0043 57.6469C55.7436 57.1665 54.4517 56.7724 53.1374 56.4674C50.8355 55.9109 48.5939 55.5576 46.2476 55.2546C45.3468 55.138 44.3201 55.1192 43.4244 54.9642C43.3728 54.9555 43.3712 54.9147 43.3378 54.8484C43.344 54.6824 43.489 54.4131 43.6609 54.4064C45.6207 54.326 47.8016 54.7051 49.7224 55.047C52.9138 55.6334 56.1206 56.4545 58.8866 58.2156C59.1718 58.3973 60.2361 58.957 60.389 58.4782C60.2626 58.1289 59.1476 57.5472 58.7829 57.3305C54.4562 54.7616 49.3303 53.9641 44.3845 53.5681C42.8833 53.4476 42.0664 54.8507 42.8867 56.082C43.3015 56.7045 44.9649 56.6385 45.7302 56.6656C47.127 56.7343 48.4956 56.8972 49.8815 57.0781C51.8476 57.3348 53.8982 57.7002 55.7988 58.2745C56.4777 58.4856 57.1502 58.7176 57.8151 58.97C58.1493 59.1003 59.4171 59.6502 59.6847 59.6678C60.6843 59.7334 61.8757 59.6977 62.8858 59.698C64.715 59.7035 66.5442 59.7251 68.3731 59.7632C69.1954 59.775 70.4706 59.7338 71.2292 59.9453C70.2054 60.2095 60.4471 60.2228 59.2698 59.9944C58.4825 59.8417 57.6839 59.4971 56.9136 59.2632C55.5366 58.8448 54.1116 58.4958 52.6905 58.2647C51.0781 58.015 49.4573 57.8223 47.8313 57.6869C46.7672 57.6057 45.7 57.5542 44.6402 57.4785C43.8484 57.4067 43.0209 57.1967 42.5091 56.5369C41.846 55.6816 41.8938 54.1615 42.7931 53.4809C43.1199 53.2388 43.5046 53.0865 43.9087 53.039C44.5131 52.9738 46.1297 53.194 46.7623 53.2808C48.9707 53.583 51.259 53.9786 53.3969 54.6192C54.6355 54.9948 55.8466 55.4556 57.0218 55.998C57.9765 56.4392 58.878 56.9153 59.7166 57.5574C60.1468 57.871 60.7669 58.4071 61.3237 58.457C62.135 58.53 63.032 58.5265 63.8476 58.5425C65.5634 58.5814 67.2798 58.5951 68.9961 58.5834L71.4057 58.5802C72.8265 58.572 73.779 58.5555 74.9208 57.579C75.2281 57.3219 75.7721 56.8026 75.9012 56.4105C76.519 54.536 76.7027 52.451 77.0344 50.509C77.2958 48.9759 76.6587 48.727 75.7407 47.6842C75.2948 47.1782 75.2371 46.5644 75.8278 46.1511Z" fill="white"/>
<path d="M84.9384 38.3154C85.1287 38.4335 87.7526 43.5234 87.99 44.063C87.6262 44.5332 87.2349 44.9756 86.8738 45.4583C85.8513 46.8254 85.2065 48.0947 84.6287 49.6902C84.5584 49.8491 84.4894 50.0085 84.4222 50.1682C84.2005 48.8514 83.3574 47.7442 82.377 46.8823C82.4955 46.2935 82.6545 45.3657 82.822 44.8155C83.4759 44.7537 83.4394 44.6954 83.4414 44.0735C83.2671 43.97 83.1219 43.9082 82.9378 43.8267C82.9771 43.553 83.1023 42.9577 83.16 42.6857C83.2691 42.1687 83.3967 41.1483 83.5953 40.7042C83.925 39.9682 84.5153 39.0144 84.9384 38.3154Z" fill="white"/>
<path d="M76.4604 31.248C83.2831 30.3221 84.4139 39.2154 79.4971 41.1336C78.9366 41.3467 78.3538 41.4964 77.7596 41.5799C75.9513 41.8315 73.4613 41.6524 71.6309 41.5006C71.0935 41.456 68.2427 41.0514 67.8564 40.8837C68.0062 40.8344 69.0941 41.0286 69.3505 41.0433C73.5414 41.282 80.5235 42.94 82.1229 37.5654C82.5103 36.0243 82.13 34.3915 81.0495 33.22C80.1997 32.2869 79.0069 31.7391 77.7454 31.7022C74.2318 31.5676 71.0696 33.2602 68.3073 35.3075C67.3056 36.0499 66.0908 37.053 65.7275 38.2778C65.6333 38.5952 65.6651 39.403 65.4433 39.6074C65.2159 39.5707 65.14 39.4582 65.1151 39.2421C65.0441 38.6261 65.3071 37.753 65.6966 37.2772C68.0631 34.3859 72.7784 31.6345 76.4604 31.248Z" fill="white"/>
<path d="M79.0907 24.5781C79.9734 24.5466 80.6003 24.575 81.7679 24.6099C82.624 24.6354 85.3601 25.0047 85.4743 26.3865C85.4868 26.5365 84.7654 26.9499 84.5448 27.1243C84.3439 26.305 84.0307 26.336 83.2618 26.3327C82.1922 26.4611 81.6698 26.9232 80.7875 27.463C80.3726 27.2418 78.7532 25.9839 78.4258 25.6232C78.407 25.5102 78.387 25.3709 78.3438 25.2665C78.144 24.7835 77.3602 25.2984 77.1836 24.7782L77.2134 24.7211C77.7433 24.6108 78.5412 24.5959 79.0907 24.5781Z" fill="white"/>
<path d="M91.4407 28.3643C91.9117 28.4105 92.2802 28.9729 92.4318 29.3858C92.8203 30.4464 92.7297 31.7252 92.2834 32.7544C92.0797 33.2248 91.8528 33.5884 91.3595 33.7814C90.8343 33.8121 90.5729 33.6327 90.3547 33.13C89.8201 31.8988 90.0713 28.966 91.4407 28.3643Z" fill="white"/>
<path d="M81.8434 41.2383L81.8544 41.2503C81.9038 41.4678 80.9033 45.5918 80.7597 46.1543C80.4367 46.15 79.2788 46.1759 79.0955 46.0197C79.1728 45.8623 79.214 45.9039 79.1936 45.7433C79.0932 45.6641 79.0747 45.6715 79.0315 45.5632L79.0963 45.5078C79.2384 45.2606 79.1913 45.2986 79.0492 45.0875C79.0688 45.1165 79.0794 44.9102 79.057 44.8357C78.8828 44.6854 78.5248 44.6162 78.2925 44.5567C78.2383 44.2155 78.1916 43.8732 78.1523 43.5299C78.4848 43.3701 78.9154 43.2731 79.2698 43.1471C80.432 42.7338 81.195 42.2872 81.8434 41.2383Z" fill="white"/>
<path d="M89.3272 43.2744C89.4281 43.2783 89.6153 43.2946 89.6652 43.37C90.1326 44.0751 90.7367 45.3677 91.1044 46.104C92.0362 47.9927 92.9978 49.8665 93.9889 51.7246C94.6247 52.9099 95.2963 54.0748 95.9286 55.2613C96.0208 55.434 96.1488 55.7013 96.1798 55.8976C96.1978 56.0126 96.1162 56.0691 96.0369 56.1621C96.024 56.159 96.0106 56.1574 95.9981 56.1527C95.3128 55.9011 89.9521 45.3426 89.4815 44.188C89.3637 43.8994 89.2004 43.5746 89.3272 43.2744Z" fill="white"/>
<path d="M96.3725 61.1845C97.0111 61.1767 97.6285 61.1712 98.2651 61.2277C98.196 61.7415 97.8616 63.3052 97.8962 63.6372L97.9535 63.6616C98.1584 63.4971 98.4504 61.8518 98.5281 61.4864C98.7031 61.6712 98.9119 61.8651 99.0968 62.0433C98.9716 62.6191 98.97 63.2086 98.8397 63.7833C98.7581 64.1432 98.4296 64.3045 98.1234 64.0839C98.0253 63.9846 98.0257 63.9724 97.8915 63.9222L97.8212 63.9556C97.791 64.0772 97.7859 64.1377 97.7093 64.2386C97.413 64.3394 95.591 64.1051 95.4199 63.8519C95.602 63.3099 95.4109 61.9338 95.9894 61.7442C96.1755 61.9107 96.2139 63.4987 96.4122 63.8441L96.462 63.8425C96.5315 63.7605 96.5986 63.6015 96.5872 63.4948C96.5012 62.6988 96.3717 61.9915 96.3725 61.1845Z" fill="white"/>
<path d="M67.3674 47.0821C67.434 47.0813 67.4829 47.0915 67.5493 47.1005C67.6965 47.1845 67.7537 47.3101 67.8477 47.4561C69.0974 47.9357 69.5935 47.9295 70.8664 47.8996C71.9277 47.8753 73.362 47.7682 74.3813 47.9252C72.9314 48.0755 71.7171 47.9836 70.3219 48.0613C69.899 48.0798 69.6661 48.1124 69.2487 48.1756C69.4515 48.2497 69.655 48.3224 69.8592 48.3926C70.0869 48.99 70.3306 49.6003 70.4699 50.224C69.4392 50.0513 68.2026 49.9022 67.2089 49.5937C66.814 49.4708 66.7478 49.2789 66.5996 48.9374C67.0386 48.1763 66.8477 48.1438 66.9871 47.3831L66.996 47.3364L67.3674 47.0821Z" fill="white"/>
<path d="M102.114 63.2244C101.605 63.6448 101.178 63.9886 100.603 64.3293C98.9961 65.2713 97.0838 65.5456 95.2772 65.0931C92.899 64.4773 91.1717 63.0376 89.889 60.9138C89.363 60.0425 88.5121 57.9783 88.6471 56.8542C88.6628 56.7243 88.8614 56.6427 88.9811 56.5811C89.292 58.5989 89.7245 60.0621 91.0253 61.7078C93.8956 65.3396 98.5192 65.9566 102.131 63.0729L102.114 63.2244Z" fill="white"/>
<path d="M67.0432 41.5285C67.9947 41.4533 69.8119 41.8215 70.76 42.0253C70.3136 42.172 69.881 42.3216 69.4656 42.5473C69.3629 42.6032 69.0185 42.889 68.9768 42.8993C68.4492 43.0301 68.5727 42.9154 68.1797 43.302C67.6789 44.0006 68.1477 44.8038 67.8625 44.9952C67.55 45.0113 67.0507 44.7362 66.7499 44.5955C66.7522 44.1434 66.7488 43.6914 66.7395 43.2394C66.3345 42.7889 66.3785 42.5931 66.3184 41.9919C66.5721 41.7583 66.7397 41.6649 67.0432 41.5285Z" fill="white"/>
<path d="M50.1108 59.0146C50.1523 59.0209 50.1939 59.0268 50.2354 59.0327C50.6046 59.3549 50.9433 60.0532 51.2379 60.4382L51.2721 60.4826C51.2275 60.587 51.1844 60.6918 51.1427 60.7978C51.0755 60.9701 50.9506 61.3418 51.0256 61.5109L51.0971 61.4976C51.252 61.3547 51.3366 61.1498 51.436 60.9583C51.5915 61.1424 51.9153 61.5294 51.8981 61.7743C51.7027 62.009 51.213 61.819 50.9295 61.8795C50.8001 61.9069 50.5772 62.08 50.4555 62.166C50.06 61.8571 49.7154 61.8873 49.2348 61.6028C49.1097 61.498 48.7491 61.164 48.6329 61.1322C48.536 61.1926 48.529 61.204 48.4209 61.2342C48.2522 61.1161 47.7489 60.5344 47.5273 60.3299C48.0043 60.0834 48.4857 59.846 48.9715 59.6175C48.8492 60.1219 48.8139 60.704 48.8512 61.2205C49.0696 60.7322 49.1156 60.3385 49.2745 59.8436C49.4326 59.3506 49.693 59.2199 50.1108 59.0146Z" fill="white"/>
<path d="M81.3703 54.5651C81.5877 54.5533 81.8479 54.5553 82.0689 54.5518C81.8252 56.6653 81.3212 58.1651 79.2575 59.0372C78.949 59.1184 78.8261 59.1318 78.5098 59.1494C78.6919 58.8331 79.031 58.189 79.3065 58.0179C80.6167 57.205 80.5959 56.0381 80.86 54.5859L81.3703 54.5651Z" fill="white"/>
<path d="M65.0111 50.5146L65.1589 50.5296C65.3001 50.6281 65.3606 50.7843 65.4453 50.9413C66.0655 50.6014 66.5707 50.6858 67.248 50.727C67.6288 50.7501 68.0011 50.7796 68.3788 50.8369C68.7294 50.8903 68.7439 50.9476 68.942 51.2282C69.1266 51.2102 69.2052 51.0634 69.2616 51.0539C70.0552 50.9205 71.2705 51.1105 72.0363 51.2906C72.1534 51.4508 72.2382 51.5446 72.3708 51.6898L72.6668 51.3405C74.455 51.7114 75.6474 52.2683 76.003 54.199C75.8409 53.9729 75.6164 53.5769 75.4664 53.3308C74.7199 52.3908 73.3846 51.6988 72.1757 51.9791C71.3252 51.4704 69.8488 51.5332 68.8869 51.4535C68.6074 51.4303 68.2389 51.2396 67.943 51.1901C66.8603 51.0088 65.7746 51.0834 64.6843 51.0233C64.4715 51.0115 63.6985 51.3585 63.457 51.4507C63.4982 51.3891 63.5408 51.3283 63.5848 51.269C63.9152 50.8255 64.4777 50.5943 65.0111 50.5146Z" fill="white"/>
<path d="M87.4699 36.5096C87.6685 36.4946 87.9696 36.4441 88.1513 36.537C88.4339 36.6816 90.2747 41.0687 90.4568 41.6523C90.2939 41.8068 90.1675 41.8957 89.9882 42.026C89.8787 41.9164 89.3068 40.8438 89.1812 40.6139L86.9785 36.5397L87.4699 36.5096Z" fill="white"/>
<path d="M71.666 39.0115C73.4782 38.5701 74.1132 38.4521 74.012 36.3977C73.9668 35.4845 73.8503 34.1801 72.5257 34.6717C71.1197 35.154 69.9003 35.9628 68.6135 36.685C68.5025 36.7468 68.36 36.8007 68.236 36.7584C68.2243 36.6418 68.2773 36.5662 68.3534 36.479C69.0248 35.7099 72.1885 33.9023 73.2044 33.8811C73.4515 33.876 73.6571 33.953 73.8306 34.132C74.3813 34.7009 74.4292 35.9367 74.3958 36.6782C74.3711 37.2209 74.2855 38.1038 73.851 38.4879C73.3316 38.9473 72.3808 38.9992 71.7205 39.1036C71.6933 39.074 71.6852 39.0489 71.666 39.0115Z" fill="white"/>
<path d="M100.81 47.9834C101.064 48.0313 101.372 48.2165 101.504 48.443C101.576 48.9116 100.909 51.2093 100.75 51.7384L100.164 51.2631C99.7413 50.9208 99.2935 50.7289 98.8633 50.3721C99.1788 49.75 100.274 48.4026 100.81 47.9834Z" fill="white"/>
<path d="M102.817 56.3894C103.151 56.3458 104.054 57.1575 104.354 57.3655C104.729 57.6257 105.232 58.3114 104.62 58.6239C104.366 58.7538 104.089 58.7145 103.813 58.7079C103.335 58.7043 102.077 58.6152 101.643 58.4861C101.685 58.1929 101.842 57.645 101.944 57.3639C102.145 56.809 102.317 56.6288 102.817 56.3894Z" fill="white"/>
<path d="M88.48 44.9629C88.4895 44.9767 88.4989 44.9904 88.5083 45.0042C88.5852 45.2159 88.1676 45.6363 88.0287 45.7898C86.8735 47.0681 86.0536 48.6071 85.4657 50.2187C85.0904 51.2462 84.9539 52.0658 84.7776 53.0482C84.6508 53.7523 84.6799 57.8276 84.5139 58.0662L84.4585 58.0329C84.1406 56.5755 84.1963 53.7205 84.4746 52.2298C84.9075 49.9836 85.8915 47.8798 87.3383 46.1077C87.6731 45.6991 88.0455 45.2615 88.48 44.9629Z" fill="white"/>
<path d="M50.2996 39.4134C50.5678 39.3908 50.9966 39.3042 51.1822 39.5097C51.264 39.6004 51.2423 39.8286 51.2405 39.9508C50.3894 39.9234 49.4836 39.9024 48.6515 40.0911C45.3153 40.8477 43.2807 43.7696 41.5544 46.445C41.3645 46.7457 41.252 46.8862 41.0156 47.1449C41.4415 45.9454 42.7131 44.0924 43.5257 43.0846C45.3503 40.8219 47.4299 39.7 50.2996 39.4134Z" fill="white"/>
<path d="M95.8695 40.3555C96.2388 40.3325 96.6089 40.3245 96.9791 40.3316C97.4685 40.3399 98.1781 40.3874 98.6417 40.4724C99.5782 40.6441 101.341 41.1845 102.005 41.8701C101.634 42.0469 101.141 42.1721 100.739 42.286L101.238 41.9036C100.553 41.416 99.8466 41.2228 99.0667 40.9725C98.0988 40.662 97.2436 40.6456 96.2388 40.6675C94.3293 40.7431 93.1632 41.1477 91.4755 42.0181C91.1929 42.1637 90.444 42.6071 90.194 42.651L90.1426 42.6094C90.2289 42.3507 90.9178 41.9851 91.1627 41.8483C92.6255 41.0305 94.1943 40.5015 95.8695 40.3555Z" fill="white"/>
<path d="M102.757 52.5262C105.711 52.3457 104.506 53.1134 103.037 54.3458C102.907 54.4522 102.544 54.7458 102.421 54.7214C102.048 54.6477 101.617 53.0306 101.6 52.7743C101.753 52.5058 102.463 52.5384 102.757 52.5262Z" fill="white"/>
<path d="M52.1914 37.3301C52.4258 37.4334 52.7234 37.8602 52.9189 38.0622C55.0336 40.2469 60.0864 39.7614 62.7948 39.0386C63.1921 38.9326 64.6707 38.3421 64.7422 38.3453L64.7747 38.4089L64.7089 38.5603C63.5303 39.4785 60.4523 39.8505 58.9159 39.9283C56.9694 40.0268 54.3963 39.832 52.8586 38.4883C52.5487 38.2175 52.2051 37.7599 52.1914 37.3301Z" fill="white"/>
<path d="M51.5332 39.2725C51.7473 39.3748 52.3405 39.9844 52.5531 40.1949C53.0977 40.7342 53.8882 41.1065 54.6204 41.3598C56.4516 41.9932 58.9712 41.8001 60.8607 41.4981C61.5128 41.3643 62.1789 41.2132 62.8207 41.0467C63.1421 40.9634 64.2321 40.5226 64.4773 40.5928C64.45 40.6947 64.4255 40.6823 64.3181 40.763C63.2599 41.3256 60.5736 41.8735 59.3481 42.0322C57.0962 42.3236 54.6431 42.1764 52.7904 40.717C52.4949 40.4843 51.5765 39.653 51.5332 39.2725Z" fill="white"/>
<path d="M91.5677 55.5605C91.7062 55.6179 92.0155 55.7321 92.0473 55.8855C92.1996 56.6242 92.3075 57.2581 92.5442 57.9846C92.1172 57.9968 91.6623 57.9866 91.2333 57.9842C90.2897 57.9324 90.3615 57.47 90.2383 56.6576C90.5444 56.2031 91.1112 55.8655 91.5677 55.5605Z" fill="white"/>
<path d="M51.01 43.2168C51.3801 43.3893 51.7597 43.6113 52.1184 43.8113C51.8499 43.7994 51.6735 43.796 51.4097 43.7432C51.2919 44.2161 51.0657 44.8702 50.9165 45.3496C50.6407 46.2331 50.3721 47.119 50.1106 48.0068C49.9726 48.47 49.6887 49.3978 49.6433 49.8523C49.7025 49.9862 49.683 49.9438 49.8447 50.0293C49.9641 50.0737 50.0734 50.0941 50.1398 50.1946L50.0958 50.2476C49.9371 50.2715 49.7997 50.2554 49.6437 50.217C49.4527 50.1695 49.2444 50.0682 49.1541 49.8825C48.9991 49.5638 50.7784 43.967 51.01 43.2168Z" fill="white"/>
<path d="M96.7722 46.98C96.8782 46.9718 96.8742 46.9734 96.9782 46.9989C97.2679 47.2634 97.8068 48.7675 98.0046 49.2196C97.8472 49.5093 97.5391 50.151 97.2389 50.2872C96.7357 49.7946 96.2804 48.5441 95.8867 47.8651C95.9958 47.6135 96.0963 47.356 96.2439 47.1257C96.4189 47.0703 96.5944 47.0263 96.7722 46.98Z" fill="white"/>
<path d="M44.4688 58.3213C44.7384 58.3629 44.9505 58.8143 45.0703 59.045C46.5542 61.9052 49.7792 63.5713 52.7977 61.922C52.9682 61.829 53.8078 61.2552 53.848 61.245L53.7953 61.3254C51.7177 63.408 48.4585 63.4061 46.3397 61.3882C45.6329 60.7155 44.5148 59.3312 44.4688 58.3213Z" fill="white"/>
<path d="M100.945 59.499C101.266 59.5477 101.32 59.6081 101.423 59.9123C101.549 60.284 102.393 62.5754 101.883 62.6716C101.688 62.5789 101.504 62.389 101.339 62.2402C100.814 61.7461 100.179 61.1145 99.6895 60.5894C99.8578 60.4512 100.031 60.3205 100.194 60.1784C100.434 59.9696 100.685 59.6721 100.945 59.499Z" fill="white"/>
<path d="M95.3619 41.5328C96.0519 41.485 96.7517 41.4848 97.4394 41.5636C97.782 41.6029 100.061 42.1829 99.947 42.6094C99.7257 42.6541 98.5655 42.2174 98.2562 42.1351C97.9029 42.0412 97.5438 41.9714 97.1811 41.9262C96.2717 41.8144 95.2618 41.9289 94.356 42.0742C93.0933 42.3295 92.103 42.8221 91.0484 43.5239C90.9208 43.6089 90.7587 43.7105 90.6127 43.6749L90.5645 43.5725C90.5692 43.5149 90.5802 43.4211 90.6304 43.3841C92.0061 42.3722 93.6734 41.7145 95.3619 41.5328Z" fill="white"/>
<path d="M52.1278 59.1357C52.486 59.197 52.8164 59.2661 53.1707 59.3426C53.2658 59.6966 53.4843 60.6932 53.4042 61.0609C53.3738 61.2003 52.9241 61.3993 52.7753 61.473C52.6079 61.5523 52.4789 61.5884 52.3037 61.643C52.0092 61.3141 51.7545 60.7772 51.5469 60.3756C51.7417 59.9922 51.9289 59.5392 52.1278 59.1357Z" fill="white"/>
<path d="M80.2059 48.248L80.2432 48.2736C80.2801 48.5318 79.4076 52.6672 79.291 53.2037C79.1171 53.221 78.9311 53.2594 78.8047 53.1617C78.8463 52.852 78.9935 52.3806 79.0524 52.0462C79.3114 50.5744 79.3891 49.7701 79.0402 48.3242C79.4378 48.2692 79.8063 48.2622 80.2059 48.248Z" fill="white"/>
<path d="M93.4268 59.4756C94.0725 60.0451 94.4234 60.3085 95.1397 60.7865C94.8402 61.0809 94.2954 61.4726 93.95 61.732C93.7177 61.8867 93.2926 62.2819 93.061 62.2603C92.6473 61.9707 93.273 59.9301 93.4268 59.4756Z" fill="white"/>
<path d="M64.584 52.2843C65.5676 52.1426 66.5353 52.5163 67.1288 53.317C67.4742 53.7833 67.5621 54.184 67.6585 54.7433C67.141 53.8045 66.6088 53.1561 65.5446 52.8464L65.5054 52.8385C64.4542 52.6403 63.5586 53.0167 62.8927 53.8378C62.7643 53.9964 62.5636 54.4537 62.3637 54.4124C62.2383 54.1204 62.5393 53.5493 62.7213 53.315C63.2026 52.6957 63.8194 52.397 64.584 52.2843Z" fill="white"/>
<path d="M81.8598 49.2598C81.8908 49.2814 81.9191 49.2982 81.9423 49.3296C82.7453 50.4263 82.5208 51.955 82.3877 53.1635C82.0376 53.1655 81.6879 53.1541 81.3386 53.1294C81.3005 53.1286 81.2664 53.1133 81.2271 53.1011C81.1263 52.8982 81.2201 52.3754 81.2519 52.1289C81.4724 52.1277 81.6966 52.1218 81.9175 52.1179C82.0518 51.5582 82.1291 51.3537 81.476 51.223C81.6353 50.586 81.7248 49.9101 81.8598 49.2598Z" fill="white"/>
<path d="M81.7786 40.376C81.7817 40.5471 81.5902 40.7912 81.4964 40.9415C80.828 42.0132 79.6328 42.7051 78.4067 42.9257C78.0044 42.998 77.801 42.938 77.4309 42.8081L77.352 42.7476C77.2782 42.5909 77.2727 42.384 77.2539 42.2063C79.4319 41.9732 80.2208 41.8959 81.7786 40.376Z" fill="white"/>
<path d="M54.1761 42.4014C54.2798 42.4141 54.2448 42.4022 54.3373 42.4579C54.3972 43.5289 55.0806 44.885 55.4933 45.9025C56.1531 47.5176 56.8007 49.1374 57.436 50.7624C57.5637 51.0909 58.0021 52.1612 58.0558 52.4497L58.0029 52.3905C57.5543 51.5364 53.8912 43.1952 53.93 42.7449C53.9451 42.5697 54.0488 42.5017 54.1761 42.4014Z" fill="white"/>
<path d="M47.7116 49.1855C47.9926 49.3708 48.2052 49.4807 48.4892 49.6923C48.2281 49.9701 48.1229 50.604 48.4534 50.8332L48.5122 50.8658C48.4973 50.8933 48.465 50.9553 48.4462 50.9726C48.2864 51.1213 47.4083 51.0617 47.168 51.0574C47.159 50.6676 47.1472 50.3548 47.1099 49.9635C46.8836 50.4757 46.8591 50.5526 46.8395 51.108C46.6547 51.1217 46.4268 51.1178 46.2383 51.1202C46.6862 50.3293 46.9956 49.7664 47.7116 49.1855Z" fill="white"/>
<path d="M101.379 58.7295C101.626 58.8904 101.89 59.2966 102.054 59.3049C102.033 59.0843 101.965 59.1126 102.037 58.9583C102.274 58.8421 104.229 59.0007 104.587 59.0776L104.439 59.5396C104.362 59.708 104.321 59.8253 104.198 59.9651C103.814 60.1315 101.677 59.3948 101.182 59.2021C101.239 59.0294 101.304 58.8939 101.379 58.7295Z" fill="white"/>
<path d="M68.9688 45.472C69.7152 45.2153 73.6212 45.1431 74.4431 45.2286C74.0334 45.311 73.3208 45.3511 73.0089 45.4888L73.0152 45.5438C73.3596 45.7224 73.7519 45.6965 74.1342 45.7899C73.823 45.795 73.3822 45.7612 73.1334 45.9261C73.0673 46.0478 73.0784 45.9846 73.1 46.1219C73.3912 46.2782 74.1574 46.1663 74.3764 46.2464C74.2163 46.3531 72.2639 46.4179 71.9297 46.4269C71.0145 46.452 69.8676 46.571 68.9739 46.4085C69.6739 46.3547 72.4189 46.3453 72.8513 46.1427L72.9068 46.067C72.7664 45.8182 70.2971 45.921 69.8923 45.9477L69.8887 45.8813C70.2876 45.912 72.4797 45.7793 72.8293 45.6627C72.896 45.5705 72.8792 45.6215 72.8737 45.5022C72.7793 45.4033 72.6555 45.3833 72.5224 45.3903C71.3441 45.4527 70.1442 45.41 68.9688 45.472Z" fill="#E5E4E7"/>
<path d="M59.9697 43.8505C60.631 43.8077 60.8796 44.5014 60.4438 44.8392C60.1407 44.8795 60.1169 44.6712 60.0423 44.4255L57.9807 44.5254C57.7303 44.5344 56.9703 44.5749 56.7781 44.5056C56.7195 44.3743 56.7508 44.2997 56.8359 44.2028C57.1837 44.0835 59.5198 43.8769 59.9697 43.8505Z" fill="white"/>
<path d="M61.7099 42.5541C62.0118 42.5076 62.4931 42.5279 62.6207 42.8315C62.8933 43.4804 62.8867 45.0578 62.7138 45.7112L62.704 45.3595C62.6835 44.7443 62.7815 42.7727 61.8914 42.7973C60.9304 42.8238 59.941 43.0302 58.9726 43.0978C58.1887 43.2065 57.3478 43.2471 56.559 43.3525C56.3277 43.3834 55.8123 43.6323 55.6055 43.5959L55.6216 43.5203C55.9414 43.1588 57.5503 43.0445 58.1 42.9741C59.2786 42.823 60.5275 42.6283 61.7099 42.5541Z" fill="white"/>
<path d="M99.5407 60.8467C99.9061 61.2027 101.279 62.5407 101.457 62.9367C101.414 63.0937 101.406 63.0619 101.271 63.1954C101.178 63.2464 101.042 63.3233 100.934 63.2896C100.458 63.1404 99.9237 62.4779 99.6203 62.118C99.3185 61.76 99.4696 61.302 99.5407 60.8467Z" fill="white"/>
<path d="M49.2048 46.7846C49.3491 46.7716 49.3459 46.7489 49.4598 46.8026C49.3888 46.8764 48.0814 47.3223 47.7798 47.4938C45.811 48.6124 44.8344 50.3838 44.2116 52.4867C44.0931 52.5503 44.1521 52.5429 44.0327 52.5303C43.7877 52.088 44.8408 50.0819 45.1298 49.6557C46.136 48.1709 47.4203 47.1339 49.2048 46.7846Z" fill="white"/>
<path d="M47.5565 58.5997C47.892 58.5978 48.7229 58.6229 49.0489 58.7438C49.1533 58.7826 49.1562 58.8446 49.1731 58.9247C49.0614 59.221 48.5582 59.4667 48.2823 59.6198C47.7415 59.8781 46.6771 60.428 47.1698 59.1716C47.254 58.9569 47.3386 58.7014 47.5565 58.5997Z" fill="white"/>
<path d="M104.797 53.3203C105.399 54.3749 104.461 54.7973 103.723 55.3413L103.274 55.1925L102.881 54.9868C103.278 54.5437 104.311 53.6575 104.797 53.3203Z" fill="white"/>
<path d="M101.738 59.751C102.014 59.7973 102.117 59.8118 102.382 59.9084C102.853 60.574 102.864 60.7746 103.21 61.4658C103.088 61.6236 102.941 61.7833 102.809 61.9336L102.374 62.356C102.161 61.4835 101.92 60.6333 101.738 59.751Z" fill="white"/>
<path d="M52.8047 48.0469C53.1596 48.1591 54.3422 48.9229 54.446 49.2562C54.3905 49.3307 54.3899 49.319 54.3065 49.3617C54.2685 49.5101 54.3253 49.5572 54.3973 49.7244C54.1004 50.1043 53.9952 50.3006 53.5268 50.4384C53.3302 50.3685 53.1759 50.3151 53.1847 50.0859C53.3815 49.7841 53.8342 49.7421 54.2109 49.4096L54.2549 49.3704C54.0487 49.3974 53.0551 49.6863 53.0577 49.3735C53.0622 48.8385 53.0341 48.5422 52.8047 48.0469Z" fill="white"/>
<path d="M99.6736 47.4404C101.1 47.451 99.2481 49.2695 98.9078 49.6812C98.8144 49.793 98.8682 49.7734 98.7583 49.7923C98.6198 49.6384 98.4997 49.2993 98.4082 49.0913C98.8089 48.6713 99.1979 47.9479 99.6736 47.4404Z" fill="white"/>
<path d="M101.953 48.8672C102.063 48.9229 102.299 49.0336 102.343 49.1341C102.553 49.6114 101.985 51.3607 101.587 51.5715L101.133 51.6641C101.322 50.8893 101.631 49.5957 101.953 48.8672Z" fill="white"/>
<path d="M102.218 48.3148C101.247 47.3921 99.7669 46.6793 98.4414 46.3535C97.8806 46.2158 96.8997 46.2664 96.3463 46.1145C96.3125 46.1051 96.3114 46.0442 96.3027 46.0003C96.3891 45.8849 96.4974 45.8786 96.6324 45.8759C98.905 45.828 100.705 46.7185 102.343 48.2493L102.218 48.3148Z" fill="white"/>
<path d="M90.1113 49.8945C90.2522 49.9942 90.3326 50.0327 90.3562 50.2101C90.134 50.694 89.9072 51.1847 89.689 51.6702C89.4256 52.255 89.2376 53.3022 88.8376 53.7335C88.7992 53.7551 88.7501 53.77 88.7077 53.7861L88.6606 53.728C88.5794 52.9968 89.654 50.6002 90.1113 49.8945Z" fill="white"/>
<path d="M82.752 29.4082C82.7763 29.4192 82.8026 29.4267 82.825 29.441C83.0738 29.5997 86.2036 35.1101 86.335 35.5752L86.2134 35.5592C85.8884 35.3078 82.8776 29.9303 82.752 29.4082Z" fill="white"/>
<path d="M95.2904 61.1416C95.6005 61.286 95.0863 62.3611 94.8371 62.5656C94.4952 62.8462 94.3492 63.2407 93.8382 62.94C93.7216 62.8223 93.6427 62.7237 93.6172 62.5632C93.6906 62.2857 94.9976 61.3269 95.2904 61.1416Z" fill="white"/>
<path d="M103.664 51.2559C104.01 51.2163 104.19 51.7764 104.337 52.0613C103.794 52.1292 103.25 52.1826 102.705 52.2218C102.474 52.2371 102.107 52.3007 101.93 52.1696C101.767 51.5805 103.259 51.3568 103.664 51.2559Z" fill="white"/>
<path d="M92.6015 59.2955C92.7499 59.2912 92.8712 59.2728 93.007 59.3277C93.0529 59.6232 92.6522 61.3997 92.4453 61.5842C92.4249 61.5669 92.4041 61.5496 92.3837 61.5323C92.1333 61.3204 91.981 61.0146 91.9625 60.6873C91.9355 60.1374 92.2557 59.6833 92.6015 59.2955Z" fill="white"/>
<path d="M49.3502 40.4278C49.5305 40.4099 49.6944 40.3705 49.8354 40.4823C49.7602 40.5544 48.7315 40.7553 48.5265 40.8136C45.3293 41.7222 42.8798 44.8944 41.3208 47.7519L41.0703 48.1323C41.3178 47.4293 42.2275 45.9818 42.681 45.3675C44.3338 43.1295 46.4987 40.9043 49.3502 40.4278Z" fill="#E5E4E7"/>
<path d="M91.9519 52.7373L92.0029 52.7404C92.1819 52.8586 92.2706 53.076 92.3558 53.2664C92.3 53.7099 92.1823 54.2782 92.1093 54.739L91.7698 54.3999C91.4907 54.0526 91.2069 53.6785 90.9844 53.2927C91.2721 53.1047 91.6469 52.9076 91.9519 52.7373Z" fill="white"/>
<path d="M83.423 26.7344C83.7665 26.7193 84.4046 26.6801 84.4274 27.1459C84.2861 27.2683 83.7837 26.9432 83.4858 26.9662C82.543 27.0392 81.7004 27.7298 81.0908 28.3818C80.9158 28.5854 80.7839 28.8376 80.5806 28.9968C80.4683 28.9602 80.5189 28.99 80.4428 28.8778C80.378 28.3609 81.2702 27.6973 81.6556 27.4355C82.2063 27.0615 82.764 26.8197 83.423 26.7344Z" fill="white"/>
<path d="M88.6934 29.4689L88.7558 29.4668C89.113 29.648 88.8669 30.3142 88.7931 30.6342C88.7766 30.3377 88.7691 30.163 88.7095 29.8743C87.9147 30.0367 85.9734 30.7616 85.1495 31.0366C84.8685 31.1444 84.6303 31.2296 84.3438 31.3196C84.8858 30.8329 87.8538 29.7668 88.6934 29.4689Z" fill="white"/>
<path d="M50.596 51.4223C50.9923 51.407 51.7443 51.4463 52.1375 51.4894C52.072 51.8733 52.1017 52.0707 51.7038 52.2207C51.4026 52.2988 51.268 52.307 50.9652 52.3058C50.7339 52.1343 50.1601 51.8034 50.2191 51.5059C50.3533 51.4164 50.4206 51.438 50.596 51.4223Z" fill="white"/>
<path d="M102.823 49.6631C103.192 49.9461 103.457 50.5446 103.665 50.9626C103.411 51.0203 103.158 51.0804 102.905 51.1428C102.689 51.2072 102.469 51.2452 102.248 51.2888C102.395 50.7197 102.522 50.1682 102.823 49.6631Z" fill="white"/>
<path d="M103.669 55.7646C104.011 55.8706 105.459 56.8295 104.975 57.2604C104.86 57.2899 104.854 57.2734 104.737 57.2345C104.306 56.9947 103.544 56.428 103.205 56.081C103.354 55.9731 103.516 55.8679 103.669 55.7646Z" fill="white"/>
<path d="M75.9877 24.968C76.098 24.9592 76.5706 24.91 76.6389 24.9655C77.3728 25.5651 75.4944 25.4691 75.2275 25.4717C74.9339 25.4747 74.5583 25.4667 74.2337 25.4635C73.8938 25.462 73.5499 25.4228 73.2109 25.3908C74.0629 25.1924 75.1187 25.0756 75.9877 24.968Z" fill="white"/>
<path d="M90.9301 58.3726C91.4961 58.3325 92.064 58.3357 92.6296 58.382C92.5181 58.6713 92.4259 58.7666 92.2249 58.99C91.9769 59.1014 91.4239 59.125 91.1495 59.1379C90.9925 58.9609 90.7032 58.6665 90.801 58.4259L90.9301 58.3726Z" fill="white"/>
<path d="M95.249 45.9922C95.3314 46.0091 95.2918 45.9922 95.3573 46.0691C95.2659 46.4895 94.3325 46.6689 93.9585 46.851C93.5452 47.0523 93.0483 47.2957 92.6201 47.4472C92.5879 47.4256 92.5659 47.3926 92.5392 47.3608C92.5353 47.2902 92.5164 47.2203 92.5557 47.1791C93.0557 46.6579 94.6379 46.1869 95.249 45.9922Z" fill="white"/>
<path d="M93.6026 48.2568C93.8483 48.5296 94.684 50.52 94.5089 50.8049L94.3955 50.8018C93.8805 50.014 93.5862 49.4375 93.293 48.5426C93.3891 48.4484 93.5022 48.3491 93.6026 48.2568Z" fill="white"/>
<path d="M99.3238 62.2754C99.5848 62.5399 100.247 63.166 100.367 63.4733C100.312 63.6079 100.284 63.5918 100.14 63.6935C99.8745 63.814 99.5864 63.9933 99.3144 63.8159C99.1122 63.5227 99.2798 62.671 99.3238 62.2754Z" fill="white"/>
<path d="M91.3015 50.874C91.6465 51.0644 91.8416 51.4094 92.0355 51.741C91.7509 51.9514 91.4628 52.1571 91.1708 52.3573C91.0028 52.4605 90.838 52.5327 90.6602 52.6163C90.7885 52.1579 91.0676 51.2524 91.3015 50.874Z" fill="white"/>
<path d="M90.5839 53.6172C90.8139 53.7122 91.7476 54.7119 91.7033 54.9736L91.5863 55.0337C91.2115 55.005 90.8469 54.9501 90.5517 54.6899C90.2043 54.3833 90.2868 53.9288 90.5839 53.6172Z" fill="white"/>
<path d="M47.3436 51.3838C47.6894 51.3646 47.8993 51.3626 48.2443 51.3803C48.1639 51.7575 48.0775 52.1335 47.9851 52.5079L47.16 52.5174C47.1573 52.2132 47.1311 51.7532 47.2191 51.471C47.238 51.4101 47.2662 51.4184 47.3436 51.3838Z" fill="white"/>
<path d="M51.7936 41.042L51.8466 41.0852C52.1798 42.1536 51.6542 41.6352 51.5152 42.2089C51.6343 42.5454 52.3237 42.4111 52.5167 42.5714C52.4376 42.6823 52.4207 42.6583 52.2644 42.7169C51.0299 42.7249 50.5047 41.6927 51.7936 41.042Z" fill="white"/>
<path d="M52.6475 48.3418C52.7968 48.5482 52.7801 49.4659 52.7843 49.7575C52.5435 49.8297 52.3261 49.9145 52.0813 49.8596C51.9594 49.6661 51.9001 49.4993 51.8145 49.2889C52.0239 48.9239 52.3254 48.6095 52.6475 48.3418Z" fill="white"/>
<path d="M105.015 54.751C105.132 54.9354 105.098 56.034 105.096 56.3013L104.527 55.9457L103.959 55.565C104.337 55.1929 104.563 55.0332 105.015 54.751Z" fill="white"/>
<path d="M55.1346 52.7836C55.503 52.7699 55.9228 52.7294 56.129 53.1176C56.1233 53.4563 55.8529 53.465 55.5913 53.5085C55.2468 53.5749 54.9698 53.6023 54.623 53.6365C54.7957 53.3241 54.9079 53.0615 55.1346 52.7836Z" fill="white"/>
<path d="M98.4035 47.0948C98.4616 47.0893 98.5193 47.085 98.5774 47.0826C98.8863 47.0709 99.0343 47.2353 99.2493 47.4308C99.0562 47.7024 98.8655 47.9752 98.6759 48.2495C98.5962 48.3547 98.5001 48.494 98.3768 48.5266L98.3093 48.4807C98.2128 48.1883 98.3341 47.408 98.4035 47.0948Z" fill="white"/>
<path d="M53.6289 37.2764C53.767 37.2886 54.3797 37.4655 54.542 37.5218C55.7064 37.9263 57.2174 38.1344 58.3377 38.6018C57.2935 38.6056 54.5906 37.8352 53.6289 37.2764Z" fill="white"/>
<path d="M65.7181 43.8125L65.7746 43.8788C65.8668 44.3746 65.8946 47.0566 65.7444 47.4836C65.5768 47.1582 65.5769 44.2119 65.7181 43.8125Z" fill="white"/>
<path d="M73.189 47.3055C73.6167 47.2996 73.9852 47.2984 74.4142 47.3188C73.8804 47.4354 73.1091 47.4445 72.5512 47.4653C71.7516 47.4978 70.9515 47.5214 70.1513 47.5355C69.9578 47.541 69.3739 47.5681 69.2109 47.488C69.5497 47.4315 69.9711 47.4248 70.3181 47.4009C71.273 47.3349 72.2319 47.3224 73.189 47.3055Z" fill="#E5E4E7"/>
<path d="M53.5391 59.458C53.8407 59.5679 54.415 59.7634 54.4206 60.1355C54.3682 60.2905 54.3334 60.3023 54.1999 60.411C54.0441 60.5272 53.9784 60.6092 53.782 60.575C53.5577 60.3878 53.5688 59.7736 53.5391 59.458Z" fill="white"/>
<path d="M71.4392 55.2559C72.6856 55.7971 71.9069 56.8337 71.4598 56.7917C71.4281 56.4777 71.7161 56.6877 71.8834 56.2394C71.8736 55.9255 71.765 55.5958 71.3926 55.575C71.1396 55.6644 71.1151 55.9478 70.9597 56.1986L70.9052 56.2022C70.6543 55.7233 71.0829 55.4427 71.4392 55.2559Z" fill="white"/>
<path d="M64.3764 41.9014C65.2326 42.1487 64.6792 42.9923 63.8678 43.0694C63.753 43.0117 63.7906 43.0349 63.7317 42.8754C63.7086 42.6436 63.6879 42.3013 63.8232 42.1035L63.8855 42.0935C63.9302 42.3221 63.9126 42.4543 64.1272 42.5737C64.345 42.5782 64.4816 42.512 64.5145 42.282C64.543 42.0828 64.485 42.0561 64.3764 41.9014Z" fill="white"/>
<path d="M50.5957 58.876C50.9679 58.9337 51.3462 58.9855 51.7116 59.0746C51.6348 59.3411 51.5731 59.4985 51.4674 59.7556C51.4214 59.8564 51.3986 59.8925 51.3414 59.9844C51.1771 59.8784 50.7155 59.0844 50.5957 58.876Z" fill="white"/>
<path d="M51.8047 47.832C52.0189 47.836 52.2319 47.8426 52.2694 48.084C52.1932 48.3183 51.9498 48.5852 51.7887 48.7929L51.6742 48.9004L51.5864 48.891C51.4718 48.7736 51.4413 48.6045 51.3906 48.4412C51.4847 48.095 51.506 48.0055 51.8047 47.832Z" fill="white"/>
<path d="M86.454 26.6553C86.8312 26.6587 87.4666 26.8873 87.4953 27.3178C87.1177 27.4016 87.1087 26.6564 86.0073 26.9758C85.5779 27.1219 85.1823 27.3585 84.7148 27.5209C85.2196 27.0548 85.7707 26.741 86.454 26.6553Z" fill="white"/>
<path d="M46.1873 51.4575C46.401 51.4496 46.6344 51.4516 46.8499 51.4492C46.8546 51.6647 46.8903 52.2236 46.7924 52.3994L46.7183 52.3963C46.4737 52.2373 46.0105 51.9069 46 51.6015C46.0737 51.4665 46.0203 51.5207 46.1873 51.4575Z" fill="white"/>
<path d="M74.4008 46.7578C74.4499 46.7594 74.4232 46.7523 74.4742 46.7971C74.2202 46.9929 70.1336 47.0145 69.5294 47.0039L69.4629 46.9827C69.6985 46.8736 73.7869 46.7939 74.4008 46.7578Z" fill="#C0C0C4"/>
<path d="M49.1378 50.4092C49.3056 50.5968 48.6638 52.3069 48.4677 52.4937C48.1624 52.0871 48.8433 50.7322 49.1378 50.4092Z" fill="white"/>
<path d="M102.947 60.1484C103.292 60.1692 103.657 60.2152 104.002 60.2524C103.901 60.5087 103.828 60.6457 103.697 60.8883L103.48 61.1905C103.24 60.8153 103.1 60.5645 102.947 60.1484Z" fill="white"/>
<path d="M84.3926 27.6562C84.5873 27.71 84.7259 27.7782 84.7898 27.9839C84.9645 28.5414 84.9107 29.3531 84.6878 29.8851L84.6203 29.938L84.5791 29.902C84.5665 29.5392 84.6929 29.3142 84.6533 28.8434C84.6187 28.4354 84.3883 27.9338 84.3926 27.6562Z" fill="white"/>
<path d="M73.2031 42.5674L73.2363 42.6033C73.2393 42.7847 72.9835 43.2047 72.9224 43.4094C72.8241 43.7385 72.9247 44.5768 72.722 44.7932C72.4228 44.0125 72.6029 43.1528 73.2031 42.5674Z" fill="white"/>
<path d="M68.6966 43.3545C68.7466 43.4125 68.8125 44.5646 68.7557 44.689C68.6398 44.734 68.6617 44.7106 68.5039 44.6464C68.1217 44.1759 68.2612 43.7158 68.6966 43.3545Z" fill="white"/>
<path d="M87.9109 34.7109C88.0836 34.9915 88.2987 35.2438 88.5173 35.4885L88.1079 35.5439C87.8501 35.5811 87.6841 35.5786 87.4238 35.5789C87.5726 35.1844 87.6519 35.0406 87.9109 34.7109Z" fill="white"/>
<path d="M51.5624 49.5889C51.6645 49.6356 51.8052 49.9303 51.8668 50.0418C51.3306 50.3205 50.9556 50.4932 50.44 50.8174L50.32 50.8715L50.2871 50.8284C50.3472 50.722 50.5769 50.5473 50.6871 50.463C51.0324 50.1984 51.2804 49.9213 51.5624 49.5889Z" fill="white"/>
<path d="M69.749 42.7266C69.7674 42.7469 69.7737 42.7755 69.7846 42.8006C69.2837 43.7696 69.6158 43.9192 69.4441 44.813L69.3884 44.8276C69.2065 44.1799 69.0281 43.104 69.749 42.7266Z" fill="white"/>
<path d="M90.2005 55.1379C90.4399 55.1347 90.9062 55.1693 91.0149 55.4063C90.9568 55.5461 90.9289 55.53 90.7841 55.6367C90.5729 55.7902 90.4364 55.8616 90.2071 55.9853C90.1761 55.6842 90.1777 55.4374 90.2005 55.1379Z" fill="white"/>
<path d="M88.9318 54.627L88.9593 54.6536C89.0016 54.8797 88.9192 55.3499 88.8804 55.5839L88.5169 55.9088C88.4105 55.7821 88.4714 55.156 88.482 54.9767C88.6712 54.7902 88.7041 54.7659 88.9318 54.627Z" fill="white"/>
<path d="M59.9278 53.0859C60.017 53.206 60.0155 53.2363 60.0462 53.3791C60.2378 54.274 60.7212 54.2854 60.9002 54.5798L60.8692 54.6371C60.8083 54.652 60.7713 54.661 60.7079 54.6477C59.9623 54.4926 59.801 53.7206 59.9278 53.0859Z" fill="white"/>
<path d="M91.5486 59.5017C91.6808 59.4883 91.8842 59.4864 92.0223 59.4805C91.8763 59.7815 91.7484 59.966 91.5498 60.2297C91.246 60.2254 91.0544 59.9307 91.2091 59.6261C91.3264 59.5193 91.3829 59.5276 91.5486 59.5017Z" fill="white"/>
<path d="M95.2342 62.5488C95.3111 62.634 95.2797 63.437 95.2789 63.6062L94.8699 63.4107C94.7722 63.368 94.7679 63.375 94.7012 63.295C94.7031 63.0465 95.0513 62.7419 95.2342 62.5488Z" fill="white"/>
<path d="M46.3535 58.5295C46.5931 58.52 46.8635 58.5295 47.1056 58.5326C47.0037 58.7037 46.8935 58.9742 46.8097 59.1618C46.7794 59.2183 46.8017 59.1877 46.7303 59.2434C46.5667 59.1469 46.2623 58.7536 46.2738 58.5566L46.3535 58.5295Z" fill="white"/>
<path d="M102.315 55.2139C102.595 55.226 103.044 55.4019 103.251 55.5805L103.25 55.6456L103.149 55.7119C103.047 55.7889 103.046 55.7975 102.928 55.8379C102.612 55.7704 102.304 55.5695 102.315 55.2139Z" fill="white"/>
<path d="M95.069 55.9446C94.9147 56.0152 94.8249 56.0957 94.6702 56.0203C94.5654 55.7028 95.3061 55.2243 95.6311 56.195L95.5011 56.1981C95.3367 56.0812 95.2499 56.036 95.069 55.9446Z" fill="white"/>
<path d="M102.343 48.25C102.856 48.7477 103.833 49.8906 104.076 50.559C103.431 49.6457 103.07 49.0864 102.219 48.3155L102.343 48.25Z" fill="#C0C0C4"/>
<path d="M88.8389 28.0469L88.9119 28.0525L88.941 28.1057C88.8185 28.3122 88.041 28.7716 87.8004 28.9245C87.7729 28.9296 87.7458 28.9347 87.7188 28.9398C87.8098 28.6307 88.5528 28.1881 88.8389 28.0469Z" fill="white"/>
<path d="M97.6055 47.0645L98.0509 47.0656C98.0588 47.36 98.0364 47.7026 98.0235 48.0009L97.9642 47.9864C97.8312 47.7462 97.6745 47.3302 97.6055 47.0645Z" fill="white"/>
<path d="M52.7105 51.4277C52.8133 51.4682 52.8681 51.4905 52.9173 51.6012C52.9595 51.6978 52.9556 51.8081 52.9067 51.9011C52.839 52.0326 52.7812 52.0298 52.6521 52.0832C52.5638 52.0691 52.5657 52.0671 52.4806 52.0385L52.4414 51.949C52.4471 51.7252 52.5584 51.5839 52.7105 51.4277Z" fill="white"/>
<path d="M78.8462 54.7158C78.9804 54.7296 78.938 54.7076 79.042 54.7731C79.1272 55.0388 78.9679 55.544 78.8972 55.8336L78.856 55.8717L78.8175 55.8333C78.7877 55.5236 78.7846 55.0169 78.8462 54.7158Z" fill="white"/>
<path d="M61.4805 58.0191C61.7451 57.9755 62.4553 57.937 62.6767 58.0917L62.6878 58.1674C62.4251 58.1914 61.7064 58.2436 61.4964 58.1176L61.4805 58.0191Z" fill="white"/>
<path d="M39.1649 45.2588L39.2075 45.2961L39.1783 45.3616C38.8969 45.5979 38.6253 45.6792 38.2813 45.7875L38.2363 45.7698L38.2168 45.7031C38.4212 45.4397 38.8511 45.3267 39.1649 45.2588Z" fill="white"/>
<path d="M98.1084 49.6699C98.2622 49.7908 98.3639 50.0636 98.2677 50.254L98.0864 50.2991C97.909 50.2771 97.876 50.2991 97.8242 50.1417C97.8584 49.9843 98.0091 49.8073 98.1084 49.6699Z" fill="white"/>
<path d="M82.5371 27.998C82.8872 28.1171 83.1172 28.5406 83.1274 28.8941C82.8193 28.8305 82.6109 28.2764 82.5371 27.998Z" fill="white"/>
<path d="M99.081 60.9453L99.1454 60.9575C99.2176 61.0921 99.1874 61.4414 99.0574 61.5462L98.9778 61.4724C98.8734 61.3539 98.7525 61.2322 98.6426 61.1164L99.081 60.9453Z" fill="white"/>
<path d="M51.2694 48.9912C51.395 49.067 51.3585 49.0144 51.3916 49.1478C51.3343 49.3872 51.086 49.6447 50.9226 49.8394L50.8852 49.8637L50.8594 49.8096C50.9403 49.5022 51.0774 49.2416 51.2694 48.9912Z" fill="white"/>
<path d="M55.5786 52.0566C55.7575 52.0904 56.0011 52.1693 55.9265 52.3965L55.7906 52.4633C55.6303 52.4707 55.5066 52.5006 55.3965 52.3777C55.4114 52.2395 55.4903 52.1685 55.5786 52.0566Z" fill="white"/>
<path d="M63.7793 48.126C64.1019 48.4019 63.9558 48.5762 64.573 48.9251C63.9287 48.9023 63.8435 48.7249 63.7793 48.126Z" fill="white"/>
<path d="M94.9752 56.1387C95.1381 56.1583 95.2017 56.1469 95.259 56.309C95.2096 56.4523 95.1593 56.4754 95.0416 56.5704C94.8712 56.5582 94.7837 56.5535 94.7598 56.3801C94.8143 56.2368 94.8504 56.2258 94.9752 56.1387Z" fill="white"/>
<path d="M48.8724 48.5283L48.924 48.6009C48.9075 48.7768 48.8562 49.2281 48.7292 49.3463C48.6815 49.1775 48.6511 49.0013 48.6172 48.829C48.6934 48.7175 48.7815 48.6276 48.8724 48.5283Z" fill="white"/>
<path d="M66.8106 45.1279C66.9522 45.1778 67.1616 45.2151 67.2156 45.356L67.1162 45.4439C67.0307 45.5185 67.0092 45.5349 66.913 45.5946L66.8347 45.575C66.7738 45.4521 66.8029 45.272 66.8106 45.1279Z" fill="white"/>
<path d="M102.24 55.8516C102.379 55.9163 102.578 55.9811 102.624 56.1314L102.526 56.2068L102.193 56.4124C102.203 56.2307 102.224 56.0345 102.24 55.8516Z" fill="white"/>
<path d="M87.5215 27.6543C87.923 27.6991 87.9006 27.8272 87.8979 28.1975C87.6541 28.134 87.5678 27.875 87.5215 27.6543Z" fill="white"/>
<path d="M48.4531 50.833C48.5178 50.6202 48.5927 50.1198 48.7329 50.0205C48.7904 50.3251 48.6997 50.6206 48.5118 50.8655L48.4531 50.833Z" fill="white"/>
<path d="M74.8833 30.6042C74.9375 30.5977 74.903 30.5982 74.9854 30.6212C74.8578 30.7593 74.401 30.9428 74.2161 31.0198L74.1364 31.027L74.1172 30.9777C74.3091 30.7944 74.6329 30.6826 74.8833 30.6042Z" fill="#E5E4E7"/>
<path d="M101.365 51.9971C101.411 52.0022 101.458 52.0143 101.503 52.0242L101.527 52.1081C101.478 52.2569 101.431 52.2958 101.329 52.4202C101.237 52.3209 101.14 52.2447 101.115 52.1172C101.195 52.0128 101.203 52.041 101.365 51.9971Z" fill="white"/>
<path d="M47.8613 48.9462C48.0263 48.9372 48.0909 48.9179 48.2346 48.9846C48.3538 49.0945 48.3539 49.1373 48.4067 49.2986C48.1558 49.2484 47.9905 49.1707 47.8613 48.9462Z" fill="white"/>
<path d="M95.6326 56.1943C95.6098 56.4232 95.4933 56.8541 95.2032 56.8219L95.1855 56.787C95.3445 56.6131 95.5455 56.4499 95.5027 56.1975L95.6326 56.1943Z" fill="#E5E4E7"/>
<path d="M59.9258 53.0862C60.0021 52.7286 60.103 52.5818 60.3327 52.293C60.1323 52.7691 60.0619 52.8719 60.0442 53.3794C60.0134 53.2365 60.015 53.2063 59.9258 53.0862Z" fill="#E5E4E7"/>
<path d="M70.6484 39.2265C70.9841 39.1385 71.3237 39.0669 71.6662 39.0117C71.6855 39.0491 71.6935 39.0742 71.7207 39.1038C71.5173 39.1825 70.8892 39.2142 70.6484 39.2265Z" fill="#C0C0C4"/>
<path d="M102.758 62.4668C102.591 62.7569 102.373 63.0135 102.113 63.2243L102.131 63.0728C102.304 62.8691 102.556 62.6513 102.758 62.4668Z" fill="#C0C0C4"/>
<path d="M84.9434 29.8115C85.138 29.9405 85.2621 30.1152 85.3194 30.3394C85.0792 30.3061 84.9854 30.0126 84.9434 29.8115Z" fill="white"/>
<path d="M65.2148 43.2226C65.5199 43.1987 65.6629 43.1751 65.945 43.309C65.7333 43.3533 65.3854 43.3775 65.2148 43.2226Z" fill="#E5E4E7"/>
<path d="M69.8925 45.9479C69.6754 45.9648 69.4309 45.9887 69.2549 45.8871L69.2657 45.9393L69.2148 45.9173L69.2769 45.8835L69.2484 45.9353L69.371 45.8722L69.2921 45.8816C69.5203 45.8667 69.6646 45.8714 69.889 45.8816L69.8925 45.9479Z" fill="#2B2C2C"/>
</svg>
