<svg width="147" height="92" viewBox="0 0 147 92" fill="none" xmlns="http://www.w3.org/2000/svg">
<path d="M82.4408 31.7416C79.2372 29.2466 60.5277 30.1309 55.8769 30.2427C54.4741 30.2764 52.0189 30.6902 50.5028 30.7923C47.6821 30.9823 45.8173 31.82 43.3567 33.1011L39.1604 35.2689C38.5466 35.5925 37.1363 36.4329 36.5459 36.629C33.9094 37.5047 30.573 36.8677 27.8339 37.2121C27.3122 37.7489 27.3213 38.2637 27.1468 38.9748C26.9128 39.9284 26.2892 41.3374 26.3035 42.3115C26.6176 42.5721 26.9098 42.4175 26.9626 42.6375C26.7308 42.7796 26.2899 42.7472 26 42.7512C26.1193 43.0834 26.4953 44.1418 26.6516 44.3876C27.5545 45.8058 29.057 47.8762 30.6116 48.5493C31.7705 49.0509 32.9634 49.4437 34.1019 49.9071C34.1329 53.2422 35.2367 57.5706 39.4186 57.4377C43.134 57.3196 44.8698 56.7393 46.194 53.1318C47.1499 53.4686 51.7199 53.8165 53.0434 53.9694L67.4413 55.5734C69.3632 55.7685 72.4146 56.3016 74.2393 56.0286C75.9166 61.7141 79.2658 63.1063 84.8579 61.5259C86.6074 61.0315 87.8243 59.7461 88.6721 58.176C88.8373 57.8631 89.3803 56.4541 89.5235 56.3712C90.9911 56.6818 92.4359 56.8418 93.8864 57.1069C96.1995 57.5297 97.3969 57.5583 99.7306 57.258C100.561 58.2483 101.937 58.8587 103.232 58.9487C105.048 59.0748 107.607 58.9004 109.099 57.703C109.446 57.425 110.151 56.6366 110.46 56.288C112.683 55.732 114.81 55.3675 117.034 54.771C116.575 54.3491 115.872 53.6228 115.568 53.0868L115.588 52.9582L115.927 52.8387C116.003 52.6501 115.979 52.4145 115.997 52.1913C116.045 51.6225 116.576 51.117 116.98 50.7194C116.722 51.4264 116.469 52.1613 116.154 52.8427C116.653 52.4527 116.938 52.273 117.247 51.7114L117.476 51.5441C117.837 51.2295 118.371 50.6304 118.742 50.3764C119.466 49.8971 120.323 49.7518 120.851 48.9837C121.186 48.4954 120.916 48.008 120.446 47.7595L120.438 47.6193C120.954 44.1108 121.549 43.4809 117.956 42.1312C113.528 40.468 109.129 40.1139 104.491 39.5355C104.148 39.3731 103.804 39.44 103.506 39.6653C103.203 39.5605 101.636 39.399 101.03 39.2509C100.832 38.9679 100.543 38.6346 100.32 38.3614C98.216 38.1688 95.941 38.2872 93.8222 38.3537C93.4384 38.3657 92.914 38.5753 92.5005 38.5742C91.6518 38.572 90.7605 38.4315 89.918 38.4001C88.2879 38.3395 86.6325 38.2728 85.0097 38.1096C84.4113 38.0495 82.5914 38.0123 82.2072 37.8982C83.4059 37.5975 87.189 37.5968 88.5718 37.5879L88.7667 37.3722L88.9246 37.4853L89.0274 37.424C89.0508 36.7975 88.6813 36.6713 88.1633 36.5098C87.9526 36.0972 83.1346 32.1956 82.4408 31.7416Z" fill="black"/>
<path d="M93.2927 40.2932C89.7922 39.8561 86.3275 39.3931 82.8042 39.1635C81.5092 39.0792 80.1504 38.7794 78.8444 38.6609C76.542 38.4724 74.2255 38.5497 71.9406 38.891C71.6068 38.8853 70.5369 38.8487 70.2346 38.8885C70.0936 39.1908 68.8061 38.9984 68.3565 39.166L67.7186 39.2082L67.7729 39.337C67.6008 39.3632 67.3728 39.3833 67.2218 39.4557L67.3071 39.6483C67.9322 39.895 75.5537 39.9633 76.6846 40.0487C80.8197 40.3611 84.772 40.4749 88.8677 41.3553C90.1558 41.6364 91.433 41.9651 92.6967 42.3407C93.0063 42.4311 95.1593 42.9967 95.3105 43.0727C95.059 42.7338 94.7275 42.6738 94.5706 42.3866L94.5102 42.2193C93.8858 42.1093 93.1648 41.8753 92.5246 41.739C88.9433 40.9765 85.0842 40.2104 81.4338 39.924C81.5488 39.5234 81.7401 39.6396 82.16 39.6199C82.7596 39.6073 83.3891 39.6695 83.9861 39.7308C87.057 40.0461 90.3119 40.1404 93.3668 40.5683L93.2927 40.2932Z" fill="white"/>
<path d="M82.1602 39.6201C81.2215 39.4977 79.9002 39.4916 78.9136 39.4253C78.1107 39.3715 76.861 39.1969 76.1125 39.1875C77.4802 39.6164 79.8979 39.742 81.434 39.9242C81.549 39.5236 81.7403 39.6399 82.1602 39.6201Z" fill="#2C2A2F"/>
<path d="M71.9414 38.8919C71.6076 38.8862 70.5377 38.8496 70.2354 38.8894C70.0944 39.1917 68.8069 38.9993 68.3573 39.1669C68.6686 39.1845 69.3046 39.2049 69.5924 39.2459C70.1216 39.3125 71.3582 39.0049 71.9414 38.8919Z" fill="#99979A"/>
<path d="M68.3567 39.166L67.7187 39.2083L67.7731 39.3371C68.3748 39.3274 68.9978 39.3314 69.5918 39.245C69.304 39.2041 68.668 39.1837 68.3567 39.166Z" fill="#2C2A2F"/>
<path d="M120.437 47.6191C119.939 47.8487 119.633 48.378 119.026 48.4653C112.285 49.4342 105.527 49.6435 98.7441 50.0818C96.6135 50.2194 97.6106 49.629 96.4139 49.3436L96.4588 49.5689C96.7419 49.6576 97.3308 50.3877 97.7359 50.7196C97.8124 50.7232 97.889 50.7263 97.9657 50.7286C102.256 50.8617 107.04 50.147 111.398 50.0816C113.368 50.0521 115.669 49.4379 117.643 49.2802C118.188 49.2367 118.762 49.1202 119.311 49.0742C121.609 48.7357 120.524 48.5971 120.445 47.7593L120.437 47.6191Z" fill="white"/>
<path d="M66.1137 39.1112L66.227 39.0034C66.2187 38.5004 63.5513 32.9079 63.056 32.1642C62.8008 31.7817 62.3614 31.4278 61.7981 31.4039C58.6105 31.2684 53.7914 31.1981 50.7887 32.0621C50.193 32.2335 46.9903 34.582 46.409 34.9977C46.5222 35.1907 46.5411 35.2094 46.7313 35.3273C47.438 34.7611 50.1092 32.6292 50.9118 32.3415C52.3818 31.8148 61.8027 31.0212 62.6875 32.3042C63.6404 33.6868 65.1224 37.275 65.919 38.8867C65.4123 38.883 62.1749 38.7516 61.9114 38.9664C62.005 39.2315 62.2617 39.3809 62.5026 39.5839C63.164 39.6508 66.7487 39.749 67.3066 39.6482L67.2213 39.4556C66.8823 39.4084 66.3085 39.4085 65.9507 39.3977C65.9884 39.2096 65.9718 39.2715 66.1137 39.1112Z" fill="#D8D9DB"/>
<path d="M66.1133 39.1113C65.6248 39.0502 62.5995 39.0096 62.2847 39.2802C62.3526 39.3692 62.37 39.4056 62.4991 39.3992C63.6459 39.3409 64.8094 39.4121 65.9502 39.3977C65.9879 39.2096 65.9713 39.2715 66.1133 39.1113Z" fill="#56565A"/>
<path d="M82.4397 31.7412C82.1112 31.7765 81.7235 31.4374 81.2218 31.4046C79.1651 31.2703 76.8113 30.9814 74.7652 31.0323L74.8199 31.0508C75.2087 31.1792 75.7821 31.1817 76.2071 31.1999L76.203 31.2591C75.8625 31.3466 75.3149 31.2529 75.0205 31.2795C74.0801 31.3647 70.6361 31.1787 69.9947 31.3802C72.6067 31.4007 80.5821 31.1386 82.4762 32.0883C83.134 32.4182 83.7207 33.1806 84.2804 33.6681C85.6508 34.8617 87.1023 35.9706 88.3887 37.2577C88.5139 37.383 88.5308 37.4189 88.5707 37.5875L88.7656 37.3718L88.9235 37.4849L89.0263 37.4236C89.0497 36.7971 88.6802 36.6709 88.1622 36.5094C87.9515 36.0968 83.1335 32.1952 82.4397 31.7412Z" fill="#D8D9DB"/>
<path d="M88.1622 36.5098C88.2019 37.0445 88.6148 36.9728 88.7656 37.3722L88.9235 37.4853L89.0263 37.4239C89.0497 36.7975 88.6802 36.6713 88.1622 36.5098Z" fill="black"/>
<path d="M45.7579 36.5322L45.4838 36.6434C45.5842 36.8104 45.7405 37.0326 45.9164 37.1071C46.8315 37.4944 49.1237 38.3651 50.0236 38.5385C52.6103 39.0372 55.3147 38.6622 58.0417 39.0374C58.4963 38.9728 59.0701 39.2105 59.3887 39.0046C58.4834 38.4783 51.696 38.6283 50.158 38.2952C48.9598 38.0358 47.2981 37.3423 46.0901 36.9171C45.9987 36.8849 45.8175 36.6217 45.7579 36.5322Z" fill="#D8D9DB"/>
<path d="M74.7672 31.0332C72.8832 30.9763 65.7887 30.917 64.4214 31.4761C64.1564 31.7598 64.1964 32.0527 64.3391 32.3971C64.4886 32.3011 64.2824 32.5032 64.7324 32.5485C64.6713 32.3091 64.5686 32.0495 64.669 31.8337C65.3311 31.3102 68.9405 31.3901 69.9967 31.381C70.6381 31.1796 74.082 31.3655 75.0224 31.2804C75.3168 31.2537 75.8645 31.3474 76.2049 31.26L76.209 31.2007C75.784 31.1825 75.2106 31.1801 74.8218 31.0517L74.7672 31.0332Z" fill="white"/>
<path d="M64.7315 32.548C64.2816 32.5027 64.4877 32.3006 64.3382 32.3967C64.5103 32.9761 67.2238 39.0684 67.4239 39.1625C67.5122 39.2043 67.6217 39.2032 67.7183 39.2085L68.3563 39.1662C68.8058 38.9986 70.0934 39.1911 70.2344 38.8888C69.3826 38.8977 68.5306 38.8899 67.6791 38.8653C66.915 37.5514 65.3318 34.0183 64.7315 32.548Z" fill="#D8D9DB"/>
<path d="M104.489 39.536C104.146 39.3736 103.802 39.4404 103.504 39.6657C103.997 39.9686 109.45 40.6279 110.33 40.8238C110.705 40.9073 115.943 41.9486 115.912 41.9544C114.352 41.1954 108.975 40.4245 107.105 40.0993C106.572 40.0068 104.816 39.833 104.459 39.6302L104.489 39.536Z" fill="#B4B3B5"/>
<path d="M60.0402 39.2752C59.699 39.1933 59.5872 39.2293 59.3872 39.0049C59.0686 39.2108 58.4947 38.9732 58.0402 39.0377C57.7941 39.2186 57.3396 39.1795 57.0157 39.1853L56.6012 39.1805L56.6714 39.3973C56.5053 39.5257 56.2939 39.4642 56.0644 39.4876C56.5989 39.611 60.0923 39.7858 60.4336 39.4987C60.3181 39.3095 60.2984 39.3538 60.0402 39.2752Z" fill="#99979A"/>
<path d="M60.041 39.2752C59.6998 39.1933 59.588 39.2293 59.3879 39.0049C59.0693 39.2108 58.4955 38.9732 58.041 39.0377C57.7949 39.2186 57.3404 39.1795 57.0165 39.1853C57.7813 39.3059 59.28 39.3388 60.041 39.2752Z" fill="#2C2A2F"/>
<path d="M46.41 34.998C45.9555 35.1969 44.8057 36.1465 45.0586 36.6945C45.2269 36.6726 45.279 36.6074 45.4187 36.4975C45.4595 36.5672 45.4746 36.5713 45.4844 36.6438L45.7585 36.5327C45.9185 36.0372 46.3564 35.6902 46.7324 35.3277C46.5422 35.2097 46.5233 35.191 46.41 34.998Z" fill="#9EA0A2"/>
<path d="M98.5527 41.0918C96.9507 40.7183 94.9527 40.5145 93.2918 40.293L93.366 40.5681C95.0663 40.8334 96.7366 40.971 98.5301 41.2558L98.5527 41.0918Z" fill="#B4B3B5"/>
<path d="M53.4062 39.1618C53.2802 39.1395 49.4387 39.0431 49.5278 38.9971C50.2481 39.2773 52.6037 39.3915 53.3021 39.3177C53.3202 39.2588 53.3655 39.2141 53.4062 39.1618Z" fill="#2C2A2F"/>
<path d="M56.6017 39.1805L54.7595 39.1768L54.8244 39.4079C55.1785 39.4329 55.7266 39.4868 56.0649 39.4875C56.2944 39.4642 56.5058 39.5256 56.6719 39.3973L56.6017 39.1805Z" fill="#B4B3B5"/>
<path d="M96.416 49.3436C95.9937 49.2263 94.9305 49.1978 94.54 49.4111C94.8359 49.5515 96.0486 49.5356 96.4609 49.5689L96.416 49.3436Z" fill="#B4B3B5"/>
<path d="M94.5716 42.387C95.2676 42.3929 96.5065 42.9466 96.8301 42.8388C96.5944 42.5844 94.8869 42.1586 94.5112 42.2198L94.5716 42.387Z" fill="#99979A"/>
<path d="M98.5297 41.2559C99.1772 41.3758 99.676 41.4053 100.322 41.4835C99.7421 41.2608 99.1634 41.1896 98.5524 41.0918L98.5297 41.2559Z" fill="#56565A"/>
<path d="M54.7593 39.177L53.4056 39.1621C53.3648 39.2144 53.3195 39.2591 53.3014 39.318C53.7476 39.3398 54.409 39.4056 54.8242 39.4082L54.7593 39.177Z" fill="#99979A"/>
<path d="M117.476 51.5436C117.485 51.322 117.491 51.2453 117.535 51.026L117.436 50.7806L117.339 50.7783C117.199 51.0389 117.231 51.4122 117.247 51.7109L117.476 51.5436Z" fill="#99979A"/>
<path d="M79.7427 47.645C79.0189 47.5761 77.8839 47.947 77.3401 48.3856C73.7313 51.2966 74.5409 59.5121 79.6114 60.2326C80.3705 60.305 81.1939 60.1326 81.8165 59.7002C84.8125 57.6198 84.9343 52.8017 83.1016 49.9203C82.2351 48.5579 81.2647 47.9807 79.7427 47.645Z" fill="#D8D9DB"/>
<path d="M81.1481 59.5716C81.3413 59.6312 81.3788 59.6479 81.5766 59.5264C82.6874 58.8436 83.4631 57.6968 83.7983 56.4365C84.6046 53.4054 83.7164 49.0469 80.3407 48.0069C79.5172 47.7531 78.5075 47.9542 77.7931 48.3958C76.6161 49.0867 75.8612 50.5608 75.5694 51.8612C75.1247 53.8427 75.3985 56.0445 76.497 57.7792C77.1775 58.8537 78.0641 59.5585 79.3284 59.8489C79.7289 59.9409 80.4905 60.0041 80.8684 59.8289L80.868 59.7412L80.7057 59.6714C80.7884 59.5976 81.0239 59.5875 81.1481 59.5716Z" fill="black"/>
<path d="M81.1465 59.5705C80.6357 59.2796 80.2267 59.5423 79.5591 59.2154C78.2528 58.5757 77.672 57.6571 77.158 56.3593C76.9688 55.8814 76.7269 54.3839 76.5696 54.2441C76.3633 54.2685 76.4422 54.2324 76.277 54.4137C76.06 55.167 76.6871 56.7896 77.0557 57.4899C77.7488 58.8064 79.128 59.907 80.7041 59.6703C80.7868 59.5965 81.0224 59.5865 81.1465 59.5705Z" fill="white"/>
<path d="M78.3588 51.9299C78.1491 51.6678 78.0884 51.5621 77.7804 51.4404L77.7022 51.4887C77.9667 52.225 79.1955 52.9319 79.579 53.6248C79.8452 54.1057 79.4762 54.3802 80.0054 54.89C80.2732 54.9556 80.6479 54.9624 80.7788 54.7203C81.5606 53.2738 80.5639 53.5387 79.7532 53.3436C79.5274 53.2893 78.5743 52.1755 78.3588 51.9299Z" fill="#D8D9DB"/>
<path d="M80.5021 53.7508C80.3134 53.6466 80.2549 53.5898 80.043 53.6155C79.7373 53.9224 79.9554 54.4637 80.0053 54.8896C80.4945 54.8984 80.65 54.6152 80.7207 54.1684C80.6704 53.9438 80.6586 53.9194 80.5021 53.7508Z" fill="black"/>
<path d="M81.1539 54.9404L81.0854 55.0565C81.5042 55.6075 82.5111 56.6525 83.0075 57.1586C83.0948 57.0597 83.0644 57.1208 83.0582 56.9535C82.4979 56.2898 81.8092 55.4949 81.1539 54.9404Z" fill="#B4B3B5"/>
<path d="M117.081 44.0205C115.727 43.789 101.136 44.2871 100.584 44.7548C100.008 45.242 99.8077 47.4035 99.8182 48.0911C99.8225 48.3777 99.9187 48.6533 100.125 48.8548C100.324 48.9625 100.588 49.0136 100.812 48.9978C104.987 48.701 109.215 48.9024 113.349 48.2334C114.322 48.076 115.346 48.0819 116.306 47.8262C116.72 47.7253 116.861 47.4377 116.79 47.033C116.227 47.7609 116.295 47.6825 115.356 47.8182C110.509 48.5184 105.722 48.5413 100.843 48.6883C100.567 48.6966 100.285 48.6706 100.05 48.515C99.8452 48.1125 100.335 45.3223 100.697 44.9858C102.127 44.3994 107.692 44.5699 109.43 44.4591C111.836 44.3055 114.509 44.1609 116.924 44.1472C116.92 44.7906 116.879 45.5751 117.018 46.1888C117.084 45.8173 117.16 46.1415 117.264 45.8167C116.99 45.3981 117.07 44.5288 117.081 44.0205Z" fill="#D8D9DB"/>
<path d="M86.6816 48.7318C84.9875 45.009 82.4006 43.9794 78.2993 44.1128C76.7573 44.1629 75.1792 44.7799 74.1494 45.9685L74.3688 46.1386C74.4089 46.0989 74.4506 46.0608 74.4937 46.0243C76.037 44.6966 78.3084 44.9165 80.2199 45.0015C81.865 45.0746 84.2089 45.8255 85.3411 47.0582C85.8232 47.5831 86.2134 48.182 86.6816 48.7318Z" fill="white"/>
<path d="M97.7638 44.7238L97.6625 44.7148C97.5794 44.8892 97.4048 45.0585 97.291 45.231C96.6419 46.215 96.2302 49.1448 98.0521 49.1423C99.4797 48.2926 99.8675 44.9131 97.7638 44.7238Z" fill="white"/>
<path d="M38.3744 55.2874C37.109 55.4486 36.157 54.2729 35.7168 53.2177C34.9966 51.4538 34.8901 49.118 35.6081 47.3544C36.9392 44.0844 39.7621 45.2905 40.6372 48.033C40.6908 48.2005 40.767 48.381 40.9263 48.4454C40.9452 48.1551 40.7678 47.7824 40.6251 47.4959C39.7621 45.7637 38.2604 44.2811 36.3586 45.8424C35.2095 47.0864 34.9822 48.4374 34.8486 50.1272C34.6455 52.6856 36.6825 57.5282 39.8422 54.9838C40.7716 54.2355 41.3559 51.6666 41.2759 50.512C41.2525 50.1748 41.217 49.0427 40.9369 48.7757C40.9044 48.8473 41.0547 50.7311 41.0758 51.101C41.1249 51.988 40.0317 55.6306 38.7897 55.0724C38.6341 55.209 38.5821 55.2767 38.3744 55.2874Z" fill="#D8D9DB"/>
<path d="M42.9238 46.5673C41.6237 43.2292 39.8502 41.1397 35.737 42.1077C34.8559 42.315 34.304 42.9527 33.897 43.7451L34.0299 43.8515C35.1768 42.2589 36.9706 42.4202 38.6905 42.7757C41.0076 43.2546 41.7702 44.694 42.9238 46.5673Z" fill="white"/>
<path d="M117.016 46.189L117.03 46.2547C117.132 46.7323 117.458 47.5651 117.882 47.8349C119.036 47.9807 119.556 44.5321 118.36 44.0928C117.584 44.1511 117.393 45.1762 117.262 45.817C117.159 46.1418 117.082 45.8175 117.016 46.189Z" fill="white"/>
<path d="M43.2882 36.8694C41.7593 36.7353 31.2179 37.6695 30.6902 38.3252C31.0435 38.4205 32.0802 38.1206 32.5135 38.0455C33.8703 37.8102 35.3795 37.5894 36.7446 37.5017C38.5316 37.1473 43.2323 36.9717 45.0367 37.5165C46.3663 37.9178 47.6453 38.5186 49.1719 38.8269C47.951 38.0998 44.7257 37.0126 43.2882 36.8694Z" fill="#B4B3B5"/>
<path d="M38.7891 55.0721C37.6173 54.5423 37.1651 53.9545 36.6554 52.7348C36.4221 52.1783 36.2945 51.0859 36.1956 50.4443C36.1541 50.4251 36.1126 50.4059 36.0718 50.3867C35.3553 50.6701 36.1171 52.8719 36.3776 53.4109C36.8374 54.3617 37.3976 54.8966 38.3738 55.2871C38.5814 55.2764 38.6335 55.2087 38.7891 55.0721Z" fill="white"/>
<path d="M61.1929 37.0873C60.8502 37.0433 60.1624 37.0507 59.7909 37.0459C60.3103 37.3927 60.7475 37.7233 61.2435 38.1041C61.5048 38.3386 61.578 38.4141 61.9253 38.3347C62.2401 38.0309 62.1956 37.662 61.9381 37.3432C61.7388 37.0961 61.4866 37.1078 61.1929 37.0873Z" fill="white"/>
<path d="M54.8652 43.4192C53.5145 43.4033 52.4085 43.3191 51.0736 43.2039C50.1389 43.1232 48.1472 42.8722 47.313 43.0106C47.4987 43.3126 53.1665 43.5566 53.9169 43.5706C54.2076 43.566 54.4975 43.5539 54.7875 43.5344L54.8652 43.4192Z" fill="#B4B3B5"/>
<path d="M98.0566 54.4983C98.7031 53.4403 98.6763 53.7449 98.791 52.5346L98.7105 52.4971C98.0106 52.8659 96.8163 54.2116 98.0696 54.6836L98.1446 54.623L98.0566 54.4983Z" fill="white"/>
<path d="M119.67 43.7249C119.48 43.7113 118.846 43.6995 118.722 43.7958C119.123 43.9002 119.51 43.9854 119.887 44.1591C120.085 44.5153 119.996 46.8941 119.913 47.2481L119.776 47.2959C119.566 47.2703 119.437 47.2299 119.249 47.3202L119.225 47.4556C119.407 47.603 119.319 47.5625 119.587 47.5817C120.195 47.3778 120.239 46.1889 120.271 45.6414C120.317 44.8462 120.428 44.1548 119.67 43.7249Z" fill="#B4B3B5"/>
<path d="M38.3243 50.6783C38.362 50.925 38.3197 50.8376 38.4738 51.0181C38.7493 51.0913 38.6338 51.0946 38.9086 50.9997C39.3881 50.4882 39.1231 50.1447 38.8203 49.6785C38.7644 49.5923 38.7373 49.319 38.6557 49.1553C38.4919 49.5331 38.6769 49.6426 38.4919 49.9228L38.3416 50.0263C38.288 50.3524 38.3341 50.3928 38.3243 50.6783Z" fill="white"/>
<path d="M59.3828 43.8357C58.9698 43.7584 55.1948 43.3999 54.8641 43.4197L54.7864 43.535C54.4964 43.5544 54.2065 43.5666 53.9158 43.5712C54.4489 43.7026 58.7214 43.8654 59.3828 43.8357Z" fill="#56565A"/>
<path d="M38.4922 49.9225C38.0105 49.7433 37.5567 48.6513 37.1453 48.5908C37.4654 49.4677 38.1902 49.6043 38.3246 50.678C38.3344 50.3925 38.2883 50.3521 38.3419 50.026L38.4922 49.9225Z" fill="#D8D9DB"/>
<path d="M98.0703 54.684L98.1377 54.7093C98.6862 54.5695 99.7645 53.6254 99.6336 53.0752C99.2701 53.2465 98.8711 54.5599 98.0572 54.4987L98.1453 54.6234L98.0703 54.684Z" fill="#99979A"/>
<path d="M28.6359 37.7539L28.6064 37.7554L28.5702 37.8156C28.9696 38.1562 29.5962 38.3589 30.0976 38.4894C30.2078 38.4146 30.1693 38.4644 30.207 38.33C29.9299 38.0769 29.0292 37.8641 28.6359 37.7539Z" fill="#D8D9DB"/>
<path d="M74.1498 45.9688C73.681 46.6013 73.4149 47.0679 73.272 47.8747C73.636 47.133 73.8098 46.7585 74.3691 46.1388L74.1498 45.9688Z" fill="#D8D9DB"/>
<path d="M39.3762 51.0771C39.2879 51.1604 39.3196 51.128 39.2735 51.2549C39.5129 51.6848 40.0187 52.257 40.3358 52.7232L40.4219 52.6124C40.2505 52.2164 39.6442 51.4726 39.3762 51.0771Z" fill="#B4B3B5"/>
<path d="M33.8964 43.7451C33.7054 44.1725 33.6375 44.3449 33.5672 44.8149L33.6405 44.8946L33.5786 45.021C33.7801 44.7886 33.9311 44.1751 34.0293 43.8515L33.8964 43.7451Z" fill="#B4B3B5"/>
</svg>
