<svg width="147" height="92" viewBox="0 0 147 92" fill="none" xmlns="http://www.w3.org/2000/svg">
<path d="M52.6256 50.937C52.5961 51.0118 52.345 51.5354 52.1529 51.9693C51.7984 52.7323 51.6803 52.9866 51.6655 53.0465L51.6212 53.1811L52.0348 54.0488L52.0939 54.0937C52.1529 54.1386 53.4233 55.111 55.7424 54.6772L56.1856 54.6024L55.9788 54.1984C55.7139 53.6864 55.4023 53.2005 55.0482 52.7472C54.6775 52.2971 54.283 51.8676 53.8664 51.4606C53.6631 51.2673 53.4708 51.0626 53.2904 50.8472L53.054 50.1142L52.6995 50.8024L52.6256 50.937ZM66.6733 49.7252C64.9263 49.9698 63.1634 50.0798 61.3999 50.0543H61.1488L61.0749 50.2937C60.6613 51.685 61.1045 53.226 61.134 53.2858L61.2374 53.6299L61.5772 53.4953C61.6223 53.4744 61.6722 53.4662 61.7215 53.4714C61.7709 53.4767 61.818 53.4953 61.8578 53.5252L62.0055 53.6449L62.168 53.585C62.818 53.3606 63.0839 52.448 63.202 51.9244L67.9289 52.2236L65.6541 54.5126L64.0588 54.7968L63.9849 54.8717C63.5311 55.3512 63.0476 55.8009 62.5373 56.2181L62.3157 56.4126L62.4782 56.6669C63.4384 58.1331 64.3542 58.522 64.3838 58.537L64.561 58.6118L68.0914 55.7095L71.186 55.4252H71.319L71.5701 55.126L71.5849 55.0961C72.9143 53.4953 73.4608 52.7323 74.0222 51.7299C74.3914 51.0717 74.8641 49.7551 75.0562 49.2165C75.1448 48.9472 75.3221 48.6032 75.5289 48.1543L76.0902 46.9724L75.4107 47.152C74.746 47.3165 73.0768 47.885 72.0723 48.289C70.3342 48.9717 68.5255 49.4534 66.6807 49.7252M121.97 35.4976C121.97 36.5898 121.483 38.2055 119.134 39.7315C117.332 40.8984 113.787 41.1378 112.753 41.0331C110.552 40.8087 108.647 40.3598 107.096 39.7165C106.505 39.4772 106.076 39.4323 105.692 39.5819C105.264 39.7614 104.806 40.2701 104.555 40.7189L104.451 40.8984C104.171 41.4071 103.639 42.3496 102.96 42.8134C102.147 43.3819 100.507 43.5614 99.2667 43.5016L97.4202 43.3819C96.593 43.322 96.076 43.2772 95.884 43.2921C95.2636 43.337 94.4216 43.5764 93.9489 44.4591L93.9341 44.489C93.4171 45.4465 92.5752 47.0323 92.2945 47.4063C92.0729 47.7055 90.3742 49.8748 89.1482 50.8173C88.0108 51.7 87.0506 52.4181 85.736 53.0614C85.2042 53.3307 84.3474 53.7197 83.535 54.0937L83.5202 54.1087C82.176 54.722 81.2602 55.1409 80.9795 55.3205L80.9648 55.3354L80.95 55.3504C79.854 56.2885 78.9463 57.4313 78.2763 58.7165C78.1139 59.0307 77.9809 59.2701 77.4344 59.1354L77.2128 59.0756C75.7061 58.7016 73.6233 58.2079 72.9143 58.2079H72.87L72.3825 58.3425H72.3677L72.0871 58.4323C72.0575 58.4472 69.3248 59.3598 67.375 60.5567L66.9761 60.7961L67.3159 61.0953L67.9806 61.6937L67.9954 61.7087C68.0903 61.7942 68.2058 61.853 68.3302 61.8793C68.4546 61.9055 68.5836 61.8983 68.7044 61.8583L69.8566 61.574C70.0634 61.8283 72.0723 64.1921 72.7518 65L69.3691 64.985C68.9121 64.5941 68.4053 64.2671 67.8624 64.0126C67.1091 63.7134 66.7103 63.6535 66.4001 63.6386C66.231 63.639 66.064 63.6017 65.9108 63.5292C65.7576 63.4568 65.6221 63.3512 65.5138 63.2197L64.8195 62.3669L64.4354 62.6811L64.4059 62.726C64.3321 62.8307 63.9184 63.3992 63.4458 63.5937C63.0469 63.7583 62.7663 63.5937 62.5595 63.4591L62.4265 63.3843L62.3379 63.3543C62.1754 63.2795 61.7914 63.115 61.4368 63.3244C61.0823 63.5339 60.9051 64.0276 60.8312 64.8055L55.868 64.8354L58.2462 62.0827L60.5062 62.0528L60.6096 61.9031C60.769 61.6476 60.9629 61.416 61.1857 61.215C61.2596 61.1551 61.5107 61.0354 62.2788 60.7512L62.8106 60.5417L62.3674 60.1677C61.9095 59.7937 61.1857 59.2252 61.0675 59.1504L60.9937 59.1055C60.7613 58.9454 60.5076 58.8195 60.2403 58.7315L59.3245 58.4472L58.9995 58.3575C58.9109 58.3276 58.2905 58.0433 57.5372 57.6693C57.4964 57.5005 57.442 57.3354 57.3747 57.1756H57.3894L57.2565 56.8614H57.0349C55.735 56.8764 51.4513 56.9213 51.0377 56.9512L50.3878 56.9811L49.9741 57.011C49.6762 57.0285 49.3782 56.9773 49.1026 56.8614C48.647 56.5471 48.2128 56.2023 47.8027 55.8291C47.7076 55.7331 47.6325 55.6188 47.5817 55.4929C47.531 55.367 47.5057 55.232 47.5073 55.0961C47.5079 54.9196 47.5483 54.7456 47.6255 54.5874L48.0686 53.7047C48.3634 53.1557 48.6296 52.5914 48.8663 52.0142C49.1026 51.4008 49.8117 49.1866 49.9889 47.4512L50.0037 47.3315L49.9298 47.2268C49.7969 47.0472 49.3537 46.2693 49.0583 44.1299L49.0435 44.0252L48.9697 43.9504C48.1868 43.1276 44.1246 39.0732 41.3476 39.1331H41.2146L41.126 39.2228C40.9783 39.3724 40.3727 39.8512 39.1466 40.2252L38.0388 40.5394C36.8275 40.8685 35.5572 41.2126 34.4198 41.8559C32.9869 42.6638 31.3916 43.9654 30.7712 44.8331L30.7417 44.878L30.7269 44.9378C30.6826 45.0874 30.4315 45.611 29.3088 45.7457C28.4816 45.6559 27.9055 45.5811 27.8464 45.5661C27.6207 45.4906 27.4104 45.374 27.226 45.222C27.0635 45.0425 26.709 44.6835 26.4431 43.7559L26.4284 43.726V43.6063C26.3003 43.3693 26.1868 43.1245 26.0886 42.8732C26.0379 42.7287 26.0081 42.5776 26 42.4244C26.0003 42.1747 26.0722 41.9305 26.2068 41.7213C26.46 41.3328 26.752 40.9718 27.0783 40.6441L27.9055 39.8213L28.5407 39.2228C28.9082 38.8385 29.2488 38.4285 29.5599 37.9961L29.6929 37.8016C30.0622 37.2929 30.5644 36.5748 31.5245 35.0339L31.5541 35.0039L31.5689 34.9591C31.6166 34.8158 31.6919 34.6836 31.7904 34.5701C31.9424 34.3764 32.1104 34.1962 32.2927 34.0315C32.4372 33.9199 32.5753 33.8 32.7063 33.6724L32.721 33.6575L33.1199 33.1787L33.4892 32.7299C34.0191 32.1284 34.6026 31.5775 35.2322 31.0843C35.4059 30.9368 35.6 30.8159 35.8083 30.7252L35.9117 30.6803L36.3105 30.5157L36.4435 30.4409L36.9457 30.1567L36.99 30.0669C37.1229 29.8276 37.8467 28.5709 39.5455 27.6134C39.7197 27.5109 39.883 27.3906 40.0329 27.2543L40.0477 27.2394C40.0871 27.2098 40.1325 27.1893 40.1806 27.1795C40.2102 27.1795 40.2102 27.2244 40.225 27.3142C40.2549 27.5423 40.2697 27.7722 40.2693 28.0024C40.267 28.5448 40.1669 29.0822 39.9738 29.5882L39.7227 30.1866L40.8158 29.9472C41.1408 29.8575 41.7464 29.678 43.2383 28.9299C45.5132 27.8079 47.138 27.1047 47.7732 27L47.7584 27.0299L47.6698 27.1346C47.1971 27.7331 46.9755 28.152 46.9755 28.4661C46.9722 28.55 46.9927 28.6331 47.0346 28.7055C47.2119 29.0496 47.8027 29.0945 48.8072 28.8252L48.8811 28.7953L50.1071 28.4362C51.7615 27.9425 54.2431 27.1795 56.1634 27.3591H56.1782C56.1634 27.374 56.1486 27.389 56.1486 27.4039L56.06 27.4937C55.7646 27.748 55.4987 28.0173 55.4987 28.3016C55.4964 28.3323 55.5014 28.3631 55.5135 28.3913C55.5873 28.7803 56.1339 28.9748 57.1974 29.0047C57.5667 29.0047 58.4087 28.9449 59.3836 28.885C61.1414 28.7654 63.3276 28.6008 64.2877 28.7354C64.3468 28.7504 64.4059 28.7654 64.4059 28.7953C64.4038 28.8159 64.3974 28.8359 64.3872 28.8539C64.3771 28.872 64.3633 28.8877 64.3468 28.9C63.4858 29.4656 62.5931 29.9801 61.6732 30.4409L61.1119 30.7252L61.688 31.0543L61.7027 31.0693C61.8504 31.1291 62.1459 31.2339 63.0617 31.3236L63.1356 31.3386C63.1642 31.3443 63.1912 31.3568 63.2143 31.375C63.2374 31.3932 63.2559 31.4166 63.2685 31.4433V31.4583C63.2664 31.4789 63.26 31.4989 63.2498 31.5169C63.2397 31.535 63.2259 31.5506 63.2094 31.563C62.6982 32.1096 62.0414 32.4941 61.3187 32.6701C60.7152 32.8172 60.1036 32.9272 59.487 32.9992C59.9597 33.089 60.5949 33.2087 61.3334 33.3283C62.781 33.5976 66.3557 34.2409 68.601 34.1811C71.3337 34.1213 74.0369 33.6874 75.4845 33.448H75.5141C76.3856 33.3134 80.9204 32.6551 84.4361 33.5976C87.8335 34.4953 89.5618 35.2283 93.0183 37.7118C93.6387 38.1606 95.0568 39.1331 96.2385 39.8811C96.9032 40.3 97.3611 40.3898 98.0997 40.2252C98.9712 40.0307 99.2076 37.622 99.2076 37.6071C99.2814 36.7394 99.7984 35.1236 100.832 34.4654C102.014 33.7024 102.9 33.5528 105.116 33.7622C106.771 33.9118 109.208 34.6299 110.006 34.8693L110.316 34.9591C113.418 35.9315 115.249 36.0811 116.254 36.0362C118.026 35.9614 119.755 35.3181 121.69 34.0614C121.888 34.5139 121.994 35.0025 122 35.4976" fill="black"/>
</svg>
