<svg width="147" height="92" viewBox="0 0 147 92" fill="none" xmlns="http://www.w3.org/2000/svg">
<path fill-rule="evenodd" clip-rule="evenodd" d="M12 37H20.6882L44.7903 50.3313V37H50.777V54H42.1602L18.0406 40.6584V54H12V37ZM59.7885 37H91.9097V40.5952H62.7434C62.2902 40.5967 61.8561 40.7739 61.5357 41.0883C61.2154 41.4027 61.0349 41.8286 61.0336 42.2731C61.0336 43.1957 61.8034 43.7909 62.7434 43.7909H88.2655C90.9649 43.7909 93.1758 46.2109 93.1758 48.9748C93.1758 51.738 90.9656 53.9993 88.2655 53.9993H54.4443V50.4199H85.0531C85.4497 50.4188 85.8297 50.2638 86.1102 49.9888C86.3907 49.7138 86.5488 49.3411 86.5501 48.9521C86.549 48.563 86.3909 48.1901 86.1104 47.915C85.8299 47.6398 85.4498 47.4847 85.0531 47.4837H59.7885C56.849 47.4837 54.4443 45.1248 54.4443 42.2415C54.4443 39.3588 56.849 37 59.7885 37ZM94.6518 37H103.63L114.468 42.8731L125.682 37H134.899L118.997 45.3273L135 54H126.022L114.432 47.7191L102.438 54H93.2192L109.901 45.2635L94.6518 37Z" fill="black"/>
</svg>
