<svg width="147" height="92" viewBox="0 0 147 92" fill="none" xmlns="http://www.w3.org/2000/svg">
<path d="M74.537 20.0293C71.2424 20.044 67.9623 20.4546 64.7692 21.2317C63.2017 21.6277 61.6488 22.1555 60.1393 22.7568L60.0522 22.8007C60.0522 22.8007 60.2409 34.165 60.3716 39.7959C60.4151 41.4528 60.7199 43.0805 61.2714 44.6642C61.91 46.4385 62.7518 48.1248 63.7823 49.6938C65.3062 51.9667 67.2656 53.9022 69.5443 55.3833C70.5602 55.9991 71.6197 56.5417 72.7083 56.9963C73.0711 57.1576 73.3904 57.3042 73.6662 57.3922C73.971 57.5242 74.2758 57.6121 74.5805 57.6855C74.8999 57.6121 75.2046 57.5095 75.4949 57.4068C75.7997 57.3042 76.1045 57.1576 76.4673 57.0109C78.2961 56.3071 79.9942 55.2953 81.4891 54.0196C82.9985 52.7731 84.3048 51.3068 85.3933 49.6791C86.4383 48.0955 87.2801 46.4238 87.9042 44.6495C88.4702 43.0658 88.7605 41.4382 88.8041 39.7812C88.9347 34.1357 89.1234 22.7861 89.1234 22.7861L89.0218 22.7274C85.4514 21.2757 81.6633 20.3959 77.8171 20.132C76.7286 20.044 75.7417 20 74.6386 20H74.537V20.0293ZM74.537 20.6012H74.6241C77.7881 20.6305 80.9376 21.0265 84.0145 21.789C85.5239 22.1849 87.0044 22.6541 88.4702 23.2553L88.5573 23.2993L88.4993 26.8626H88.4557C85.016 25.4549 81.3875 24.5897 77.6865 24.3258C76.6705 24.2231 75.6546 24.1791 74.6386 24.1498H74.5515C71.3875 24.1791 68.238 24.5897 65.1611 25.3522C63.6372 25.7481 62.1422 26.2467 60.6909 26.8479L60.6328 23.2553L60.7199 23.226C64.1596 21.8183 67.8171 20.9678 71.5181 20.7039C72.5051 20.6305 73.521 20.5865 74.537 20.6012ZM95.7852 20.9531C93.9129 20.9531 92.389 22.4928 92.389 24.3844C92.389 26.276 93.9129 27.8304 95.7852 27.8304C97.6575 27.8304 99.1814 26.2907 99.1814 24.3991C99.1814 22.5075 97.672 20.9531 95.7852 20.9531ZM73.4775 21.1438C73.4049 21.1584 73.3324 21.1878 73.2743 21.2317C73.2163 21.2611 73.1872 21.3197 73.1727 21.3784V21.9356L73.1582 22.4635C73.1582 22.5221 73.2163 22.5955 73.2598 22.6248C73.3179 22.6834 73.3904 22.6834 73.4775 22.6981H74.1742L74.8999 22.7128L75.6255 22.7568C75.6836 22.7568 75.7126 22.7861 75.7271 22.8301V23.1233C75.7271 23.182 75.7271 23.226 75.6981 23.2846C75.6836 23.3286 75.6401 23.3433 75.553 23.3433H74.9144L74.566 23.3286H73.6517L73.1147 23.358L73.0856 23.8272L73.8404 23.7979L74.4209 23.7832H74.8853L75.3062 23.7979L75.5965 23.8125H75.9158C75.9884 23.8125 76.0755 23.7832 76.1335 23.7392C76.1916 23.6952 76.2206 23.6366 76.2351 23.5633V23.0354L76.2496 22.5075C76.2351 22.4488 76.2061 22.3902 76.1626 22.3462C76.119 22.3022 76.061 22.2875 75.9884 22.2729L75.3208 22.2435H73.7097L73.6662 22.2142C73.6372 22.1849 73.6226 22.1556 73.6226 22.1262V21.9356C73.6226 21.8623 73.6226 21.7743 73.6517 21.701C73.6662 21.6717 73.7097 21.6423 73.7823 21.6423L75.4078 21.657H75.6401L76.2061 21.6717V21.2024L75.4514 21.1731L73.4775 21.1438ZM71.9245 21.2171C71.6488 21.2171 69.1379 21.481 69.1379 21.481V24.1791L69.4282 24.1498L69.7039 24.1058V23.27L71.2714 23.094C71.4746 23.094 71.6633 23.1967 71.7504 23.3873C71.8229 23.5486 71.881 23.7246 71.939 23.9152L72.5486 23.8565C72.5341 23.6806 72.4906 23.5193 72.418 23.3726C72.3309 23.182 72.1858 23.006 72.0261 22.8594C72.1713 22.7714 72.2729 22.6248 72.3164 22.4635C72.3309 22.1409 72.3164 21.833 72.2874 21.525C72.2729 21.3784 72.2003 21.2317 71.9245 21.2171ZM77.5559 21.2464C77.4253 21.2464 77.2801 21.2904 77.1785 21.3784C77.0769 21.4517 77.0044 21.569 76.9898 21.701V23.5779L77.0044 23.7099C77.0189 23.7685 77.0479 23.7979 77.0769 23.8272C77.1205 23.8859 77.1785 23.9152 77.2656 23.9298H77.3817L77.4107 23.9445H77.4398L78.6589 24.0765L79.9216 24.2085L80.1103 24.2524V23.7539L79.8926 23.7099L79.7184 23.6952H79.6894L78.6444 23.5633L77.5994 23.4313C77.5849 23.4313 77.5559 23.4313 77.5414 23.402L77.5269 23.3433V21.9063C77.5269 21.8476 77.5269 21.8036 77.5849 21.7743C77.6284 21.745 77.672 21.7303 77.7155 21.7156C77.9477 21.7303 79.8926 21.9942 80.1829 22.0382V21.5104L78.4993 21.3197L77.5559 21.2464ZM95.7707 21.4517C96.8737 21.4517 97.9477 22.0822 98.4267 23.1673L98.4557 23.226C98.746 23.9592 98.746 24.7803 98.4557 25.5135C98.1655 26.2174 97.6284 26.7599 96.9318 27.0532C96.2061 27.3611 95.3933 27.3611 94.6676 27.0532C93.971 26.7746 93.4194 26.2174 93.1437 25.5135C92.8534 24.7803 92.8534 23.9592 93.1437 23.226C93.4194 22.5221 93.971 21.9796 94.6676 21.6863C95.0305 21.5543 95.4078 21.4664 95.7707 21.4517ZM80.6763 21.6717V21.789C80.6763 21.9503 80.6763 22.1702 80.6473 22.4195C80.6473 22.7568 80.6328 23.094 80.6183 23.4313L80.6038 23.6512V23.9738L80.5893 24.2964L80.7199 24.3258L80.7925 24.3551L80.9231 24.3698L81.1263 24.3991L81.1408 24.2085V24.0472L81.1553 23.8565V23.3286C81.1843 23.3286 81.2279 23.3286 81.2569 23.3433H81.3004L81.9245 23.4753L82.8824 23.6659L82.955 23.6952L83.0566 23.7246L83.1727 23.7539V24.2818L83.1582 24.4577V24.663L83.1437 24.7657L83.3179 24.8097L83.4195 24.839L83.521 24.8683L83.6662 24.9123V24.6484C83.6952 24.3258 83.6952 23.9885 83.7097 23.5926V22.3022L83.5065 22.2435L83.2308 22.1849V22.5955L83.2017 22.8594V23.2993H83.1872L83.0566 23.27L82.955 23.2407L82.8824 23.226L82.8099 23.1967L82.2003 23.0647L81.5762 22.9474H81.5181L81.3585 22.9034L81.1988 22.8741H81.1553V21.745L81.0247 21.7156H80.9376L80.836 21.6863L80.6763 21.6717ZM68.0493 21.701L65.582 22.1849C65.3933 22.2435 65.1901 22.3902 65.1901 22.5955V24.3991C65.1901 24.5897 65.4224 24.839 65.611 24.795L68.0784 24.3111C68.3106 24.2524 68.4702 24.0472 68.4993 23.8125V21.9942C68.4557 21.789 68.2671 21.6717 68.0493 21.701C68.0639 21.701 68.0639 21.701 68.0493 21.701ZM71.5036 21.789C71.5762 21.789 71.6343 21.789 71.6923 21.8476C71.7358 21.8916 71.7504 21.9209 71.7504 21.9796V22.2875C71.7504 22.3755 71.7213 22.4635 71.6633 22.5221C71.6052 22.5808 71.5181 22.6248 71.4311 22.6248L70.5602 22.6981L69.6894 22.7714V21.9503L71.5036 21.789ZM67.6284 22.2142C67.8607 22.1849 67.9332 22.3168 67.9332 22.4781V23.6366C67.9478 23.7832 67.8462 23.9152 67.701 23.9592L65.9448 24.2964C65.7707 24.3404 65.6691 24.2085 65.6691 24.0472V22.9034C65.6691 22.6688 65.7707 22.5661 66.0464 22.5075C66.0319 22.5075 67.6284 22.2142 67.6284 22.2142ZM95.8578 22.3168H94.4499V26.5986H94.9724V24.6777H95.7852L96.6125 26.5986H97.1785L96.3077 24.6044C96.5689 24.5457 96.8302 24.4137 97.0044 24.2085C97.164 24.0178 97.2656 23.7832 97.2656 23.5193C97.2656 23.3726 97.2366 23.226 97.2075 23.094C97.164 22.9474 97.0914 22.8154 96.9898 22.6981C96.8737 22.5661 96.7286 22.4781 96.5544 22.4048C96.3367 22.3462 96.1045 22.3168 95.8578 22.3168ZM84.4935 22.4488L84.4644 24.0325L84.4354 25.1176L85.8868 25.5575C86.3512 25.7188 86.8737 25.8801 87.3962 26.0707L87.4543 26.0854L87.6284 26.144C87.6575 25.9534 87.6575 25.8068 87.6575 25.6162L87.5123 25.5575H87.4833L87.4543 25.5428C87.193 25.4402 86.8882 25.3522 86.6125 25.2496L85.7271 24.9563L85.5385 24.8976L85.3353 24.839L85.1176 24.7803L85.0015 24.7363V24.4724L85.016 24.2085L85.3062 24.2818L86.3803 24.6044L87.3962 24.9563L87.4978 24.9856L87.672 25.0443V24.4871L87.5123 24.4284L87.4398 24.4137C86.8157 24.1791 86.1916 23.9738 85.553 23.7979L85.4078 23.7539L85.2482 23.7099L85.1756 23.6806L85.045 23.6366V23.094L85.2337 23.1527L85.4659 23.2113L85.6691 23.27H85.6836C86.2496 23.4313 86.8157 23.6072 87.3672 23.8125L87.4978 23.8712L87.6865 23.9445V23.4606L87.5559 23.402L87.4398 23.358H87.4253C86.4528 23.0354 85.4804 22.7128 84.4935 22.4488ZM64.3048 22.5515H64.1306C63.1147 22.8741 62.1132 23.2113 61.1118 23.5926L61.1408 24.9416V26.2027L61.8374 25.9681V25.0443L64.4354 24.2231C64.4935 24.2085 64.537 24.1645 64.566 24.1205C64.6096 24.0911 64.6241 24.0325 64.6386 23.9885C64.6386 23.9738 64.6531 23.9445 64.6531 23.9298L64.6241 22.8594C64.6096 22.7568 64.5515 22.6541 64.4499 22.5955C64.4064 22.5661 64.3628 22.5515 64.3048 22.5515ZM94.9724 22.7861H95.7562C95.9884 22.7861 96.2061 22.8301 96.4093 22.9474C96.598 23.0794 96.6851 23.2993 96.6705 23.5193C96.6705 23.6219 96.656 23.7099 96.627 23.8125C96.598 23.9005 96.5544 23.9738 96.4819 24.0178C96.3948 24.0911 96.2787 24.1351 96.1626 24.1645C95.9884 24.2231 95.8287 24.2231 95.6401 24.2231H94.9434L94.9724 22.7861ZM63.7968 23.1087H63.8258C63.8839 23.1087 63.9274 23.1233 63.9565 23.1673C64 23.2113 64.0145 23.2407 64.0145 23.2993L64.0435 23.6806C64.029 23.7539 64 23.8125 63.9565 23.8565C63.9129 23.9005 63.8549 23.9298 63.7968 23.9445L61.7939 24.6044L61.7794 23.8125C61.7794 23.8125 62.5631 23.4899 62.8824 23.3726C63.2017 23.27 63.7968 23.1087 63.7968 23.1087ZM74.2322 24.663V31.9068H69.6459C69.5878 31.9068 69.6168 31.8775 69.6749 31.8335C69.9942 31.5842 70.3716 31.4229 70.7779 31.3496C70.8215 31.3496 70.836 31.335 70.7779 31.2763C70.3861 30.8804 69.8345 30.7484 69.3266 30.939C68.8766 31.1003 68.5138 31.4376 68.3541 31.8922C68.3541 31.9362 68.3251 31.9508 68.2961 31.9508L67.5559 31.9802C67.5123 31.9802 67.4978 31.9215 67.4978 31.8922C67.5559 31.5696 67.7591 31.3056 68.0348 31.1443C68.2816 30.9684 68.5573 30.8804 68.8476 30.8511H68.8621C68.8911 30.8364 68.8911 30.7924 68.8766 30.7631C68.8331 30.7044 68.775 30.6604 68.7025 30.6164C68.4702 30.4845 68.1945 30.4405 67.9187 30.4845C67.135 30.5725 66.5109 31.203 66.4528 32.0095C66.4383 32.0975 66.4528 32.1268 66.3803 32.1561C66.1916 32.2148 65.8723 32.2588 65.6981 32.2881C65.6691 32.3028 65.6255 32.2294 65.6401 32.2001C65.6981 31.8922 65.8287 31.6282 66.0174 31.379C66.148 31.1883 66.3367 31.0417 66.5399 30.9244C66.598 30.9097 66.6125 30.8657 66.598 30.8364C66.2061 30.4845 65.3933 30.8511 65.0595 31.2177C64.7547 31.6136 64.6096 32.1415 64.6386 32.64V32.7133L64.0145 32.9333L63.9855 32.8746C63.9274 32.4934 64.0145 32.1268 64.2177 31.8042C64.3048 31.6429 64.4354 31.5109 64.5951 31.4083V31.3496C64.4064 31.115 63.7097 31.2763 63.492 31.4816C62.9985 31.9802 63.0421 32.4494 63.0131 33.2119C63.0131 33.2559 62.955 33.3879 62.926 33.4025C62.8389 33.4612 62.7373 33.5052 62.6357 33.5198H62.5922L62.5341 33.3879C62.3599 33.0946 61.9971 32.9919 61.7068 33.1679C61.6778 33.1679 61.6633 33.1972 61.6488 33.2119C61.4165 33.4172 61.3875 33.7691 61.5907 34.0037C61.6197 34.0331 61.6343 34.0624 61.5907 34.0624C61.2424 34.165 61.0537 34.5316 61.1553 34.8836C61.1553 34.8982 61.1553 34.8982 61.1698 34.9129C61.2424 35.1035 61.4311 35.2355 61.6343 35.2355C61.8374 35.2355 62.0406 35.1768 62.2003 35.0595C62.2293 35.0302 62.2583 35.0449 62.2874 35.0595C62.4615 35.3528 62.8389 35.4408 63.1001 35.2648C63.3614 35.0888 63.463 34.8249 63.2888 34.385C63.2743 34.3557 63.3179 34.3263 63.3469 34.297C64.8273 33.4319 66.5109 32.9626 68.2235 32.9186C68.4702 32.948 68.7025 32.9919 68.9347 33.0946H68.9637V34.5756L68.9202 34.6196C68.6009 34.8102 68.3541 35.1182 68.238 35.4848C68.238 35.5141 68.238 35.5141 68.18 35.5141L67.2656 35.6167C67.2366 35.6167 67.2075 35.5727 67.2075 35.5581C67.4253 34.9862 67.8171 34.473 68.3396 34.1357C68.3541 34.1064 68.3541 34.0624 68.3396 34.0331C68.2671 33.9597 68.18 33.9011 68.0784 33.8718C67.5559 33.8278 67.0334 34.0477 66.6996 34.4436C66.3803 34.8396 66.2206 35.3088 66.2206 35.8074C66.2206 35.8514 66.2206 35.8953 66.1771 35.91L65.582 36.086C65.553 36.086 65.5239 36.0566 65.5239 36.0273C65.4224 35.3821 65.7271 34.7369 66.2787 34.4143C66.3512 34.3557 66.2206 34.253 66.119 34.253C65.5239 34.2237 64.9579 34.5463 64.6821 35.0742C64.5515 35.4701 64.537 35.91 64.6386 36.3206C64.6386 36.3646 64.6676 36.4232 64.6386 36.4232L64.1161 36.5992C64.0871 36.6139 64.0581 36.5992 64.0581 36.5405C63.9855 36.2913 63.971 36.0273 64.029 35.778C64.0871 35.4848 64.2322 35.2208 64.4499 35.0155V34.9569C64.2612 34.8689 64.0435 34.8542 63.8549 34.9129C63.5356 35.0009 63.2743 35.2062 63.1292 35.4994C62.8679 35.9687 62.9405 36.4232 63.2017 37.0831C63.2017 37.1271 63.2308 37.1711 63.2017 37.2004L62.9985 37.3617C62.984 37.3764 62.955 37.3617 62.9405 37.3324C62.8534 37.2004 62.7518 37.0098 62.6212 36.9511C62.4035 36.8485 62.1567 36.8631 61.9536 37.0098C61.7649 37.1857 61.6923 37.4497 61.7649 37.699L61.91 37.9336C61.9245 37.9482 61.91 37.9922 61.8955 37.9922C61.8084 38.0656 61.6778 38.1242 61.5907 38.2122C61.4311 38.4321 61.4311 38.7254 61.5907 38.9454C61.7358 39.18 62.0261 39.268 62.2874 39.136C62.418 39.0773 62.5341 39.0187 62.6502 38.9454C62.6938 38.916 62.7083 38.8721 62.7518 38.9014C62.8389 39.004 62.955 39.092 63.1001 39.136C63.2888 39.1947 63.492 39.1653 63.6517 39.048C63.8403 38.9454 63.9565 38.7401 63.9129 38.5201C63.8694 38.3735 63.7823 38.2269 63.6952 38.0949C63.6372 38.0362 63.6372 38.0362 63.6952 38.0069C64.508 37.5377 65.3933 37.1564 66.2787 36.8778C67.135 36.6139 68.0203 36.4966 68.9057 36.5552H68.9637V39.6199H60.894L60.6763 27.3318L60.7054 27.3171C64.1451 25.9094 67.7881 25.0589 71.4891 24.8097C72.4325 24.7217 73.3033 24.6777 74.2322 24.663ZM69.5588 25.9534C69.1379 25.9241 68.7315 26.0561 68.3687 26.3053C67.9332 26.6133 67.6575 27.5078 67.5849 27.845C67.5849 27.8744 67.5704 27.9037 67.5269 27.9037C67.164 27.9477 66.8157 28.0063 66.4528 28.0943C66.4819 27.7424 66.627 27.4198 66.8447 27.1705C67.0914 26.9359 67.3527 26.7306 67.6284 26.54C67.643 26.5253 67.6284 26.4813 67.5994 26.4666C67.2075 26.3053 66.7576 26.3053 66.3657 26.4813C65.7997 26.7306 65.4224 27.2438 65.3208 27.845C65.2772 28.0503 65.2627 28.2849 65.2627 28.5049L65.2046 28.5342L64.1016 28.9008L64.0435 28.8861C64.029 28.5196 64.1161 28.1676 64.3048 27.845C64.4935 27.5371 64.8418 27.3758 65.0885 27.1118C65.1176 27.0972 65.1466 27.0532 65.1176 27.0385C64.479 26.7746 63.8839 27.0385 63.3759 27.6251C63.0276 28.153 62.926 28.7835 63.0566 29.3994C63.0711 29.458 63.0566 29.502 63.0276 29.5313L62.6792 29.6633C62.6502 29.6633 62.6212 29.6633 62.6212 29.634C62.4615 29.1648 61.9245 29.2527 61.6778 29.3994C61.4165 29.5607 61.3149 29.8979 61.4746 30.1619C61.4746 30.2059 61.4746 30.2205 61.4456 30.2352C61.1118 30.4112 60.9666 30.8071 61.1263 31.159C61.2569 31.3936 61.5327 31.4816 61.7794 31.379L62.1713 31.1883H62.2148C62.2148 31.1883 62.2148 31.2177 62.2438 31.2177C62.447 31.4816 62.8244 31.5403 63.1001 31.3056C63.2743 31.1737 63.3469 31.159 63.4194 30.9244C63.4485 30.7484 63.3904 30.5871 63.2888 30.4551C63.2598 30.4551 63.2888 30.3965 63.2888 30.3965C65.3208 29.3407 67.5414 28.7688 69.82 28.7102C70.6328 28.7395 71.4311 29.0328 72.0552 29.5753C72.0842 29.6047 72.1132 29.634 72.1568 29.634C72.2003 29.6193 72.2148 29.5753 72.2293 29.546C72.3454 29.1648 72.2148 28.7395 71.91 28.4756C71.6488 28.2116 71.3295 28.021 70.9666 27.933C70.9376 27.933 70.9376 27.8744 70.9521 27.8744C71.0827 27.7277 71.2714 27.6104 71.4746 27.5371C71.7794 27.4784 72.0842 27.4638 72.418 27.4638C72.4325 27.4638 72.4761 27.4344 72.4761 27.4051C72.3454 27.0532 72.0261 26.8039 71.6633 26.7892C71.3004 26.7453 70.9231 26.8039 70.5893 26.9505C70.2409 27.1412 69.9652 27.4491 69.8055 27.8157L69.762 27.845H68.8186C68.8041 27.845 68.775 27.845 68.775 27.8157C68.8186 27.4931 68.9492 27.2292 69.1669 26.9945C69.4862 26.7306 69.8491 26.5106 70.2264 26.3933C70.27 26.3787 70.2845 26.3347 70.2845 26.3053C70.1974 26.188 70.0958 26.1001 69.9652 26.0414C69.8636 25.9827 69.7039 25.9534 69.5588 25.9534ZM74.7112 28.4756H88.4557C88.4557 29.5607 88.4267 30.7044 88.3977 31.9215H74.7257L74.7112 28.4756ZM69.4136 32.3907H79.7765C79.8055 32.3907 79.8055 32.4054 79.8055 32.4201V40.485C79.8055 40.9103 79.7329 41.3062 79.5878 41.6875C79.1669 42.7726 78.3686 43.6524 77.3527 44.1803C76.5399 44.6642 75.5965 44.9428 74.6531 44.9574C73.3469 44.9428 72.1132 44.4589 71.1408 43.6084C70.0813 42.7872 69.4572 41.5408 69.4282 40.1918V32.4347C69.3991 32.4347 69.4136 32.3907 69.4136 32.3907ZM88.3832 32.4201L88.3251 35.4408H88.209H88.3396C88.3541 35.4408 88.3832 32.4201 88.3832 32.4201ZM76.4528 33.0799C76.3948 33.0946 76.3222 33.1386 76.3077 33.2119L75.9448 34.341L75.9594 34.429L76.0319 34.473C76.09 34.473 76.119 34.473 76.1335 34.4143L76.1916 34.2237H76.7141L76.7721 34.4143C76.7721 34.4583 76.8302 34.473 76.8592 34.473C76.8882 34.473 76.9318 34.4583 76.9463 34.429C76.9608 34.3997 76.9608 34.3557 76.9463 34.3263L76.5544 33.1972C76.5544 33.1386 76.4964 33.0946 76.4528 33.0799ZM73.2017 33.1093C73.1437 33.1093 73.1001 33.1533 73.1001 33.1972C73.1001 33.2412 73.1437 33.2852 73.2017 33.2852H73.3759V34.3703C73.3759 34.429 73.434 34.4583 73.4775 34.4583C73.521 34.4583 73.5646 34.4143 73.5646 34.3703V33.2852H73.7533C73.7968 33.2852 73.8404 33.2412 73.8404 33.1972C73.8404 33.1533 73.7968 33.1093 73.7533 33.1093H73.2017ZM74.0581 33.1093C74.0145 33.1093 73.971 33.1533 73.971 33.1972C73.971 33.2412 74.0145 33.2852 74.0581 33.2852H74.2467V34.3703C74.2467 34.429 74.3048 34.4583 74.3483 34.4583C74.3919 34.4583 74.4354 34.4143 74.4354 34.3703V33.2852H74.6241C74.6676 33.2852 74.7112 33.2412 74.7112 33.1972C74.7112 33.1533 74.6676 33.1093 74.6241 33.1093H74.0581ZM75.3062 33.1093C75.1611 33.0946 75.0305 33.1826 74.9724 33.2999C74.8853 33.4465 74.8418 33.6078 74.8418 33.7691C74.8418 33.9451 74.8853 34.0917 74.9579 34.253C75.016 34.385 75.1466 34.473 75.3062 34.473C75.3933 34.473 75.4659 34.4436 75.5385 34.4143C75.6546 34.3263 75.7271 34.1944 75.7562 34.0477C75.7707 33.9744 75.7852 33.8864 75.7852 33.8131C75.7852 33.7545 75.7562 33.6811 75.6546 33.6811H75.3643C75.2917 33.6811 75.2772 33.7105 75.2772 33.7398C75.2772 33.7984 75.3062 33.8278 75.3498 33.8278H75.5675V33.8864C75.582 34.0624 75.4659 34.2237 75.3062 34.2677C75.2046 34.2677 75.103 34.1944 75.074 34.0917C75.016 33.9891 75.0015 33.8718 75.0015 33.7545C75.0015 33.6225 75.045 33.5052 75.0885 33.4025C75.1176 33.3145 75.2046 33.2559 75.2917 33.2412C75.3788 33.2412 75.4514 33.2999 75.4949 33.3732C75.5094 33.4172 75.553 33.4319 75.5965 33.4172C75.6401 33.4172 75.6546 33.3585 75.6546 33.3292C75.6255 33.1826 75.4659 33.0946 75.3062 33.1093ZM78.3251 33.1093C78.2671 33.1093 78.2235 33.1533 78.2235 33.1972C78.2235 33.2412 78.2671 33.2852 78.3251 33.2852H78.5138V34.3703C78.5138 34.429 78.5573 34.4583 78.6009 34.4583C78.6444 34.4583 78.688 34.4143 78.688 34.3703V33.2852H78.8766C78.9347 33.2852 78.9637 33.2412 78.9637 33.1972C78.9637 33.1533 78.9202 33.1093 78.8766 33.1093H78.3251ZM70.6473 33.1093C70.5457 33.0946 70.4296 33.1239 70.3425 33.1826C70.2554 33.2412 70.1974 33.3439 70.1974 33.4465C70.1829 33.5492 70.2264 33.6665 70.299 33.7545C70.357 33.8278 70.4586 33.8718 70.5602 33.8718C70.6909 33.8718 70.7925 33.9158 70.865 34.0184C70.8941 34.0771 70.865 34.1504 70.8215 34.209C70.7634 34.2677 70.6763 34.297 70.5893 34.2823C70.5022 34.2823 70.4151 34.2384 70.357 34.1797C70.328 34.1357 70.27 34.121 70.2264 34.1357C70.1684 34.165 70.1684 34.2384 70.1684 34.2677C70.2554 34.3997 70.4006 34.4876 70.5747 34.473C70.7199 34.4876 70.865 34.4436 70.9666 34.341C71.0392 34.2677 71.0682 34.165 71.0682 34.0624C71.0827 33.9597 71.0247 33.8424 70.9376 33.7838C70.807 33.7105 70.6618 33.6665 70.5167 33.6518C70.4296 33.6371 70.3716 33.5492 70.3861 33.4612C70.4151 33.3439 70.5167 33.2852 70.6038 33.2999C70.6909 33.2999 70.7925 33.3292 70.8505 33.4025C70.9086 33.4612 70.9956 33.4025 70.9956 33.3439C70.9956 33.2852 70.9086 33.1093 70.6473 33.1093ZM71.2569 33.1093C71.2134 33.1093 71.1698 33.1533 71.1698 33.1972V33.2119C71.1698 33.2559 71.2134 33.2999 71.2569 33.2999H71.4456V34.3703C71.4456 34.429 71.4891 34.473 71.5327 34.473C71.5907 34.473 71.6343 34.4143 71.6343 34.3703V33.2999H71.8229C71.8665 33.2999 71.91 33.2559 71.91 33.2119C71.91 33.1679 71.881 33.1093 71.8374 33.1093H71.8229H71.2569ZM77.2801 33.1093L77.2075 33.1533C77.193 33.1679 77.1785 33.1972 77.1785 33.2119V34.3557C77.1785 34.4143 77.2075 34.4436 77.2511 34.4583H77.2656C77.3237 34.4583 77.3672 34.4143 77.3672 34.3703V34.0037H77.5559L77.8462 34.3997C77.8752 34.4436 77.9042 34.4583 77.9332 34.4583C77.9913 34.4583 78.0203 34.4143 78.0203 34.385C78.0203 34.3557 78.0058 34.3117 77.9768 34.297L77.7446 33.9744H77.7736C77.8462 33.9451 77.9042 33.9011 77.9623 33.8424C78.0493 33.7691 78.0929 33.6518 78.0784 33.5345C78.0784 33.4025 78.0058 33.2852 77.9042 33.2119C77.8026 33.1532 77.701 33.1239 77.5849 33.1239C77.5704 33.1093 77.2801 33.1093 77.2801 33.1093ZM72.1568 33.1093C72.1132 33.1093 72.0697 33.1533 72.0697 33.1972V33.2119V33.9011C72.0697 34.0331 72.0987 34.1944 72.1568 34.3117C72.2438 34.429 72.3745 34.4876 72.5196 34.473C72.6502 34.5023 72.7808 34.429 72.8679 34.3117C72.926 34.1797 72.9695 34.0477 72.955 33.9011V33.2119C72.955 33.1679 72.9115 33.1239 72.8679 33.1239H72.8534C72.8099 33.1239 72.7663 33.1679 72.7663 33.2119V33.9451C72.7663 34.0331 72.7518 34.121 72.7083 34.1944C72.6647 34.253 72.5922 34.2823 72.5196 34.2677C72.447 34.2823 72.3745 34.253 72.3309 34.1944C72.2874 34.121 72.2583 34.0331 72.2729 33.9451V33.2119C72.2583 33.1532 72.2148 33.1093 72.1568 33.1093ZM77.3527 33.2999H77.5994C77.672 33.2999 77.7446 33.3145 77.7881 33.3585C77.8462 33.4172 77.8607 33.4612 77.8607 33.5345C77.8607 33.6958 77.73 33.8131 77.5704 33.8131H77.3672L77.3527 33.2999ZM76.4383 33.3145L76.6705 34.0477H76.2351L76.4383 33.3145ZM74.6241 34.9129C74.4935 34.9569 74.3628 34.9862 74.2612 35.0595C74.1742 35.1328 74.1016 35.2208 74.0435 35.3235C74.029 35.3381 74.0145 35.3528 73.9855 35.3675L73.9129 35.3821L73.6372 35.5141C73.5501 35.5581 73.463 35.6167 73.3759 35.6461C73.3033 35.6754 73.2453 35.6901 73.1727 35.7047C73.0131 35.6754 72.8389 35.6901 72.7808 35.866C72.7808 35.91 72.7954 35.9393 72.8389 35.954C72.8679 35.9687 72.8824 35.9833 72.9115 35.998L72.9985 36.042C73.0276 36.042 73.0421 36.042 73.0566 36.0713L73.0711 36.1006V36.1153C73.0711 36.1446 73.0276 36.174 73.0131 36.174C72.926 36.1886 72.8534 36.174 72.7808 36.13H72.7663C72.7373 36.1006 72.6938 36.1006 72.6647 36.13C72.5051 36.2619 72.3454 36.3939 72.1713 36.4966L72.1132 36.5552L72.0987 36.5845V36.6285C72.0987 36.6725 72.0552 36.6872 72.0261 36.6872C71.9971 36.7018 71.9681 36.7312 71.9681 36.7605V36.8338C71.9826 36.8925 72.0261 36.9218 72.0987 36.9218H72.1277L72.2583 36.8631H72.3164L72.3309 36.8778V36.9365C72.3164 36.9658 72.3019 36.9951 72.2729 37.0098C72.2438 37.0538 72.2293 37.0831 72.2729 37.1124C72.3309 37.1711 72.418 37.1564 72.4615 37.0978C72.4906 37.0684 72.5051 37.0244 72.5196 36.9951C72.5341 36.9511 72.5631 36.9218 72.6067 36.9218C72.6792 36.8925 72.7663 36.8778 72.8389 36.8631C72.897 36.8631 72.955 36.8631 72.9985 36.9071L73.0421 36.9511V36.9804C73.0276 37.0391 73.0131 37.0831 72.984 37.1417L72.9405 37.2737L72.897 37.391L72.8389 37.4497L72.6067 37.6403C72.4761 37.7576 72.389 37.8749 72.2874 38.0362C72.2583 38.0802 72.2438 38.1242 72.2293 38.1682C72.2003 38.3002 72.1713 38.4615 72.0406 38.3588C71.91 38.3002 71.7794 38.1975 71.6488 38.0949C71.6052 38.0656 71.5472 38.0216 71.5181 37.9629C71.3875 37.7723 71.2279 37.9629 71.1553 38.0949C71.0102 38.3442 70.836 38.5788 70.6473 38.7987C70.6328 38.8574 70.6038 38.9014 70.5747 38.9454C70.5312 39.004 70.5022 39.0773 70.5167 39.1507C70.5167 39.2826 70.4732 39.3999 70.4151 39.5026C70.357 39.5612 70.328 39.6346 70.328 39.7079V39.9132C70.328 39.9718 70.357 40.0012 70.4006 40.0012H70.4441C70.5457 39.9572 70.6473 39.8985 70.7489 39.8105L70.7925 39.7812C70.8215 39.7519 70.8215 39.7079 70.807 39.6785L70.7925 39.6492L70.7634 39.6199C70.7489 39.6052 70.7199 39.5906 70.7054 39.5612V39.4733L70.7344 39.3853C70.7344 39.356 70.7489 39.312 70.7779 39.2973L70.9376 39.1653C70.9956 39.1067 71.0247 39.004 70.9956 38.9307V38.8281C70.9956 38.7841 71.0102 38.7694 71.0392 38.7254L71.1408 38.5934C71.1843 38.5201 71.2569 38.4615 71.3295 38.4321C71.4456 38.4321 71.5472 38.4615 71.6343 38.5348C71.7068 38.6374 71.7649 38.7694 71.8084 38.9014C71.8374 39.0187 71.881 39.1213 71.939 39.224C71.9971 39.2826 72.0697 39.3266 72.1422 39.2826L72.1858 39.2533L72.2148 39.2386C72.2438 39.2386 72.2729 39.2386 72.2874 39.2826L72.418 39.4146C72.4761 39.4586 72.4325 39.4879 72.3745 39.4879H72.1713C71.9536 39.5612 71.7068 39.6052 71.4746 39.6052H71.4311C71.3875 39.6052 71.373 39.6346 71.373 39.6639L71.3585 39.6932L71.3295 39.7519C71.3149 39.8105 71.3149 39.8692 71.3295 39.9278C71.4165 40.2504 71.4601 40.5877 71.3875 40.925C71.3585 41.0569 71.3875 41.1889 71.4746 41.2769L71.5762 41.3355L71.6343 41.3649C71.6633 41.4089 71.6778 41.4382 71.6778 41.4968C71.6778 41.5555 71.7213 41.6288 71.7504 41.6728C71.8084 41.7461 71.881 41.8048 71.9681 41.8634H71.9971C72.0552 41.8928 72.0987 41.8634 72.1277 41.8194C72.1713 41.7168 72.2003 41.5995 72.1858 41.4822C72.1858 41.4235 72.1422 41.3795 72.0842 41.3649L72.0261 41.3795L71.9826 41.3942H71.9245C71.8955 41.3795 71.881 41.3502 71.8665 41.3209C71.8374 41.2476 71.8374 41.1742 71.852 41.1009V41.0569L71.8665 40.9543C71.8665 40.925 71.8665 40.8956 71.8374 40.8663C71.8084 40.8076 71.8084 40.793 71.7649 40.7783C71.7358 40.7783 71.7213 40.7637 71.7068 40.7343C71.6778 40.705 71.6778 40.6903 71.6923 40.6757C71.7213 40.5144 71.7213 40.3531 71.7068 40.1918C71.7068 40.1331 71.7068 40.0891 71.7359 40.0598C71.852 39.9572 72.0406 40.0305 72.1422 40.0745C72.3019 40.1331 72.447 40.1624 72.5922 40.1918C72.8534 40.2211 73.1147 40.1478 73.3179 40.0012C73.3324 39.9865 73.3324 39.9718 73.3614 39.9865L73.5791 40.1478C73.7678 40.2798 73.971 40.3677 74.1742 40.4411C74.4644 40.4704 74.7402 40.4704 75.045 40.4264C75.103 40.4264 75.1901 40.4411 75.2482 40.4704L75.2772 40.5144C75.2772 40.6317 75.2192 40.7197 75.2192 40.837C75.2192 40.8956 75.2482 40.9543 75.2772 41.0129L75.3353 41.1742L75.3788 41.2329C75.5385 41.4382 75.553 41.7461 75.3788 41.9514C75.2772 42.0541 75.1611 42.1567 75.0305 42.2447C74.9144 42.3327 74.7692 42.3913 74.6241 42.406C74.5225 42.406 74.4354 42.45 74.3628 42.5233C74.2758 42.6113 74.1887 42.6846 74.0871 42.7286C74.0435 42.7432 74 42.7872 74 42.8312C73.9419 42.9485 73.9129 43.0658 73.8839 43.1978C73.8694 43.2565 73.9274 43.2858 73.9855 43.2858C74.0871 43.2711 74.1887 43.2271 74.3048 43.1978C74.3628 43.1978 74.3919 43.1245 74.3774 43.0658L74.3628 43.0512L74.3193 42.9632V42.8899C74.3483 42.8752 74.3628 42.8459 74.3919 42.8312C74.4209 42.8019 74.4644 42.8019 74.4935 42.8019H74.5515C74.6967 42.8606 74.8708 42.8019 74.9289 42.6553C74.9579 42.6113 74.9869 42.5673 75.016 42.538C75.2917 42.362 75.582 42.2154 75.9013 42.098C75.9303 42.098 75.9594 42.0687 75.9594 42.0394V41.5848C75.9594 41.5115 75.9884 41.3795 76.09 41.3795C76.1335 41.3795 76.1626 41.4089 76.1771 41.4382C76.2787 41.5702 76.4093 41.6581 76.5689 41.7168L76.6996 41.7754C76.8157 41.8341 76.8882 41.9367 76.9028 42.0687C76.9173 42.142 76.9028 42.2007 76.8592 42.2593L76.5544 42.6993C76.5109 42.7726 76.4528 42.8459 76.3657 42.8899C76.1626 43.0219 75.9884 43.1832 75.8142 43.3591L75.6691 43.8137C75.6401 43.9017 75.6981 43.931 75.7707 43.9017C75.9013 43.8723 76.0029 43.8284 76.1045 43.7697L76.1626 43.7257C76.1771 43.711 76.1771 43.6817 76.1771 43.6671C76.1771 43.6231 76.148 43.5791 76.119 43.5497C76.09 43.5058 76.09 43.4471 76.119 43.4031C76.1335 43.3738 76.1626 43.3591 76.1771 43.3444L76.4383 43.2711C76.5399 43.2565 76.6415 43.2125 76.7286 43.1392C76.7431 43.1098 76.7576 43.0952 76.7721 43.0658V43.0365C76.8737 42.6993 77.1059 42.3767 77.4253 42.2154C77.4688 42.2007 77.4833 42.1567 77.4833 42.1127L77.4688 41.9807L77.2366 41.6141C77.164 41.5115 77.1205 41.4089 77.106 41.2915C77.106 41.1596 77.135 41.0423 77.193 40.9396L77.2511 40.8516C77.2946 40.7637 77.3817 40.7197 77.4398 40.6317C77.4978 40.5584 77.5704 40.4704 77.6139 40.3677L77.7446 40.0158C77.7736 39.9132 77.73 39.8105 77.73 39.7079C77.73 39.6639 77.7591 39.6492 77.7736 39.6052C77.8171 39.5466 77.8752 39.5026 77.9478 39.4733C78.0203 39.4586 78.0929 39.4586 78.1509 39.4879L78.4848 39.6199C78.5428 39.6199 78.6154 39.6199 78.6734 39.5906C78.7315 39.5759 78.8041 39.5319 78.8621 39.4879V39.4293H78.7025C78.6444 39.4146 78.6009 39.3853 78.5718 39.3413C78.5428 39.2973 78.5138 39.2533 78.5138 39.2093L78.5573 39.136C78.6444 39.0773 78.717 39.004 78.7605 38.9307C78.8041 38.8427 78.8186 38.7547 78.8186 38.6668H78.775C78.717 38.7254 78.7025 38.7987 78.6299 38.8427C78.5718 38.8867 78.4993 38.9014 78.4412 38.9014C78.3977 38.9014 78.3541 38.8867 78.3106 38.8427C78.2816 38.7987 78.2671 38.7547 78.2525 38.7108C78.238 38.6521 78.3106 38.6374 78.3396 38.6228C78.4267 38.6228 78.5138 38.5934 78.6009 38.5641C78.6589 38.5348 78.688 38.4908 78.717 38.4321C78.7315 38.3882 78.746 38.3442 78.746 38.3002C78.746 38.2708 78.746 38.2562 78.7315 38.2708C78.6734 38.2708 78.6444 38.3148 78.6009 38.3295C78.5283 38.3588 78.4412 38.3442 78.3686 38.3148C78.2961 38.2562 78.238 38.1829 78.1945 38.1095V37.9482C78.2816 37.9482 78.3541 37.8603 78.3977 37.7576L78.4267 37.699L78.4848 37.6256C78.4993 37.567 78.4993 37.5083 78.4993 37.4497C78.4993 37.4057 78.4702 37.347 78.4412 37.3177H78.3832C78.3541 37.3764 78.3832 37.4497 78.3251 37.5083C78.2816 37.567 78.238 37.6256 78.18 37.6696C78.1364 37.699 78.1074 37.7283 78.0784 37.7283C78.0058 37.699 77.9623 37.6403 77.9478 37.567C77.9478 37.5083 77.9768 37.4204 78.0058 37.3617L78.2525 36.9658L78.4557 36.7312C78.4993 36.6725 78.5138 36.5405 78.4702 36.5112C78.4122 36.4966 78.3832 36.6285 78.3396 36.6579C78.1364 36.7312 77.9477 36.8338 77.7736 36.9658C77.6865 37.0684 77.643 37.1857 77.5994 37.3177C77.5704 37.391 77.5849 37.4937 77.5559 37.567C77.5559 37.5963 77.4978 37.6256 77.4688 37.611C77.4107 37.5523 77.3672 37.4643 77.3382 37.391C77.3237 37.3324 77.3237 37.2737 77.3382 37.2004C77.3527 37.1711 77.3382 37.1564 77.3237 37.1711C77.2366 37.2151 77.193 37.2884 77.1495 37.3617C77.1205 37.479 77.1205 37.5963 77.1785 37.699C77.2656 37.8749 77.3672 38.0216 77.4978 38.1682C77.5849 38.3002 77.6865 38.4615 77.7591 38.5934C77.8316 38.6961 77.8607 38.8427 77.8462 38.9894C77.8026 39.1213 77.7446 39.2533 77.643 39.3413C77.643 39.3413 77.5994 39.3706 77.5849 39.356C77.4833 39.2533 77.3672 39.1653 77.2511 39.0773C77.106 38.9894 76.9608 38.916 76.8012 38.8867C76.598 38.8574 76.3803 38.8574 76.1771 38.8867C75.9594 38.8867 75.7417 38.9307 75.5239 38.916C75.3498 38.9307 75.1756 38.916 75.0015 38.8574C74.8853 38.7987 74.7837 38.7108 74.7112 38.5934C74.6531 38.4761 74.6241 38.3295 74.6531 38.1975C74.6531 38.0802 74.6967 37.9776 74.7402 37.8749C74.7837 37.7869 74.8563 37.7136 74.9289 37.6696C75.0305 37.611 75.1466 37.5963 75.2482 37.6256L75.3788 37.7136C75.4223 37.7576 75.4659 37.8016 75.5094 37.8456L75.553 37.8309C75.5675 37.6843 75.5385 37.5377 75.4949 37.391C75.4514 37.2884 75.3788 37.1857 75.3062 37.0831C75.3062 37.0538 75.3643 37.0684 75.3788 37.0538C75.4949 37.0538 75.611 37.0831 75.6981 37.1564C75.7562 37.2004 75.8287 37.2444 75.8723 37.3324L75.8868 37.3177C75.9013 37.1417 75.8287 36.9658 75.7126 36.8338C75.6691 36.7605 75.5965 36.6872 75.5239 36.6432C75.4659 36.6285 75.553 36.5845 75.5965 36.5845C75.6836 36.5699 75.7852 36.5845 75.8578 36.6285L75.9448 36.6872L76.0029 36.7458C76.0174 36.7458 76.0464 36.7165 76.0319 36.7018C76.0174 36.6432 76.0029 36.5992 75.9739 36.5552C75.8433 36.4232 75.6981 36.2913 75.5385 36.174L75.4804 36.13C75.4369 36.0713 75.3933 35.998 75.3788 35.9393L75.3208 35.8514V35.7487C75.3788 35.6607 75.4078 35.6461 75.5094 35.6021C75.582 35.5727 75.6546 35.5581 75.7271 35.5434L75.7997 35.5727C75.7997 35.5727 75.8142 35.5288 75.7852 35.5141C75.6981 35.4554 75.582 35.4261 75.4659 35.4261C75.3208 35.3968 75.1756 35.4114 75.0305 35.4554C74.9289 35.5141 74.8128 35.5434 74.7112 35.5434C74.6386 35.5434 74.5515 35.5434 74.4935 35.4994C74.4499 35.4701 74.4064 35.4261 74.4064 35.3675C74.4064 35.2941 74.4209 35.1915 74.4644 35.1182C74.4935 35.0595 74.5515 35.0155 74.6096 34.9862C74.6676 34.9862 74.6821 34.9569 74.6676 34.9275C74.6967 34.8836 74.6531 34.8982 74.6241 34.9129ZM74.0581 35.778C74.1306 35.778 74.1887 35.8074 74.2467 35.8514C74.4209 35.998 74.508 36.2033 74.537 36.4232C74.5806 36.7165 74.5951 37.0244 74.537 37.3177C74.537 37.4204 74.4935 37.5083 74.4064 37.5523C74.3628 37.567 74.3193 37.5817 74.2758 37.5817C74.2322 37.5817 74.2177 37.5083 74.2177 37.391V36.5845C74.1887 36.4086 74.1451 36.2326 74.0581 36.0566C74.0581 36.0127 74.029 35.998 74 35.9687L73.9419 35.8953C73.9129 35.866 73.8694 35.8514 73.8404 35.822L73.8549 35.778C73.9274 35.7634 74 35.7487 74.0581 35.778ZM80.2845 35.9247H88.3251L88.2525 39.4733H80.2845V35.9247ZM80.299 39.9425H88.2525C88.18 41.4968 87.8897 43.0365 87.3817 44.5029C86.7721 46.2332 85.9594 47.8608 84.9579 49.4005C83.5065 51.6001 81.6197 53.477 79.4136 54.9287C78.4412 55.5299 77.4253 56.0431 76.3657 56.5124C76.0319 56.659 75.7126 56.8056 75.4514 56.8936C75.1466 56.9816 74.8853 57.0842 74.7112 57.1282V45.5C74.8853 45.5 75.0305 45.5 75.2046 45.4707L75.2627 45.632C75.3353 45.7639 75.4514 45.8519 75.5965 45.8959C75.7852 45.9252 75.9594 45.8519 76.0755 45.72C76.2496 45.8519 76.4673 45.9106 76.6705 45.8226C76.8302 45.7786 76.9463 45.632 76.9463 45.4707C76.9608 45.3534 76.9463 45.2507 76.8882 45.1481L76.8302 45.0601C77.2511 44.8695 77.6284 44.6642 77.9913 44.4002H78.0348C78.6009 44.2536 80.9376 43.4031 82.3745 43.3884C83.2598 43.3738 84.1306 43.5791 84.8999 44.0043C85.3208 44.2536 85.6981 44.5615 86.0174 44.9428L86.0755 44.8988C86.1626 44.6348 86.2206 44.3709 86.2061 44.0776C86.1626 43.6377 85.7271 43.3151 85.5965 43.1832C85.5965 43.1832 85.5965 43.1538 85.6401 43.1245C85.6836 43.0805 85.7417 43.0365 85.7997 42.9925C86.061 42.8019 86.3657 42.6699 86.6851 42.6699C86.7286 42.6699 86.7141 42.6113 86.6996 42.538C86.6125 42.1567 86.0464 41.9074 85.4804 41.9807C85.0885 42.0541 84.7547 42.3033 84.537 42.6406C84.5225 42.6699 84.4644 42.6993 84.4499 42.6699C84.2612 42.5966 84.0726 42.538 83.8839 42.494C83.8258 42.4793 83.8549 42.4206 83.8549 42.4206C83.971 42.2154 84.1161 42.0247 84.3193 41.8928C84.537 41.7168 84.8128 41.5848 85.103 41.5408C85.1321 41.5408 85.1321 41.4968 85.103 41.4822C85.0014 41.2476 84.7837 41.0716 84.537 41.0129C84.1306 40.881 83.6662 40.9543 83.3324 41.2182C83.0131 41.4968 82.7663 41.8781 82.6357 42.274C82.6212 42.318 82.6067 42.3327 82.5776 42.3327C82.418 42.2887 82.0406 42.318 82.0116 42.2887C81.9826 42.2887 81.9826 42.23 81.9971 42.2154C82.0552 41.9954 82.1858 41.7901 82.3309 41.6288C82.4906 41.4382 82.6792 41.2769 82.897 41.1889L82.926 41.1596C82.955 41.1156 82.955 41.0569 82.9115 41.0276C82.2583 40.705 81.4746 40.881 81.0102 41.4528C80.7925 41.7754 80.6328 42.1567 80.5457 42.538C80.5457 42.5526 80.5167 42.5966 80.4877 42.5966L79.7039 42.7872L79.5733 42.8166L79.5443 42.7872C80.0087 42.0101 80.27 41.1302 80.299 40.2064C80.299 40.2211 80.299 39.9425 80.299 39.9425ZM69.5298 41.2182C69.5733 41.3942 69.6604 41.5555 69.7184 41.7315L69.5298 41.2182ZM70.4151 43.0805C71.4456 44.3856 72.984 45.1481 74.6241 45.1774C75.8868 45.1627 77.1059 44.6935 78.0639 43.8577C77.1059 44.6788 75.8868 45.1334 74.6241 45.1481C72.9985 45.1334 71.4456 44.3709 70.4151 43.0805ZM61.5762 43.9017H70.6909L70.8795 44.063C71.8229 44.8841 73.0131 45.3827 74.2467 45.4853V47.3769H63.0276C62.4325 46.2478 61.9536 45.0894 61.5762 43.9017ZM80.5893 44.6495C80.357 44.6788 80.1393 44.7522 79.9361 44.8841C79.6749 45.0454 79.4572 45.2654 79.3266 45.544C79.1669 45.9399 79.0943 46.3358 79.0653 46.7464L79.0073 46.8051L78.4848 46.937C78.4848 46.937 78.4557 46.937 78.4412 46.9077C78.3832 46.5118 78.4702 46.1159 78.6734 45.7786C78.7605 45.6173 78.8766 45.4707 79.0073 45.3534C79.0363 45.3387 79.0508 45.2947 79.0363 45.28L78.9782 45.2507C78.6444 45.1921 78.2816 45.2507 77.9768 45.4413C77.5849 45.6466 77.3237 46.0426 77.2801 46.4971C77.2366 46.8051 77.2656 47.113 77.3382 47.4209C77.3382 47.4356 77.3382 47.4649 77.3091 47.4796L76.7431 47.7582H76.7141C76.656 47.5236 76.5109 47.3183 76.2932 47.1863C76.061 47.0837 75.8142 47.0983 75.5965 47.2156C75.4514 47.3036 75.3353 47.4209 75.2772 47.5676C75.1611 47.8315 75.2482 48.1248 75.4659 48.2714C75.4659 48.2861 75.4949 48.3154 75.4659 48.3301C75.3208 48.3887 75.3208 48.4181 75.2046 48.5794C75.103 48.814 75.1321 49.0926 75.2917 49.2832C75.5094 49.6205 75.9594 49.7085 76.2787 49.4885C76.3077 49.4738 76.3367 49.4445 76.3657 49.4152C76.3657 49.4152 76.3948 49.4152 76.4093 49.4445C76.4673 49.5325 76.5399 49.6205 76.627 49.6791C76.8447 49.8111 77.1205 49.8111 77.3237 49.6791C77.5559 49.5472 77.6865 49.2832 77.643 49.0193C77.643 48.8726 77.5849 48.726 77.4688 48.6233C77.4543 48.594 77.4688 48.5794 77.5269 48.55C78.4702 48.0075 79.5007 47.6409 80.5893 47.4943C81.1408 47.4209 81.7068 47.4356 82.2583 47.5382C82.6067 47.6116 82.955 47.7875 83.2308 48.0221C83.463 48.2128 83.6662 48.4181 83.8694 48.6527C83.9274 48.6527 84 48.6527 84.0581 48.6087C84.1742 48.3447 84.1887 48.0515 84.0726 47.7875C83.9419 47.4356 83.7388 47.1277 83.4775 46.8637V46.8344C83.4775 46.7757 83.5065 46.7611 83.5501 46.7024C83.7968 46.4825 84.1016 46.3065 84.4209 46.2478C84.4644 46.2478 84.479 46.2039 84.4644 46.1745C84.2322 45.7053 83.6807 45.5 83.2017 45.6906C82.897 45.8226 82.6357 46.0572 82.5051 46.3505C82.4906 46.3798 82.4615 46.4238 82.447 46.4091L81.9245 46.3505C81.8665 46.3505 81.881 46.2918 81.8955 46.2918C81.9536 46.1012 82.0552 45.9252 82.2003 45.7933C82.389 45.5733 82.6357 45.3974 82.897 45.2947C82.926 45.2947 82.926 45.2654 82.926 45.2507C82.7518 45.0308 82.4761 44.8988 82.2003 44.8841C81.852 44.8695 81.5036 45.0014 81.2569 45.2507C80.9521 45.5733 80.7779 45.9839 80.7344 46.4238C80.7054 46.4531 80.6909 46.4825 80.6763 46.4825C80.5457 46.5118 80.3861 46.5118 80.2409 46.5265C80.2119 46.5265 80.2119 46.4825 80.2119 46.4678C80.2119 46.2478 80.27 46.0279 80.3716 45.8373C80.5602 45.456 80.865 45.1334 81.2279 44.9135C81.2859 44.8695 81.2859 44.7815 81.2714 44.7815C81.0682 44.6642 80.8215 44.6202 80.5893 44.6495ZM78.8766 49.6351C78.7315 49.6351 78.5864 49.6791 78.4702 49.7671C78.1219 49.9431 77.8607 50.251 77.73 50.6323C77.672 50.9255 77.672 51.2335 77.7591 51.5267V51.5707L77.4253 51.732H77.3817C77.1785 51.3508 77.2221 50.8962 77.5123 50.5736C77.5414 50.5443 77.5559 50.515 77.4978 50.5003C77.193 50.4563 76.8882 50.5736 76.685 50.8082C76.4383 51.1015 76.3657 51.4974 76.4964 51.864C76.5254 51.996 76.5689 52.1279 76.656 52.2599C76.656 52.2599 76.7141 52.3039 76.6705 52.3186L76.4528 52.5092H76.4093C76.3222 52.3186 76.148 52.1866 75.9594 52.128C75.7852 52.084 75.611 52.1426 75.4804 52.2599C75.2627 52.4799 75.2482 52.8318 75.4659 53.0664L75.4804 53.0811C75.5385 53.1397 75.611 53.1837 75.6981 53.2131C75.7126 53.2131 75.7271 53.2424 75.7126 53.257C75.582 53.345 75.4804 53.4477 75.4078 53.5796C75.3208 53.7996 75.3643 54.0489 75.5385 54.2248C75.6691 54.3275 75.8287 54.3861 75.9884 54.3568C76.2351 54.2835 76.4238 54.0929 76.5544 53.8729C76.5544 53.8729 76.5835 53.8436 76.598 53.8729C76.6996 54.0049 76.8447 54.1075 77.0189 54.1809C77.193 54.2542 77.3817 54.2102 77.5123 54.0782C77.701 53.9462 77.7736 53.6823 77.6865 53.4477C77.6139 53.3157 77.5123 53.1984 77.3817 53.1251C77.3527 53.0957 77.3817 53.0664 77.4107 53.0371C78.0348 52.5239 78.7895 52.1866 79.6023 52.0693C80.1393 51.996 80.6909 52.084 81.1843 52.3332C81.373 52.4359 81.5472 52.5825 81.7068 52.7438C81.7213 52.7438 81.7794 52.7731 81.7939 52.7438C82.0406 52.5385 82.0552 52.1573 81.852 51.908C81.7649 51.8054 81.6633 51.7174 81.5327 51.644L81.5181 51.6147C81.6778 51.2041 82.0116 50.8815 82.447 50.7789C82.4906 50.7789 82.4761 50.7496 82.447 50.7056C82.2729 50.2657 81.4891 50.251 81.1263 50.4856C80.894 50.6469 80.7054 50.8522 80.5747 51.1015C80.5747 51.1308 80.5602 51.1602 80.5312 51.1602L80.2119 51.0575V51.0135C80.4296 50.5736 80.8215 50.251 81.2859 50.1337C81.3149 50.119 81.3004 50.0897 81.2859 50.075C81.1263 49.6498 80.27 49.6791 79.8491 49.9577C79.4572 50.2217 79.1669 50.6176 79.0653 51.0868V51.1455C78.9347 51.1895 78.8331 51.2188 78.7025 51.2335C78.688 51.2335 78.6734 51.2188 78.6734 51.1895C78.6444 50.9842 78.6734 50.7642 78.775 50.5883C78.9057 50.3537 79.0943 50.1337 79.283 49.9284C79.312 49.8991 79.312 49.8551 79.283 49.8404C79.1524 49.6938 79.0218 49.6498 78.8766 49.6351ZM65.9739 51.688H74.2177V57.0696C74.0581 57.0109 73.8839 56.9376 73.6807 56.879C73.4049 56.791 73.1147 56.6297 72.7518 56.483C70.9956 55.7938 69.3701 54.8261 67.9332 53.5943C67.2366 53.0078 66.5835 52.3772 65.9739 51.688ZM96.6705 64.0495V70.9707H98.18V68.3752H107.338V70.9707H108.862V64.0495H107.353V66.8649H98.1945V64.0495H96.6705ZM40.1974 64.0495C39.3556 64.0495 38.6734 64.7386 38.6589 65.5891V69.4603C38.6589 70.3108 39.3556 70.9853 40.1974 70.9853H49.82C50.6618 70.9853 51.3295 70.2961 51.3295 69.4603V65.5891C51.3295 64.768 50.6763 64.0788 49.8491 64.0641L40.1974 64.0495ZM53.1582 64.0495V70.9707H54.6531V69.1377H63.0566C63.8839 69.1377 64.566 69.8416 64.566 70.6774V70.956H66.09V70.9413C66.09 69.9442 65.5239 69.0351 64.6241 68.5952C65.4369 68.5658 66.0755 67.8913 66.0755 67.0702V65.5745C66.0755 64.724 65.3933 64.0495 64.5515 64.0495H53.1582ZM24 64.0641V70.9853H25.5094V69.1524H35.3788C36.2206 69.1524 36.9028 68.4632 36.9028 67.6274V65.5891C36.9028 64.7386 36.2061 64.0641 35.3788 64.0641H24.029H24ZM84.0581 64.0641C83.2163 64.0641 82.5196 64.7533 82.5196 65.5891V69.4603C82.5196 70.2961 83.1872 71 84.0145 71H94.9434V69.475H84.2322C84.1306 69.475 84.0435 69.4017 84.0435 69.2844V65.7944C84.0435 65.6625 84.1597 65.5891 84.2903 65.5891H94.9434V64.0495L84.0581 64.0641ZM110.633 64.0641V70.9853H124V69.6949H112.157V68.1846H124V66.8795H112.157V65.3692H124V64.0641H110.633ZM69.312 64.0641C68.4848 64.0934 67.8171 64.768 67.8171 65.6185V66.6449C67.8171 67.4954 68.5138 68.1846 69.3556 68.1846H78.9637C79.0943 68.1846 79.2104 68.2872 79.225 68.4192V69.475C79.225 69.607 79.1089 69.6949 78.9637 69.6949H68.0348V71H79.225C80.0522 71 80.7344 70.2961 80.7344 69.4603V68.4192C80.7344 67.5834 80.0377 66.8795 79.2105 66.8795H69.5878C69.4572 66.8942 69.3411 66.7915 69.3411 66.6596V65.6038C69.3411 65.4718 69.4572 65.3692 69.5878 65.3692H80.4877V64.0788L69.312 64.0641ZM54.6676 65.5745H64.3048C64.4499 65.5891 64.566 65.7064 64.566 65.8384V67.3634C64.566 67.4954 64.4644 67.6127 64.3338 67.6274H54.6676V65.5745ZM25.5094 65.5745L35.1321 65.5891C35.2627 65.5891 35.3933 65.7211 35.3933 65.8531V67.3634C35.3933 67.4954 35.2917 67.6127 35.1611 67.6274H25.5385V65.5745H25.5094ZM40.4441 65.5891H49.5878C49.7184 65.5891 49.8491 65.7064 49.8491 65.8531V69.211C49.8491 69.3577 49.7475 69.4603 49.6023 69.475H40.3861C40.2845 69.475 40.1974 69.387 40.1974 69.2844V65.7944C40.2119 65.6625 40.328 65.5745 40.4441 65.5891Z" fill="black"/>
</svg>
