<svg width="147" height="92" viewBox="0 0 147 92" fill="none" xmlns="http://www.w3.org/2000/svg">
<path d="M75.6575 32.6482H70.2495V43.235C69.566 43.5545 68.8555 43.8168 68.1259 44.0191C67.7344 44.1307 67.3119 44.2211 66.8875 44.3026V33.1196C66.8875 33.1196 66.9936 31.5133 66.0397 30.9719V30.7708H74.7036C75.1613 31.3206 75.4878 31.9618 75.6594 32.6482M77.1794 47.1289C78.9329 46.3962 80.4249 45.1797 81.4695 43.6311C82.5141 42.0825 83.0651 40.2704 83.0539 38.4205C83.0539 35.9193 82.1694 34.3865 81.1442 33.5679C81.0769 33.5305 81.0154 33.4843 80.9613 33.4306C80.8968 33.1361 80.8143 32.8455 80.7143 32.5605C80.5145 31.9997 80.2657 31.4564 79.9708 30.9365C80.1537 30.9595 80.3247 30.995 80.5021 31.0251C81.9487 31.2759 83.2955 31.909 84.394 32.8546C85.4924 33.8002 86.2998 35.0215 86.7269 36.3836C87.1552 37.781 87.247 39.255 86.9952 40.6922C86.7434 42.1294 86.1548 43.4915 85.2745 44.6738C84.4141 45.7503 83.4021 46.7046 82.2682 47.509C82.0203 47.6862 81.8439 47.7792 81.5978 47.9369C83.1119 50.1435 84.3357 52.5245 85.2406 55.0249C86.0263 57.2089 86.6295 59.4506 87.0443 61.7283C87.2565 63.6102 87.8573 63.7661 88 63.8015V63.9991H81.1405V63.798C81.3527 63.6899 83.2267 62.9581 83.2267 60.1539C83.1413 57.7994 82.6514 55.4752 81.7771 53.2768C81.1914 51.7824 80.5065 50.3263 79.7266 48.9177V48.8841C79.2649 49.075 78.7925 49.2406 78.3117 49.3802C77.9768 48.6113 77.5988 47.8606 77.1794 47.1316M70.2477 46.9039V48.6253C71.458 48.5582 72.6629 48.417 73.8549 48.2027C74.1731 48.9239 74.4557 49.6053 74.6679 50.1386V50.213C74.1018 50.307 73.4296 50.3902 72.7226 50.4788C71.7687 50.5869 70.8129 50.6463 70.2468 50.6826V61.7974C70.2468 62.0375 70.3181 63.3497 71.2025 63.8069V64H65.9299V63.7989C66.7796 63.3656 66.8838 62.0269 66.8838 61.7894V47.4948C68.0144 47.3589 69.1361 47.1601 70.2431 46.8994M70.9858 28.9235L70.2431 28.9129H63.4202V45.2152C65.0556 45.1324 66.679 44.8969 68.2676 44.5117C73.7835 42.932 76.4368 39.201 76.4715 34.8101C76.4715 32.2557 75.5524 30.6902 74.5262 29.8556C73.8951 29.3965 73.1521 29.1035 72.3695 29.005C71.9128 28.9456 71.4521 28.9192 70.9913 28.9262M59.9576 58.6956V29.3984C59.9576 29.3984 60.0637 27.7629 59.1482 27.2056V27H70.8184C71.8383 26.9984 72.8563 27.0874 73.8594 27.2658C75.3352 27.516 76.7096 28.1602 77.8279 29.126C78.9462 30.0918 79.7641 31.3408 80.1894 32.7324C80.6536 34.1534 80.7642 35.6607 80.5123 37.1311C80.2604 38.6014 79.653 39.9932 78.7397 41.1927C77.8645 42.297 76.8281 43.2721 75.663 44.0873C75.448 44.2437 75.2242 44.3883 74.9926 44.5205C76.5424 46.7745 77.8017 49.2036 78.7425 51.7538C79.5283 53.9831 80.1314 56.2689 80.546 58.5901C80.7939 60.511 81.3939 60.705 81.5018 60.7457V60.9575H74.5344V60.7475C74.7466 60.6359 76.6206 59.8482 76.6572 56.9812C76.5752 54.5785 76.073 52.2067 75.1719 49.9667C74.588 48.4367 73.8905 46.9497 73.0848 45.5173L73.05 45.4827C71.7139 46.007 70.3294 46.4072 68.9151 46.6779C68.0005 46.8454 67.0768 46.9818 65.9436 47.1059C64.9549 47.214 63.9983 47.2831 63.4321 47.3141V58.6929C63.4321 58.9436 63.4678 60.2771 64.386 60.7466V60.9522H59V60.7466C59.8844 60.3036 59.9548 58.9436 59.9548 58.6929" fill="black"/>
</svg>
