<svg width="155" height="62" viewBox="0 0 155 62" fill="none" xmlns="http://www.w3.org/2000/svg">
<path d="M153.358 37.6732H152.142C149.491 37.6732 148.441 36.7894 148.441 33.696V24.1948C148.441 22.3167 147.557 21.1566 145.9 21.1566H142.862V37.3418H138.83V0.552399H146.121C149.546 0.552399 152.253 2.26481 152.253 7.18111V14.1965C152.253 16.9032 151.479 18.7261 149.159 19.4442C151.424 20.1623 152.363 22.2614 152.363 24.6367V33.5302C152.363 34.5245 152.584 34.9665 153.358 34.9665V37.6732ZM148.276 14.6384V6.90491C148.276 5.1925 147.557 4.30867 146.066 4.30867H142.862V17.6766H145.734C147.281 17.6766 148.276 16.5718 148.276 14.6384Z" fill="#BC1717"/>
<path d="M136.286 37.3418H132.199L131.204 29.3873H126.122L124.962 37.3418H121.206L126.785 0.552399H130.928L136.286 37.3418ZM130.707 25.6863L128.774 9.2802L126.62 25.6863H130.707Z" fill="#BC1717"/>
<path d="M119.401 30.4921C119.401 34.7455 116.97 37.8941 112.661 37.8941C108.353 37.8941 105.646 34.635 105.646 30.3264V7.56778C105.646 3.31436 108.353 0 112.661 0C116.97 0 119.401 3.14864 119.401 7.40206V13.4231H115.92V7.01539C115.92 5.19249 114.816 3.81151 112.827 3.81151C110.728 3.81151 109.623 5.19249 109.623 6.96015V30.934C109.623 32.7569 110.728 34.0826 112.827 34.0826C114.816 34.0826 115.92 32.7569 115.92 30.8788V24.4158H119.401V30.4921Z" fill="#BC1717"/>
<path d="M96.4136 29.8844C96.4136 35.7398 92.7678 37.8941 89.3982 37.8941C85.0895 37.8941 82.3828 34.9112 82.3828 30.6578V26.4596H86.2496V30.4921C86.2496 32.9226 87.4096 34.5245 89.343 34.5245C91.5525 34.5245 92.5468 33.0883 92.5468 30.7683C92.5468 27.233 91.2211 24.25 88.3487 20.549C85.7524 17.2347 82.7142 12.3184 82.7142 8.0097C82.7142 3.42484 84.9791 0 89.6744 0C93.6516 0 96.2479 2.98292 96.2479 7.29158V11.6555H92.4916V7.62302C92.4916 5.08201 91.5525 3.59056 89.5639 3.59056C87.6305 3.59056 86.581 4.80582 86.581 6.96015C86.581 10.8821 87.962 13.3679 91.2211 17.6766C94.425 21.8195 96.4136 25.6863 96.4136 29.8844Z" fill="#BC1717"/>
<path d="M80.9092 4.30867H76.1586V37.3418H72.2366V4.30867H67.3203V0.552399H80.9092V4.30867Z" fill="#BC1717"/>
<path d="M66.0211 37.6732H64.8058C62.1543 37.6732 61.1048 36.7894 61.1048 33.696V24.1948C61.1048 22.3167 60.221 21.1566 58.5638 21.1566H55.5256V37.3418H51.4932V0.552399H58.7847C62.2096 0.552399 64.9163 2.26481 64.9163 7.18111V14.1965C64.9163 16.9032 64.143 18.7261 61.8229 19.4442C64.0877 20.1623 65.0268 22.2614 65.0268 24.6367V33.5302C65.0268 34.5245 65.2477 34.9665 66.0211 34.9665V37.6732ZM60.9391 14.6384V6.90491C60.9391 5.1925 60.221 4.30867 58.7295 4.30867H55.5256V17.6766H58.3981C59.9448 17.6766 60.9391 16.5718 60.9391 14.6384Z" fill="#BC1717"/>
<path d="M47.6632 30.2159C47.6632 34.6903 44.9013 37.8941 40.5926 37.8941C36.2839 37.8941 33.522 34.6903 33.522 30.2159V7.67826C33.522 3.25912 36.2839 0 40.5926 0C44.9013 0 47.6632 3.25912 47.6632 7.67826V30.2159ZM43.7412 30.7683V7.12587C43.7412 5.24773 42.6364 3.81151 40.5926 3.81151C38.5487 3.81151 37.4992 5.24773 37.4992 7.12587V30.7683C37.4992 32.7016 38.5487 34.0826 40.5926 34.0826C42.6364 34.0826 43.7412 32.7016 43.7412 30.7683Z" fill="#BC1717"/>
<path d="M30.8772 15.0803C30.8772 19.9414 28.1153 21.7643 24.6904 21.7643H21.4313V37.3418H17.4541V0.552399H24.6904C28.1153 0.552399 30.8772 2.37529 30.8772 7.23635V15.0803ZM26.8448 15.467V6.96015C26.8448 5.1925 26.1819 4.30867 24.7457 4.30867H21.4313V18.1737H24.7457C26.1819 18.1737 26.8448 17.2347 26.8448 15.467Z" fill="#BC1717"/>
<path d="M14.2559 29.8844C14.2559 35.7398 10.6101 37.8941 7.24049 37.8941C2.93182 37.8941 0.225098 34.9112 0.225098 30.6578V26.4596H4.09185V30.4921C4.09185 32.9226 5.25187 34.5245 7.18525 34.5245C9.39482 34.5245 10.3891 33.0883 10.3891 30.7683C10.3891 27.233 9.06338 24.25 6.19094 20.549C3.59469 17.2347 0.556533 12.3184 0.556533 8.0097C0.556533 3.42484 2.82134 0 7.51668 0C11.4939 0 14.0902 2.98292 14.0902 7.29158V11.6555H10.3339V7.62302C10.3339 5.08201 9.39482 3.59056 7.4062 3.59056C5.47283 3.59056 4.42328 4.80582 4.42328 6.96015C4.42328 10.8821 5.80426 13.3679 9.06338 17.6766C12.2673 21.8195 14.2559 25.6863 14.2559 29.8844Z" fill="#BC1717"/>
<path d="M154.456 48.7369H142.28V51.8244H154.456V54.651H142.28V57.7385H154.456V60.8478H138.366V45.6276H154.456V48.7369Z" fill="#1E160E"/>
<path d="M128.689 53.216C128.689 58.4996 125.797 61.0652 119.122 61.0652C112.425 61.0652 109.555 58.5213 109.555 53.216V45.6276H113.468V53.216C113.468 55.3468 114.056 57.782 119.122 57.782C124.188 57.782 124.775 55.3251 124.775 53.216V45.6276H128.689V53.216Z" fill="#1E160E"/>
<path d="M80.9082 53.216C80.9082 48.1716 83.7783 45.4102 90.4752 45.4102C96.5415 45.4102 99.5855 47.715 99.9769 52.1071H95.9979C95.6283 49.6501 93.7367 48.6934 90.4752 48.6934C86.4962 48.6934 84.822 50.1067 84.822 53.216C84.822 56.347 86.5179 57.782 90.4752 57.782C93.7149 57.782 95.6283 56.8036 95.9979 54.3249H99.9769C99.5855 58.7387 96.5415 61.0652 90.4752 61.0652C83.7783 61.0652 80.9082 58.2821 80.9082 53.216Z" fill="#1E160E"/>
<path d="M52.458 55.6077H56.3718C56.3718 57.2167 57.6764 57.956 62.6338 57.956C66.7432 57.956 67.9826 57.4994 67.9826 56.3035C67.9826 55.0424 67.1129 54.825 62.1772 54.5858C55.5455 54.2814 52.9146 53.2377 52.9146 49.824C52.9146 46.4756 56.3283 45.4102 62.025 45.4102C67.7652 45.4102 71.2441 46.8452 71.2441 50.6068H67.3303C67.3303 48.9326 65.6561 48.5195 61.5901 48.5195C57.7416 48.5195 56.8284 48.8891 56.8284 50.0197C56.8284 51.1939 57.7416 51.4113 62.1772 51.6722C68.1783 51.9984 71.8964 52.3245 71.8964 56.173C71.8964 60.239 68.0478 61.0652 62.4164 61.0652C56.1761 61.0652 52.458 59.9998 52.458 55.6077Z" fill="#1E160E"/>
<path d="M43.2027 48.7369H31.0266V51.8244H43.2027V54.651H31.0266V57.7385H43.2027V60.8478H27.1128V45.6276H43.2027V48.7369Z" fill="#1E160E"/>
<path d="M17.7859 51.2156C17.7859 53.6943 16.5248 55.5208 14.4809 56.3252L17.2858 60.8478H12.6762L10.2193 56.7819H3.91376V60.8478H0V45.6276H11.9587C15.4159 45.6276 17.7859 47.8237 17.7859 51.2156ZM3.91376 48.9108V53.4986H10.8716C12.0457 53.4986 13.8721 53.4986 13.8721 51.2156C13.8721 48.9108 12.0457 48.9108 10.8716 48.9108H3.91376Z" fill="#1E160E"/>
</svg>
